<svg version="1.1" id="Layer_1" xmlns="http://www.w3.org/2000/svg" xmlns:xlink="http://www.w3.org/1999/xlink" x="0px" y="0px"
	 width="100%" viewBox="0 100 672 800" enable-background="new 0 0 672 1024" xml:space="preserve">
<path fill="#000000" opacity="1.000000" stroke="none" 
	d="
M430.056335,195.315170 
	C431.948761,204.746536 432.329193,213.861176 432.317291,223.046341 
	C432.234009,287.378937 432.230896,351.711670 432.260986,416.044342 
	C432.269470,434.114441 427.116241,450.488129 416.654480,465.200623 
	C412.470398,471.084778 407.228851,475.991791 401.846313,480.718323 
	C399.756805,482.553162 398.969299,484.502197 398.971588,487.215637 
	C398.996735,517.047363 398.917755,546.879089 398.900055,576.710815 
	C398.881958,607.194458 399.308105,637.685059 398.793365,668.159973 
	C398.230408,701.490234 397.905182,734.831604 398.622894,768.136780 
	C399.099030,790.231018 393.601349,810.290527 383.648285,829.494019 
	C374.146454,847.826965 361.873413,864.151428 347.173065,878.673218 
	C343.799347,882.005859 340.836700,882.402588 337.341949,878.939209 
	C313.447357,855.259460 295.741699,827.912415 287.306305,795.019714 
	C285.629761,788.482300 285.689392,781.827209 285.689606,775.158264 
	C285.692596,679.992432 285.648987,584.826538 285.758789,489.660858 
	C285.764252,484.947510 284.571686,481.675232 280.855927,478.528778 
	C261.332397,461.995941 252.142212,440.454163 252.059021,415.156677 
	C251.839249,348.324829 251.739334,281.491394 251.945068,214.659668 
	C252.081436,170.366165 286.416718,133.239456 330.441376,128.572784 
	C361.335510,125.297981 387.627045,134.533325 409.327209,156.622849 
	C419.849091,167.333542 426.146790,180.490662 430.056335,195.315170 
M421.674164,331.500061 
	C421.667664,296.181519 421.569305,260.862488 421.759186,225.544998 
	C421.785950,220.568024 420.475586,218.950821 415.342682,218.971649 
	C367.030548,219.167847 318.717468,219.109512 270.404633,219.145477 
	C263.076111,219.150925 263.061340,219.200272 263.057922,226.700424 
	C263.028931,290.173370 263.021942,353.646301 262.963226,417.119232 
	C262.954437,426.596588 264.900330,435.621552 268.626373,444.293945 
	C283.302185,478.451935 322.950958,497.263519 360.855652,488.365631 
	C397.366577,479.794952 423.071228,450.475037 421.846649,411.461945 
	C421.021240,385.165436 421.679535,358.822357 421.674164,331.500061 
M315.528748,827.963989 
	C325.055634,835.664490 336.145935,837.990112 347.953613,836.528503 
	C357.024292,835.405640 366.746277,832.775269 371.424957,824.853455 
	C379.697571,810.846497 385.975342,795.870544 385.938019,778.768799 
	C385.733673,685.124146 385.885590,591.478760 385.886658,497.833618 
	C385.886688,495.903198 386.377136,493.842743 384.777313,491.660126 
	C380.550507,493.268097 376.324799,495.156403 371.925781,496.459503 
	C368.458801,497.486511 367.216919,499.235748 367.317993,502.879059 
	C367.641296,514.533203 367.742371,526.196899 367.723480,537.856567 
	C367.673859,568.512207 367.450226,599.167603 367.415100,629.823181 
	C367.353760,683.310913 367.378693,736.798706 367.378662,790.286499 
	C367.378662,794.287231 367.242371,798.244507 366.311829,802.182556 
	C363.394501,814.527832 354.686157,822.120178 342.939911,822.378784 
	C330.647552,822.649414 321.195801,815.306335 317.833618,802.932251 
	C315.473602,794.246460 316.477295,785.338684 316.441711,776.572693 
	C316.254578,730.430786 316.821442,684.284302 316.419983,638.145569 
	C316.205414,613.488403 316.171661,588.832642 316.152954,564.177551 
	C316.137939,544.356323 315.514923,524.527344 316.515137,504.708405 
	C316.645416,502.126617 317.183197,498.904388 314.228851,497.571045 
	C309.291229,495.342651 304.122223,493.627014 298.965149,491.662964 
	C297.693665,494.837433 298.184418,497.693665 298.183655,500.465668 
	C298.158661,592.611328 298.376587,684.757812 298.013092,776.902039 
	C297.944092,794.391541 304.402191,809.303528 312.052032,824.157959 
	C312.711853,825.439148 313.984955,826.404541 315.528748,827.963989 
M376.245239,145.268860 
	C360.623779,138.014435 344.254974,136.768417 327.446045,139.287155 
	C295.346771,144.097092 268.369415,170.757996 263.519867,202.402710 
	C262.669067,207.954391 263.336182,208.783249 269.074432,208.783600 
	C317.858337,208.786636 366.642273,208.771133 415.426147,208.729706 
	C417.204742,208.728195 419.104919,209.167877 420.949799,207.773697 
	C421.183197,203.043655 420.083221,198.370529 418.778137,193.763351 
	C412.376434,171.164536 397.745819,155.670334 376.245239,145.268860 
M355.665863,669.500061 
	C355.666321,615.509155 355.667389,561.518250 355.664307,507.527344 
	C355.664215,506.028320 355.655548,504.527679 355.587006,503.030701 
	C355.512695,501.407532 354.582794,500.503052 352.989716,500.735229 
	C345.062439,501.890442 337.085510,500.997345 329.244415,501.107849 
	C328.096222,502.679535 328.332611,504.220459 328.332458,505.685364 
	C328.322601,601.169189 328.326385,696.652954 328.325409,792.136780 
	C328.325378,795.867676 329.191742,799.449341 330.690582,802.794128 
	C332.932556,807.797241 337.009613,810.570312 342.493927,810.589783 
	C347.909149,810.609009 351.524475,807.588684 353.546448,802.677002 
	C355.083313,798.943665 355.702393,795.053772 355.696747,790.979675 
	C355.641022,750.819946 355.664429,710.659973 355.665863,669.500061 
M339.988617,863.390625 
	C341.053894,864.389771 342.250854,865.008362 343.510956,863.851807 
	C349.221436,858.611023 353.718842,852.430237 357.766174,845.673157 
	C346.908447,847.993286 336.417542,848.144043 325.755981,845.135742 
	C329.827667,851.646301 334.459686,857.433472 339.988617,863.390625 
z"/>
<path fill="#000000" opacity="1.000000" stroke="none" 
	d="
M396.729248,338.589539 
	C383.970123,362.709015 360.508789,375.306183 334.631073,372.167542 
	C310.134430,369.196350 289.395630,350.511169 283.274445,325.896332 
	C274.541412,290.778442 301.065063,255.267822 337.265808,252.531845 
	C367.405121,250.253983 396.417389,270.978821 401.722900,301.742828 
	C403.891815,314.318970 402.639496,326.631378 396.729248,338.589539 
M305.202271,277.701965 
	C294.038971,290.272552 289.178650,304.643738 292.300354,321.481842 
	C297.758850,350.924286 329.263245,369.793182 357.712097,360.535828 
	C386.690796,351.106079 401.483978,318.733612 388.952271,292.171722 
	C373.355225,259.112518 332.949890,251.846466 305.202271,277.701965 
z"/>
<path fill="#000000" opacity="1.000000" stroke="none" 
	d="
M353.070496,332.015442 
	C349.354980,338.447998 347.526978,345.480865 343.402618,351.045288 
	C340.757904,350.725281 340.287750,348.972839 339.572601,347.535065 
	C333.934631,336.200592 328.277832,324.875000 322.739105,313.492004 
	C320.134308,308.138702 318.831116,302.477753 320.200195,296.522827 
	C323.088654,283.959381 335.383850,276.361572 347.564392,279.527588 
	C360.221222,282.817444 367.271790,295.016632 363.591675,307.894897 
	C361.205353,316.245636 356.835205,323.812866 353.070496,332.015442 
M352.040070,297.789551 
	C352.966583,301.147888 352.025391,304.579437 352.211700,308.886200 
	C355.871613,305.321625 357.117279,301.954041 355.781464,297.767670 
	C354.563507,293.950562 352.842682,290.611938 347.345856,289.786774 
	C349.106415,292.707123 350.430573,294.903625 352.040070,297.789551 
z"/>
</svg>