<svg version="1.1" id="Layer_1" xmlns="http://www.w3.org/2000/svg" xmlns:xlink="http://www.w3.org/1999/xlink" x="0px" y="0px"
	 width="100%" viewBox="200 200 624 624" enable-background="new 0 0 1024 1024" xml:space="preserve">
<path fill="#000000" opacity="1.000000" stroke="none" 
	d="
M417.010620,662.044373 
	C439.592712,635.456360 468.155914,621.090271 502.364563,617.776062 
	C505.409912,617.481079 506.986786,616.405334 507.506592,613.552612 
	C513.861023,578.679993 511.013428,545.166138 491.842468,514.426575 
	C481.924408,498.523529 467.950958,487.714539 449.137573,483.988342 
	C447.713898,483.706329 446.303192,482.862061 444.817352,484.172699 
	C444.841614,486.915375 446.517944,489.138794 447.626526,491.464386 
	C460.775299,519.047363 453.671844,543.514893 434.746002,564.051636 
	C425.398834,574.194397 414.495392,582.346680 402.653748,589.300415 
	C396.820435,592.725952 393.919586,592.084595 390.803589,586.356934 
	C381.231415,568.761536 374.218872,550.458191 374.593353,529.927002 
	C375.036926,505.605927 389.287842,485.532166 411.822021,476.213074 
	C443.508148,463.109100 479.996674,475.087738 500.727692,506.224701 
	C503.661621,510.631256 506.362305,515.193115 509.366669,519.995972 
	C512.286621,515.944763 514.813904,512.077576 517.697937,508.497772 
	C532.023010,490.717224 550.518860,480.051636 573.378784,479.096130 
	C603.938599,477.818787 642.158203,498.767670 639.149902,544.124329 
	C637.926392,562.570618 630.875793,579.331604 621.912048,595.297546 
	C620.128113,598.475037 616.901611,599.940369 613.805725,598.087830 
	C591.276062,584.606934 570.946167,568.916626 562.731262,542.373413 
	C558.158325,527.597778 561.062866,513.408203 567.341064,499.685059 
	C568.434204,497.295624 569.420776,494.857452 570.561340,492.197632 
	C567.179138,490.667267 564.341248,492.207764 561.684082,492.984772 
	C541.085327,499.008453 526.560791,512.035645 517.849792,531.616272 
	C516.376709,534.927368 516.119080,538.107117 517.095337,541.758240 
	C523.110962,564.254517 524.043274,587.042969 520.511047,610.051208 
	C520.168945,612.279907 519.358032,614.589111 520.332397,617.263977 
	C530.642517,618.280212 540.919434,620.000793 550.899780,623.266357 
	C574.674500,631.045288 594.433167,644.593994 610.069458,664.127625 
	C612.057251,666.610901 613.847961,668.681335 617.689148,668.797974 
	C647.059448,669.689941 668.349365,684.077637 683.109253,708.879150 
	C688.104431,717.272766 691.104675,726.447510 692.302551,736.139038 
	C692.737000,739.653870 694.304626,741.034973 697.829651,740.942749 
	C704.491150,740.768494 711.161072,740.793457 717.825378,740.886658 
	C723.407471,740.964661 726.392700,743.323730 726.255493,747.251648 
	C726.118774,751.165039 723.153687,753.293152 717.548401,753.293701 
	C580.899048,753.306519 444.249664,753.306396 307.600311,753.295105 
	C302.065002,753.294678 299.053009,751.075256 298.996857,747.140442 
	C298.942383,743.322266 302.149261,740.880432 307.558105,740.815125 
	C314.056366,740.736694 320.565063,740.575623 327.052246,740.850708 
	C331.358948,741.033325 333.072693,739.624390 333.886078,735.168640 
	C339.362610,705.168823 356.041260,684.016235 384.565857,672.642578 
	C391.255920,669.974976 398.320831,668.118713 405.521820,668.802795 
	C411.242401,669.346313 414.086426,666.298401 417.010620,662.044373 
M406.218903,572.659058 
	C411.531433,569.191040 416.512482,565.268860 421.072144,560.887146 
	C434.538086,547.946716 444.113220,533.218689 441.670258,513.375000 
	C440.568390,504.424377 437.488434,496.196899 432.620636,488.525574 
	C430.353302,489.874329 429.740479,491.674255 428.827698,493.207489 
	C421.868408,504.897491 417.202789,517.474304 414.448242,530.777710 
	C413.257080,536.530396 410.934296,538.859924 407.054535,538.177002 
	C403.139313,537.487976 401.810638,534.553528 402.745331,528.630859 
	C402.848816,527.975159 403.015533,527.329529 403.146484,526.677917 
	C405.556061,514.686462 409.769379,503.357483 415.484558,492.551636 
	C416.241730,491.119995 418.046875,489.743561 416.861115,487.759216 
	C415.635284,487.268677 414.755371,487.889374 413.892303,488.322449 
	C396.650269,496.973755 386.888489,510.734100 386.430176,530.201782 
	C386.095551,544.417725 390.202545,557.782776 396.217834,570.561218 
	C399.421051,577.365906 399.487457,577.334656 406.218903,572.659058 
M605.126221,578.352905 
	C606.610779,579.426392 608.177063,580.404419 609.563477,581.592468 
	C612.850769,584.409424 614.783142,583.674438 616.634705,579.786926 
	C619.798828,573.143555 622.665955,566.398315 624.436340,559.278442 
	C627.955322,545.126953 629.210510,530.942139 622.361084,517.340149 
	C617.161926,507.015137 608.862244,500.033295 597.855103,495.670532 
	C597.690796,498.261017 598.960815,499.705017 599.712280,501.307434 
	C605.393005,513.420349 609.949524,525.871643 611.457336,539.274170 
	C611.900146,543.210266 610.508789,545.894287 606.336975,546.316040 
	C602.152954,546.739014 600.284729,544.199158 599.747986,540.429138 
	C598.473999,531.480652 595.945007,522.859558 592.684021,514.474609 
	C590.246826,508.208099 587.305298,502.147217 582.939880,495.604370 
	C575.081299,509.661957 569.774841,522.955322 574.018677,538.300598 
	C578.817566,555.652832 590.953247,567.352417 605.126221,578.352905 
z"/>
<path fill="#000000" opacity="1.000000" stroke="none" 
	d="
M663.512146,392.497070 
	C668.736694,397.842987 668.752930,397.858978 663.871094,402.816650 
	C658.844543,407.921265 653.611572,412.835480 648.799133,418.132996 
	C645.918274,421.304169 643.954163,420.925171 641.144653,418.082794 
	C628.847961,405.641968 616.387695,393.362579 603.975098,381.036469 
	C603.157166,380.224335 602.241150,379.511078 600.745361,378.206268 
	C586.396118,392.533173 572.094788,406.812256 557.577881,421.306549 
	C549.339111,414.359253 542.546753,406.827148 535.570862,399.491394 
	C533.288391,397.091156 535.552612,395.583710 537.018738,394.108063 
	C548.173401,382.880707 559.313354,371.637817 570.582397,360.525970 
	C572.571777,358.564423 575.142700,357.192657 577.724609,355.349060 
	C572.313293,349.703186 568.363586,345.463043 564.284851,341.350983 
	C555.133301,332.124634 545.996216,322.881012 536.676636,313.826202 
	C534.127075,311.349121 534.203308,309.702209 536.654907,307.302307 
	C542.367371,301.710327 548.008972,296.031097 553.401550,290.133270 
	C556.187805,287.085907 558.067810,287.016022 561.026978,290.032410 
	C573.042969,302.280914 585.292725,314.300110 597.462341,326.397797 
	C598.397156,327.327026 599.378845,328.209137 600.295532,329.072510 
	C602.640076,328.641663 603.719910,326.806519 605.101257,325.456757 
	C617.254822,313.581116 629.424744,301.720490 641.425964,289.691895 
	C643.982849,287.129242 645.689880,286.755402 648.311096,289.547272 
	C653.782288,295.374756 659.459534,301.015961 665.205200,306.575470 
	C667.920898,309.203186 668.088806,311.083557 665.210999,313.929199 
	C653.247803,325.758759 641.624451,337.932220 629.651733,349.751862 
	C626.480103,352.882904 626.126343,354.862762 629.493164,358.163391 
	C640.912354,369.358002 652.029663,380.860413 663.512146,392.497070 
z"/>
<path fill="#000000" opacity="1.000000" stroke="none" 
	d="
M448.180115,354.718536 
	C443.819672,367.799500 433.834381,375.311615 421.839722,374.870758 
	C409.245605,374.407867 399.136292,366.266296 396.251648,354.182587 
	C395.062378,349.200806 395.541687,344.267212 397.099579,339.431824 
	C401.576874,325.535309 408.723938,312.972107 416.682831,300.855377 
	C419.558350,296.477631 424.649109,296.118439 427.478271,300.231598 
	C436.552521,313.424133 444.578522,327.180023 448.427155,342.970428 
	C449.361328,346.803070 449.160278,350.546448 448.180115,354.718536 
z"/>
<path fill="#000000" opacity="1.000000" stroke="none" 
	d="
M510.247131,421.307648 
	C510.335632,434.783936 504.572418,444.038605 493.775421,448.244690 
	C483.680847,452.177155 471.795990,449.521118 464.533264,441.385864 
	C457.889038,433.943542 456.281250,425.166260 459.207184,415.765991 
	C463.500580,401.972473 470.812958,389.637512 478.736694,377.694763 
	C481.577606,373.412933 486.526917,373.515198 489.535889,377.980713 
	C498.481140,391.256104 506.766357,404.910675 510.247131,421.307648 
z"/>
<path fill="#000000" opacity="1.000000" stroke="none" 
	d="
M341.663330,403.786926 
	C345.791565,394.812714 350.499298,386.587402 355.749664,378.687042 
	C359.306641,373.334747 364.191223,373.195251 367.757751,378.478058 
	C375.499695,389.945618 382.411133,401.901764 386.444824,415.240143 
	C391.421326,431.696106 382.422974,446.455750 365.708893,449.647003 
	C348.310455,452.968933 332.130219,435.961365 336.239960,418.632141 
	C337.432526,413.603424 339.280121,408.795410 341.663330,403.786926 
z"/>
</svg>