<svg version="1.1" id="Layer_1" xmlns="http://www.w3.org/2000/svg" xmlns:xlink="http://www.w3.org/1999/xlink" x="0px" y="0px"
	 width="100%" viewBox="200 200 625 625" enable-background="new 0 0 1024 1024" xml:space="preserve">
<path fill="#000000" opacity="1.000000" stroke="none" 
	d="
M734.913879,723.066528 
	C586.266296,723.049805 438.105133,723.031006 289.943939,723.009644 
	C288.444244,723.009460 286.939331,723.050781 285.445801,722.945557 
	C280.420105,722.591431 277.662201,719.962280 277.699768,715.641602 
	C277.735931,711.484802 280.234406,709.057251 285.346191,708.929138 
	C293.341034,708.728821 301.346863,708.715881 309.342194,708.890442 
	C313.445648,708.980042 315.280457,708.083374 315.969574,703.301514 
	C321.118561,667.572876 346.996796,639.352112 381.401489,631.264343 
	C386.450012,630.077576 391.585999,629.137329 396.723450,629.503357 
	C400.565826,629.777039 402.818481,628.455078 405.063751,625.500732 
	C425.678253,598.376465 452.901855,581.595520 486.092865,574.411743 
	C491.607330,573.218262 497.243378,572.524597 502.854553,571.866760 
	C505.525574,571.553772 506.813995,570.534058 506.642242,567.794800 
	C505.728119,553.217957 501.198059,539.789001 493.839264,527.248535 
	C492.359497,524.726807 490.316437,525.570007 488.136963,526.058350 
	C472.737549,529.508362 457.292328,530.821594 441.609406,527.677002 
	C420.223999,523.389099 403.697449,511.890839 391.305878,494.265900 
	C378.278320,475.736298 371.596130,454.771454 368.573334,432.534515 
	C367.767426,426.605988 369.513763,424.114044 375.079559,423.490784 
	C400.258606,420.671295 425.209045,420.441986 449.515320,429.456726 
	C481.516083,441.325226 500.637604,467.211334 502.485321,501.266174 
	C502.754456,506.226807 501.525391,511.498444 503.190948,516.051086 
	C505.209351,521.568237 508.524567,526.684814 512.564514,531.968262 
	C515.862244,522.845337 519.819885,514.628845 524.032532,506.523010 
	C525.381348,503.927704 524.635132,500.931915 524.564941,498.129242 
	C523.958435,473.914948 531.315125,452.811218 549.316162,436.137634 
	C564.643738,421.940369 583.518066,415.175232 603.726624,411.810547 
	C619.608521,409.166260 635.583069,409.773956 651.514465,411.623566 
	C657.462158,412.314087 659.447083,415.230225 658.672424,421.159668 
	C656.011230,441.529358 650.391846,460.948700 639.536072,478.524597 
	C620.382690,509.534637 592.284180,522.621826 556.237122,519.530273 
	C550.078003,519.002014 544.044800,517.921753 538.073547,516.442139 
	C535.277527,515.749329 533.494446,516.164795 532.143372,519.100891 
	C525.253418,534.073364 520.621338,549.557251 520.178711,566.178772 
	C520.074463,570.094055 521.168274,571.826538 525.294434,572.195435 
	C546.007874,574.047424 565.326172,580.332397 583.231934,590.965210 
	C598.182434,599.843140 610.928650,611.151001 621.326172,625.092773 
	C623.128235,627.509155 624.738281,629.701477 628.434387,629.661072 
	C666.269409,629.247803 702.412292,658.842285 710.298584,700.051331 
	C711.989929,708.889648 711.939575,708.904724 720.741577,708.912964 
	C727.074646,708.918945 733.408813,708.834106 739.740479,708.926147 
	C745.618652,709.011658 748.962646,711.606445 748.989563,715.858765 
	C749.016418,720.118042 745.651855,722.780762 739.899658,723.015747 
	C738.401733,723.076965 736.900146,723.050476 734.913879,723.066528 
M603.973389,496.457642 
	C629.600098,479.455963 638.525940,453.211090 644.806213,424.697235 
	C619.240479,422.603424 595.317749,423.774628 573.231934,435.732422 
	C552.361938,447.032074 540.091370,464.187500 538.717529,488.923035 
	C544.663696,483.246338 549.991760,477.769714 555.731812,472.765594 
	C565.935486,463.870117 577.171631,456.426697 589.199585,450.194519 
	C591.947754,448.770630 594.621582,448.637268 597.143066,450.642853 
	C599.555054,452.561279 599.728699,455.232635 599.183777,457.931000 
	C598.624207,460.701813 596.148254,461.787659 593.958435,462.930359 
	C583.128052,468.581757 573.152405,475.501434 563.866211,483.390289 
	C556.940186,489.274078 550.679382,495.838806 543.693726,503.684357 
	C565.395691,508.200317 584.890381,507.260437 603.973389,496.457642 
M439.987762,513.524780 
	C454.098816,516.848145 468.122345,516.658569 482.090759,513.230835 
	C482.017059,510.594055 480.580170,509.560822 479.484070,508.361145 
	C468.722565,496.582520 456.481110,486.647919 442.520477,478.881409 
	C438.445923,476.614685 434.216827,474.607269 430.254639,472.163147 
	C427.189728,470.272461 426.202148,467.286743 427.871429,463.928497 
	C429.485107,460.682098 432.133514,459.334229 435.734924,460.607544 
	C437.142883,461.105347 438.540344,461.670807 439.868713,462.349976 
	C456.303101,470.752686 471.292786,481.153259 484.199219,494.438354 
	C485.384094,495.658020 486.329407,497.281830 488.607361,497.843353 
	C485.603333,471.379456 471.957062,453.384888 447.894165,443.358704 
	C428.666107,435.347015 408.555298,434.216370 388.040710,436.140808 
	C383.498779,436.566833 382.742798,438.242249 383.685120,442.149384 
	C386.071838,452.045441 388.988190,461.765015 393.357117,470.973602 
	C402.956818,491.207367 416.867493,506.835999 439.987762,513.524780 
z"/>
<path fill="#000000" opacity="1.000000" stroke="none" 
	d="
M547.241089,358.964874 
	C553.107971,376.030365 551.521667,391.369659 537.916382,403.701965 
	C527.201416,413.414398 514.433472,416.098816 500.766327,410.928772 
	C487.060364,405.744019 479.062653,395.505219 476.642303,380.987579 
	C474.578217,368.606445 479.577698,357.812195 484.356934,347.011932 
	C490.297821,333.586365 497.637177,320.926086 505.870697,308.779938 
	C510.471161,301.993317 516.401733,301.935364 520.886536,308.784393 
	C531.208557,324.547913 540.387390,340.925507 547.241089,358.964874 
z"/>
<path fill="#000000" opacity="1.000000" stroke="none" 
	d="
M626.996704,388.309601 
	C608.703125,387.500885 597.752502,372.549927 602.580811,355.394867 
	C606.332275,342.066223 613.841248,330.582672 621.142029,319.063049 
	C624.039429,314.491180 629.229126,314.411530 632.359680,318.916962 
	C640.446838,330.555786 648.035034,342.577850 651.432617,356.557007 
	C655.467529,373.158569 644.540161,387.391205 626.996704,388.309601 
z"/>
<path fill="#000000" opacity="1.000000" stroke="none" 
	d="
M374.734680,359.353424 
	C378.207214,344.029236 386.040344,331.264923 394.382416,318.816132 
	C397.269958,314.507019 402.365234,314.541199 405.248474,318.846466 
	C413.305573,330.877380 421.079041,343.144684 424.648254,357.417389 
	C428.062164,371.069061 419.566010,384.198303 405.451416,387.567963 
	C391.884705,390.806824 378.315277,382.616302 375.100739,369.245178 
	C374.350586,366.124847 374.700562,362.956299 374.734680,359.353424 
z"/>
</svg>