<svg version="1.1" id="Layer_1" xmlns="http://www.w3.org/2000/svg" xmlns:xlink="http://www.w3.org/1999/xlink" x="0px" y="0px"
	 width="100%" viewBox="0 0 1024 864" enable-background="new 0 0 1024 864" xml:space="preserve">
<path fill="#000000" opacity="1.000000" stroke="none" 
	d="
M202.836853,294.000000 
	C202.832214,269.167236 202.811447,244.834488 202.830139,220.501755 
	C202.838211,209.998337 204.364853,207.867371 214.581940,205.079788 
	C231.923309,200.348450 249.278427,195.657104 266.706360,191.260483 
	C271.280518,190.106537 273.085358,188.008301 272.732941,183.307953 
	C272.385132,178.668808 273.013916,173.954956 272.645233,169.319122 
	C271.357361,153.123245 280.352203,144.021225 293.783997,137.708710 
	C307.878052,131.084961 322.946045,128.077682 338.233826,127.036461 
	C362.299347,125.397423 386.205750,126.654205 409.070831,135.655609 
	C415.788818,138.300308 422.124359,141.634445 427.431030,146.576279 
	C429.177856,148.203003 430.683044,148.262283 432.789490,147.695969 
	C453.688568,142.077179 474.596008,136.487335 495.543488,131.052811 
	C498.806213,130.206345 499.772369,128.500488 499.672394,125.373062 
	C499.523376,120.712334 499.740265,116.041229 499.703094,111.375328 
	C499.623566,101.397385 503.827240,93.766479 512.057861,88.204613 
	C523.206238,80.671097 535.736816,76.815544 548.804871,74.622444 
	C573.890015,70.412628 598.901672,70.728218 623.685242,76.861877 
	C633.122742,79.197548 641.964172,82.979103 650.100220,88.425018 
	C658.087891,93.771614 662.089722,101.126129 662.158691,110.679062 
	C662.205566,117.178642 662.492798,123.692574 662.156860,130.173355 
	C661.920654,134.729050 663.646851,136.067154 667.929932,135.685593 
	C685.314270,134.136917 702.489441,135.722717 719.437805,139.713852 
	C729.881226,142.173141 739.790100,145.859192 748.553711,152.383804 
	C754.895691,157.105469 758.476562,163.115417 758.698181,170.935699 
	C758.775574,173.663849 759.818359,175.152832 762.036621,176.472565 
	C771.911560,182.347534 779.133240,190.279007 780.889404,202.111404 
	C781.324951,205.045670 783.273071,206.221893 785.549683,207.437027 
	C801.863220,216.144714 817.988281,225.223923 834.506714,233.521179 
	C842.074463,237.322464 845.059631,242.486969 845.054626,250.827835 
	C844.965027,399.323914 845.050476,547.820129 845.088623,696.316284 
	C845.091064,705.730896 843.295105,708.203979 834.046204,710.750122 
	C782.675537,724.891907 731.276855,738.932007 679.906494,753.074951 
	C603.987244,773.976562 528.068420,794.880066 452.200073,815.965210 
	C445.488800,817.830383 439.759949,817.407043 433.583557,814.052917 
	C359.208435,773.662537 284.751251,733.423096 210.272400,693.224243 
	C205.147751,690.458374 202.757385,686.592041 202.789062,680.800415 
	C202.893036,661.801392 202.694443,642.799561 202.952789,623.803467 
	C203.013992,619.303528 201.631424,616.562805 197.547409,614.865601 
	C195.408676,613.976868 193.472473,612.606812 191.426178,611.488220 
	C187.514374,609.349609 185.805298,605.968445 185.806686,601.615051 
	C185.818130,565.782776 185.833038,529.950500 185.845688,494.118256 
	C185.847534,488.893829 188.108353,485.027588 193.073563,483.264740 
	C200.908218,480.483063 203.100693,475.422760 203.036331,466.991272 
	C202.597519,409.497040 202.824539,351.997681 202.836853,294.000000 
M643.558777,301.233276 
	C609.001099,309.866547 574.455383,318.547943 539.882019,327.117828 
	C512.253113,333.966339 484.602417,340.728546 456.929504,347.396637 
	C452.964264,348.352081 451.026306,349.853516 451.294189,354.414886 
	C451.840454,363.716858 451.873840,373.056610 451.885895,382.381134 
	C452.061310,518.045532 452.194519,653.710022 452.376343,789.374390 
	C452.379364,791.629272 451.725952,794.022278 453.396423,796.644775 
	C455.482391,796.192200 457.733063,795.815735 459.921387,795.212708 
	C506.461548,782.388733 552.993896,769.536377 599.529358,756.695557 
	C672.708252,736.502869 745.888977,716.316711 819.067261,696.121948 
	C826.961121,693.943420 826.955261,693.925354 826.955322,685.733887 
	C826.955933,545.902649 826.959045,406.071411 826.953369,266.240173 
	C826.952881,254.762650 827.919617,255.541702 816.922607,258.278015 
	C759.416260,272.586945 701.887634,286.806641 643.558777,301.233276 
M409.663605,780.760620 
	C417.653412,785.046326 425.643219,789.332031 434.698029,794.189026 
	C434.698029,789.361145 434.703766,785.752930 434.697144,782.144653 
	C434.547791,700.819153 434.806183,619.493958 434.164551,538.167908 
	C433.679352,476.673309 433.926727,415.172760 433.892822,353.674866 
	C433.890717,349.863708 433.631897,346.851105 429.463013,344.681305 
	C416.168335,337.761932 403.148407,330.315125 390.014679,323.085999 
	C336.163483,293.444824 282.313202,263.802002 228.442566,234.196198 
	C226.318619,233.028946 224.302063,231.477203 221.530426,231.092133 
	C221.530426,309.829224 221.530426,388.267548 221.530426,467.606323 
	C226.120010,465.018005 230.066788,463.204071 233.551254,460.737122 
	C239.836029,456.287598 245.422241,456.949829 251.972748,460.764740 
	C274.718018,474.011322 297.769958,486.731049 320.696625,499.666534 
	C354.214935,518.578003 387.683289,537.578857 421.280792,556.348511 
	C427.040619,559.566406 429.490326,563.695251 429.453705,570.362488 
	C429.241455,609.026855 429.354553,647.692993 429.337402,686.358521 
	C429.334229,693.535339 427.336731,696.348389 420.538452,698.355164 
	C405.847931,702.691772 391.097534,706.826965 376.429169,711.235962 
	C372.246185,712.493286 368.625549,711.824646 364.973694,709.747314 
	C324.135651,686.516968 283.284393,663.309875 242.429184,640.109741 
	C235.532074,636.193176 228.599289,632.339417 221.091690,628.124695 
	C221.091690,644.618103 221.099106,660.242004 221.085007,675.865906 
	C221.082397,678.771362 223.279678,679.748657 225.330841,680.862488 
	C233.822067,685.473633 242.319534,690.073364 250.815125,694.676453 
	C303.550873,723.250244 356.286743,751.823730 409.663605,780.760620 
M287.835144,555.695984 
	C260.059357,539.859375 232.283539,524.022705 203.823105,507.795746 
	C203.599945,510.532715 203.402878,511.841736 203.399750,513.151245 
	C203.335556,539.952087 204.186279,566.754272 203.352341,593.551941 
	C203.235901,597.294006 205.385635,598.834961 208.107300,600.373596 
	C253.923233,626.273132 299.721893,652.203247 345.532684,678.111877 
	C350.798767,681.090210 356.114258,683.981140 361.288391,686.846985 
	C363.145111,684.576660 362.628571,682.670532 362.631195,680.904114 
	C362.668884,655.247131 362.560486,629.589355 362.767578,603.933960 
	C362.800781,599.819397 361.342102,597.588501 357.922272,595.656250 
	C334.721680,582.547363 311.604248,569.291138 287.835144,555.695984 
M311.556030,514.971375 
	C290.080322,502.863373 268.611969,490.742218 247.114471,478.673065 
	C245.441742,477.733948 243.731140,476.128967 241.580887,477.291168 
	C232.399277,482.253906 223.256561,487.288605 213.371643,492.695251 
	C222.870956,498.126923 231.636108,503.139221 240.401642,508.150818 
	C282.915192,532.457764 325.437103,556.750122 367.919342,581.111633 
	C370.211853,582.426270 372.111633,582.529236 374.409760,581.247864 
	C382.847168,576.543579 391.357117,571.969421 399.828522,567.325867 
	C400.394257,567.015808 400.951691,566.583069 400.595978,565.335144 
	C371.311920,548.774719 341.750702,532.057495 311.556030,514.971375 
M531.653015,198.507172 
	C531.208984,198.518753 530.556702,198.273407 530.805725,199.160370 
	C530.846558,199.305664 530.990906,199.446548 531.122986,199.538055 
	C537.406189,203.890182 543.328308,208.725235 544.154297,216.919373 
	C544.686096,222.195419 546.876221,225.474075 551.306641,228.441910 
	C561.454285,235.239578 567.425232,244.505234 566.340393,257.469208 
	C565.828186,263.590607 566.148621,269.791351 566.262634,275.952972 
	C566.390320,282.851074 563.785461,288.601074 559.248291,293.590973 
	C555.057617,298.199799 550.005066,301.668488 544.565857,304.653168 
	C538.418762,308.026398 531.761780,310.114990 525.239441,312.524017 
	C580.035706,298.918274 634.831970,285.312531 689.628235,271.706757 
	C672.671692,271.401581 655.926636,270.472534 639.367065,267.356659 
	C623.576599,264.385498 608.199951,260.155884 594.576416,251.175842 
	C584.120972,244.284058 577.918030,235.106781 578.886902,221.983444 
	C579.192688,217.842346 578.787109,213.653381 578.941772,209.495041 
	C579.071838,205.997757 577.942017,204.305069 574.126343,204.320099 
	C559.903076,204.376144 545.983582,201.994492 531.653015,198.507172 
M394.632263,204.124939 
	C401.108948,198.697708 408.557434,195.047424 416.509430,192.410965 
	C420.664856,191.033264 421.987579,188.559616 420.484863,184.430084 
	C376.244232,203.280228 332.009644,202.430664 287.865479,184.775101 
	C286.681549,187.338806 287.172180,189.534058 287.060730,191.666931 
	C286.489044,202.609146 288.191071,213.637573 285.886047,224.507202 
	C285.382568,226.881332 286.982819,227.869293 288.386810,228.929337 
	C292.942871,232.369247 298.097565,234.704208 303.430359,236.640549 
	C322.887299,243.705368 343.128418,244.282364 363.491333,243.864609 
	C365.891479,243.815369 367.584961,242.890182 368.717010,240.733414 
	C371.995972,234.486389 377.169647,230.036194 383.062744,226.476151 
	C385.971527,224.718918 387.441925,222.442978 387.479828,219.234558 
	C387.549194,213.356873 390.206726,208.722672 394.632263,204.124939 
M616.709351,140.324310 
	C581.607605,146.051422 547.163147,145.290421 514.426880,129.568192 
	C512.889587,131.535233 513.435974,133.443451 513.415405,135.207275 
	C513.298828,145.201096 514.391052,155.367996 512.881653,165.137589 
	C511.613556,173.344910 515.487183,176.273880 521.395142,178.981689 
	C522.907898,179.675064 524.418701,180.375595 525.953247,181.018219 
	C542.058105,187.762436 559.053711,189.432922 576.274963,190.006210 
	C580.575195,190.149353 583.901672,189.247681 586.686218,185.624329 
	C589.636536,181.785294 593.696899,178.993942 597.864075,176.514526 
	C599.925354,175.288101 600.977966,173.750259 600.988831,171.294724 
	C601.029602,162.049530 606.104065,155.754562 613.294739,150.774780 
	C622.090698,144.683304 632.124695,141.702026 642.362366,139.210037 
	C648.388550,137.743179 648.981323,136.498657 646.876404,129.446808 
	C637.596008,134.534821 627.822876,138.103531 616.709351,140.324310 
M541.783630,91.376625 
	C533.638733,93.788132 525.434143,96.073967 518.823975,101.845184 
	C513.193237,106.761246 513.247314,109.297523 519.127930,114.127953 
	C525.064880,119.004570 532.160583,121.451302 539.411194,123.397049 
	C565.610413,130.427780 591.957581,130.864365 618.341797,124.546906 
	C627.418274,122.373604 636.421692,119.761536 643.692688,113.421494 
	C647.964417,109.696686 647.952087,106.343163 643.793396,102.486603 
	C640.326538,99.271690 636.242554,97.044212 631.837769,95.397156 
	C602.534668,84.439865 572.749268,83.703941 541.783630,91.376625 
M657.081848,189.433594 
	C673.863098,191.499817 690.621155,191.406219 707.322510,188.689606 
	C717.730957,186.996567 727.786499,184.150696 737.048462,178.909836 
	C747.249329,173.137680 747.389709,166.547882 737.304138,160.489105 
	C730.688232,156.514664 723.519226,153.949295 715.972656,152.258530 
	C697.275330,148.069504 678.410645,146.974716 659.433716,149.407425 
	C646.531372,151.061432 633.805908,153.640121 622.367432,160.435303 
	C611.921143,166.641022 611.776733,172.239105 622.143433,178.639297 
	C632.574829,185.079437 644.293274,187.529007 657.081848,189.433594 
M520.666565,208.797272 
	C517.300964,207.362793 514.020081,205.669968 510.556274,204.535141 
	C485.221802,196.234940 459.460358,196.092270 433.585175,201.249649 
	C423.793274,203.201324 414.109985,205.991928 405.862946,212.060959 
	C399.280457,216.905029 399.352783,221.569138 405.877899,226.455536 
	C412.827789,231.660065 420.938660,234.315125 429.152679,236.475815 
	C448.742065,241.628769 468.676208,241.843262 488.615509,239.308212 
	C500.018738,237.858429 511.254791,235.224350 521.487915,229.634140 
	C533.645081,222.992828 533.808167,216.831406 522.184631,209.634338 
	C521.901855,209.459229 521.600952,209.313263 520.666565,208.797272 
M398.522522,177.015778 
	C404.605560,175.133133 410.451080,172.696533 415.475372,168.722946 
	C421.104828,164.270721 421.139099,160.769028 415.620483,156.256683 
	C410.385345,151.976196 404.186798,149.393753 397.823212,147.433899 
	C373.455994,139.929306 348.678314,139.478714 323.754303,143.947449 
	C312.749054,145.920624 301.934204,148.780777 292.773560,155.686752 
	C286.432800,160.466873 286.594849,164.276749 293.022400,169.047073 
	C298.039917,172.770905 303.653412,175.235474 309.625702,176.924988 
	C338.971771,185.226822 368.353577,185.193970 398.522522,177.015778 
M398.521515,685.902832 
	C400.604004,685.320435 402.653137,684.483459 404.775513,684.205383 
	C410.250183,683.488220 411.836334,680.651611 411.779816,675.129211 
	C411.483337,646.171387 411.643097,617.208923 411.584808,588.248169 
	C411.581024,586.360107 412.287903,584.229492 410.064636,582.176575 
	C401.645355,586.819153 393.141266,591.628967 384.512848,596.204285 
	C381.261658,597.928284 380.230499,600.292969 380.301147,603.858704 
	C380.489075,613.342102 380.354370,622.831726 380.353912,632.318909 
	C380.353088,650.294617 380.411285,668.270630 380.314880,686.245789 
	C380.293854,690.164490 381.499939,691.402283 385.376404,689.984009 
	C389.428864,688.501343 393.627716,687.418701 398.521515,685.902832 
M444.303619,295.351288 
	C421.322876,293.025970 399.039062,288.352051 378.725586,274.780853 
	C378.298981,279.791565 380.143311,282.618469 382.630707,285.126892 
	C389.388489,291.941833 397.828918,295.981873 406.795776,298.705627 
	C445.055664,310.327698 483.491394,310.509399 521.982422,299.768188 
	C531.714539,297.052338 540.781616,292.919342 548.343445,286.059937 
	C551.141479,283.521820 553.691467,280.598755 552.214783,275.943634 
	C518.697510,295.276428 482.469696,298.198120 444.303619,295.351288 
M595.656372,227.163162 
	C594.820557,226.698059 594.188721,225.731506 592.665771,226.176956 
	C591.657104,230.384827 593.975647,233.323654 596.808289,235.955917 
	C606.930298,245.361771 619.611694,249.590530 632.592834,252.690277 
	C655.794861,258.230591 679.413940,258.832092 703.063049,256.657776 
	C720.731689,255.033325 737.911926,251.193558 753.722778,242.621414 
	C758.007996,240.298096 761.938721,237.578400 764.947754,233.658371 
	C766.638489,231.455765 767.454163,229.164703 766.345459,226.065460 
	C755.789612,232.113861 745.215820,237.325623 733.691162,240.217377 
	C706.758301,246.975296 679.483643,248.600845 651.933838,245.228195 
	C632.273193,242.821365 613.306580,238.119949 595.656372,227.163162 
M703.201660,216.621521 
	C706.788757,215.944229 710.411377,215.414230 713.956238,214.561386 
	C723.677002,212.222717 733.455505,209.921509 741.347961,203.204666 
	C745.418335,199.740616 746.018555,196.128326 743.780212,191.081177 
	C700.795959,208.870819 657.871521,208.580536 614.794617,190.814270 
	C613.373718,196.303726 614.240967,200.670135 619.035583,204.094925 
	C623.156433,207.038467 627.558472,209.257401 632.312988,210.881821 
	C655.163025,218.688766 678.604431,219.313400 703.201660,216.621521 
M494.404510,159.272949 
	C495.351776,155.584839 500.128784,153.558792 499.223389,149.133713 
	C497.525726,148.003296 496.321106,149.009369 495.108948,149.331757 
	C480.317474,153.265823 465.554840,157.308533 450.755859,161.213623 
	C434.764740,165.433273 434.854095,165.380859 435.189056,182.082367 
	C435.271393,186.186218 436.765137,187.312271 440.652924,186.719742 
	C448.888184,185.464615 457.206146,184.867126 465.531494,184.931442 
	C480.602478,185.047821 495.566467,186.295578 511.086639,190.730118 
	C494.129089,178.927032 490.463409,172.085556 494.404510,159.272949 
M452.418365,266.946075 
	C465.729645,268.596008 478.990448,267.590515 492.184998,265.832092 
	C503.970642,264.261414 515.367615,261.154297 525.450562,254.545425 
	C531.599121,250.515366 532.604675,247.370636 530.931030,240.321442 
	C487.818329,258.677368 444.673370,258.589264 401.511810,240.401718 
	C400.004639,249.022919 401.186432,251.641144 408.442627,255.636383 
	C421.835999,263.010712 436.348694,266.160828 452.418365,266.946075 
M369.751068,289.913727 
	C366.759521,285.691498 365.427979,281.001434 365.547089,275.824005 
	C365.646545,271.498840 365.425507,267.165497 365.555847,262.842072 
	C365.659790,259.393341 364.260712,258.231842 360.805298,258.335571 
	C337.095581,259.047058 313.806274,256.728668 291.267487,248.475327 
	C317.655548,263.034302 344.043610,277.593262 371.197815,292.574921 
	C370.523315,291.241821 370.303345,290.807129 369.751068,289.913727 
M457.299774,283.067230 
	C466.633545,284.425812 475.968018,283.275574 485.223785,282.524841 
	C502.550446,281.119476 519.522705,277.741669 535.362488,270.143494 
	C540.793396,267.538361 545.896057,264.354065 549.717224,259.535950 
	C554.914490,252.982651 552.998901,244.942627 545.002625,241.353928 
	C545.189636,249.673523 543.135498,256.938202 536.502747,262.389282 
	C529.545776,268.106873 521.659973,271.857544 513.078735,274.292938 
	C490.163971,280.796265 466.816315,281.918854 443.306122,279.153015 
	C429.403687,277.517487 415.767242,274.602386 403.191437,267.791016 
	C393.196594,262.377563 386.538544,255.167221 386.896973,243.099045 
	C386.914001,242.526306 386.551971,241.942307 386.340942,241.283890 
	C377.609222,247.056351 376.657806,253.575760 383.308899,260.750214 
	C386.161499,263.827332 389.453766,266.322540 393.185730,268.294922 
	C412.955658,278.743500 434.360687,282.118866 457.299774,283.067230 
M706.596375,229.296112 
	C694.189697,231.123322 681.700623,231.507904 669.210999,230.874939 
	C651.977539,230.001541 635.141663,227.116013 619.414062,219.517532 
	C608.373352,214.183441 600.281677,206.744431 600.647034,193.245483 
	C600.657959,192.844162 600.220154,192.430695 599.989563,192.019394 
	C591.462219,197.077942 590.230103,203.720886 596.559753,210.785629 
	C598.208740,212.626053 600.195496,214.222122 602.220581,215.657410 
	C612.761658,223.128448 624.858643,226.997681 637.263000,229.569473 
	C656.743347,233.608368 676.448425,234.731262 696.364197,233.031189 
	C712.554382,231.649170 728.383240,229.027542 743.543030,223.042267 
	C751.526917,219.890137 758.996948,215.897018 764.430054,208.971146 
	C769.038147,203.096954 766.902283,195.478958 759.749512,192.239288 
	C759.542175,192.658371 759.148682,193.081772 759.151489,193.502563 
	C759.231262,205.518448 752.388062,212.847946 742.554810,218.207443 
	C731.578918,224.189743 719.661865,227.134872 706.596375,229.296112 
M498.463745,318.325287 
	C468.909149,321.955383 439.571167,321.350189 409.202667,313.314880 
	C420.704254,319.763489 430.946045,325.478180 441.153320,331.253876 
	C443.017395,332.308594 444.779846,332.434937 446.862000,331.899841 
	C454.091492,330.041748 461.376953,328.402679 468.625641,326.617554 
	C480.670898,323.651215 492.704193,320.636292 504.742523,317.641815 
	C504.703461,317.477478 504.664368,317.313141 504.625275,317.148804 
	C502.844604,317.510651 501.063965,317.872498 498.463745,318.325287 
M765.681824,250.687088 
	C765.155884,251.201370 764.101746,251.387939 764.785278,253.167648 
	C779.765625,249.349472 794.805115,245.516220 811.020874,241.383163 
	C800.614868,235.464096 791.551147,230.137054 781.372375,225.570389 
	C780.327087,236.833527 774.502319,244.387497 765.681824,250.687088 
M249.789810,225.643860 
	C258.677185,230.526230 267.564575,235.408600 276.451965,240.290985 
	C265.888123,229.902969 264.299500,222.797134 270.352386,208.432007 
	C258.825806,211.589066 247.925919,214.574478 235.695419,217.924332 
	C241.038330,220.855255 245.089432,223.077530 249.789810,225.643860 
z"/>
</svg>