<svg version="1.1" id="Layer_1" xmlns="http://www.w3.org/2000/svg" xmlns:xlink="http://www.w3.org/1999/xlink" x="0px" y="0px"
	 width="100%" viewBox="0 0 1024 1024" enable-background="new 0 0 1024 1024" xml:space="preserve">
<path fill="#000000" opacity="1.000000" stroke="none" 
	d="
M669.999756,170.927002 
	C732.822388,205.840607 781.551453,254.174438 812.187134,319.056580 
	C823.053345,342.069824 838.167847,362.405396 849.046875,385.265137 
	C861.719055,411.892670 870.877686,439.541595 876.410645,468.509796 
	C881.288208,494.046600 882.000427,519.781677 881.134888,545.604004 
	C880.431396,566.591553 876.589722,587.243469 873.553894,607.981079 
	C866.348877,657.196960 847.936279,702.021301 819.900391,742.795959 
	C764.741943,823.017029 688.968140,872.492188 593.470398,890.757690 
	C531.911682,902.531799 471.645264,896.135681 412.676849,874.537598 
	C382.164459,863.362061 352.824463,850.310303 325.838318,832.142029 
	C275.025726,797.933044 236.063797,753.586487 210.618866,697.657043 
	C203.292572,681.553284 193.080368,667.038696 185.348679,651.127930 
	C166.862747,613.086182 153.863373,573.465210 148.511307,531.387024 
	C146.005844,511.688873 144.247711,491.958954 144.923477,472.126556 
	C146.778320,417.688904 160.060013,366.202271 185.899338,318.134857 
	C218.547012,257.402283 265.245575,210.209152 324.959076,176.108459 
	C365.442566,152.989502 409.071503,138.470993 455.397614,132.573975 
	C522.690796,124.007950 587.587219,132.435974 649.561035,160.698761 
	C656.376282,163.806793 662.973145,167.393463 669.999756,170.927002 
M800.166016,740.699646 
	C836.663574,690.301086 857.294739,634.135010 860.530945,571.932800 
	C862.333313,537.291382 858.633545,503.062561 849.089233,469.637848 
	C829.610168,401.421143 791.511902,345.793701 734.263550,303.946381 
	C667.377136,255.053848 591.979004,235.840515 509.823792,243.636520 
	C464.697571,247.918732 422.207916,261.536224 382.639526,283.916473 
	C330.532318,313.388794 289.181274,353.847687 259.450867,405.787537 
	C223.813339,468.047241 209.954956,534.839417 219.108307,606.262085 
	C224.364120,647.272583 237.196716,685.724060 257.680969,721.505615 
	C284.650940,768.616150 321.793701,805.906433 368.370911,833.809570 
	C432.206268,872.051636 501.271210,885.503784 574.744263,876.398987 
	C614.794800,871.435852 652.594727,858.663574 688.073364,839.378906 
	C732.684570,815.130188 770.205383,782.722900 800.166016,740.699646 
M853.715759,423.657288 
	C851.992554,418.971863 850.448853,414.211121 848.519104,409.612335 
	C821.239868,344.603210 777.243347,293.746765 718.098999,255.733261 
	C716.987671,255.018997 715.775940,254.306442 714.969055,253.304764 
	C713.223022,251.137131 713.102051,248.636002 714.724365,246.373352 
	C716.321960,244.145416 718.697998,244.102951 721.030701,245.033600 
	C722.247314,245.518967 723.328369,246.366852 724.432800,247.107422 
	C739.475830,257.194427 754.294189,267.583282 767.879883,279.919037 
	C768.159363,278.408081 767.168396,277.840302 766.624634,277.113037 
	C737.312622,237.905716 700.996948,206.747345 657.651123,184.137177 
	C593.939758,150.903809 526.227844,140.054459 455.192780,150.149689 
	C379.816498,160.861877 315.027954,193.366852 260.685272,246.461548 
	C236.471497,270.119263 216.691498,297.283478 200.705307,327.196869 
	C176.654282,372.201141 164.258759,420.289856 162.315277,471.149445 
	C161.326233,497.032257 163.621277,522.697449 168.382324,548.139893 
	C170.847717,561.314697 174.265488,574.254761 178.314102,587.037903 
	C178.597382,586.323975 178.693253,585.653320 178.583450,585.018188 
	C175.386505,566.528809 175.150665,547.876282 176.014145,529.226685 
	C176.575287,517.107483 177.636917,504.988922 179.706406,493.001129 
	C180.485748,488.486755 183.446640,486.043976 186.710159,487.275330 
	C190.800018,488.818451 190.561142,492.255493 190.024490,495.671265 
	C185.050934,527.327881 185.076706,559.065796 189.525970,590.713074 
	C196.813843,642.551086 214.188690,690.773193 242.988785,734.664246 
	C247.555389,741.623718 252.650589,748.236389 257.501404,755.009338 
	C138.806046,577.205872 210.605667,355.612640 381.000916,265.043732 
	C564.145325,167.698334 795.389343,251.609192 862.036926,449.893860 
	C859.326416,441.405487 856.615906,432.917114 853.715759,423.657288 
z"/>
<path fill="#000000" opacity="1.000000" stroke="none" 
	d="
M281.682312,527.893616 
	C290.912048,459.210114 321.689758,402.851593 374.852478,358.970581 
	C414.734741,326.051361 460.760620,306.888550 511.911194,301.121521 
	C570.939331,294.466309 626.418030,306.459381 676.843506,338.228363 
	C741.629578,379.044800 780.050720,438.152435 793.747192,513.097595 
	C799.481873,544.477417 798.311768,576.052490 790.429443,607.232239 
	C786.846130,621.406799 785.263428,636.039124 780.592896,649.997864 
	C769.318909,683.691589 751.531555,713.473511 727.392456,739.491089 
	C690.877686,778.847473 646.099976,803.575806 593.667847,814.457214 
	C550.423889,823.431702 507.850372,820.503906 466.292847,805.564453 
	C445.308807,798.020996 424.167511,790.594727 405.136597,778.632202 
	C337.407776,736.058655 295.170746,676.240295 282.633667,596.525146 
	C279.069580,573.863403 278.784973,551.116638 281.682312,527.893616 
M373.231232,445.721619 
	C372.120667,447.178833 370.990692,448.621704 369.902283,450.095276 
	C326.722565,508.554596 314.593201,573.197632 333.117554,643.149170 
	C343.492340,682.326233 364.363373,715.663818 394.509857,743.137024 
	C433.841003,778.980591 480.073578,798.497986 532.991333,801.537720 
	C575.482849,803.978516 615.666321,794.804321 653.387939,774.813049 
	C732.180176,733.055542 785.697876,645.137756 773.810791,548.762085 
	C767.214600,495.282837 745.413574,449.188873 704.798828,413.463776 
	C644.740845,360.636292 574.802002,345.598663 497.864990,364.891602 
	C447.745331,377.459717 406.444458,405.052979 373.231232,445.721619 
M423.053619,378.509674 
	C472.238922,348.391602 525.556580,334.496033 582.985718,341.113190 
	C648.352539,348.644958 702.494019,377.984100 743.921265,429.766632 
	C685.769775,332.880035 552.641113,281.197937 429.620209,343.963715 
	C302.690765,408.723602 266.549225,555.678955 322.206848,665.373169 
	C321.176270,662.093994 319.859558,658.905518 318.859802,655.620544 
	C309.902802,626.189575 306.107483,596.228882 308.483856,565.415283 
	C310.423492,540.265198 315.926117,516.045410 325.629883,492.862762 
	C345.802917,444.668549 378.462616,406.940002 423.053619,378.509674 
z"/>
<path fill="#000000" opacity="1.000000" stroke="none" 
	d="
M427.983154,446.984985 
	C412.813385,460.855560 400.791107,476.685120 391.474518,494.603149 
	C388.496063,500.331482 383.921265,502.162842 379.304138,499.739594 
	C374.655518,497.299744 373.148010,492.261261 376.057922,486.792358 
	C398.312866,444.966309 431.288239,415.111145 475.680664,398.160522 
	C480.706482,396.241455 485.229218,398.256409 486.887756,402.650818 
	C488.710266,407.479706 486.572876,412.205414 481.208038,414.294434 
	C467.628143,419.582367 454.884674,426.405365 443.088776,434.930145 
	C437.968567,438.630432 433.182220,442.792603 427.983154,446.984985 
z"/>
<path fill="#000000" opacity="1.000000" stroke="none" 
	d="
M415.268005,486.332642 
	C432.479004,461.686310 454.577515,443.488953 481.629181,431.280029 
	C483.146606,430.595184 484.682770,429.937592 486.250793,429.381714 
	C491.775848,427.422974 496.204407,429.176636 498.264221,434.084412 
	C500.248810,438.812958 498.189972,443.488647 492.745300,445.653107 
	C482.159546,449.861389 472.209534,455.196838 463.005280,461.887695 
	C446.327057,474.011688 432.678741,488.835938 423.016266,507.168518 
	C422.395111,508.347015 421.789856,509.536804 421.106384,510.678955 
	C418.300171,515.368713 413.959747,517.009216 409.780914,514.992310 
	C405.308716,512.833801 403.397186,507.571075 405.881470,502.659088 
	C408.656769,497.171814 411.977936,491.960602 415.268005,486.332642 
z"/>
</svg>