<svg version="1.1" id="Layer_1" xmlns="http://www.w3.org/2000/svg" xmlns:xlink="http://www.w3.org/1999/xlink" x="0px" y="0px"
	 width="100%" viewBox="0 0 1024 1536" enable-background="new 0 0 1024 1536" xml:space="preserve">
<path fill="none" opacity="1.000000" stroke="#000000" stroke-linecap="round" stroke-linejoin="round" stroke-width="24.000000"
	d="
M480.750000,292.500000 
	C479.266602,296.023468 477.597748,299.468842 478.950500,303.516541 
	C479.476593,305.090546 477.727753,306.029022 476.920807,306.928986 
	C471.106506,313.413452 463.385284,315.459961 455.002777,316.040253 
	C447.601318,316.552612 440.571106,316.982178 433.807404,312.276855 
	C431.336548,310.557922 426.660980,311.865784 423.000885,312.020660 
	C384.874146,313.634125 350.848663,324.273682 327.594086,357.066711 
	C317.808136,370.866638 312.183960,386.453827 310.365051,403.485596 
	C309.329498,413.182007 309.538300,422.831665 309.536377,432.500000 
	C309.489777,667.500000 309.414886,902.500061 309.596710,1137.499878 
	C309.622406,1170.705322 327.859711,1200.708130 360.974121,1213.566650 
	C389.765076,1224.746460 418.345245,1236.470459 446.986450,1248.033447 
	C451.040100,1249.670044 455.038330,1251.229126 459.500000,1251.000000 
"/>
<path fill="none" opacity="1.000000" stroke="#000000" stroke-linecap="round" stroke-linejoin="round" stroke-width="24.000000"
	d="
M501.000000,1265.250000 
	C516.460632,1268.030273 531.234314,1264.214233 545.996704,1260.486938 
	C578.174072,1252.362671 610.330566,1244.156006 642.501343,1236.005249 
	C656.174072,1232.541016 669.966675,1229.617798 682.034790,1221.552124 
	C704.327393,1206.652832 716.935120,1185.542236 720.262512,1159.469727 
	C723.049927,1137.628418 721.057129,1115.502197 721.207764,1093.501465 
	C721.342529,1073.836060 721.431763,1054.165405 721.421570,1034.500000 
	C721.414246,1020.335999 721.106628,1006.144653 721.245117,992.002380 
	C721.457275,970.334167 721.418213,948.665833 721.454895,926.999939 
	C721.575012,856.000122 721.500000,785.000000 721.500000,714.000000 
	C721.500000,692.166687 721.564880,670.333069 721.482300,648.500061 
	C721.394043,625.166443 720.700195,601.825195 721.107178,578.501892 
	C721.749817,541.665527 721.481384,504.832153 721.371887,468.000366 
	C721.331299,454.331360 722.082336,440.648071 721.393311,427.005402 
	C720.745117,414.171814 721.959106,401.232025 719.486633,388.502594 
	C715.716187,369.090820 707.193481,352.440430 690.445007,341.081085 
	C683.117554,336.111328 674.991699,332.539001 666.000000,331.500000 
"/>
<path fill="none" opacity="1.000000" stroke="#000000" stroke-linecap="round" stroke-linejoin="round" stroke-width="24.000000"
	d="
M624.500000,338.500000 
	C618.306641,342.718658 610.893005,342.596985 603.974792,343.862122 
	C590.179993,346.384766 576.314453,348.559998 562.477722,350.866394 
	C549.994873,352.947174 537.309021,354.114807 525.028931,357.118195 
	C497.241241,363.914246 477.480316,380.948456 465.034119,406.516602 
	C458.063477,420.836304 455.487701,436.155396 455.489471,452.000000 
	C455.506927,607.666687 455.500000,763.333313 455.500000,919.000000 
	C455.500000,940.666687 455.445496,962.333496 455.522308,983.999939 
	C455.562500,995.333679 456.431213,1006.697327 455.851959,1017.992432 
	C455.090393,1032.843140 455.689178,1047.685791 455.741028,1062.499146 
	C455.891510,1105.499023 455.845917,1148.500000 456.027283,1191.499878 
	C456.090424,1206.474121 458.970581,1220.787354 466.429260,1234.039795 
	C469.066895,1238.726196 469.681702,1244.104614 469.500000,1249.500000 
"/>
<path fill="none" opacity="1.000000" stroke="#000000" stroke-linecap="round" stroke-linejoin="round" stroke-width="23.000000"
	d="
M524.500000,301.000000 
	C523.254395,296.582855 523.082092,292.071625 522.944946,287.501648 
	C522.418640,269.960876 510.206451,256.340332 491.498810,256.086823 
	C480.217438,255.933929 469.148132,258.563446 457.977112,259.791992 
	C448.970825,260.782471 442.197357,264.504364 437.045135,271.533081 
	C434.034454,275.640350 432.823303,280.130127 433.858307,285.527161 
	C435.280151,292.941315 434.940796,300.527069 433.507629,308.001465 
	C433.285980,309.157593 433.166656,310.333344 433.000000,311.500000 
"/>
<path fill="none" opacity="1.000000" stroke="#000000" stroke-linecap="round" stroke-linejoin="round" stroke-width="22.000000"
	d="
M479.500000,305.000000 
	C488.765564,310.486206 498.490417,309.495483 508.527740,307.650879 
	C513.743286,306.692383 518.765625,305.739899 522.938660,302.422852 
	C524.174622,301.440369 525.325439,301.314056 526.491638,301.542572 
	C556.835510,307.488770 587.189514,313.388489 617.482117,319.587311 
	C624.115051,320.944611 629.026917,325.582062 633.500000,330.500000 
"/>
</svg>