<svg version="1.1" id="Layer_1" xmlns="http://www.w3.org/2000/svg" xmlns:xlink="http://www.w3.org/1999/xlink" x="0px" y="0px"
	 width="100%" viewBox="0 0 1024 1024" enable-background="new 0 0 1024 1024" xml:space="preserve">
<path fill="#000000" opacity="1.000000" stroke="none" 
	d="
M753.306152,708.000000 
	C753.089111,728.475525 754.278992,748.504089 751.304810,768.380493 
	C744.714905,812.420837 727.231262,851.151123 695.929382,883.387085 
	C672.736084,907.272583 645.485657,924.026062 613.246704,932.499084 
	C599.017456,936.238770 584.534302,938.259399 569.801880,938.254028 
	C540.305908,938.243286 510.805695,938.501526 481.315247,938.083130 
	C451.353333,937.658142 422.388336,932.188965 395.428284,918.421021 
	C360.960449,900.819031 335.117615,874.442871 316.712555,840.581543 
	C308.229584,824.974731 302.131104,808.473389 298.351379,791.114868 
	C297.813690,788.645447 297.015717,786.676636 294.270782,785.417053 
	C267.217773,773.003174 246.648514,753.078857 231.037003,728.231750 
	C208.930099,693.046509 197.569046,654.521240 197.626755,612.749268 
	C197.735626,533.926880 196.932465,455.094879 197.911316,376.284271 
	C198.865524,299.458618 233.036407,241.808456 301.717102,205.744232 
	C305.370392,203.825882 307.509155,201.441528 309.060150,197.630920 
	C325.588745,157.022339 351.775208,124.409180 389.960999,102.265991 
	C410.824066,90.167892 433.431030,82.917419 457.683990,81.674629 
	C498.976807,79.558670 540.332153,80.025742 581.605042,81.052391 
	C630.670959,82.272896 673.141724,100.223755 706.225525,137.554550 
	C730.529907,164.978851 744.725525,197.174744 750.374817,233.285660 
	C752.801697,248.798157 753.377502,264.384674 753.368469,280.059448 
	C753.286377,422.539581 753.311890,565.019775 753.306152,708.000000 
M493.608459,124.134567 
	C447.164490,157.177383 423.775543,203.140076 419.567200,259.090363 
	C417.845825,281.976257 418.492126,305.056946 418.450867,328.049713 
	C418.228363,452.045380 418.029724,576.041260 418.073883,700.036926 
	C418.082123,723.155457 416.629547,746.285583 419.141571,769.413147 
	C422.724548,802.400574 432.873322,832.991333 452.984070,859.450134 
	C487.916138,905.408875 534.257568,927.028687 592.089722,919.331604 
	C635.969788,913.491516 671.040894,891.090271 697.752869,856.067322 
	C723.681580,822.071472 735.765564,783.269592 735.762329,740.572388 
	C735.750244,581.910950 735.758911,423.249451 735.874573,264.588043 
	C735.886047,248.846542 734.208801,233.420807 730.764038,218.055588 
	C715.856812,151.562790 660.541321,102.712494 593.181824,97.516731 
	C557.286438,94.747940 524.118835,103.387871 493.608459,124.134567 
M321.399353,807.120728 
	C324.709686,815.848022 328.385651,824.398743 332.908630,832.589844 
	C357.140747,876.474304 393.438690,904.936951 441.912994,917.661743 
	C462.038605,922.944824 482.702606,923.126282 504.205383,923.073547 
	C502.960327,922.477966 502.423706,922.206299 501.875336,921.961060 
	C458.415344,902.526855 430.708038,868.779236 413.983795,825.103760 
	C403.167419,796.856689 399.992859,767.318970 399.844116,737.372437 
	C399.692657,706.881836 400.329590,676.389343 400.493652,645.901855 
	C400.966370,558.074341 400.737610,470.243042 400.820038,382.413269 
	C400.860229,339.601898 400.659607,296.783447 402.686768,254.003677 
	C403.607605,234.571167 407.849884,215.754684 414.862183,197.646393 
	C430.571716,157.078598 456.525604,125.127396 494.838501,103.774170 
	C499.647888,101.093719 504.561523,98.600273 509.426819,96.020180 
	C492.229065,95.815147 475.277496,94.532822 458.309448,96.130409 
	C426.321777,99.142105 398.439392,111.918213 374.509308,132.675827 
	C332.718231,168.926605 311.798340,215.680374 311.592865,270.582733 
	C310.995270,430.240662 311.314178,589.902344 311.474213,749.562378 
	C311.493652,768.944885 314.850159,787.961243 321.399353,807.120728 
M232.441528,651.855896 
	C229.814011,635.710938 229.251007,619.495422 229.448776,603.125427 
	C229.806915,573.479370 229.775406,543.827332 229.110001,514.166931 
	C228.044922,466.691406 229.544067,419.203674 229.584946,371.719849 
	C229.594162,361.013885 230.621292,350.430115 232.729050,339.984344 
	C241.091034,298.543213 261.042328,263.735626 293.467194,236.500671 
	C298.458923,232.307907 299.652588,227.686935 300.471252,221.738892 
	C299.405304,221.975739 298.748688,222.013245 298.192017,222.268631 
	C297.137115,222.752579 296.095154,223.293640 295.124786,223.928619 
	C280.841980,233.275192 267.697144,243.891708 256.642181,257.048828 
	C229.254318,289.644775 213.279297,326.862915 212.466965,369.631042 
	C211.644501,412.933319 211.963928,456.258392 211.897461,499.573639 
	C211.839417,537.400696 211.956451,575.228027 211.961838,613.055237 
	C211.963623,625.574524 212.899094,638.001160 215.411545,650.279480 
	C223.661499,690.596924 241.323776,725.681274 272.800507,753.008484 
	C279.368469,758.710693 286.190002,764.119141 294.191254,768.020996 
	C295.478516,764.356018 293.229309,762.908020 291.365265,761.276855 
	C279.764313,751.124878 269.540039,739.736084 261.231262,726.747803 
	C246.693420,704.022400 237.249359,679.280579 232.441528,651.855896 
M258.268890,432.732574 
	C247.504486,459.815063 243.271072,487.798096 246.108505,516.889404 
	C249.123169,547.797852 259.286621,575.882751 278.477203,600.428223 
	C282.791077,605.945862 287.240845,611.535522 293.516174,615.867432 
	C293.516174,537.372742 293.516174,459.487640 293.516174,380.396698 
	C277.674408,395.695526 266.548370,412.784271 258.268890,432.732574 
M274.254364,380.748535 
	C278.931183,375.293274 284.260406,370.469971 289.810913,365.987640 
	C292.938568,363.461914 293.830292,360.802979 293.821716,357.038666 
	C293.755524,328.070557 293.747314,299.101379 293.947235,270.134125 
	C294.006165,261.594727 294.790741,253.060364 295.275024,243.914383 
	C293.497559,245.202164 292.250824,246.007523 291.119415,246.951126 
	C289.843353,248.015366 288.637390,249.170212 287.458679,250.343613 
	C263.597717,274.096985 248.190826,302.570862 240.315796,335.188324 
	C237.458435,347.023132 236.012115,359.061707 236.019730,371.260529 
	C236.036667,398.456299 236.025009,425.652100 236.025009,452.401581 
	C242.747894,425.977173 255.476288,402.149841 274.254364,380.748535 
M272.273987,621.211975 
	C256.704132,603.330994 245.920502,582.723022 237.698242,559.321594 
	C237.522049,562.744873 237.419205,564.875061 237.301727,567.004456 
	C235.879730,592.782166 234.715240,618.605713 238.456543,644.251038 
	C244.100876,682.940979 259.108276,717.378784 286.628265,745.771423 
	C288.519745,747.722961 290.682709,749.411316 293.247803,751.691833 
	C293.405823,749.951416 293.540070,749.148193 293.542847,748.344543 
	C293.661133,714.037720 293.743561,679.730835 293.920288,645.424377 
	C293.934875,642.588074 292.710602,640.782166 290.648102,639.118713 
	C284.151062,633.878784 278.279236,627.981750 272.273987,621.211975 
z"/>
<path fill="#000000" opacity="1.000000" stroke="none" 
	d="
M617.389282,130.507538 
	C657.045349,142.115173 684.810425,167.119873 700.924805,204.245682 
	C725.823608,261.609528 712.117493,330.503296 667.683411,374.671356 
	C641.558899,400.639435 609.661499,413.071869 572.953613,409.938507 
	C522.106323,405.598267 488.054047,377.452698 467.831421,331.550049 
	C458.786804,311.019928 454.246033,289.330963 454.954346,266.946838 
	C456.449341,219.700470 473.879456,179.834671 511.972626,150.490921 
	C533.511108,133.899551 558.349182,126.070747 585.466553,125.820847 
	C596.147583,125.722412 606.706970,127.342957 617.389282,130.507538 
M526.707947,153.209839 
	C514.665527,160.924698 504.270966,170.424255 495.629181,181.835556 
	C455.934601,234.251404 457.309113,307.404541 498.962494,358.779785 
	C534.339233,402.413483 598.344177,411.285065 644.215454,378.912964 
	C689.436462,346.999786 711.994690,289.065216 700.158203,234.545425 
	C692.239258,198.070236 672.264709,169.694443 639.871155,151.339127 
	C602.471191,130.146957 564.549194,131.149628 526.707947,153.209839 
z"/>
<path fill="#000000" opacity="1.000000" stroke="none" 
	d="
M579.488281,721.896729 
	C584.915222,721.297180 588.785278,723.151855 590.803467,727.828552 
	C592.426208,731.588806 592.028137,735.376282 589.170898,738.533142 
	C586.179993,741.837646 582.360168,742.565125 578.249817,741.209595 
	C574.201538,739.874329 572.044189,736.765015 571.773926,732.610657 
	C571.426270,727.267822 574.227295,723.859497 579.488281,721.896729 
z"/>
<path fill="#000000" opacity="1.000000" stroke="none" 
	d="
M628.317261,366.492798 
	C600.377869,375.234772 573.913635,372.906128 549.210388,357.690247 
	C524.746765,342.621887 510.491699,319.949524 504.471497,292.340240 
	C496.853241,257.402008 503.672211,225.041443 525.526489,196.583252 
	C570.271240,138.317429 659.653320,149.415039 688.380737,217.087006 
	C706.387146,259.503906 701.014404,299.855804 672.656677,336.392426 
	C661.397339,350.899200 646.182495,360.527740 628.317261,366.492798 
M665.821106,198.686157 
	C657.609863,189.249573 647.833130,181.847153 636.475830,176.651428 
	C611.073792,165.030487 585.469421,164.769531 561.156006,178.630676 
	C521.846802,201.040924 503.734406,247.761246 514.915833,292.751251 
	C524.960876,333.168610 562.903870,367.505737 608.985840,360.818909 
	C632.775513,357.366852 652.399048,346.588562 666.986633,327.850708 
	C696.908752,289.415497 696.306458,237.394928 665.821106,198.686157 
z"/>
<path fill="#000000" opacity="1.000000" stroke="none" 
	d="
M582.505859,351.712463 
	C552.630981,344.383759 533.850403,325.423981 524.603333,297.250122 
	C515.681641,270.067627 518.149170,243.502930 531.841125,218.031143 
	C552.027771,180.477142 597.422974,164.964630 635.713806,183.519958 
	C661.176880,195.859039 675.683472,217.236618 681.100525,244.546188 
	C686.818604,273.372711 681.105774,300.130615 662.078186,322.823090 
	C641.486450,347.381073 615.119812,358.052216 582.505859,351.712463 
M592.570068,279.981476 
	C594.352661,281.692261 595.926086,283.966187 598.781921,283.595764 
	C603.224854,283.019470 607.647705,282.256470 612.050720,281.422455 
	C613.565247,281.135498 614.731018,280.040436 615.356262,278.596008 
	C617.402771,273.867859 619.678284,269.211639 621.323853,264.344513 
	C623.108643,259.065735 614.408691,246.146271 608.924194,245.429718 
	C608.274292,245.344803 607.588745,245.397964 606.935791,245.495102 
	C604.144470,245.910477 601.367981,246.662064 598.569946,246.744507 
	C593.132568,246.904663 590.183777,249.837509 588.332825,254.620209 
	C582.232666,270.383331 581.422852,266.362488 592.570068,279.981476 
M581.969360,217.412445 
	C580.956299,221.317841 577.938477,224.897141 579.979736,229.302582 
	C585.355774,240.905594 591.878601,244.064758 604.164734,241.039688 
	C609.428772,239.743576 617.703552,226.010864 616.378601,220.734787 
	C616.260132,220.263214 615.961609,219.834808 615.733521,219.393158 
	C610.484558,209.229752 605.748169,206.907974 594.395752,208.919479 
	C593.578735,209.064255 592.754456,209.219193 591.928589,209.254761 
	C586.950928,209.469101 583.313171,211.405380 581.969360,217.412445 
M584.662598,243.091980 
	C582.746277,239.936539 580.279297,237.241089 577.752747,234.569977 
	C575.988647,232.704910 573.972290,232.078354 571.482056,232.214386 
	C560.047913,232.838898 556.206604,235.677414 552.511536,246.404297 
	C552.077637,247.663986 551.697144,248.941956 551.282043,250.208206 
	C549.317932,256.199493 555.058044,266.403687 561.164917,267.772583 
	C569.732239,269.693054 578.613892,265.426422 582.186646,257.387787 
	C584.095947,253.091858 587.333069,248.962036 584.662598,243.091980 
M567.672058,306.272278 
	C579.900146,308.051514 583.793945,306.030487 588.802368,295.275085 
	C589.573792,293.618622 590.269897,291.927216 591.018921,290.260071 
	C591.583130,289.004181 592.019592,287.603119 591.323059,286.409729 
	C588.032349,280.771515 583.301086,276.315704 578.814148,271.678680 
	C578.369568,271.219238 577.210815,271.267883 576.416626,271.361389 
	C572.959351,271.768311 569.508972,272.243896 566.066406,272.762604 
	C562.986145,273.226685 561.178040,275.154663 559.872009,277.916168 
	C553.720642,290.922913 553.680054,290.909180 563.303101,301.837463 
	C564.509094,303.206970 565.784424,304.515442 567.672058,306.272278 
M593.511475,313.046448 
	C595.205017,314.815887 596.329346,317.171875 599.073608,317.803345 
	C610.255615,320.376495 619.614319,314.921112 623.737244,304.317871 
	C625.858215,298.863098 625.332275,294.851044 620.997070,291.073914 
	C618.672424,289.048431 617.118896,285.880157 613.238770,286.524902 
	C610.125732,287.042175 607.016602,287.760010 603.881226,287.925903 
	C598.506409,288.210266 595.347778,290.987793 593.640747,295.878387 
	C593.094360,297.443939 592.421448,298.999878 591.569397,300.417755 
	C588.895264,304.867676 589.255310,308.863617 593.511475,313.046448 
M622.015686,285.544403 
	C626.607910,291.831543 632.351440,294.587219 640.147583,291.804901 
	C642.755249,290.874298 646.015320,291.180511 647.452148,288.211121 
	C649.975952,282.995361 653.737915,277.692078 653.151184,271.955353 
	C652.151794,262.184326 637.521362,255.910065 629.085693,260.895111 
	C627.876465,261.609680 627.026245,262.629639 626.524902,263.871948 
	C624.344788,269.274292 622.276123,274.721832 620.073914,280.114960 
	C619.204224,282.244904 620.393799,283.592438 622.015686,285.544403 
M622.943848,224.115143 
	C617.633362,228.152344 616.695862,234.537720 614.893860,240.233246 
	C613.712219,243.967957 618.093384,246.037781 619.963806,248.848343 
	C621.148071,250.627792 622.757446,252.131760 624.227539,253.711456 
	C625.684326,255.276840 627.508911,255.788239 629.644653,255.640305 
	C640.256042,254.905258 642.694153,252.947464 645.458130,242.772781 
	C647.192200,236.389328 643.592346,227.238602 637.936279,223.890518 
	C637.127625,223.411835 636.045166,223.152908 635.102966,223.185120 
	C631.296082,223.315292 627.494446,223.599289 622.943848,224.115143 
M556.284973,229.514801 
	C561.012817,229.858139 565.508545,228.591843 570.021973,227.494308 
	C571.510925,227.132217 572.702698,226.261490 573.649719,225.007660 
	C580.976807,215.306839 580.505493,207.898697 572.339905,198.787476 
	C569.757568,195.906052 567.711975,195.452789 564.365967,197.693817 
	C560.741943,200.121094 557.360229,202.781708 554.275574,205.788651 
	C544.357117,215.457321 544.666199,220.171051 556.284973,229.514801 
M554.926025,269.571503 
	C553.509155,267.942688 552.121216,266.287567 550.670166,264.689850 
	C545.785339,259.311371 538.697693,258.272491 532.510864,261.878326 
	C530.852356,262.844940 530.288452,264.199127 530.190979,265.963348 
	C529.755493,273.850494 531.012573,281.504028 533.256226,289.037903 
	C533.912231,291.240692 535.239624,292.341003 537.561035,292.408478 
	C547.155640,292.687256 550.390869,290.486450 553.576233,281.436279 
	C554.237244,279.558167 554.901123,277.679474 555.630493,275.827362 
	C556.400940,273.870880 556.637512,271.977325 554.926025,269.571503 
M590.545471,328.118256 
	C591.182678,325.320679 594.553162,322.794006 592.518005,319.845062 
	C589.995178,316.189484 588.132935,310.818512 582.545410,311.215424 
	C576.170044,311.668243 569.010437,309.595459 564.638794,317.515167 
	C558.138123,329.291901 557.757507,329.081757 569.809082,335.278931 
	C582.404907,341.755920 583.840454,341.299438 590.545471,328.118256 
M636.228699,216.997421 
	C643.689026,206.012741 642.538757,200.404541 631.483948,194.224045 
	C629.602478,193.172134 627.626099,192.261322 625.624023,191.458817 
	C615.779724,187.512848 615.721924,187.513916 611.769470,197.498825 
	C610.832397,199.865997 609.082642,202.094910 610.506775,205.032104 
	C616.358826,217.101608 621.959778,220.006851 635.068970,217.545044 
	C635.231689,217.514481 635.388245,217.451080 636.228699,216.997421 
M626.331848,321.276581 
	C631.759155,325.771423 640.118347,326.244354 643.858948,321.854767 
	C647.510498,317.569733 650.671509,312.866028 654.036743,308.337860 
	C655.865662,305.876984 655.888916,303.560547 653.709106,301.194733 
	C651.337646,298.620880 650.125916,294.765350 645.273499,295.541626 
	C631.555176,297.736267 631.539185,297.636169 626.109192,310.452576 
	C625.655945,311.522400 625.337952,312.676971 624.727295,313.647522 
	C623.002380,316.389069 623.674194,318.666138 626.331848,321.276581 
M660.681091,236.345566 
	C650.443726,237.066864 652.598145,235.712112 649.458496,245.337402 
	C649.150452,246.281799 648.994629,247.283905 648.615662,248.195877 
	C645.352234,256.050354 650.602783,260.789703 655.310242,265.342926 
	C659.473572,269.369812 664.022461,266.023376 668.305481,264.760559 
	C670.802673,264.024261 672.005615,262.203369 672.018677,259.517944 
	C672.047791,253.508865 671.231812,247.640701 669.529236,241.875351 
	C668.328796,237.810532 665.899353,235.685623 660.681091,236.345566 
M613.515869,321.238342 
	C598.593994,322.662018 591.085388,329.275696 590.987366,341.504181 
	C600.463135,344.043091 609.742126,342.610870 618.397400,338.615540 
	C622.197388,336.861420 625.237000,332.215881 624.107300,327.944031 
	C623.060669,323.985992 619.689270,320.447388 613.515869,321.238342 
M578.439697,189.671631 
	C577.139893,190.772827 574.805725,190.891998 574.960693,193.373322 
	C575.098694,195.583710 581.900940,204.229935 584.286865,204.601913 
	C590.672607,205.597427 596.955322,204.219635 602.837158,202.099548 
	C606.879639,200.642441 607.062439,195.689941 608.720581,192.146973 
	C610.552673,188.232330 608.926208,186.625229 605.059875,186.316238 
	C596.204773,185.608582 587.468994,185.868088 578.439697,189.671631 
M532.441162,244.934372 
	C531.811707,248.487640 530.758179,251.992554 531.038513,255.644913 
	C541.737793,257.147369 545.112610,254.496780 549.695801,241.156067 
	C552.603760,232.691650 550.611267,227.877945 541.902954,222.889313 
	C537.177917,229.254425 534.848816,236.669037 532.441162,244.934372 
M554.393372,322.769226 
	C562.739319,317.910645 564.355164,309.622253 558.269470,302.799438 
	C557.051758,301.434204 555.822510,300.070007 554.498474,298.810638 
	C551.361938,295.827423 541.983154,295.371185 538.600464,297.917938 
	C537.455994,298.779602 537.328369,299.748474 537.828552,300.963837 
	C541.346985,309.511566 545.775330,317.394989 554.393372,322.769226 
M669.765198,284.322632 
	C670.657043,279.693390 672.492615,275.139191 671.179321,270.303253 
	C661.378296,270.549438 659.265015,271.973694 656.029236,280.396729 
	C655.313171,282.260681 654.641724,284.144836 654.032471,286.046143 
	C652.527466,290.742523 655.293579,297.887573 659.550354,300.291595 
	C661.789490,301.556091 663.509949,301.358795 664.835876,298.764709 
	C667.055725,294.421875 668.390808,289.805878 669.765198,284.322632 
M664.211548,230.064926 
	C662.424744,218.680466 654.657410,211.539932 645.800354,203.237915 
	C644.940979,211.684204 638.160767,218.038956 645.435059,225.631607 
	C650.926453,231.363403 655.064392,233.019623 664.211548,230.064926 
M628.039246,336.147034 
	C631.657898,334.914520 634.714966,332.742401 638.143982,330.424927 
	C628.661377,329.794739 628.661377,329.794739 628.039246,336.147034 
z"/>
</svg>