<svg version="1.1" id="Layer_1" xmlns="http://www.w3.org/2000/svg" xmlns:xlink="http://www.w3.org/1999/xlink" x="0px" y="0px"
	 width="100%" height="100%" viewBox="280 180 500 500" enable-background="new 0 0 1024 1024" xml:space="preserve">
<path fill="#000000" opacity="1.000000" stroke="none" 
	d="
M497.069275,529.041565 
	C489.402557,525.671204 482.012848,522.602417 474.804291,519.154846 
	C471.417114,517.534912 469.495392,518.070496 467.487000,521.279236 
	C464.044647,526.778870 459.842438,531.808228 456.476562,537.349304 
	C447.373505,552.335083 435.860474,564.976440 422.050140,575.826660 
	C410.142090,585.182373 398.978180,595.483032 387.438782,605.311340 
	C384.129486,608.129883 380.642670,610.766907 376.095032,611.221863 
	C369.913147,611.840271 364.184845,608.443176 361.580353,602.709412 
	C358.856720,596.713318 360.163483,589.993469 365.411835,585.500610 
	C373.635620,578.460632 381.831482,571.351685 390.458374,564.826172 
	C411.205139,549.132996 426.125763,528.765259 439.169708,506.603088 
	C450.158142,487.933289 457.681213,467.465027 469.668884,449.331177 
	C474.326050,442.286194 478.576935,434.933502 482.372162,426.738068 
	C476.403259,424.321899 470.492493,423.860962 464.637573,423.550537 
	C462.129028,423.417542 460.859711,426.044312 459.393982,427.806152 
	C451.831696,436.896057 444.374451,446.073883 436.755035,455.115265 
	C433.835663,458.579407 430.197876,460.782593 425.344971,459.640991 
	C417.272217,457.741852 413.440582,449.503723 417.253052,442.073883 
	C419.172943,438.332275 422.202301,435.397644 424.831085,432.175812 
	C432.729706,422.495209 440.713470,412.882385 448.491913,403.106171 
	C452.371063,398.230713 457.138855,395.864563 463.308685,396.817322 
	C474.319153,398.517670 485.286896,400.503662 496.311768,402.099091 
	C510.133514,404.099274 520.676575,412.487762 531.485596,420.144043 
	C538.666809,425.230652 545.092529,431.382416 551.872009,437.038696 
	C553.643738,438.516907 555.473816,439.925232 557.769165,441.758698 
	C562.451294,436.168427 566.901855,430.833435 571.376770,425.518982 
	C574.379944,421.952454 577.221191,418.221497 580.484619,414.908691 
	C585.709595,409.604706 592.342957,409.337891 597.497742,413.848969 
	C602.270691,418.025909 602.885315,424.187042 598.317139,429.937561 
	C588.477356,442.324097 578.503662,454.617004 568.199097,466.617004 
	C561.837219,474.025665 556.332581,474.069275 548.792297,467.778168 
	C542.418762,462.460510 536.099060,457.078400 530.080200,451.998810 
	C528.287292,452.315582 527.828064,453.245667 527.337402,454.102478 
	C520.467163,466.100067 513.739075,478.181915 506.673706,490.063324 
	C504.277802,494.092377 505.059631,496.257812 509.097229,498.196167 
	C519.456543,503.169525 529.741211,508.300507 540.015381,513.448914 
	C552.101074,519.505066 554.638794,529.612427 546.732178,540.609680 
	C534.285217,557.922180 521.725525,575.153748 509.206848,592.414673 
	C505.427216,597.626099 500.641968,600.796631 493.884308,599.620667 
	C482.776642,597.687683 477.826660,586.523987 484.186340,577.222717 
	C492.177490,565.535400 500.500763,554.075439 508.646210,542.493103 
	C509.965515,540.617188 511.105957,538.615479 512.705566,536.073669 
	C507.320068,533.647583 502.370270,531.417725 497.069275,529.041565 
z"/>
<path fill="#000000" opacity="1.000000" stroke="none" 
	d="
M711.783325,539.707703 
	C705.151733,550.175354 697.664795,559.544373 689.761414,568.577332 
	C683.922119,575.251282 675.682068,576.189148 669.818359,571.102173 
	C663.485168,565.607910 662.972900,556.717224 669.181763,550.172974 
	C696.100342,521.800110 712.102600,488.062683 717.276550,449.539215 
	C724.060425,399.028137 712.735718,352.861786 680.940308,312.464020 
	C657.656128,282.880188 627.985779,262.130280 592.226135,250.230621 
	C586.465820,248.313766 581.919189,245.308823 580.781921,238.981064 
	C578.959839,228.842834 587.460022,220.760345 597.549561,223.268967 
	C610.727844,226.545593 622.946838,232.344681 634.806641,238.813416 
	C685.639648,266.539520 720.383240,307.983734 737.095459,363.320953 
	C755.887756,425.546082 746.476807,484.434570 711.783325,539.707703 
z"/>
<path fill="#000000" opacity="1.000000" stroke="none" 
	d="
M665.328918,337.726318 
	C681.095398,361.374756 690.157410,386.763916 691.524841,415.060455 
	C693.526245,456.475616 680.842773,492.701416 654.906250,524.624573 
	C653.234070,526.682678 651.383423,528.666199 649.327332,530.327454 
	C644.770508,534.009155 639.399658,533.958679 635.112122,530.482727 
	C630.757751,526.952576 629.408325,521.084656 632.171082,516.079285 
	C633.522583,513.630859 635.433044,511.462036 637.256958,509.307617 
	C661.565857,480.593994 672.313599,447.445435 667.777283,410.138306 
	C661.094299,355.175232 630.304810,319.074371 578.758301,300.125916 
	C574.339966,298.501709 570.461304,296.562988 569.136047,291.614075 
	C567.971497,287.264954 568.737122,283.196228 571.891113,280.014008 
	C575.356079,276.517914 579.707275,275.860962 584.381226,277.391235 
	C601.147156,282.880524 616.635559,290.824860 630.727051,301.464905 
	C644.140320,311.592834 655.598145,323.588165 665.328918,337.726318 
z"/>
<path fill="#000000" opacity="1.000000" stroke="none" 
	d="
M561.262390,322.382050 
	C565.699158,318.126770 570.422485,318.168213 575.445007,320.127991 
	C600.221375,329.795563 619.529175,346.010712 633.012329,368.903015 
	C656.177002,408.233246 652.676880,457.211060 624.372559,492.994934 
	C623.034912,494.686035 621.605103,496.347534 619.996460,497.772430 
	C615.999207,501.312988 610.515076,501.664978 606.668335,498.809204 
	C602.441895,495.671509 600.930054,489.788727 603.458069,484.961090 
	C604.676270,482.634766 606.453857,480.573120 608.138489,478.523346 
	C636.229492,444.343201 632.272217,390.614166 599.611267,360.644928 
	C590.014648,351.839264 579.195679,345.289093 567.116089,340.562897 
	C558.328491,337.124725 556.384399,331.036072 561.262390,322.382050 
z"/>
<path fill="#000000" opacity="1.000000" stroke="none" 
	d="
M562.154907,389.736328 
	C558.901367,401.258301 551.727966,408.358643 540.282898,410.140015 
	C529.698120,411.787537 520.962524,407.884247 514.788818,399.003967 
	C508.497772,389.954834 508.916718,376.363800 515.533630,367.587830 
	C522.344116,358.555176 534.093079,354.991364 544.929871,358.671173 
	C555.738098,362.341278 562.505249,371.992249 562.534546,383.857269 
	C562.539001,385.682251 562.330383,387.507751 562.154907,389.736328 
z"/>
<path fill="#000000" opacity="1.000000" stroke="none" 
	d="
M413.995239,470.670959 
	C418.159973,470.678192 421.827820,470.614502 425.491516,470.710571 
	C430.203857,470.834137 433.352325,473.532745 433.046326,477.487854 
	C432.711273,481.818542 429.904449,483.868591 425.706726,484.184143 
	C425.540680,484.196655 425.373749,484.203217 425.207245,484.203278 
	C391.879883,484.215424 358.552460,484.269775 325.225311,484.192078 
	C320.175537,484.180267 317.376678,481.208252 317.585175,476.902527 
	C317.789520,472.682129 320.215210,470.674225 325.511902,470.669312 
	C354.840088,470.642090 384.168304,470.665192 413.995239,470.670959 
z"/>
<path fill="#000000" opacity="1.000000" stroke="none" 
	d="
M335.025696,410.940979 
	C355.970245,410.923767 376.419861,410.922882 396.869354,410.876709 
	C400.571472,410.868317 403.851135,411.415314 405.425385,415.404480 
	C406.987030,419.361725 404.972809,423.328033 400.819824,424.200745 
	C399.855408,424.403412 398.834534,424.386963 397.839600,424.387299 
	C373.898651,424.395691 349.957642,424.416199 326.016754,424.372101 
	C321.068268,424.362976 318.057037,421.990753 317.798309,418.229706 
	C317.519684,414.179504 320.442261,411.372894 325.556061,411.041382 
	C328.537231,410.848175 331.538452,410.964630 335.025696,410.940979 
z"/>
<path fill="#000000" opacity="1.000000" stroke="none" 
	d="
M481.920319,368.993408 
	C485.224823,369.128632 488.070465,369.061646 490.852814,369.449036 
	C494.497223,369.956543 496.332794,372.268158 496.341187,375.994568 
	C496.349701,379.764893 494.445343,381.903687 490.781952,382.432281 
	C488.814362,382.716217 486.814819,382.912750 484.829254,382.916840 
	C467.370026,382.952972 449.910645,382.965820 432.451447,382.922852 
	C424.843384,382.904144 421.820587,380.948547 421.689331,376.210327 
	C421.552948,371.288879 424.641052,369.142303 432.547485,369.072266 
	C445.183838,368.960388 457.821625,369.008057 470.458801,368.991394 
	C474.116974,368.986542 477.775116,368.992371 481.920319,368.993408 
z"/>
<path fill="#000000" opacity="1.000000" stroke="none" 
	d="
M390.000183,498.897949 
	C396.978577,498.895660 403.458069,498.822113 409.935211,498.912811 
	C415.516876,498.990906 418.887634,501.841370 418.839935,506.199982 
	C418.796143,510.203583 415.468445,512.905457 409.983337,512.947998 
	C397.857849,513.042114 385.731018,512.972595 373.604767,512.946228 
	C372.614227,512.944092 371.613129,512.824524 370.635681,512.652893 
	C366.865570,511.990723 364.698517,509.841736 364.662323,505.897705 
	C364.623047,501.618103 367.093658,499.318359 371.069580,499.112061 
	C377.200348,498.793945 383.355469,498.945618 390.000183,498.897949 
z"/>
<path fill="#000000" opacity="1.000000" stroke="none" 
	d="
M363.040955,438.658752 
	C372.347412,438.664337 381.160492,438.637268 389.973114,438.684662 
	C395.802246,438.715973 398.392456,440.875946 398.332153,445.489075 
	C398.273285,449.992401 395.546204,452.236603 389.778656,452.271210 
	C379.137024,452.335083 368.494659,452.334564 357.852905,452.291412 
	C352.436554,452.269470 349.189209,449.677643 349.118500,445.518921 
	C349.043518,441.108124 351.951263,438.738464 357.558960,438.661072 
	C359.221436,438.638123 360.884521,438.657715 363.040955,438.658752 
z"/>
<path fill="#000000" opacity="1.000000" stroke="none" 
	d="
M382.054260,372.041382 
	C388.628265,367.760406 395.418732,369.402374 401.974823,370.539490 
	C404.463165,370.971100 405.520294,373.953400 405.176788,376.673859 
	C404.811005,379.570862 403.134094,381.673279 400.242737,382.263428 
	C395.484375,383.234558 390.625641,383.391205 385.886108,382.277161 
	C381.570343,381.262726 380.153015,377.479523 382.054260,372.041382 
z"/>
</svg>