<svg version="1.1" id="Layer_1" xmlns="http://www.w3.org/2000/svg" xmlns:xlink="http://www.w3.org/1999/xlink" x="0px" y="0px"
	 width="100%" viewBox="0 0 1024 1024" enable-background="new 0 0 1024 1024" xml:space="preserve">
<path fill="#000000" opacity="1.000000" stroke="none" 
	d="
M435.898071,259.783905 
	C459.936554,247.472855 485.069061,241.173004 511.738861,241.722427 
	C548.766052,242.485245 582.054382,254.038605 610.820557,277.549744 
	C645.537048,305.924225 665.527466,342.844238 669.905396,387.195099 
	C674.498718,433.727448 660.561401,475.087708 629.536865,510.290833 
	C603.223511,540.148254 569.832581,557.888000 530.698486,562.921448 
	C480.380615,569.393372 436.118225,554.349548 398.975067,519.761169 
	C369.714294,492.513062 353.501740,458.306793 349.741150,418.733307 
	C344.023254,358.562195 366.870941,310.549011 414.071320,273.579681 
	C420.782227,268.323425 427.987061,263.839447 435.898071,259.783905 
M513.301941,551.600342 
	C530.166382,551.399109 546.426636,547.900208 561.934509,541.527832 
	C619.151245,518.016663 651.400146,474.914612 657.260681,413.791992 
	C661.542664,369.132904 646.223999,329.966644 614.454834,298.129486 
	C580.550781,264.152893 538.973083,249.759430 491.494324,255.714005 
	C453.836273,260.436890 421.935272,277.567200 396.951660,306.717621 
	C357.870728,352.316528 349.816376,417.651306 377.936462,470.799530 
	C406.341034,524.485352 452.191406,550.211609 513.301941,551.600342 
z"/>
<path fill="#000000" opacity="1.000000" stroke="none" 
	d="
M561.889771,715.333435 
	C559.934143,717.721252 561.771423,718.811462 562.910217,720.196960 
	C568.070007,726.474792 565.936279,734.515320 558.233765,736.987976 
	C550.948669,739.326538 543.378113,738.104736 535.921997,737.984924 
	C533.850647,737.951599 533.257019,736.177185 533.197693,734.410156 
	C532.829224,723.433228 532.902405,712.459473 533.491211,701.488892 
	C533.611023,699.255798 534.928162,698.718811 536.807373,698.730408 
	C542.297729,698.764221 547.821350,698.426086 553.270813,698.915344 
	C562.086548,699.706909 566.072571,707.314087 561.889771,715.333435 
M557.695129,730.372192 
	C560.304810,725.316223 559.278076,722.770081 553.986694,721.107788 
	C549.863770,719.812561 545.675476,720.440918 541.647522,721.204529 
	C537.767517,721.940063 539.636658,725.517517 539.391846,727.886841 
	C539.202637,729.718201 538.682434,732.505371 541.609070,732.539917 
	C546.820801,732.601562 552.261658,734.081055 557.695129,730.372192 
M539.388550,707.010376 
	C539.375916,708.835144 539.356567,710.659973 539.352661,712.484741 
	C539.349487,713.971436 539.801514,715.226562 541.539856,715.163086 
	C545.510742,715.018127 549.502747,714.945862 553.434631,714.441895 
	C555.486633,714.178894 556.890564,712.505493 557.415710,710.403625 
	C557.927856,708.353149 556.870178,706.864807 555.372253,705.677490 
	C552.410950,703.330383 542.809753,703.673767 539.388550,707.010376 
z"/>
<path fill="#000000" opacity="1.000000" stroke="none" 
	d="
M750.235413,716.792358 
	C752.846069,720.009888 755.232178,722.953674 758.671204,727.196472 
	C758.671204,718.473694 758.628418,711.258179 758.696899,704.043823 
	C758.717896,701.833618 758.080627,698.887146 761.730103,698.954773 
	C765.135803,699.017822 764.967957,701.946228 764.988831,704.134583 
	C765.080872,713.797241 765.010742,723.462524 764.889832,733.125427 
	C764.866150,735.012756 765.226868,737.386841 762.565552,738.037231 
	C760.132690,738.631897 758.526001,737.343628 757.082947,735.472778 
	C750.885620,727.438538 744.602783,719.470154 737.172485,711.628296 
	C737.172485,717.949219 737.387756,724.280884 737.071411,730.585938 
	C736.936218,733.280762 739.130676,737.946716 734.038940,738.037354 
	C728.875793,738.129272 730.897583,733.442688 730.827820,730.732300 
	C730.600708,721.907043 730.727234,713.071655 730.791260,704.240784 
	C730.805054,702.335449 730.197449,699.953186 732.698364,699.079285 
	C735.207886,698.202515 736.759155,699.989868 738.141724,701.696899 
	C742.125366,706.615356 746.058105,711.575134 750.235413,716.792358 
z"/>
<path fill="#000000" opacity="1.000000" stroke="none" 
	d="
M330.074341,731.910889 
	C330.020355,733.354492 330.035614,734.358948 329.891602,735.340088 
	C329.596863,737.348389 328.285675,738.161987 326.362244,738.002319 
	C324.553436,737.852112 323.740173,736.686646 323.739197,734.971680 
	C323.732971,723.837585 323.732056,712.703369 323.781769,701.569458 
	C323.792816,699.092529 325.588989,698.685303 327.575623,698.691467 
	C332.561462,698.706970 337.553162,698.595093 342.531525,698.800598 
	C348.301361,699.038757 353.546631,702.709595 355.032196,707.208130 
	C356.893646,712.844849 355.292725,718.014709 350.369354,722.308105 
	C349.763428,722.836487 349.197632,723.410828 348.512085,724.059570 
	C350.381409,728.942505 354.567871,732.418701 356.212433,737.426514 
	C352.332184,739.114685 349.737244,738.191650 347.759918,735.066040 
	C346.338989,732.819946 344.687164,730.708130 343.404083,728.389404 
	C341.717163,725.340942 339.367523,724.808533 335.984741,724.833313 
	C331.035248,724.869690 329.397858,726.886597 330.074341,731.910889 
M330.297729,706.121521 
	C329.360352,719.523926 329.597443,719.715149 341.921234,718.979736 
	C345.973480,718.737976 348.779724,716.962708 349.347137,713.032776 
	C349.942139,708.911499 347.714539,705.739990 343.730804,704.795166 
	C339.440918,703.777832 334.942535,703.416565 330.297729,706.121521 
z"/>
<path fill="#000000" opacity="1.000000" stroke="none" 
	d="
M682.543945,711.874634 
	C686.537048,702.502014 693.518921,698.293152 703.145264,698.742126 
	C711.520508,699.132812 717.578003,703.478882 720.988892,711.070312 
	C724.404846,718.672913 722.528198,727.436584 716.721619,733.069580 
	C710.721863,738.890015 700.540466,740.426636 692.553284,736.716919 
	C685.425537,733.406494 680.809265,725.289917 681.498291,717.116394 
	C681.636414,715.477417 682.098022,713.865784 682.543945,711.874634 
M690.730225,727.627258 
	C697.264526,734.006348 705.241211,734.794006 711.286743,729.657166 
	C716.697815,725.059448 717.516296,715.673889 713.033752,709.622742 
	C708.724060,703.804749 700.918762,702.526306 694.232910,706.543579 
	C687.979187,710.300903 686.298889,719.029053 690.730225,727.627258 
z"/>
<path fill="#000000" opacity="1.000000" stroke="none" 
	d="
M447.638611,729.330750 
	C446.305145,731.665833 445.287811,733.755615 444.210083,735.813904 
	C443.101013,737.932007 441.213531,738.585510 439.154602,737.695374 
	C436.888885,736.715942 438.039642,734.872375 438.683990,733.421997 
	C443.350159,722.919006 447.984253,712.400085 452.820740,701.975342 
	C454.726501,697.867615 459.056305,697.318054 460.837860,701.003967 
	C466.479645,712.676575 471.773041,724.517578 477.277954,736.460022 
	C473.423645,738.744934 470.707123,738.355408 469.501129,734.372070 
	C468.140686,729.878601 465.665344,727.881165 460.792786,728.453247 
	C456.544678,728.951965 452.171112,727.726501 447.638611,729.330750 
M455.265717,710.124329 
	C453.711884,714.058411 451.351105,717.709900 450.727722,722.551697 
	C455.052094,722.961304 459.026978,723.510498 463.342682,722.144836 
	C462.604492,716.614380 459.819000,712.146423 457.895020,707.443848 
	C456.285950,707.633606 456.204254,708.867493 455.265717,710.124329 
z"/>
<path fill="#000000" opacity="1.000000" stroke="none" 
	d="
M607.195435,725.751953 
	C603.973572,735.367554 597.301880,740.037048 588.866516,738.945984 
	C579.597351,737.747070 574.118408,731.555420 573.760803,721.495789 
	C573.548157,715.514343 573.680481,709.518982 573.734253,703.530579 
	C573.753418,701.393433 573.543213,698.846924 576.784851,698.894226 
	C580.004578,698.941162 579.766663,701.669556 579.825562,703.666077 
	C580.006958,709.815979 579.778137,715.978455 579.978333,722.127258 
	C580.206238,729.129150 584.345215,733.024170 591.012085,732.886719 
	C597.068420,732.761902 600.616150,729.566833 600.885681,723.340637 
	C601.165955,716.864868 600.913513,710.367615 601.030823,703.882263 
	C601.070618,701.683960 600.573425,698.798035 604.189636,698.834473 
	C607.740967,698.870239 607.317810,701.653320 607.326477,703.915100 
	C607.353943,711.058777 607.284302,718.202820 607.195435,725.751953 
z"/>
<path fill="#000000" opacity="1.000000" stroke="none" 
	d="
M397.757080,707.078979 
	C397.774078,705.095032 397.771790,703.597046 397.813354,702.100281 
	C397.864868,700.244629 398.451782,698.873474 400.649811,698.772278 
	C403.072083,698.660828 403.969543,700.064453 403.990662,702.148071 
	C404.058044,708.803345 403.919312,715.462158 404.074158,722.114624 
	C404.211670,728.021118 407.540070,731.932678 412.698303,732.697876 
	C419.403534,733.692627 424.597565,729.656982 424.910339,722.865173 
	C425.208649,716.386597 425.034729,709.886780 425.298309,703.405640 
	C425.375977,701.496948 424.827271,698.700989 428.314056,698.773926 
	C431.620850,698.843079 431.307281,701.277222 431.320740,703.411133 
	C431.360596,709.734497 431.456299,716.061157 431.307312,722.381226 
	C431.073273,732.311340 424.425171,738.758545 414.428558,738.974915 
	C405.602875,739.165894 398.411743,732.396606 397.866760,723.038086 
	C397.567261,717.895874 397.777039,712.723938 397.757080,707.078979 
z"/>
<path fill="#000000" opacity="1.000000" stroke="none" 
	d="
M289.874786,707.970764 
	C290.963379,705.676697 291.913177,703.734131 292.830963,701.776489 
	C294.204620,698.846497 296.283295,697.944336 299.139221,699.339905 
	C300.081390,700.636841 299.510498,701.772644 299.059235,702.788452 
	C294.266022,713.578857 289.404846,724.339050 284.609650,735.128601 
	C283.803864,736.941711 282.787354,738.181763 280.600708,738.266541 
	C278.156219,738.361206 277.057739,736.989868 276.194458,734.990234 
	C271.514709,724.149902 266.779114,713.333801 262.071472,702.505554 
	C261.672729,701.588379 261.312683,700.646423 261.819916,699.424072 
	C264.906830,697.793030 266.965607,698.884705 268.332245,702.049744 
	C271.298431,708.919067 274.291565,715.776855 277.312378,722.622375 
	C278.098450,724.403564 278.563507,726.383484 280.537781,728.171509 
	C284.470886,721.796021 286.610870,714.816772 289.874786,707.970764 
z"/>
<path fill="#000000" opacity="1.000000" stroke="none" 
	d="
M666.045044,733.614319 
	C665.916260,736.550110 665.086914,738.413696 662.145996,737.964600 
	C659.344543,737.536804 659.661987,735.224426 659.656555,733.272034 
	C659.634705,725.443665 659.509583,717.609680 659.765076,709.788940 
	C659.899658,705.669495 658.483948,704.189514 654.316650,704.278503 
	C651.793762,704.332458 647.232178,706.220093 647.350830,701.396301 
	C647.454407,697.185059 651.689209,698.896118 654.178345,698.814575 
	C661.000427,698.590759 667.834106,698.701782 674.663086,698.721680 
	C676.670166,698.727539 678.941956,698.608276 679.096008,701.472595 
	C679.258545,704.493591 676.931458,704.264099 674.935730,704.383911 
	C665.965759,704.922363 665.956970,704.924927 665.974976,714.168457 
	C665.987305,720.497803 666.028931,726.827148 666.045044,733.614319 
z"/>
<path fill="#000000" opacity="1.000000" stroke="none" 
	d="
M360.143524,702.818848 
	C359.563354,699.783325 360.857208,698.719849 363.331360,698.720276 
	C371.651917,698.721741 379.972443,698.717651 388.292999,698.716125 
	C390.140961,698.715820 391.675720,699.210876 391.725342,701.405090 
	C391.783661,703.983704 389.950867,704.118347 387.983398,704.262329 
	C379.136078,704.909424 379.137177,704.940186 379.159973,713.749390 
	C379.176758,720.239624 379.202759,726.729919 379.212769,733.220154 
	C379.216553,735.668213 379.117401,738.126343 375.698517,737.997864 
	C372.543457,737.879272 372.676361,735.486267 372.671661,733.291016 
	C372.654877,725.469299 372.419220,717.637146 372.754791,709.829956 
	C372.949341,705.304077 371.299194,703.897034 366.998871,704.270691 
	C364.792023,704.462463 362.309998,705.044861 360.143524,702.818848 
z"/>
<path fill="#000000" opacity="1.000000" stroke="none" 
	d="
M626.245728,735.405334 
	C626.098267,726.476685 625.909424,717.985901 626.046509,709.500366 
	C626.108765,705.641602 624.789978,703.894775 620.829956,704.350464 
	C619.352356,704.520508 617.837036,704.359924 616.338928,704.355408 
	C614.618896,704.350159 613.386414,703.728455 613.364685,701.803894 
	C613.345215,700.080505 614.118469,698.831665 615.969666,698.823181 
	C624.624695,698.783447 633.280334,698.787292 641.935303,698.843750 
	C643.658691,698.854980 644.798340,699.825684 644.699463,701.665100 
	C644.618225,703.177490 643.690430,704.069336 642.145264,704.236938 
	C641.814575,704.272827 641.481323,704.286011 641.151001,704.324585 
	C632.283325,705.360840 632.276306,705.361206 632.290405,714.205383 
	C632.301086,720.864502 632.356873,727.523682 632.336426,734.182678 
	C632.331970,735.635498 632.538574,737.387146 630.655884,737.931458 
	C628.700562,738.496765 626.996399,738.152466 626.245728,735.405334 
z"/>
<path fill="#000000" opacity="1.000000" stroke="none" 
	d="
M504.819458,732.681274 
	C507.380341,732.826538 510.042084,732.284058 510.072052,735.536133 
	C510.103241,738.918457 507.330475,738.265869 505.315033,738.279541 
	C499.667358,738.317810 494.017975,738.132446 488.370605,738.182556 
	C485.124786,738.211365 483.600586,737.113586 483.541473,733.560608 
	C483.373077,723.435303 483.069916,713.315735 483.641998,703.194641 
	C483.754333,701.207764 483.522614,698.896973 486.476532,698.919250 
	C489.403351,698.941223 489.273987,701.229431 489.277740,703.228027 
	C489.293335,711.534729 489.374512,719.843933 489.196564,728.147156 
	C489.121704,731.638916 490.456482,732.936035 493.879608,732.744080 
	C497.357941,732.549011 500.855042,732.687683 504.819458,732.681274 
z"/>
<path fill="#000000" opacity="1.000000" stroke="none" 
	d="
M312.170471,717.000854 
	C312.190155,722.813416 312.222839,728.126343 312.216217,733.439270 
	C312.213470,735.633728 312.332184,738.090515 309.130798,738.004761 
	C306.089355,737.923340 305.980621,735.497314 305.964935,733.312012 
	C305.892120,723.184753 305.879333,713.056946 305.879120,702.929382 
	C305.879089,700.830688 306.144775,698.799988 308.988342,698.838013 
	C311.849030,698.876221 311.988861,701.064087 312.045898,703.054749 
	C312.174255,707.534424 312.137329,712.018799 312.170471,717.000854 
z"/>
<path fill="#000000" opacity="1.000000" stroke="none" 
	d="
M395.933472,342.028625 
	C416.720184,305.304321 447.369934,282.456696 488.664062,275.380768 
	C524.151489,269.299866 556.948669,277.258453 585.896118,298.881195 
	C616.463867,321.714203 634.095886,352.582184 637.969116,390.361237 
	C641.640259,426.168945 630.930603,458.260712 607.781372,485.864868 
	C586.225525,511.569061 558.650024,527.260498 525.351379,531.355103 
	C489.061523,535.817566 456.451141,526.038513 427.967651,502.859131 
	C402.207275,481.895752 387.405792,454.555969 382.096039,422.189911 
	C377.504272,394.200867 382.778656,367.524780 395.933472,342.028625 
M529.392700,517.809937 
	C537.477356,516.457092 545.290100,514.178833 552.783691,510.850647 
	C595.155273,492.031860 619.903137,459.493744 625.285583,413.653076 
	C628.954468,382.406036 619.810181,353.937317 599.627625,329.447845 
	C571.024780,294.741150 533.853577,282.035248 490.048767,288.248291 
	C468.301392,291.332825 449.119629,300.968353 432.764435,315.776123 
	C404.228943,341.611755 390.918976,374.203125 393.721008,412.222198 
	C396.204254,445.916382 411.206238,474.072571 438.295380,495.061951 
	C465.017731,515.767029 495.234924,523.025635 529.392700,517.809937 
z"/>
</svg>