<svg version="1.1" id="Layer_1" xmlns="http://www.w3.org/2000/svg" xmlns:xlink="http://www.w3.org/1999/xlink" x="0px" y="0px"
	 width="100%" viewBox="0 0 1024 1024" enable-background="new 0 0 1024 1024" xml:space="preserve">
<path fill="none" opacity="1.000000" stroke="#000000" stroke-linecap="round" stroke-linejoin="round" stroke-width="8.000000"
	d="
M536.500000,499.000000 
	C535.947144,508.341461 539.592407,516.309814 545.059387,523.454529 
	C549.943542,529.837463 555.423889,535.760742 560.452148,542.038330 
	C562.277710,544.317444 563.911621,547.047913 561.484253,549.987000 
	C558.623474,553.450928 555.095947,553.571167 552.040833,549.965393 
	C546.068420,542.916565 540.450989,535.566101 534.445801,528.546387 
	C531.812256,525.467957 529.773010,522.598389 532.000000,518.500000 
"/>
<path fill="none" opacity="1.000000" stroke="#000000" stroke-linecap="round" stroke-linejoin="round" stroke-width="8.000000"
	d="
M522.000000,503.500000 
	C523.000000,504.833344 524.148804,506.081818 524.967896,507.518311 
	C526.496216,510.198517 526.790344,512.567749 523.538635,514.562927 
	C520.197937,516.612671 517.346558,519.481567 513.953918,521.419312 
	C509.832306,523.773315 507.523560,527.221924 505.981873,531.493469 
	C504.227173,536.355164 502.336243,541.167786 500.499115,545.999695 
	C498.914276,550.168091 499.791107,553.159485 503.000000,554.500000 
	C505.700409,555.628113 508.768951,553.867920 510.472717,549.988037 
	C511.616089,547.384277 512.701782,544.722900 513.463013,541.989685 
	C515.980713,532.950439 522.397705,527.699646 530.500000,524.000000 
"/>
<path fill="none" opacity="1.000000" stroke="#000000" stroke-linecap="round" stroke-linejoin="round" stroke-width="8.000000"
	d="
M523.000000,495.500000 
	C522.100525,502.405548 518.132690,506.886810 511.490295,507.938812 
	C508.212769,508.457916 504.830597,508.503815 501.500793,508.450226 
	C498.405853,508.400421 496.155884,506.402374 496.155884,503.500000 
	C496.155884,500.597626 498.422485,498.440674 501.497467,498.563477 
	C511.142609,498.948730 515.841248,493.601624 518.023560,485.005981 
	C518.295654,483.934418 518.313049,482.401764 519.516052,482.055725 
	C523.153137,481.009552 523.815735,477.540405 525.442810,474.963867 
	C529.109863,469.156799 527.132935,462.699158 521.000000,459.499969 
	C515.838928,456.807739 508.322601,459.474854 505.500000,465.000000 
	C503.093628,469.710449 506.267365,476.904602 512.012756,479.471405 
	C514.268250,480.479065 516.666687,481.166687 519.000000,482.000031 
"/>
<path fill="none" opacity="1.000000" stroke="#000000" stroke-linecap="round" stroke-linejoin="round" stroke-width="8.000000"
	d="
M476.500000,478.750000 
	C465.717621,485.886963 463.327240,496.787659 464.163025,508.488342 
	C464.760742,516.855774 468.245178,524.413330 475.000000,530.000000 
"/>
<path fill="none" opacity="1.000000" stroke="#000000" stroke-linecap="round" stroke-linejoin="round" stroke-width="8.000000"
	d="
M531.500000,486.000000 
	C539.258179,484.587952 549.868774,489.733307 552.982788,496.507904 
	C554.417053,499.628174 555.517517,502.906982 557.035400,505.982544 
	C559.251465,510.472961 559.783447,510.896027 554.000000,515.000000 
"/>
<path fill="none" opacity="1.000000" stroke="#000000" stroke-linecap="round" stroke-linejoin="round" stroke-width="8.000000"
	d="
M487.500000,489.750000 
	C478.048370,496.826935 479.899567,513.615540 487.385223,519.642578 
	C488.637207,520.650574 489.525726,520.089478 490.500000,520.500000 
"/>
<path fill="none" opacity="1.000000" stroke="#000000" stroke-linecap="round" stroke-linejoin="round" stroke-width="8.000000"
	d="
M523.500000,481.000000 
	C525.333313,482.000000 527.174072,482.986755 528.997803,484.003967 
	C530.612183,484.904419 530.753845,485.979553 530.693542,488.005768 
	C530.534119,493.365692 534.503479,497.373657 540.001648,498.491791 
	C543.355164,499.173798 545.061157,501.687439 545.920166,504.524170 
	C547.371582,509.317108 549.802917,513.231323 554.000000,516.000000 
"/>
<path fill="none" opacity="1.000000" stroke="#000000" stroke-linecap="round" stroke-linejoin="round" stroke-width="10.000000"
	d="
M454.500000,168.500000 
	C449.071655,170.128860 443.369965,170.507095 437.984894,172.458344 
	C409.622681,182.735214 390.707367,202.046036 382.102295,231.030380 
	C380.390503,236.796341 379.381714,242.826187 379.445435,249.000565 
	C379.608826,264.832214 380.029541,280.689240 379.355774,296.493866 
	C378.636993,313.354492 379.775146,330.166046 379.511871,347.000183 
	C379.287781,361.332642 378.559387,375.692719 379.173431,389.992554 
	C379.768921,403.860229 378.117920,417.683624 379.070007,431.495178 
	C380.002136,445.017334 378.883423,458.500366 379.006348,471.999939 
	C379.986938,579.665466 379.098999,687.334412 379.695618,794.998901 
	C379.789795,811.991821 386.438385,827.541199 397.047607,840.962402 
	C409.807892,857.104980 426.602203,867.164612 446.523224,871.902405 
	C450.555328,872.861267 454.707397,873.586487 459.000244,873.571045 
	C493.999786,873.444885 529.000305,873.590942 563.999878,873.466248 
	C585.296082,873.390381 603.430359,865.385620 619.031921,851.034729 
	C630.374878,840.601074 638.369629,828.118347 642.949646,813.484253 
	C645.177979,806.364502 646.502686,799.022095 646.502502,791.500000 
	C646.499268,611.166687 646.528015,430.833344 646.459106,250.500015 
	C646.451782,231.256241 639.423523,214.339951 627.451111,199.539566 
	C614.987305,184.131805 598.587891,174.755539 579.482422,170.071625 
	C575.436340,169.079681 571.167969,168.578491 566.999817,168.565872 
	C529.666809,168.452927 492.333344,168.500000 455.000000,168.500000 
"/>
</svg>