<svg version="1.1" id="Layer_1" xmlns="http://www.w3.org/2000/svg" xmlns:xlink="http://www.w3.org/1999/xlink" x="0px" y="0px"
	 width="100%" viewBox="0 0 672 1024" enable-background="new 0 0 672 1024" xml:space="preserve">
<path fill="#000000" opacity="1.000000" stroke="none" 
	d="
M592.169800,443.000000 
	C592.245544,520.829895 592.283691,598.159790 592.417297,675.489563 
	C592.457581,698.805542 592.899536,722.120911 592.915405,745.436768 
	C592.940857,782.935852 581.737366,816.657288 557.594666,845.544128 
	C538.079712,868.893799 513.451172,883.960754 482.887238,887.910645 
	C469.626160,889.624390 456.266235,888.015137 442.971283,887.230286 
	C416.209778,885.650391 389.399872,884.554504 362.715820,882.105286 
	C341.478485,880.156006 323.456696,869.943298 307.485779,856.176270 
	C293.023438,843.709656 281.742310,828.784119 273.909821,811.315491 
	C273.569611,810.556641 273.207733,809.803528 272.795044,809.082642 
	C272.554016,808.661621 272.192017,808.309937 271.905762,807.953613 
	C270.137665,807.372681 269.016052,808.621216 267.764465,809.317444 
	C206.625839,843.326050 131.723984,821.195618 98.378639,759.465637 
	C82.231880,729.574341 75.864281,697.775452 78.402199,664.039368 
	C78.552040,662.047546 78.592209,660.044556 78.609505,658.046143 
	C79.048050,607.389526 79.434608,556.732361 79.923988,506.076263 
	C80.187965,478.750854 80.254982,451.415527 81.111992,424.106659 
	C81.697662,405.444031 81.207458,386.778839 81.906303,368.134125 
	C83.463326,326.594025 97.045021,289.704895 126.727089,260.044464 
	C152.207626,234.582550 183.155273,220.896194 219.739029,221.948318 
	C231.775635,222.294495 243.591858,224.468552 254.926941,228.638351 
	C258.971405,230.126175 260.738342,229.509476 261.883636,225.014038 
	C268.030426,200.886749 278.706696,178.992035 296.022339,160.870850 
	C316.483887,139.457397 340.417725,125.429337 371.222931,124.462730 
	C403.498657,123.449974 435.710114,120.495682 467.982849,119.248878 
	C495.434509,118.188347 519.918396,127.390266 540.701294,145.117020 
	C573.612366,173.188400 590.404785,209.580063 591.115662,252.530411 
	C592.163574,315.842072 591.883423,379.175720 592.169800,443.000000 
M221.617493,646.757996 
	C234.267471,646.922729 246.516983,645.220825 257.833252,639.112549 
	C249.514389,640.197876 241.407227,642.477661 233.043060,643.138306 
	C224.636185,643.802307 216.461243,642.141113 208.331650,640.289673 
	C196.491592,637.593079 188.234070,633.340820 186.253052,627.618835 
	C207.232849,638.172119 228.139114,641.846863 249.996414,635.460754 
	C246.390457,635.520447 242.790939,636.081360 239.175507,636.216248 
	C235.521332,636.352478 231.822937,636.312622 228.196716,635.893311 
	C224.857529,635.507141 221.114990,636.008057 218.410995,632.750793 
	C227.867996,632.179504 237.217819,632.195068 246.706650,631.132446 
	C242.617569,629.465698 242.610916,624.731934 239.175003,622.344543 
	C223.635910,611.547058 212.338470,596.888550 206.885910,579.032837 
	C203.633636,568.382568 198.368362,565.443909 188.160034,565.202087 
	C172.220016,564.824585 162.361374,556.080383 158.216522,540.753601 
	C153.365189,522.814209 162.854156,503.926758 179.362503,498.612366 
	C184.750000,496.878021 190.289490,497.710602 195.741165,497.768433 
	C200.249908,497.816254 202.509125,496.426819 203.918640,491.840027 
	C210.843460,469.305359 222.854462,450.080109 241.947205,435.723419 
	C243.133377,434.831512 244.510712,434.084137 244.783798,432.407593 
	C245.381516,428.737946 248.052322,427.272858 251.200714,426.182312 
	C253.117905,425.518188 255.310120,425.300201 257.268707,423.234772 
	C246.620987,418.771667 235.600815,419.544708 224.955460,417.926941 
	C235.469757,414.073364 245.983582,416.459961 256.495239,417.060547 
	C249.844040,414.224609 242.951111,412.669983 235.784439,412.351715 
	C224.996338,411.872620 214.588150,413.817444 204.357147,417.114075 
	C202.597946,417.680939 200.428238,419.373047 197.986862,416.080200 
	C217.399933,406.753082 236.993958,405.787750 257.330750,410.532196 
	C242.487198,403.408234 226.910538,402.231262 210.829041,404.318756 
	C226.385025,398.370239 241.702652,401.245636 256.618561,405.296387 
	C257.912231,403.910339 257.700134,402.693390 257.691803,401.558777 
	C257.376556,358.576050 258.321136,315.587463 257.113953,272.609314 
	C256.875031,264.102966 257.226685,255.606476 258.176849,247.176620 
	C258.983215,240.022537 259.055481,239.641464 252.388992,237.487030 
	C222.076141,227.690796 193.796661,233.307922 168.198090,250.796860 
	C128.032761,278.237823 109.412582,318.065125 106.355316,365.663361 
	C105.117676,384.932007 105.868935,404.299408 105.546112,423.622681 
	C104.716782,473.263458 104.507919,522.914612 104.048302,572.561646 
	C103.983528,579.559021 103.928177,586.556702 103.825989,593.553589 
	C103.334885,627.180603 101.732979,660.838074 103.387749,694.430664 
	C105.162308,730.454895 119.161423,761.518433 145.278244,786.754639 
	C177.501053,817.890991 223.338867,823.607910 262.417389,801.627258 
	C266.485046,799.339355 268.041504,797.356750 266.239075,792.310486 
	C260.827637,777.160400 258.479187,761.437622 258.589600,745.265015 
	C258.807983,713.274475 258.639832,681.281189 258.582794,649.289124 
	C258.579681,647.546570 259.223328,645.624939 257.391632,643.587769 
	C241.723221,648.731750 225.589264,651.499207 209.084625,646.969299 
	C212.933807,645.390259 216.795456,647.120850 221.617493,646.757996 
M354.882080,532.500000 
	C354.867950,447.169128 354.845795,361.838287 354.847656,276.507416 
	C354.847961,262.522034 354.591064,248.525955 356.657257,234.622070 
	C360.973572,205.576736 371.904358,179.534592 391.745819,157.597305 
	C401.646240,146.651184 413.300140,137.906281 427.833252,130.830093 
	C415.652924,131.394852 404.909180,131.791580 394.178802,132.417938 
	C382.548370,133.096817 370.790192,133.118927 359.335022,134.963303 
	C332.204529,139.331528 311.701813,154.839417 295.420807,176.157166 
	C274.801727,203.154999 266.528412,234.035919 266.807220,267.825409 
	C267.821930,390.812042 266.672760,513.806030 267.857330,636.794373 
	C268.204041,672.789917 268.121857,708.792297 267.910065,744.789673 
	C267.741180,773.494446 275.807526,799.705505 291.295807,823.599426 
	C307.309814,848.304443 328.967651,865.612122 358.271332,872.163452 
	C365.956451,873.881653 373.834808,873.732422 381.628021,874.258972 
	C396.695435,875.277283 411.788513,875.914856 427.908875,876.765015 
	C425.488556,875.342407 423.980835,874.403076 422.425812,873.550110 
	C399.755554,861.114441 383.295197,842.802368 371.780670,819.866760 
	C359.799774,796.002197 354.994843,770.501648 354.968353,743.992859 
	C354.898285,673.828552 354.903259,603.664307 354.882080,532.500000 
M582.697571,438.500305 
	C582.667786,378.017487 582.841858,317.533783 581.898315,257.055054 
	C581.794495,250.399200 581.750977,243.759109 580.753113,237.130768 
	C576.864990,211.306061 567.584412,187.894775 549.460876,168.703552 
	C524.155457,141.907410 493.503510,129.764313 456.861298,138.445389 
	C426.914093,145.540314 406.579620,165.439850 392.214142,191.855789 
	C381.158386,212.185593 376.366760,234.209045 376.327423,257.203430 
	C376.210815,325.355377 376.321838,393.507690 376.330170,461.659882 
	C376.331024,468.638519 377.198639,475.601868 376.479248,482.600952 
	C377.054535,481.145691 377.378967,479.690155 377.643158,478.223724 
	C382.832153,449.423401 394.463379,423.766876 415.996460,403.532654 
	C437.191071,383.616394 462.350311,373.171936 491.746613,377.556213 
	C526.566650,382.749390 550.946899,403.280334 568.170837,433.078522 
	C574.760986,444.479736 579.153076,456.835663 582.698364,469.489532 
	C582.698364,459.493134 582.698364,449.496765 582.697571,438.500305 
M562.868286,581.290039 
	C557.316956,589.656799 550.842407,597.223022 543.581421,604.170593 
	C511.615875,634.756470 465.994995,639.141235 429.263306,614.568970 
	C399.320190,594.537964 383.971771,565.254700 377.710968,530.544312 
	C377.454041,529.119995 377.767334,527.526611 376.888397,526.665955 
	C376.888397,533.762817 376.881775,541.069397 376.889404,548.376038 
	C376.957062,613.040833 377.011658,677.705688 377.116974,742.370422 
	C377.129700,750.193604 377.197174,758.001709 378.061279,765.822632 
	C381.245514,794.641785 391.695068,820.218018 411.143677,841.934937 
	C440.501892,874.717163 487.425476,882.018127 524.796326,858.992432 
	C560.699768,836.870972 577.766541,803.083801 582.662720,762.274536 
	C584.574829,746.337952 583.226929,730.327271 583.165100,714.343323 
	C582.956238,660.345398 582.935486,606.346680 582.845581,552.348267 
	C582.836182,546.673279 582.844360,540.998291 582.844360,535.323303 
	C578.214233,551.391174 572.399597,566.735901 562.868286,581.290039 
M519.185120,404.080658 
	C529.732544,407.476471 538.551697,413.983948 547.716736,419.985016 
	C542.320190,411.535553 534.901978,405.262787 526.737122,399.826050 
	C508.873657,387.931335 489.272949,382.156433 467.941101,385.876129 
	C444.114288,390.030853 424.854492,402.568451 410.551575,421.953918 
	C386.028534,455.191132 379.023285,492.481873 386.773224,532.717590 
	C392.034424,560.032593 404.302032,583.547119 425.678741,601.851196 
	C453.240540,625.451416 490.800323,628.740112 521.439941,610.270813 
	C534.792725,602.221863 546.338867,591.244690 551.112000,581.697815 
	C547.247803,585.967224 543.111572,588.802368 539.061951,591.680054 
	C524.082275,602.324585 507.440125,608.457642 488.951599,606.754822 
	C463.301300,604.392395 443.415924,591.368469 428.989838,570.458130 
	C402.559601,532.148193 402.883087,476.869049 429.202576,438.551056 
	C447.592438,411.777710 481.240814,391.661224 519.185120,404.080658 
M374.053223,231.867645 
	C377.107239,214.832413 382.312378,198.510818 391.577393,183.814117 
	C413.794586,148.571793 444.629944,128.834000 487.571472,131.771164 
	C493.064545,132.146912 498.487518,133.547638 503.942963,134.473541 
	C465.115814,120.885307 430.731903,129.572495 401.772156,157.453918 
	C374.058228,184.135880 362.319336,218.315811 362.285553,256.340363 
	C362.140137,420.152435 362.297119,583.964783 362.283173,747.776978 
	C362.281281,769.919189 366.737823,791.083740 375.513947,811.343872 
	C392.349243,850.208862 431.005554,883.315613 479.376068,878.911072 
	C488.257111,878.102295 496.742981,875.927612 505.027588,872.767151 
	C495.394928,875.646362 485.517761,877.406067 475.530396,876.924011 
	C450.909271,875.735535 429.668732,866.366699 412.078613,849.024719 
	C386.139557,823.451477 374.864685,791.529541 372.849609,755.973877 
	C371.889008,739.024414 372.143097,721.997070 372.124268,705.004761 
	C371.965240,561.523621 371.877380,418.042511 371.744965,274.561401 
	C371.732056,260.573090 371.515533,246.582535 374.053223,231.867645 
M182.482498,236.382660 
	C178.438400,237.924423 174.241776,239.155548 170.373291,241.054977 
	C119.621635,265.974182 94.750031,308.744049 91.878059,363.279083 
	C89.155815,414.971191 90.315804,466.883484 89.399353,518.695679 
	C88.706848,557.846558 88.538673,597.006592 88.102737,636.162170 
	C88.034126,642.324829 87.819206,648.486694 87.609795,654.646790 
	C86.747856,680.002502 86.731339,705.205994 95.280594,729.667603 
	C105.142731,757.885681 121.091431,781.412537 146.215820,798.162903 
	C154.232742,803.507812 163.040833,807.284180 172.098083,810.527893 
	C151.984726,800.760681 135.870087,786.448059 123.515961,767.958496 
	C106.468658,742.444885 98.134193,714.005737 98.037857,683.553162 
	C97.914017,644.405884 99.013115,605.255066 99.551498,566.105286 
	C99.945580,537.448364 99.705765,508.790833 100.457207,480.129303 
	C101.356712,445.820129 101.458771,411.486664 101.592361,377.162506 
	C101.645744,363.444855 102.579803,349.886719 105.796501,336.547241 
	C114.851135,298.998016 133.626236,267.958588 166.494202,246.447601 
	C172.740341,242.359711 179.115784,238.476318 185.904648,235.252838 
	C184.981033,235.560226 184.057404,235.867615 182.482498,236.382660 
M230.343719,511.849579 
	C221.422928,546.692200 239.291504,583.085144 257.555328,592.214233 
	C257.555328,551.899841 257.555328,511.556305 257.555328,471.366516 
	C255.829544,470.853394 255.205902,471.800629 254.448502,472.365417 
	C241.383896,482.107666 234.578354,495.724670 230.343719,511.849579 
M450.661285,457.116425 
	C448.024872,462.424988 445.218048,467.673218 444.226624,474.024902 
	C450.574615,475.712982 456.684601,476.722412 462.329590,479.145782 
	C466.138275,480.780884 467.755127,479.825806 469.107239,475.786102 
	C474.769958,458.867645 485.557007,446.292511 501.943817,438.786743 
	C503.126678,438.244995 504.512939,437.943451 505.105377,436.220184 
	C502.792908,432.071136 498.996552,429.037323 495.746002,425.511627 
	C492.299438,421.773407 488.832336,421.898346 484.568146,424.010925 
	C469.901062,431.277405 458.718018,442.047363 450.661285,457.116425 
M480.155212,578.454651 
	C485.815338,574.450134 491.276764,570.240906 495.529633,563.997131 
	C478.833221,553.664001 470.402496,538.026794 465.621429,519.753601 
	C458.172058,522.534851 451.724365,526.543945 444.183258,527.497681 
	C442.122498,527.758301 442.241272,529.517273 442.685730,531.036865 
	C448.248840,550.056946 457.490814,566.579163 474.608429,577.682800 
	C476.063812,578.626892 477.546722,580.111389 480.155212,578.454651 
M223.715286,524.669128 
	C223.915115,517.924255 225.933792,511.436523 227.114029,504.581329 
	C221.596085,505.206299 216.682343,506.053955 211.743179,506.245117 
	C206.135666,506.462158 202.739075,509.109741 201.071320,514.277710 
	C197.382812,525.707397 197.139801,537.138184 201.324554,548.491943 
	C202.547394,551.809631 204.246078,555.239746 207.797760,556.321350 
	C214.093094,558.238464 220.679810,558.625793 227.941452,559.315308 
	C224.198242,547.837646 223.171570,536.818359 223.715286,524.669128 
M221.191696,495.829346 
	C224.821823,496.168610 226.503525,493.957581 227.885361,491.020721 
	C232.117676,482.025574 237.780746,473.987640 245.620285,467.844238 
	C249.663757,464.675598 252.601196,461.347778 252.569290,456.040741 
	C252.540512,451.253998 253.603226,446.383392 251.739868,441.722290 
	C249.899597,437.118927 248.398041,436.647675 244.413376,439.568573 
	C233.075806,447.879150 224.498474,458.575958 217.759109,470.816010 
	C213.356934,478.811249 209.768585,487.126740 207.573700,496.203125 
	C212.216232,497.604980 216.260849,496.036682 221.191696,495.829346 
M163.905411,519.560730 
	C159.798615,532.233398 161.186356,543.943054 170.694077,553.782349 
	C177.188522,560.503296 189.466187,563.361206 197.820740,560.546570 
	C187.838593,553.558594 183.153290,543.924683 182.675095,532.064087 
	C182.199509,520.268433 186.396454,510.460724 195.735367,502.481873 
	C178.284866,501.535706 170.731415,505.563629 163.905411,519.560730 
M242.215317,619.298584 
	C244.140121,620.583801 245.951935,621.330017 248.006592,619.313232 
	C253.133667,614.280518 252.848755,601.190369 247.308212,596.631104 
	C239.200684,589.959595 233.010864,581.808411 228.257324,572.504944 
	C227.509064,571.040466 227.100464,569.096802 225.331223,568.652222 
	C219.595276,567.210876 213.762817,566.487122 206.933777,566.416748 
	C213.308044,588.162537 223.741104,605.959656 242.215317,619.298584 
M464.366791,482.827240 
	C458.808319,481.095337 453.269867,479.294861 447.682465,477.661835 
	C445.079376,476.901031 442.851746,476.931122 442.044556,480.488739 
	C439.026428,493.791229 438.227142,507.141083 440.566711,520.626770 
	C441.196625,524.257751 443.217468,525.116394 446.687622,524.259277 
	C452.425049,522.842224 457.502289,519.959961 462.803650,517.559631 
	C464.848175,516.633972 465.081543,515.151245 464.866028,513.077087 
	C463.968048,504.435425 464.066956,495.806366 465.765717,487.241364 
	C466.049530,485.810333 466.669281,484.261780 464.366791,482.827240 
M481.148987,406.616882 
	C457.048828,412.747314 439.665100,427.664062 428.236908,449.139191 
	C410.439545,482.583008 408.773438,517.195007 423.844940,552.143066 
	C436.356384,581.154785 465.361420,606.004272 502.177582,601.782471 
	C513.723083,600.458435 523.693726,595.858154 533.306335,589.939087 
	C522.231628,595.815063 510.256409,599.427612 497.921814,599.601562 
	C470.919434,599.982422 449.943298,587.600525 434.282318,566.076477 
	C409.491364,532.004517 410.571899,478.350342 433.326935,444.286194 
	C454.306793,412.879608 491.642578,398.956604 524.656433,412.887329 
	C527.269531,413.989960 529.867004,415.129852 532.471802,416.252441 
	C516.946716,406.227844 500.085449,402.958252 481.148987,406.616882 
M467.237854,505.396515 
	C467.333435,510.835114 467.727081,516.214661 470.028595,521.769287 
	C477.344025,519.661316 484.195068,517.690430 491.043823,515.711731 
	C493.209076,515.086121 493.830017,513.604553 493.454987,511.481995 
	C492.372162,505.353363 492.456055,499.222839 493.557373,493.103271 
	C494.061615,490.301208 493.015137,488.782288 490.126892,488.141998 
	C484.605713,486.917999 479.106110,485.556213 473.673645,483.988068 
	C470.592407,483.098633 469.458740,484.228973 468.890503,487.093384 
	C467.752106,492.831787 467.040833,498.590881 467.237854,505.396515 
M489.317444,554.412048 
	C494.922546,550.809021 499.701141,546.205139 504.653381,541.805664 
	C507.043121,539.682739 507.048187,537.784790 504.731567,535.569885 
	C501.456360,532.438477 498.997253,528.678101 497.302246,524.485596 
	C494.182678,516.769714 495.166290,517.736816 487.301392,519.894104 
	C481.649109,521.444458 476.032562,523.125244 469.943420,524.879333 
	C474.495178,536.494690 478.725830,547.236328 489.317444,554.412048 
M498.487305,458.017426 
	C496.086945,456.249756 493.716766,454.439056 491.277039,452.727478 
	C489.153198,451.237457 487.472076,451.746063 485.666382,453.655396 
	C479.400085,460.281281 474.773376,467.832550 471.813416,476.457886 
	C470.902313,479.112823 471.563690,480.512909 474.305176,481.174866 
	C479.951172,482.538177 485.564148,484.037506 491.197144,485.455322 
	C493.190491,485.957001 494.968689,485.635101 495.595764,483.408722 
	C497.530121,476.540894 501.483368,470.933136 506.978577,465.685822 
	C504.133118,463.105133 501.581268,460.790741 498.487305,458.017426 
M497.355896,490.794373 
	C502.930359,496.889282 509.970093,499.519135 518.098755,499.466278 
	C520.626221,499.449829 529.238831,487.438690 528.542908,485.025452 
	C528.453247,484.714569 528.283386,484.405975 528.081360,484.151428 
	C524.479126,479.612946 521.287903,474.663727 516.593445,471.146271 
	C511.489227,467.321838 508.296326,467.725739 504.643158,472.457611 
	C500.638580,477.644653 497.645050,483.315613 497.355896,490.794373 
M524.474548,519.194153 
	C525.434204,517.860596 526.776184,516.575562 525.692078,514.746582 
	C523.657227,511.313751 521.886230,507.770020 520.548462,504.001343 
	C520.117188,502.786591 518.960999,502.414948 517.733887,502.296448 
	C514.600830,501.993866 511.474854,501.460571 508.337708,501.390228 
	C501.415039,501.234985 495.602234,508.543427 497.100830,515.210083 
	C498.244141,520.296143 500.305084,524.968262 503.288910,529.212158 
	C506.316864,533.518860 509.806671,534.005005 513.760254,530.508423 
	C517.484436,527.214661 521.031738,523.711243 524.474548,519.194153 
M437.222351,490.038574 
	C437.571198,485.642090 439.477295,481.424103 438.974548,476.668854 
	C437.629028,476.512939 436.502106,476.319794 435.368195,476.260925 
	C426.895294,475.821106 426.880188,475.826416 425.209167,483.980316 
	C422.713287,496.159149 422.375702,508.396332 424.292297,520.686890 
	C425.097260,525.849060 426.941589,526.635925 434.421509,525.681824 
	C439.084381,525.087097 437.828522,521.790344 437.430237,519.262207 
	C435.942139,509.816406 436.264740,500.380310 437.222351,490.038574 
M457.950836,428.481934 
	C443.578033,439.960693 433.597717,454.301636 428.564362,471.940430 
	C430.868805,473.318298 432.646454,472.657593 434.199982,473.104126 
	C439.340637,474.581604 441.428070,472.434357 443.013885,467.520721 
	C445.884216,458.627136 450.536469,450.543762 456.255188,443.047089 
	C460.208710,437.864410 465.264740,433.865173 470.360626,429.236481 
	C466.196228,426.725220 462.741821,423.699432 457.950836,428.481934 
M522.052002,562.537231 
	C523.168457,559.049316 524.269531,555.556335 525.406616,552.075134 
	C526.190247,549.676025 525.355347,548.266785 522.937012,547.605164 
	C519.042236,546.539612 515.443420,544.840881 512.277100,542.296631 
	C511.123749,541.369812 509.941711,540.995422 508.687225,542.087891 
	C502.953308,547.081116 497.224640,552.080322 491.150513,557.377075 
	C498.866516,563.785706 507.300446,566.775757 516.589417,567.715088 
	C519.906311,568.050354 520.712952,565.524597 522.052002,562.537231 
M530.150452,544.955750 
	C534.375122,544.713440 537.699280,542.571106 540.666809,539.812500 
	C545.177490,535.619385 544.876709,524.969910 540.167053,521.042053 
	C539.697998,520.650879 538.985474,520.489441 538.357361,520.360779 
	C529.014038,518.447327 529.043945,518.480042 522.728638,525.709412 
	C520.875305,527.830994 518.802795,529.762695 516.810059,531.760681 
	C512.968323,535.612610 513.480225,540.068970 518.194824,542.775879 
	C521.614502,544.739319 525.408020,545.141357 530.150452,544.955750 
M521.527039,463.067413 
	C519.154602,466.958801 519.286194,470.302612 522.949951,473.588684 
	C525.511169,475.885834 527.374390,478.944702 529.675903,481.551697 
	C532.918274,485.224396 538.945923,484.677826 541.214478,480.392731 
	C543.356079,476.347504 546.011475,472.912628 550.682251,470.851593 
	C547.755066,464.118561 542.854309,459.974243 536.472168,457.527374 
	C529.215576,454.745361 526.180786,455.870117 521.527039,463.067413 
M526.108643,449.986237 
	C524.736389,446.780823 523.402588,443.558197 521.977722,440.376312 
	C521.086121,438.385071 519.664978,437.236176 517.267700,437.580078 
	C510.304413,438.579041 503.662659,440.364532 497.534729,444.052185 
	C493.818237,446.288666 493.528503,448.806793 496.236115,451.642853 
	C499.783386,455.358429 503.652100,458.768524 507.408966,462.281708 
	C508.521271,463.321899 509.814240,463.456421 511.016022,462.463715 
	C513.408020,460.487885 516.675537,460.349487 519.096558,458.857117 
	C522.169312,456.963074 527.394165,456.338715 526.108643,449.986237 
M542.083496,514.656921 
	C543.570251,512.280029 547.126709,510.354034 544.864990,506.980530 
	C541.554749,502.043121 540.620972,496.723541 540.624695,490.947784 
	C540.627258,486.999847 535.993958,484.994537 532.635376,487.227325 
	C523.265015,493.456848 521.466370,504.533417 528.365356,513.523926 
	C532.126526,518.425354 536.498108,518.982300 542.083496,514.656921 
M488.832153,575.350891 
	C486.563965,577.191650 484.295776,579.032410 481.681946,581.153625 
	C486.913208,583.883606 491.789612,585.223022 496.912323,586.017761 
	C507.931183,587.727417 515.641479,582.705505 518.283508,571.790527 
	C516.207153,569.597534 513.105286,570.961548 510.812347,569.771606 
	C502.123627,565.262268 494.956940,566.644897 488.832153,575.350891 
M544.871094,561.410339 
	C552.378418,558.255554 550.752747,551.366211 551.058411,545.507324 
	C551.249939,541.835693 547.554443,541.334412 545.029846,539.903748 
	C541.185303,543.911743 536.755432,546.419006 531.748596,547.935486 
	C530.601013,548.283020 529.511658,548.733948 529.104431,549.970093 
	C527.252747,555.591003 525.435974,561.223389 523.434021,567.382568 
	C531.396423,567.719116 537.802856,564.731506 544.871094,561.410339 
M448.741211,553.645264 
	C445.425690,547.854675 443.103760,541.646912 441.027740,535.332947 
	C438.588989,527.916016 438.583313,528.072021 430.738953,528.327637 
	C426.737457,528.457947 425.932648,529.913086 427.001648,533.617126 
	C429.082092,540.825867 431.742035,547.765076 435.426331,554.295715 
	C439.376495,561.297607 439.436218,561.195129 447.161285,559.387451 
	C450.709534,558.557129 451.156097,557.007446 448.741211,553.645264 
M513.281677,435.408325 
	C518.906555,434.206940 524.665833,435.022614 531.077881,434.689514 
	C528.385559,429.389160 527.155884,423.150635 522.312012,421.122772 
	C513.668579,417.504242 504.366180,418.378937 494.148773,420.911804 
	C499.903595,424.932068 503.631317,429.344055 507.060822,434.022949 
	C508.475220,435.952576 510.407806,435.898956 513.281677,435.408325 
M539.543518,455.677917 
	C542.500427,456.922394 544.956177,458.922516 547.336792,460.994385 
	C549.238281,462.649414 550.617981,462.173004 551.747864,460.197571 
	C552.893311,458.194946 552.139832,448.737671 550.485779,447.265808 
	C543.263000,440.838531 534.747925,437.942383 524.932922,437.825928 
	C527.276489,445.986420 528.194641,454.608765 539.543518,455.677917 
M566.609192,484.860657 
	C570.284180,483.097107 570.947632,480.374756 569.613098,476.643463 
	C567.762817,471.470184 565.925049,466.318329 562.861267,461.705536 
	C560.828552,458.645142 559.041077,455.363098 555.442871,453.004913 
	C555.132324,457.273682 555.929932,461.296112 552.191345,463.994781 
	C550.914612,464.916382 551.546021,466.355042 552.164978,467.627014 
	C555.199829,473.863892 561.152832,478.270325 563.078125,485.252167 
	C563.475281,486.692413 565.051758,485.781464 566.609192,484.860657 
M535.531921,579.018677 
	C541.781372,576.647034 543.545166,571.409363 544.757874,564.947937 
	C537.925354,567.573914 531.665588,569.716370 525.044373,570.512878 
	C523.848511,570.656738 522.818542,571.286499 522.218567,572.365356 
	C519.671204,576.946106 516.763428,581.292419 513.495178,585.607605 
	C521.252319,585.102417 528.210815,582.740417 535.531921,579.018677 
M556.917664,501.112762 
	C558.411194,495.484436 558.773865,489.916656 555.083008,484.950897 
	C551.529480,480.169922 547.295654,480.740295 544.893738,486.147461 
	C542.354797,491.863098 542.979065,497.451447 545.660583,502.916779 
	C546.136230,503.886139 546.642761,505.549744 548.028625,504.898041 
	C550.865479,503.564117 550.176880,507.326660 551.754456,507.423340 
	C554.508789,506.350800 555.623901,504.132202 556.917664,501.112762 
M464.770782,573.740723 
	C462.450195,571.361023 460.043457,569.058533 457.825958,566.586426 
	C452.230988,560.348999 450.123199,559.977966 442.074677,564.271057 
	C446.891968,571.018494 453.002014,576.321472 459.702209,580.995239 
	C464.730835,584.502991 466.358612,584.315857 471.375916,579.874817 
	C470.134827,577.163452 467.118530,576.315308 464.770782,573.740723 
M561.586182,499.366180 
	C561.355469,499.237640 561.133484,499.082123 560.887024,499.002136 
	C560.834534,498.985138 560.644531,499.228241 560.599365,499.376404 
	C559.201721,503.957245 557.289978,508.136414 552.331360,509.915894 
	C542.916870,513.294312 540.869995,520.445374 547.210815,528.157837 
	C550.283569,527.413635 552.262146,525.242249 554.065491,522.807007 
	C559.106750,515.999573 560.772339,508.087708 561.586182,499.366180 
M561.450989,530.922729 
	C562.922791,528.334595 564.526184,525.811035 565.835938,523.143372 
	C567.873169,518.993896 565.978943,516.090698 562.221863,512.839905 
	C559.301575,520.795349 555.520508,527.190002 548.749329,531.532410 
	C546.809021,532.776733 546.214783,535.984924 548.294067,538.205627 
	C550.399170,540.453979 552.655090,539.792358 554.892578,537.984741 
	C557.243042,536.085815 559.188110,533.859436 561.450989,530.922729 
M564.343384,498.492218 
	C564.284973,504.182617 561.505066,510.581757 568.507446,514.413452 
	C572.102112,507.473938 573.274536,492.722626 570.742798,486.013702 
	C564.151062,487.403473 563.977905,492.336609 564.343384,498.492218 
M566.030029,528.834961 
	C563.909790,532.437134 561.667358,536.048950 558.281189,538.518982 
	C552.959656,542.400757 553.987366,547.516357 554.598572,553.720154 
	C561.651306,548.015442 566.551392,541.707458 570.014587,534.324524 
	C571.054382,532.107849 569.753479,529.722473 568.589844,527.739197 
	C567.760376,526.325562 567.003662,527.610779 566.030029,528.834961 
M576.507202,485.298279 
	C575.874512,483.932220 576.411682,482.008453 574.750610,481.073151 
	C573.365417,482.049103 573.721191,483.203796 573.820129,484.368500 
	C574.825378,496.195374 575.338989,507.970001 570.487122,519.253967 
	C569.112610,522.450745 570.273438,525.186829 572.708374,528.341553 
	C578.318298,514.168030 578.758362,500.255127 576.507202,485.298279 
M471.254303,420.606567 
	C469.924408,421.512634 468.074341,421.662323 467.135834,423.481537 
	C470.414398,426.409363 473.575470,427.580627 477.709229,424.679138 
	C480.530762,422.698669 483.845245,421.330566 487.082916,420.052490 
	C493.090424,417.681000 499.498444,416.846375 507.138702,415.881714 
	C495.235138,413.825592 483.884918,415.387238 471.254303,420.606567 
M507.717499,590.136719 
	C497.950653,590.107178 488.597626,587.909790 479.833801,583.806458 
	C475.437073,581.747803 472.424713,582.896667 469.106445,585.657288 
	C479.588257,592.188416 497.949158,594.231079 507.717499,590.136719 
M532.834351,431.769928 
	C533.559143,433.425781 533.965271,435.414734 535.861145,436.130005 
	C541.044495,438.085480 546.007263,440.520447 551.094849,442.927429 
	C547.914185,431.485565 537.612976,428.420227 528.624390,423.709778 
	C529.913086,426.181305 531.201782,428.652832 532.834351,431.769928 
M252.768860,620.194702 
	C251.232681,622.071899 249.696503,623.949158 247.912430,626.129272 
	C251.485901,627.674194 254.973755,629.593689 258.088226,626.841370 
	C260.343567,624.848267 258.252533,617.153809 255.411667,615.240784 
	C254.650253,616.705811 253.896255,618.156616 252.768860,620.194702 
M548.613281,563.188782 
	C548.443726,564.995728 546.774658,566.650024 548.038574,569.188721 
	C554.333313,563.598999 559.848145,557.966431 564.020386,549.345886 
	C558.280090,554.375610 553.611145,558.466675 548.613281,563.188782 
M557.561279,480.008392 
	C555.878113,477.348633 554.391113,473.993591 550.624634,474.502777 
	C547.549072,474.918579 545.836365,477.507141 544.145691,481.607300 
	C549.287659,477.469788 553.005737,479.062775 556.341187,482.021881 
	C559.565674,484.882599 559.987366,489.175903 561.254944,493.027832 
	C561.250488,488.577698 559.745544,484.581970 557.561279,480.008392 
M255.727875,440.122375 
	C256.330414,442.652313 256.932922,445.182220 257.696259,448.387299 
	C257.696259,444.649963 257.735687,441.582123 257.685181,438.515717 
	C257.634979,435.467682 258.119720,432.370880 257.238617,429.208649 
	C254.499725,429.402496 252.148438,429.670044 250.466690,431.894653 
	C252.189255,434.525909 253.793228,436.975983 255.727875,440.122375 
M568.135986,465.471161 
	C569.426697,468.478943 570.717346,471.486725 572.447327,475.518250 
	C571.540405,466.465515 561.152344,448.401489 555.375305,444.884552 
	C554.988525,447.466614 556.332825,449.269379 557.995728,451.018616 
	C561.916260,455.142670 565.260925,459.692078 568.135986,465.471161 
M190.242798,520.164978 
	C190.466385,519.196716 190.769714,518.238098 190.887390,517.257141 
	C190.975891,516.519470 192.021820,515.783325 190.915100,514.823059 
	C186.664322,524.596069 185.706696,534.258606 190.133865,544.032959 
	C188.520538,536.364502 188.324615,528.665894 190.242798,520.164978 
M497.719238,503.592072 
	C499.577393,502.304199 501.674011,501.286194 502.952332,499.038116 
	C501.345428,497.229523 499.455841,496.186493 496.821716,495.739594 
	C496.300018,498.590759 495.099548,501.153870 497.719238,503.592072 
M516.073730,463.262451 
	C514.699097,463.627808 513.085327,463.717163 513.104492,465.810242 
	C514.893799,467.184479 516.448975,467.097046 517.624756,465.131409 
	C518.227112,464.124573 518.935486,462.812714 516.073730,463.262451 
z"/>
<path fill="#000000" opacity="1.000000" stroke="none" 
	d="
M201.811661,308.743958 
	C199.314316,298.554108 200.951355,289.512909 206.691650,281.234589 
	C216.342392,267.316895 236.316895,267.590668 245.418182,281.805969 
	C252.775284,293.296997 252.910950,305.033783 245.854431,316.637329 
	C241.142166,324.386078 234.132812,329.213531 224.874832,328.888245 
	C215.269958,328.550751 208.339981,323.371643 204.152435,314.690063 
	C203.288177,312.898315 202.637192,311.003693 201.811661,308.743958 
M223.972656,275.385895 
	C221.615189,275.861938 219.189789,276.190094 217.132584,278.195496 
	C230.174500,281.672455 237.076660,290.204285 235.928268,301.068512 
	C235.349045,306.548279 233.193207,311.399963 229.266785,315.248749 
	C225.178986,319.255707 220.033554,320.615234 213.314423,319.736481 
	C219.466003,324.356354 225.030670,326.039429 231.386444,323.458679 
	C240.760834,319.652100 244.850082,311.844421 246.364151,302.571014 
	C248.207138,291.283173 240.009399,274.526703 223.972656,275.385895 
M220.553116,301.032898 
	C220.854874,296.397430 220.066391,292.062775 216.880600,288.465576 
	C214.614777,285.907166 212.384415,285.935699 210.311539,288.764282 
	C207.869492,292.096649 206.648209,295.923889 206.585800,299.952637 
	C206.496902,305.690430 210.059799,312.475189 212.826675,311.904480 
	C218.006500,310.836060 219.340439,306.300964 220.553116,301.032898 
M222.161285,312.694244 
	C221.847305,313.208252 221.107300,313.598114 221.673386,314.368561 
	C227.979630,311.707611 232.199432,304.863678 231.591339,298.283020 
	C230.945541,291.294434 227.224304,285.910797 221.952484,284.845551 
	C227.622131,293.990173 228.201706,303.078949 222.161285,312.694244 
z"/>
<path fill="#000000" opacity="1.000000" stroke="none" 
	d="
M196.661148,741.084473 
	C199.275314,731.977417 204.002502,724.972107 212.488297,721.172241 
	C220.622314,717.529907 228.474731,718.211487 235.328186,724.135559 
	C243.874146,731.522705 246.691879,741.337402 244.891174,752.080383 
	C243.066818,762.964417 237.607391,771.678284 226.407730,775.462891 
	C217.435760,778.494629 207.069839,775.280334 201.610336,767.531494 
	C196.068130,759.665222 194.239471,750.950623 196.661148,741.084473 
M221.239883,771.986084 
	C223.939835,771.822327 226.449448,771.078003 228.791977,769.691711 
	C242.290009,761.703613 245.109436,739.842102 234.054184,728.762512 
	C227.879349,722.574097 220.298447,721.617004 213.611816,726.181641 
	C225.587631,728.946594 231.976151,738.263245 230.198669,750.370972 
	C228.487259,762.028870 220.275162,768.070312 207.195236,767.030518 
	C210.953445,770.905640 215.373489,772.218018 221.239883,771.986084 
M203.385773,740.130005 
	C201.516251,745.320862 201.204285,750.548218 203.670410,755.590210 
	C205.483353,759.296875 208.278015,759.710571 211.233276,756.820923 
	C215.676163,752.476440 216.607849,747.008972 215.361115,741.201477 
	C214.698929,738.116821 213.370255,734.689148 209.947723,734.057373 
	C206.370377,733.397034 205.137482,736.845276 203.385773,740.130005 
M215.989838,760.707031 
	C215.511688,761.135132 215.033539,761.563232 214.333084,762.190369 
	C221.046829,760.841919 224.978989,756.437927 225.804672,749.654175 
	C226.865753,740.936401 224.125000,735.163391 216.870361,731.721985 
	C222.981674,741.619019 223.124069,751.063782 215.989838,760.707031 
z"/>
<path fill="#000000" opacity="1.000000" stroke="none" 
	d="
M145.377747,482.334595 
	C129.866226,529.747498 136.324158,573.111938 168.347733,612.542725 
	C164.520798,613.057129 163.250320,611.122437 161.892258,609.667114 
	C151.110428,598.113403 143.982742,584.421997 139.452408,569.448242 
	C127.550446,530.109314 131.684952,492.480530 152.429337,456.883301 
	C158.007782,447.310760 165.342300,439.121552 173.844757,432.012512 
	C176.265533,429.988495 176.327560,430.062683 180.008224,429.954926 
	C164.906403,444.964539 152.549850,461.749115 145.377747,482.334595 
z"/>
<path fill="#000000" opacity="1.000000" stroke="none" 
	d="
M136.451263,575.574768 
	C138.606201,581.822876 141.636719,587.293335 144.848663,593.824829 
	C136.464569,589.515198 125.591583,555.990540 124.729332,536.045898 
	C123.142876,499.350037 133.252457,466.772125 158.109772,439.137878 
	C128.271713,480.940643 119.735809,526.061890 136.451263,575.574768 
z"/>
<path fill="#000000" opacity="1.000000" stroke="none" 
	d="
M476.411530,736.188599 
	C484.846741,732.645203 492.341644,735.725952 494.822144,743.425537 
	C497.421173,751.492981 492.919952,759.786621 484.905823,761.696716 
	C480.358093,762.780518 474.718903,760.367371 471.987579,756.168518 
	C468.658295,751.050476 468.938995,744.298279 472.813721,739.399109 
	C473.722504,738.250061 474.988831,737.383667 476.411530,736.188599 
M477.950775,747.232727 
	C477.068939,749.888306 478.140167,751.847107 480.353912,753.152771 
	C482.179169,754.229126 483.946442,753.593323 485.331909,752.152344 
	C486.881653,750.540466 488.023041,748.751587 487.026367,746.331360 
	C486.289520,744.542236 485.232513,742.939026 483.268585,742.658752 
	C480.424652,742.252808 479.211548,744.389526 477.950775,747.232727 
z"/>
</svg>