<svg version="1.1" id="Layer_1" xmlns="http://www.w3.org/2000/svg" xmlns:xlink="http://www.w3.org/1999/xlink" x="0px" y="0px"
	 width="100%" viewBox="0 0 672 1024" enable-background="new 0 0 672 1024" xml:space="preserve">
<path fill="#000000" opacity="1.000000" stroke="none" 
	d="
M89.741951,457.999939 
	C89.734001,429.503113 89.529091,401.504639 89.763931,373.509827 
	C90.149551,327.541992 106.128075,287.810455 139.081085,255.583328 
	C159.561188,235.554367 184.048553,223.486557 213.385468,223.915482 
	C227.764175,224.125702 241.776840,227.299393 255.571930,231.304474 
	C256.978058,231.712708 258.341248,232.507812 260.403351,231.935989 
	C262.488708,223.309677 263.745361,214.249817 266.629974,205.590622 
	C281.950012,159.602097 311.591553,129.307281 360.392517,120.111214 
	C365.274170,119.191315 370.324799,118.803276 375.298096,118.794693 
	C404.287079,118.744659 433.269562,118.529999 462.251648,117.735847 
	C500.406036,116.690361 530.040283,133.411713 553.000916,162.810379 
	C570.174744,184.799576 578.678772,210.287613 581.462585,237.903214 
	C582.201660,245.233978 582.238708,252.533463 582.240173,259.855286 
	C582.255066,331.513855 582.206604,403.172424 582.262207,474.830933 
	C582.269714,484.473816 584.879822,493.933411 584.340454,503.668182 
	C579.793152,585.740295 583.947510,667.896667 582.037231,749.982239 
	C581.105286,790.030151 568.086914,826.177490 539.284790,855.234985 
	C520.324707,874.363342 497.208710,884.968933 470.052643,885.255371 
	C439.732788,885.575134 409.276184,886.035950 379.162476,882.929504 
	C330.875977,877.948425 295.143555,853.347290 273.795044,809.090820 
	C272.276398,805.942627 270.848450,802.736206 269.623444,799.465027 
	C268.458740,796.354919 266.941711,795.471436 263.616791,796.878967 
	C245.122757,804.708374 225.688446,807.733398 205.695465,808.416382 
	C172.648178,809.545349 146.007416,796.456238 124.880760,771.910339 
	C101.746101,745.031494 89.936409,713.454834 89.811447,677.973633 
	C89.553787,604.816650 89.739319,531.657959 89.741951,457.999939 
M544.300354,568.037354 
	C540.096924,563.154236 535.271057,565.391968 530.504028,566.814087 
	C529.070801,567.241638 527.627075,567.677429 526.157410,567.931213 
	C522.570557,568.550598 520.214050,570.435669 518.816650,573.886292 
	C518.088867,575.683411 517.409912,578.239258 514.290527,577.491455 
	C512.355652,574.265808 516.675537,572.154236 515.794189,569.169861 
	C514.396179,567.889404 512.585022,568.431030 511.024170,567.972046 
	C502.088837,565.344360 493.796814,565.522522 486.971832,573.108154 
	C484.330627,576.043762 481.505707,575.478455 478.063446,573.632812 
	C458.943573,563.381348 447.585693,546.923706 441.492432,526.852112 
	C431.747803,494.752411 436.464874,465.264526 460.088440,440.227539 
	C463.727386,436.370880 466.843506,433.038300 465.165314,427.397034 
	C465.125916,427.264679 465.600159,426.979553 466.354126,426.292419 
	C470.265991,430.643585 474.648438,427.973541 479.031738,426.677063 
	C480.787079,426.157867 482.586517,425.718811 484.256165,424.991333 
	C489.762299,422.592255 493.875214,424.303009 497.219727,428.973053 
	C498.458954,430.703461 499.542908,433.038879 501.772552,433.404907 
	C509.941833,434.745941 518.111816,436.646973 526.459961,434.348328 
	C529.022339,433.642761 529.745605,432.192200 529.853638,429.669342 
	C530.014893,425.904388 527.303528,424.916107 524.772827,423.735199 
	C499.013855,411.715088 469.005554,416.526367 449.103882,436.866821 
	C429.042236,457.370758 420.954010,482.494843 424.241669,510.915131 
	C427.789368,541.583679 442.956787,564.398499 471.213562,578.045715 
	C498.120697,591.041199 526.866821,583.709351 545.562256,567.662231 
	C551.086304,563.738525 555.846741,559.062500 559.838989,553.614929 
	C557.617004,555.121460 555.342163,556.361450 553.101807,557.714478 
	C549.315735,560.001160 544.770203,562.325745 544.300354,568.037354 
M561.344299,574.787354 
	C557.149353,581.451721 552.266968,587.628845 546.343323,592.761414 
	C510.144775,624.125977 457.651642,624.416199 420.186432,593.431824 
	C397.426300,574.608765 384.212372,550.421265 379.061646,521.288513 
	C370.924622,475.265381 383.147705,436.186035 417.638916,404.566833 
	C434.082245,389.492737 453.491913,380.155273 476.196960,379.835419 
	C506.832245,379.403839 531.495300,392.161041 551.312866,415.159821 
	C559.287659,424.414764 565.653870,434.628021 571.265076,446.970551 
	C571.431091,443.222137 571.619934,440.925781 571.621460,438.629272 
	C571.642456,406.801117 571.837952,374.971405 571.585510,343.145264 
	C571.307983,308.167755 573.490540,273.108765 570.573242,238.230850 
	C567.463562,201.052933 551.846741,169.830063 521.483826,146.924606 
	C484.352631,118.913147 433.445038,124.667564 403.227692,160.148590 
	C384.898682,181.670380 376.486633,206.978668 376.442932,234.708405 
	C376.168762,408.678894 376.303833,582.650024 376.264069,756.620972 
	C376.261780,766.622009 376.509491,776.567200 378.176361,786.469482 
	C383.501831,818.106201 398.159943,843.756226 425.866547,860.996033 
	C459.355804,881.834045 494.989685,878.253113 524.222107,854.056519 
	C556.633667,827.228577 570.521729,790.771484 571.304993,749.939270 
	C572.500061,687.638733 571.655701,625.298889 571.643799,562.975769 
	C571.643555,561.513428 572.156677,559.850647 570.902588,558.340881 
	C567.727417,563.834290 564.736206,569.009338 561.344299,574.787354 
M412.453125,865.116699 
	C380.279022,840.640076 366.042725,806.976379 365.935822,767.781311 
	C365.457642,592.452637 365.738373,417.121948 365.695709,241.792007 
	C365.693329,231.947952 365.716675,222.110062 367.721527,212.445877 
	C372.344025,190.163376 379.616699,169.041351 395.811615,152.159332 
	C403.846100,143.783966 412.279419,135.831543 423.305725,130.034210 
	C421.998199,129.653671 421.557953,129.408081 421.122070,129.415619 
	C403.639893,129.717712 386.144562,128.538406 368.671204,130.150467 
	C340.062164,132.789886 316.927795,145.818146 298.905334,167.712555 
	C277.983124,193.129654 270.018738,223.004486 270.039093,255.535995 
	C270.140564,417.699310 270.108612,579.862732 270.091827,742.026123 
	C270.090820,751.698608 270.321991,761.330627 272.324249,770.839417 
	C280.181488,808.152832 298.562958,838.202881 332.260925,857.673889 
	C352.448730,869.338684 374.486023,873.505615 397.494202,873.651428 
	C406.378815,873.707703 415.264130,873.660583 425.060974,873.660583 
	C420.466003,870.538147 416.760193,868.019897 412.453125,865.116699 
M125.893005,460.446930 
	C124.834450,480.755890 126.028358,501.056458 126.078148,521.360962 
	C126.117714,537.496460 125.637375,553.632568 125.585381,569.769043 
	C125.514030,591.912720 125.771957,614.057983 125.622833,636.200684 
	C125.486061,656.510620 124.245827,676.901550 128.364349,696.955505 
	C136.210342,735.159424 155.138214,766.069641 189.734558,785.657715 
	C211.928604,798.223633 235.220505,799.402100 258.984222,789.620239 
	C263.403961,787.800903 265.108917,785.678284 263.673615,780.659302 
	C259.894714,767.445312 259.015320,753.816223 259.017761,740.125183 
	C259.024109,704.630859 259.048523,669.136597 259.016510,633.642273 
	C259.014618,631.556030 259.552490,629.331482 258.254913,627.399231 
	C256.362793,626.896606 254.952530,628.037964 253.439468,628.595154 
	C219.394547,641.132812 189.011215,634.597351 163.042999,609.818237 
	C136.473358,584.465210 126.047997,552.513184 127.536087,516.199768 
	C128.730728,487.047241 137.886734,461.101440 157.603287,439.247192 
	C181.706573,412.530609 217.340973,398.714203 254.187531,414.916351 
	C255.503860,415.495178 256.835083,416.424622 258.684875,415.406128 
	C258.794495,414.093170 259.017303,412.624847 259.025238,411.155304 
	C259.323059,356.006744 258.248962,300.852905 259.674347,245.709854 
	C259.755859,242.556747 258.697510,240.816055 255.738205,239.716843 
	C236.776810,232.673843 217.820770,232.513474 199.311661,240.734451 
	C167.013977,255.079834 147.521164,281.025391 135.276031,313.208832 
	C126.772041,335.559509 125.466125,358.960388 125.508804,382.517120 
	C125.555267,408.165375 125.753410,433.813354 125.893005,460.446930 
M255.315140,617.715271 
	C258.237030,616.610840 259.205200,614.407776 259.111053,611.412659 
	C258.975067,607.084961 258.867157,602.745544 259.037231,598.422546 
	C259.161865,595.253235 257.859680,593.536560 254.946518,592.472717 
	C242.668777,587.989014 234.390366,579.215759 229.013382,567.567261 
	C227.343140,563.948853 224.921677,562.216553 220.928635,562.151428 
	C211.606430,561.999573 202.288986,561.548340 192.966751,561.406006 
	C183.195236,561.256836 175.445129,557.061340 170.154037,549.156189 
	C161.771454,536.632202 161.540726,523.083252 167.656494,509.665985 
	C172.739639,498.514099 182.026428,493.021423 194.313416,492.652100 
	C202.300934,492.412018 210.290634,491.791351 218.270813,491.911102 
	C224.198425,492.000061 227.816116,489.841705 230.353577,484.384430 
	C234.046173,476.442871 238.938858,468.178711 246.975708,465.054535 
	C258.635254,460.522034 260.421722,452.669495 259.044861,442.187561 
	C258.851929,440.718781 258.962616,439.179230 259.145874,437.698822 
	C259.464325,435.126282 258.257080,433.822418 255.851334,433.818420 
	C253.117676,433.813904 250.237289,433.583038 247.702011,435.823975 
	C251.044662,440.925446 255.256378,445.326996 256.517853,451.418823 
	C257.039276,453.936737 256.919312,455.602264 254.070786,456.333374 
	C251.313492,457.041046 250.162033,455.912445 249.481949,453.327972 
	C247.852631,447.136322 244.090866,442.373779 239.143585,438.394623 
	C237.387604,436.982300 235.142365,435.944580 234.138428,433.239624 
	C240.112503,428.766510 247.082520,426.757263 254.338684,425.227936 
	C239.956650,418.140106 225.177536,415.618866 209.589233,418.828613 
	C188.081818,423.257294 171.634247,435.504181 158.816437,452.693970 
	C141.008682,476.575745 134.795425,503.784302 137.127747,533.241272 
	C138.914459,555.807373 146.600662,575.993774 160.911026,593.565247 
	C185.893524,624.240967 221.248886,633.443420 255.315140,617.715271 
M97.307037,619.500000 
	C97.306625,637.494446 97.483620,655.491028 97.263641,673.482788 
	C96.944687,699.569580 103.275368,723.920105 115.976028,746.600159 
	C127.322433,766.861816 142.807480,783.068604 164.001099,793.148193 
	C175.543442,798.637756 187.702148,801.799194 202.108398,800.543823 
	C188.438766,795.666748 176.676346,790.118835 166.698380,781.560059 
	C132.260056,752.019958 116.415581,713.776917 116.194649,669.091248 
	C115.774529,584.121643 115.949509,499.148315 116.115822,414.177002 
	C116.164642,389.232269 114.682747,364.187103 118.712250,339.392822 
	C123.754898,308.364471 136.226028,280.858246 158.323868,258.102509 
	C166.898056,249.273056 176.777130,242.102341 187.247726,235.673477 
	C172.152603,239.746429 159.077469,247.507370 147.747681,258.012207 
	C114.014618,289.289093 97.534515,328.335297 97.379745,374.078522 
	C97.104073,455.551483 97.305962,537.026062 97.307037,619.500000 
M427.724426,445.319916 
	C428.553375,444.071503 429.367523,442.812958 430.213470,441.576141 
	C454.259766,406.418976 497.158142,396.012085 534.582764,416.309784 
	C538.773438,418.582642 542.787903,421.180420 546.884155,423.627533 
	C524.812622,396.934052 496.875458,384.989716 462.562775,392.106781 
	C438.211426,397.157745 419.936615,412.336334 406.231171,432.441803 
	C388.596191,458.311829 382.570129,486.812103 388.565491,518.015686 
	C393.404572,543.201294 403.459381,564.967957 422.805176,582.380371 
	C448.869202,605.839539 487.839203,614.573486 521.820801,598.332092 
	C531.459656,593.725220 539.358032,588.388733 542.262207,583.871887 
	C528.629456,591.869019 514.482422,596.530762 500.617218,596.105408 
	C470.671417,595.186584 446.175751,582.767273 429.839783,557.608032 
	C406.250214,521.277405 407.041962,483.649109 427.724426,445.319916 
M259.032227,562.499634 
	C259.032227,531.650452 259.032227,500.801300 259.032227,469.507385 
	C254.103760,470.532562 251.248474,472.791992 248.528763,475.216858 
	C242.563065,480.535675 238.637573,487.284485 235.382278,494.457275 
	C234.012848,497.474731 232.499939,499.976624 228.622528,500.134186 
	C223.472488,500.343445 218.341141,501.102478 213.192291,501.224365 
	C208.663513,501.331543 205.363739,503.338715 203.551514,507.179138 
	C197.634644,519.718018 197.474579,532.593506 202.474747,545.429504 
	C204.367340,550.288025 208.133926,552.983459 213.714462,553.000854 
	C218.362442,553.015320 223.004868,553.714783 227.657028,553.839661 
	C231.247879,553.936096 233.528915,555.280273 234.827316,558.778198 
	C236.451294,563.153320 238.750580,567.236938 241.501740,571.029358 
	C245.875961,577.059082 251.185181,581.857422 259.028839,584.320129 
	C259.028839,577.030212 259.028839,570.264648 259.032227,562.499634 
M441.256561,500.387878 
	C441.193329,508.678925 442.197266,516.777893 445.073547,524.885437 
	C450.334778,522.796021 454.246155,519.646545 458.577209,517.251099 
	C460.928589,515.950500 461.884094,514.252930 461.697235,511.611023 
	C461.298676,505.976776 460.672455,500.321320 460.844116,494.696045 
	C460.978088,490.305725 459.126007,488.417969 455.225647,487.337067 
	C453.098663,486.747620 450.247955,486.836731 449.225067,484.031006 
	C451.292419,481.818695 453.213501,483.171600 455.024048,483.613861 
	C463.431549,485.667328 469.105988,481.583588 469.903412,472.962769 
	C471.305206,457.807892 473.074188,461.412903 458.306335,455.528656 
	C454.690308,454.087799 452.655701,455.216827 450.791046,458.603699 
	C443.764496,471.366760 441.406982,485.138092 441.256561,500.387878 
M490.979767,487.736206 
	C486.332458,485.943268 481.710785,484.079834 477.030731,482.376892 
	C472.175781,480.610291 465.079620,484.838684 465.118286,489.965576 
	C465.177216,497.769989 464.815491,505.629181 466.124817,513.385620 
	C466.713165,516.870972 468.634155,518.816345 472.390350,517.870728 
	C477.227753,516.652954 482.028534,515.290466 486.850464,514.010376 
	C488.742950,513.507996 490.171600,512.609497 490.597870,510.498108 
	C492.078979,503.162292 493.945129,495.849762 490.979767,487.736206 
M175.506577,513.144714 
	C171.819916,524.190247 171.727493,535.052856 177.791870,545.329651 
	C181.794342,552.112244 189.478424,555.124573 195.711777,552.893982 
	C187.488724,535.803833 188.267258,518.696228 195.705048,501.612946 
	C188.425262,499.067261 180.704117,503.332306 175.506577,513.144714 
M484.596222,449.075531 
	C489.557800,446.803131 491.911896,441.985352 495.287140,438.158844 
	C496.902008,436.328125 496.970215,434.553314 495.181427,432.939301 
	C493.081909,431.044891 492.800629,426.705780 488.204102,428.109436 
	C479.107178,430.887329 469.750336,432.986633 463.987122,441.776215 
	C462.054565,444.723541 458.347168,446.416229 457.564697,450.250610 
	C467.201263,456.816711 472.798523,456.905396 481.857910,450.761810 
	C482.544220,450.296417 483.267426,449.885468 484.596222,449.075531 
M503.046753,466.552582 
	C501.814056,463.346100 499.142181,461.257599 496.910126,458.869568 
	C487.684692,448.999512 491.151794,449.995514 479.607727,456.957275 
	C472.492340,461.248291 474.613708,468.263519 474.436737,474.375366 
	C474.291168,479.404968 479.579773,478.554504 482.588470,480.058929 
	C484.500641,481.015076 486.687592,481.408569 488.645294,482.289886 
	C491.401917,483.530853 493.336731,482.934265 494.876495,480.319214 
	C497.481720,475.894714 500.218262,471.547546 503.046753,466.552582 
M497.622162,483.383545 
	C496.690155,484.795929 496.136169,486.293823 496.069061,488.036102 
	C495.786560,495.371399 495.963867,495.642365 503.068207,497.406158 
	C505.971252,498.126892 508.880341,498.830231 511.759064,499.639587 
	C513.658691,500.173645 515.491943,500.470673 516.391968,498.236969 
	C518.349365,493.379150 525.314514,490.315826 523.174866,484.368561 
	C521.375000,479.365692 517.439026,475.071991 514.159912,470.679901 
	C511.653809,467.323181 507.914795,467.506836 505.550690,470.963654 
	C502.924988,474.803040 500.552002,478.815277 497.622162,483.383545 
M515.847717,524.350281 
	C517.721252,521.395020 523.563904,520.246521 520.093140,514.857849 
	C517.894287,511.444031 517.861023,506.156799 513.776306,504.585236 
	C508.473206,502.544891 502.761841,501.273651 497.045471,500.803467 
	C494.122803,509.137695 493.016174,516.856689 498.939209,524.098511 
	C500.486633,525.990417 501.466278,528.380249 502.533203,530.623901 
	C504.174377,534.075134 506.215210,533.947998 508.649323,531.523132 
	C510.882446,529.298523 513.106812,527.065186 515.847717,524.350281 
M453.202148,543.342834 
	C454.284271,545.213623 455.403778,547.063965 456.440521,548.959534 
	C458.447174,552.628418 460.905579,553.386780 464.468109,550.761169 
	C467.133331,548.796875 470.092773,547.210083 473.007111,545.611816 
	C475.582397,544.199463 475.931274,542.432922 474.750549,539.834351 
	C472.688293,535.295715 470.886292,530.639587 468.937927,526.048462 
	C465.768646,518.580200 464.936859,518.304932 458.116882,522.337341 
	C445.561401,529.760925 445.561432,529.760925 453.202148,543.342834 
M485.693604,518.472107 
	C482.503143,519.374878 479.350800,520.464294 476.111084,521.125854 
	C473.105804,521.739685 472.161987,523.039246 473.380310,525.950439 
	C475.621246,531.305115 477.518280,536.814941 479.974731,542.065369 
	C483.011780,548.556885 487.954407,549.606262 493.657043,545.370789 
	C495.122894,544.282104 496.518677,543.076233 498.075073,542.136963 
	C501.586487,540.017944 502.321350,537.629883 499.928802,533.972778 
	C497.118927,529.677734 494.588104,525.155457 492.403198,520.512024 
	C490.959503,517.443848 489.097351,517.230530 485.693604,518.472107 
M543.829773,505.152466 
	C542.488159,501.217987 540.959778,497.335144 539.854126,493.335419 
	C538.584595,488.742950 534.542969,489.468872 531.381348,488.538269 
	C528.604309,487.720795 527.375671,489.763763 525.749023,491.574036 
	C519.783875,498.212494 517.690186,505.061188 523.512817,512.873291 
	C524.096924,513.656982 524.349854,514.681396 524.803528,515.570068 
	C525.263977,516.472168 525.879395,517.170959 526.913757,517.548157 
	C534.937134,520.473938 543.655457,514.529175 543.829773,505.152466 
M494.930817,450.643005 
	C498.475433,454.614960 501.965698,458.637207 505.582031,462.542755 
	C508.424316,465.612488 511.838043,465.653259 514.919617,463.199097 
	C522.543396,457.127350 523.145325,454.590637 519.888306,445.487183 
	C519.440186,444.234528 519.026062,442.968658 518.540771,441.730591 
	C518.022766,440.408997 517.149597,439.494659 515.624817,439.361969 
	C511.483093,439.001617 507.347748,438.380585 503.201813,438.304810 
	C498.402191,438.217072 493.091461,445.657135 494.930817,450.643005 
M539.194946,484.855652 
	C540.954468,482.052338 542.754944,479.273682 544.464417,476.440186 
	C547.410645,471.556732 546.075867,467.123108 540.960754,464.710144 
	C537.065674,462.872650 533.029175,461.293640 529.283936,459.192596 
	C526.135620,457.426483 524.285828,458.293213 522.212158,460.898102 
	C515.946594,468.768921 516.264893,465.668152 521.377380,474.075195 
	C522.323059,475.630310 523.605835,476.996948 524.432678,478.604950 
	C527.465393,484.502747 532.560913,485.845947 539.194946,484.855652 
M496.680115,559.989441 
	C499.570282,563.241394 503.709412,562.634888 507.372925,563.308167 
	C517.263245,565.126038 517.329041,565.044800 519.715637,555.134949 
	C520.281067,552.787354 522.384338,549.915222 520.581055,548.048218 
	C516.745239,544.077026 512.199097,540.791809 507.636993,536.968018 
	C504.100372,544.672241 496.397095,547.039307 491.828339,552.731323 
	C492.694580,555.438049 494.867737,557.165100 496.680115,559.989441 
M541.100464,535.646851 
	C540.497925,533.232117 540.045593,530.766541 539.249329,528.417480 
	C538.498169,526.201355 539.002991,522.530701 535.849060,522.452698 
	C531.680725,522.349487 527.078247,519.833069 523.339722,522.759338 
	C519.077454,526.095520 515.441956,530.232483 511.619354,533.938660 
	C520.599609,545.735168 532.524109,546.461426 541.100464,535.646851 
M560.168152,527.740784 
	C560.984558,526.295898 561.942932,524.911316 562.587402,523.393433 
	C563.883972,520.339966 562.276550,514.193359 559.482605,513.276428 
	C555.529358,511.979095 550.906067,509.312317 547.231873,512.425232 
	C543.567810,515.529480 540.203613,519.652588 542.723022,525.475464 
	C543.629700,527.571045 543.977234,529.952454 544.311157,532.242615 
	C544.983826,536.855469 547.777771,539.477356 552.363403,541.395813 
	C554.903809,536.951294 557.355774,532.661438 560.168152,527.740784 
M521.857544,563.080811 
	C522.397034,565.366394 523.986511,564.090393 525.038635,563.868286 
	C529.104858,563.009888 533.097900,561.411743 537.185852,561.151550 
	C541.958740,560.847778 545.249084,558.258118 548.585693,555.576538 
	C552.314087,552.580200 550.566711,548.508484 549.089844,545.552368 
	C547.734802,542.840027 545.067871,540.637512 540.814880,542.089661 
	C530.738159,545.530457 522.173584,550.005554 521.857544,563.080811 
M542.971619,489.969238 
	C544.377258,494.042175 545.810669,498.105835 547.180969,502.190613 
	C548.607849,506.444000 552.986328,509.132935 558.103149,508.240417 
	C562.299255,507.508484 560.321411,503.703156 560.808899,501.250549 
	C561.386475,498.344452 561.456909,495.334076 561.688049,492.364258 
	C561.792114,491.027496 561.716980,489.656616 560.710205,488.622498 
	C557.045532,484.858154 553.621460,480.829407 549.054993,477.527710 
	C546.468262,481.412720 543.335449,484.632965 542.971619,489.969238 
M550.389404,459.842773 
	C548.511841,464.168823 547.596619,468.809418 550.820984,472.579163 
	C554.665405,477.073944 559.300598,480.892426 563.838745,485.239105 
	C566.326355,482.129547 571.012024,480.119873 569.260559,475.041962 
	C567.200928,469.070526 564.282959,463.435577 561.253784,457.869781 
	C559.545410,454.730927 556.596802,454.886505 553.886841,454.760834 
	C551.119995,454.632538 551.520325,457.500977 550.389404,459.842773 
M464.619751,555.731140 
	C462.888275,557.320923 464.229095,558.450195 465.302612,559.433105 
	C469.867981,563.613098 474.932404,567.097961 480.391815,570.015625 
	C481.858276,570.799377 483.276794,570.846130 484.596588,569.804382 
	C487.437805,567.561890 490.725708,565.853333 493.423370,562.581848 
	C491.434540,559.914978 489.664337,557.108582 487.472992,554.682617 
	C480.375732,546.825378 479.248138,546.713318 470.188599,552.109619 
	C468.473663,553.131165 466.823181,554.260864 464.619751,555.731140 
M538.067139,442.448273 
	C531.061401,436.460876 530.004333,436.312378 522.929749,440.321991 
	C525.586609,453.606842 530.807312,458.531891 545.000793,461.143311 
	C549.408569,453.631531 549.319092,452.784607 543.422668,447.258606 
	C541.844482,445.779541 540.218872,444.351105 538.067139,442.448273 
M568.169312,521.001770 
	C571.298706,523.183289 572.110046,521.282227 572.688232,518.559875 
	C574.222717,511.334473 574.019775,504.021606 573.586060,496.749481 
	C573.336975,492.573639 573.193359,488.238007 571.267517,484.139771 
	C568.752991,485.601013 566.713562,487.482452 566.429016,489.877502 
	C565.212646,500.118378 561.997864,510.514679 568.169312,521.001770 
M568.731018,525.904358 
	C566.658936,524.923584 565.710632,526.204285 564.828125,527.776001 
	C561.739929,533.276306 558.554504,538.722900 555.536438,544.261047 
	C554.276733,546.572632 553.603577,549.074768 555.328674,552.485779 
	C561.737732,544.976868 566.992432,537.479126 570.312378,528.705933 
	C570.728088,527.607483 570.304443,526.778259 568.731018,525.904358 
M553.172363,445.332550 
	C547.472961,439.116486 541.476379,433.263214 533.802673,429.156677 
	C533.747986,434.261902 550.971924,450.549988 555.347229,449.791656 
	C555.704590,448.073456 554.305054,447.127350 553.172363,445.332550 
z"/>
<path fill="#000000" opacity="1.000000" stroke="none" 
	d="
M469.805603,740.120972 
	C475.336365,733.712891 481.388702,732.461304 487.675140,736.128967 
	C492.876648,739.163696 495.343872,746.211243 493.305542,752.212219 
	C491.188873,758.443848 485.512329,762.026550 478.952820,761.270752 
	C469.684723,760.202881 465.191345,750.192566 469.805603,740.120972 
M474.417389,747.615479 
	C475.798035,753.297485 479.364624,755.743469 483.275269,753.624817 
	C486.052063,752.120422 487.227905,749.719238 486.691040,746.599121 
	C486.192627,743.702454 484.521576,741.739807 481.536591,741.387512 
	C477.483398,740.909119 475.543243,743.386780 474.417389,747.615479 
z"/>
<path fill="#000000" opacity="1.000000" stroke="none" 
	d="
M235.823090,717.962769 
	C245.908615,724.560852 249.869781,734.041626 248.880066,745.178101 
	C247.880066,756.430420 242.837631,765.537598 231.419205,769.793091 
	C223.357712,772.797546 215.903046,771.279785 209.183655,766.428833 
	C194.362625,755.728638 194.138397,730.815125 208.786499,719.867371 
	C217.119446,713.639526 226.143875,712.686401 235.823090,717.962769 
M217.846741,729.157349 
	C226.025757,739.433289 223.909515,749.044556 215.488327,757.950928 
	C221.409531,762.020264 227.001602,762.001953 232.056152,758.226990 
	C239.868378,752.392578 241.581863,739.735229 235.709961,731.236938 
	C232.100021,726.012268 226.577133,723.812988 220.475800,725.355225 
	C218.914383,725.750000 216.459656,725.725098 217.846741,729.157349 
M215.099884,739.423706 
	C214.193573,737.057068 213.729019,734.316223 210.596420,733.738342 
	C206.682510,739.886292 206.723465,746.571838 210.749619,751.228699 
	C214.592545,748.458801 216.012512,744.758972 215.099884,739.423706 
z"/>
<path fill="#000000" opacity="1.000000" stroke="none" 
	d="
M247.486023,311.136597 
	C240.223328,328.154419 225.002121,333.979034 211.120544,325.377441 
	C200.677551,318.906525 195.800751,304.666443 199.660431,291.914337 
	C203.483871,279.282043 213.268982,272.157471 226.073105,272.683105 
	C238.036423,273.174225 248.429382,284.506134 249.272781,297.985260 
	C249.545792,302.348633 249.170914,306.630829 247.486023,311.136597 
M227.751358,318.666229 
	C239.632889,315.548584 244.512939,295.881989 233.425964,286.229248 
	C228.259033,281.730713 221.592026,281.552277 217.351883,285.955566 
	C225.803513,296.122955 225.063568,306.082123 215.698578,315.562469 
	C219.078842,318.879791 222.859100,319.364014 227.751358,318.666229 
M215.556625,298.091949 
	C214.678635,295.503632 214.080612,292.703888 211.077774,291.585449 
	C207.042801,297.197998 207.019867,304.598267 210.931152,309.033722 
	C214.740021,306.671814 215.818893,303.073669 215.556625,298.091949 
z"/>
<path fill="#000000" opacity="1.000000" stroke="none" 
	d="
M251.248459,608.099548 
	C248.867233,615.310181 247.194077,616.562439 243.012909,614.669128 
	C240.924698,613.723511 240.066650,612.394775 241.750778,610.475037 
	C244.791550,607.008850 247.949432,603.645386 251.361115,599.907349 
	C253.113953,602.865662 251.977615,605.290710 251.248459,608.099548 
z"/>
</svg>