<svg version="1.1" id="Layer_1" xmlns="http://www.w3.org/2000/svg" xmlns:xlink="http://www.w3.org/1999/xlink" x="0px" y="0px"
	 width="100%" viewBox="0 0 960 1024" enable-background="new 0 0 960 1024" xml:space="preserve">
<path fill="#000000" opacity="1.000000" stroke="none" 
	d="
M507.610168,830.702515 
	C483.871002,844.263428 458.590759,850.285095 431.709259,850.170410 
	C408.709778,850.072266 385.709564,850.132629 362.709686,850.139343 
	C288.758148,850.160889 228.803925,802.117493 212.766815,729.891968 
	C210.127823,718.006836 208.746002,705.964966 208.748917,693.752502 
	C208.777985,572.253113 208.500473,450.752930 208.886383,329.254822 
	C209.021118,286.840271 223.642349,249.614182 254.062897,219.485947 
	C279.162872,194.627167 309.285309,179.625748 344.790283,176.718781 
	C370.896301,174.581345 397.086639,176.374207 423.233002,175.836670 
	C439.948059,175.493057 456.513550,176.411728 472.773651,180.757889 
	C530.880127,196.289154 575.338379,247.340210 582.463196,306.579254 
	C583.691406,316.791351 583.024414,315.280243 591.869385,312.790009 
	C598.926880,310.802948 606.149719,309.636383 613.543884,309.664825 
	C630.210205,309.728882 646.877075,309.636169 663.543396,309.694580 
	C709.118713,309.854279 749.557678,343.324615 758.328247,388.006958 
	C759.617493,394.575226 760.285767,401.151459 760.282776,407.848145 
	C760.249512,482.514404 760.341125,557.180725 760.260193,631.846924 
	C760.211792,676.478088 732.223328,714.246277 689.737000,727.450317 
	C683.494751,729.390320 677.068359,730.783325 670.600525,730.875000 
	C649.113220,731.179565 627.609253,731.641663 606.138794,730.323120 
	C598.147888,729.832336 590.465454,727.427673 582.049988,725.178772 
	C572.407898,770.978271 548.342712,806.571533 507.610168,830.702515 
M488.670410,666.500061 
	C488.670654,555.513916 488.664673,444.527740 488.678650,333.541595 
	C488.680511,318.637512 486.700104,304.039307 482.679810,289.670593 
	C462.312073,216.875305 380.321838,173.081406 307.766266,205.585587 
	C257.641174,228.041122 229.549698,268.318665 228.767700,322.670502 
	C226.984161,446.629456 228.154755,570.630493 228.024384,694.614258 
	C228.003769,714.220825 231.895950,732.929382 239.275970,751.023682 
	C262.133667,807.066467 322.823425,840.097778 382.118652,828.706177 
	C436.017090,818.351440 479.472992,771.899048 486.908630,717.365234 
	C489.175659,700.738831 488.340698,684.127808 488.670410,666.500061 
M678.997375,681.505493 
	C691.569092,665.733643 696.877014,647.614075 696.851074,627.611511 
	C696.760071,557.311157 696.781433,487.010559 696.796021,416.710052 
	C696.797302,410.375061 696.507019,404.081787 695.831421,397.773956 
	C691.125244,353.831360 645.274841,320.595947 602.180908,329.979828 
	C561.774841,338.778381 537.160522,369.153198 537.106812,410.552307 
	C537.013245,482.685150 537.007019,554.818176 537.021118,626.951111 
	C537.022217,632.760925 536.990051,638.568604 538.118286,644.357605 
	C544.597229,677.599365 563.251404,700.664795 596.223755,709.380371 
	C628.926575,718.024719 656.571472,707.645142 678.997375,681.505493 
M533.892029,784.395996 
	C549.027527,766.033569 558.926331,745.210693 563.317810,721.796570 
	C563.952393,718.412903 564.082336,715.610962 560.617615,713.089905 
	C531.895203,692.190979 517.846741,663.662048 517.780090,628.324951 
	C517.645935,557.179688 517.735535,486.034027 517.739441,414.888550 
	C517.739746,408.733368 517.742615,402.604645 518.635681,396.460510 
	C522.661438,368.766907 535.094055,345.873444 557.986572,329.542542 
	C563.850220,325.359558 565.647339,321.110748 564.617126,314.678772 
	C564.117554,311.559662 563.941406,308.382996 563.337402,305.287292 
	C554.092834,257.901428 528.050659,223.714462 483.377899,204.552032 
	C467.030304,197.539719 449.825745,194.219879 431.893707,195.376907 
	C431.918854,195.792374 431.868774,196.019852 431.947052,196.079803 
	C432.335114,196.376984 432.753265,196.635834 433.167511,196.897659 
	C481.777435,227.623718 506.970123,271.814362 507.181885,329.238007 
	C507.626129,449.700531 507.341064,570.165771 507.383698,690.629883 
	C507.387451,701.292725 507.224030,711.909485 505.351929,722.469910 
	C499.054779,757.992004 482.766327,787.960938 456.002838,812.210022 
	C448.513031,818.996094 440.206177,824.681396 430.578735,830.566772 
	C440.201996,831.263367 448.422821,830.647217 456.585205,829.120911 
	C487.355896,823.367126 512.967651,808.623840 533.892029,784.395996 
M715.354248,471.499908 
	C715.349243,525.477295 715.545898,579.455811 715.242554,633.431458 
	C715.116821,655.809082 707.114014,675.692505 693.539978,693.403809 
	C688.792969,699.597656 682.896240,704.663879 677.024231,710.033630 
	C679.120117,711.185181 680.646729,710.419800 682.212097,709.999878 
	C717.227234,700.607361 741.552368,668.175049 741.608154,630.252075 
	C741.716553,556.616638 741.747803,482.980560 741.551208,409.345428 
	C741.506348,392.526459 736.839539,376.786804 727.269653,362.754456 
	C715.265137,345.152161 698.658997,334.591797 676.755310,330.129547 
	C678.686707,331.896759 679.752136,332.901978 680.849365,333.871063 
	C703.596680,353.961212 715.273804,379.108063 715.340698,409.525604 
	C715.385437,429.850250 715.352417,450.175110 715.354248,471.499908 
z"/>
<path fill="#000000" opacity="1.000000" stroke="none" 
	d="
M375.246185,440.402313 
	C384.751373,445.197296 388.378937,458.395599 381.555725,467.679382 
	C376.218140,474.941772 375.970581,479.844421 381.467377,487.205048 
	C387.437531,495.199615 386.234497,504.500122 380.332062,512.824219 
	C375.025177,520.308472 375.044861,520.322388 380.155884,527.423828 
	C386.609772,536.391113 386.620758,546.581116 380.186462,555.739990 
	C374.960907,563.178284 375.035614,563.125427 380.220520,570.453491 
	C385.549438,577.985107 386.767517,586.024841 382.205872,594.357971 
	C379.162903,599.916687 373.538971,601.998657 368.769928,599.691101 
	C364.142181,597.451965 362.622345,592.516418 365.045105,586.403015 
	C366.141724,583.635864 365.256073,581.669006 363.746826,579.508667 
	C355.266754,567.370056 355.217041,559.080200 363.801697,547.099426 
	C366.598206,543.196655 366.165039,539.934265 363.491394,536.222412 
	C355.425262,525.023987 355.505432,515.893372 363.774231,504.692078 
	C366.444214,501.075226 366.558075,497.739227 363.987946,494.193451 
	C361.137634,490.261169 358.498749,486.233612 357.877411,481.252014 
	C356.989075,474.130219 358.536346,467.685181 363.257111,462.150696 
	C365.483734,459.540283 366.193909,456.972595 364.742218,453.485504 
	C361.488464,445.669708 366.294281,439.608521 375.246185,440.402313 
z"/>
<path fill="#000000" opacity="1.000000" stroke="none" 
	d="
M296.783508,463.275299 
	C303.379547,473.483429 303.033173,483.641357 296.018097,492.823212 
	C292.126892,497.916229 292.115479,500.017181 295.950775,505.230988 
	C303.305115,515.228638 303.468842,525.663513 295.939728,535.632568 
	C292.576599,540.085632 292.612335,543.736389 295.969574,548.178894 
	C303.558289,558.220764 303.338409,568.720825 295.605499,578.950073 
	C293.508667,581.723816 292.691406,584.190369 294.245483,587.630493 
	C296.578033,592.793640 295.025330,597.247925 290.664368,599.693237 
	C286.411713,602.077698 281.181458,600.649292 277.943115,596.218933 
	C272.705902,589.054077 272.951660,579.004028 278.559875,570.997437 
	C284.076416,563.121826 284.076447,563.121826 278.624390,555.065979 
	C272.624817,546.201111 272.953705,535.657043 279.494141,527.179565 
	C284.085266,521.228760 284.098267,520.254578 279.668610,514.125793 
	C272.276337,503.898010 272.305786,493.440613 280.194275,483.345276 
	C283.424591,479.211243 283.469727,475.699982 280.155853,471.744446 
	C274.250885,464.696045 272.335480,456.771912 275.814667,448.017700 
	C278.397491,441.518860 284.278564,438.437714 289.561310,440.534180 
	C294.591003,442.530182 297.156555,447.519623 294.694580,452.254028 
	C292.391174,456.683441 293.475677,459.833771 296.783508,463.275299 
z"/>
<path fill="#000000" opacity="1.000000" stroke="none" 
	d="
M418.179626,460.525543 
	C417.343506,465.171570 415.344177,468.800262 412.613953,472.013123 
	C409.559753,475.607147 409.637482,478.991425 412.346588,482.850494 
	C420.822754,494.924500 420.822510,503.358032 412.351074,515.341858 
	C409.760559,519.006409 409.726013,522.114624 412.396362,525.764465 
	C420.813873,537.269470 420.882935,546.104065 412.573608,557.742554 
	C409.565521,561.955811 409.735901,565.455627 412.979218,569.420837 
	C419.117889,576.925903 420.241730,585.388367 416.238098,594.194885 
	C413.720367,599.732910 408.408691,601.853271 403.450806,599.995850 
	C398.851685,598.272766 396.337250,592.898743 398.475067,588.038025 
	C400.038605,584.483093 399.509735,581.863403 397.305267,578.862366 
	C389.284973,567.943726 389.278992,558.831848 397.366577,547.770996 
	C400.419220,543.596130 400.190887,540.132019 397.121307,536.065247 
	C389.316101,525.724426 389.321930,516.350891 396.707642,505.784241 
	C400.878204,499.817383 400.866333,498.452759 396.591858,492.441681 
	C389.396729,482.323547 389.432343,472.385620 396.948883,462.556152 
	C399.256073,459.539032 400.396667,456.873047 398.556274,453.023407 
	C396.300476,448.304779 397.956879,443.765503 402.043030,441.334015 
	C406.228302,438.843536 411.186340,439.874359 414.468811,443.988037 
	C418.266113,448.746948 418.793793,454.296631 418.179626,460.525543 
z"/>
<path fill="#000000" opacity="1.000000" stroke="none" 
	d="
M308.513336,501.450653 
	C307.894775,494.962616 309.558838,489.556335 313.209564,484.671021 
	C318.164093,478.040955 318.115051,477.302368 313.066833,470.286743 
	C307.614319,462.709259 306.896088,451.572174 311.512909,444.892670 
	C313.712036,441.711060 316.658813,439.532623 320.708923,439.899963 
	C324.510040,440.244781 327.094910,442.470825 328.547577,446.021362 
	C329.498810,448.346283 329.316650,450.636292 328.231476,452.796478 
	C326.491058,456.260803 327.419403,459.050049 329.693573,461.968811 
	C337.493195,471.979187 337.503143,482.518250 329.957275,492.763611 
	C326.094635,498.008179 326.085510,499.998047 329.900360,505.184998 
	C337.263794,515.196960 337.427673,525.692505 329.914551,535.581848 
	C326.701660,539.810974 326.414764,543.265930 329.745056,547.639526 
	C337.777863,558.188660 337.728668,568.040771 329.751770,578.864685 
	C327.416748,582.033142 326.812653,584.822998 328.317200,588.529602 
	C330.163544,593.078308 328.042328,597.954163 323.936005,599.914429 
	C319.710297,601.931763 314.946594,600.618958 311.998901,596.624817 
	C306.821869,589.609924 307.152985,578.652100 312.777283,570.864624 
	C318.182526,563.380432 318.182587,563.380432 313.236877,556.081726 
	C306.416656,546.016968 306.593445,536.317200 314.169647,526.570740 
	C317.328247,522.507446 317.614441,518.917358 314.306213,514.909729 
	C311.185455,511.129150 308.919159,506.894257 308.513336,501.450653 
z"/>
<path fill="#000000" opacity="1.000000" stroke="none" 
	d="
M352.485748,684.381470 
	C345.932037,684.196594 342.203949,681.129517 341.761719,675.914307 
	C341.380859,671.423157 344.713165,667.096069 349.315399,666.105835 
	C353.663544,665.170227 358.383179,668.067871 359.836548,672.565186 
	C361.495392,677.698486 358.910553,682.052734 352.485748,684.381470 
z"/>
</svg>