<svg version="1.1" id="Layer_1" xmlns="http://www.w3.org/2000/svg" xmlns:xlink="http://www.w3.org/1999/xlink" x="0px" y="0px"
	 width="100%" viewBox="0 0 480 416" enable-background="new 0 0 480 416" xml:space="preserve">
<path fill="#000000" opacity="1.000000" stroke="none" 
	d="
M356.788025,75.740570 
	C366.367645,78.070236 368.587860,81.636879 367.379303,92.898605 
	C364.744659,117.449104 360.063782,141.559494 351.440369,164.787933 
	C344.425751,183.682755 334.408386,200.574371 318.515350,213.430527 
	C314.885773,216.366562 313.561035,219.229843 314.135071,224.346130 
	C316.482452,245.268112 309.505951,262.938873 293.674896,277.005341 
	C280.433167,288.771118 266.028229,298.982483 251.177185,308.556183 
	C243.264740,313.656952 235.641769,309.878754 234.533783,300.644562 
	C233.556992,292.503967 233.980240,284.346985 234.496155,276.195709 
	C234.967209,268.753326 234.376450,267.881195 227.724762,264.905151 
	C212.124649,257.925476 200.199249,246.874847 192.130402,231.855453 
	C190.142380,228.154953 187.819138,227.065826 183.796387,227.456055 
	C174.692810,228.339142 165.556046,229.019150 156.417038,229.361389 
	C145.791077,229.759323 140.395508,220.818741 145.637161,211.403503 
	C153.748749,196.833160 162.919327,182.936935 172.993729,169.625763 
	C183.200760,156.139343 196.550659,147.825562 213.014008,144.266068 
	C217.488770,143.298584 221.975204,143.770889 226.456482,143.692841 
	C228.731491,143.653214 230.673553,143.416199 232.057724,141.260513 
	C247.941223,116.523857 271.623291,102.323814 298.342743,92.184143 
	C317.215302,85.022255 336.539978,79.502083 356.788025,75.740570 
M345.300110,115.934776 
	C345.927673,109.742653 348.150299,103.708740 347.571533,96.946442 
	C337.678558,98.449326 328.736053,101.599861 319.724457,104.426704 
	C301.023468,110.292992 283.069092,117.870674 267.372284,129.814560 
	C255.924225,138.525558 247.861664,150.245819 240.859360,162.642731 
	C238.821960,166.249741 236.898315,167.607468 233.126526,164.980881 
	C229.425858,162.403824 225.125214,161.810791 220.689743,162.214401 
	C209.471466,163.235199 199.738129,167.432648 192.205872,175.989105 
	C184.255966,185.020020 177.570953,194.989502 171.224808,205.181381 
	C170.440247,206.441376 168.864212,207.639786 169.806671,209.696472 
	C178.501770,209.998123 187.067245,208.819427 195.652832,207.891922 
	C198.931656,207.537689 202.050919,206.841202 203.593246,211.479492 
	C210.928802,233.539856 225.856110,247.310913 248.891724,251.855606 
	C252.058502,252.480392 253.246948,254.315170 253.185776,257.503906 
	C253.054718,264.334290 253.107193,271.170013 253.206406,278.001770 
	C253.231369,279.720520 252.531754,281.692932 254.539703,283.374084 
	C265.240784,276.380188 275.271362,268.492096 284.617493,259.689819 
	C291.140747,253.546143 294.315613,245.706375 295.480988,237.183472 
	C296.373657,230.655075 297.073639,223.727264 292.129700,218.098953 
	C288.907196,214.430420 289.851288,212.229965 293.679199,209.471237 
	C305.060577,201.268860 315.851257,192.352707 323.341431,180.154282 
	C335.321198,160.644028 340.869812,138.936981 345.300110,115.934776 
z"/>
<path fill="#000000" opacity="1.000000" stroke="none" 
	d="
M116.895401,279.909058 
	C122.299858,274.010254 127.250473,268.158386 132.668381,262.776978 
	C137.951233,257.529694 145.088760,259.432465 146.599625,266.104584 
	C147.253098,268.990387 146.248199,271.417633 144.436035,273.453369 
	C134.713608,284.375214 124.998856,295.306580 115.093414,306.061462 
	C111.567360,309.889923 106.743027,310.070099 103.493027,307.126099 
	C100.025276,303.984863 99.841934,299.284668 103.395660,295.068726 
	C107.678970,289.987244 112.217834,285.121185 116.895401,279.909058 
z"/>
<path fill="#000000" opacity="1.000000" stroke="none" 
	d="
M163.161331,291.902649 
	C163.424622,288.586365 164.771606,286.190643 166.726608,284.032654 
	C174.305237,275.667053 181.829163,267.251862 189.409775,258.888092 
	C190.517517,257.665924 191.717545,256.474915 193.056015,255.524658 
	C196.413315,253.141159 199.950287,252.921036 203.090866,255.772354 
	C206.363724,258.743805 206.684250,262.411438 204.359131,266.127838 
	C201.341339,270.951447 196.977051,274.641907 193.249817,278.868561 
	C188.091736,284.717865 182.993835,290.645386 177.481049,296.149750 
	C171.845337,301.776886 165.630692,299.929565 163.161331,291.902649 
z"/>
<path fill="#000000" opacity="1.000000" stroke="none" 
	d="
M190.205765,317.216370 
	C193.254684,313.887115 195.978149,310.734222 198.892426,307.768860 
	C202.508118,304.089813 207.910019,303.548584 211.007996,306.363556 
	C214.075653,309.150970 214.426865,314.147217 211.088913,318.114960 
	C205.739197,324.474060 200.112686,330.621460 194.299805,336.561462 
	C191.046387,339.886017 186.488220,339.776825 183.467239,337.027893 
	C180.404541,334.241028 179.806122,329.906616 182.483704,326.164764 
	C184.698868,323.069122 187.450836,320.357605 190.205765,317.216370 
z"/>
<path fill="#000000" opacity="1.000000" stroke="none" 
	d="
M135.869049,321.146301 
	C137.362091,314.898590 141.799652,311.251678 146.045670,307.635529 
	C149.193497,304.954651 152.977844,305.222656 156.018387,308.020844 
	C159.278549,311.021149 159.258270,314.911957 157.064758,318.435242 
	C155.334595,321.214264 152.939957,323.598145 150.720963,326.049408 
	C148.189713,328.845612 144.938553,330.032318 141.285339,329.037903 
	C137.630280,328.042969 136.167969,325.122101 135.869049,321.146301 
z"/>
<path fill="#000000" opacity="1.000000" stroke="none" 
	d="
M280.464966,175.737350 
	C271.097412,167.862503 268.723846,156.522659 274.316193,147.562805 
	C280.008881,138.442215 291.417480,135.149231 301.408386,139.742920 
	C310.706879,144.018234 315.426422,155.111313 312.096313,164.864349 
	C308.609009,175.077835 297.667511,181.317719 287.626190,178.821182 
	C285.192871,178.216202 282.884491,177.313858 280.464966,175.737350 
z"/>
</svg>