<svg version="1.1" id="Layer_1" xmlns="http://www.w3.org/2000/svg" xmlns:xlink="http://www.w3.org/1999/xlink" x="0px" y="0px"
	 width="100%" viewBox="0 0 1024 1024" enable-background="new 0 0 1024 1024" xml:space="preserve">
<path fill="#000000" opacity="1.000000" stroke="none" 
	d="
M139.360229,780.598328 
	C106.919250,735.480774 83.414101,686.444092 68.842491,633.217468 
	C61.407238,606.058289 56.785679,578.373901 54.519825,550.251282 
	C52.709221,527.778870 52.315681,505.337006 53.846050,482.882172 
	C57.405697,430.652222 68.779709,380.197937 89.875710,332.197052 
	C132.652359,234.865097 200.989380,160.699615 293.746094,108.994034 
	C341.076294,82.610680 391.776642,65.932579 445.304260,57.903446 
	C471.518524,53.971313 497.935333,51.949020 524.445312,52.882214 
	C615.783691,56.097462 699.645935,82.429283 774.567322,135.329315 
	C862.507446,197.421494 923.042053,279.655579 954.422546,382.861389 
	C963.783386,413.647949 969.241272,445.231720 971.481018,477.379456 
	C972.546448,492.673615 973.655212,507.957825 973.172180,523.284180 
	C970.400574,611.222290 945.822144,692.283447 897.007568,765.830933 
	C863.877808,815.746582 822.553162,857.427490 773.462158,891.642212 
	C722.328918,927.280334 666.307129,951.426086 605.251770,963.755676 
	C571.367371,970.598389 537.054688,973.995178 502.498871,972.936829 
	C394.074341,969.615784 298.175354,933.253967 215.300674,862.993530 
	C186.680206,838.729431 161.537598,811.280823 139.360229,780.598328 
M583.083679,69.500381 
	C571.187683,68.126350 559.322632,66.318619 547.389404,65.464996 
	C519.096008,63.441067 490.849731,63.990555 462.601959,67.131142 
	C425.150269,71.295036 388.768127,79.835701 353.772858,93.609734 
	C258.531250,131.096558 183.835449,193.475174 129.881363,280.480835 
	C91.762039,341.951508 70.801514,409.066193 65.481705,481.056030 
	C63.479385,508.152313 64.110573,535.261536 67.145287,562.337402 
	C70.343956,590.876160 75.901611,618.904785 84.569618,646.228882 
	C100.164825,695.389648 123.351059,740.679077 154.488998,781.936462 
	C195.737473,836.590332 246.676315,879.671509 307.237518,911.461121 
	C357.679382,937.938965 411.371094,953.825989 467.972076,959.471252 
	C495.488800,962.215698 523.104431,962.309998 550.770996,960.024109 
	C583.617737,957.310242 615.695374,951.092163 647.054565,941.194458 
	C711.156128,920.962463 767.754395,887.750488 817.050232,842.075928 
	C867.112976,795.690735 904.864319,740.800171 930.373718,677.524780 
	C952.065491,623.719055 961.674011,567.575195 961.481323,509.750305 
	C961.413696,489.468384 959.718811,469.212280 956.892578,449.056641 
	C950.551941,403.838470 937.739746,360.625580 917.626465,319.628204 
	C872.747131,228.149460 804.797729,159.250702 714.395752,112.409615 
	C673.237976,91.084038 629.538452,77.476547 583.083679,69.500381 
z"/>
<path fill="#000000" opacity="1.000000" stroke="none" 
	d="
M611.839233,365.010223 
	C611.965515,360.365265 611.689209,356.221802 612.477905,352.068451 
	C614.614380,340.817566 622.824829,333.201141 634.151550,332.877625 
	C644.807861,332.573242 655.484375,332.535858 666.141113,332.808136 
	C678.709717,333.129333 688.225586,343.150696 688.284363,355.927765 
	C688.390991,379.089142 688.421753,402.252014 688.252075,425.412537 
	C688.222900,429.403198 689.553528,431.721008 692.875916,433.881287 
	C713.125854,447.047974 733.262756,460.389496 753.369934,473.774048 
	C765.475586,481.832336 769.932434,494.129883 765.881897,507.596802 
	C762.056213,520.316528 751.028442,528.034485 736.618530,528.052795 
	C731.786255,528.058899 726.938171,528.251160 722.126282,527.927124 
	C717.415283,527.609924 716.226440,529.558899 716.255554,534.042175 
	C716.436462,561.868652 716.360962,589.696716 716.364136,617.524292 
	C716.368347,653.849976 716.478638,690.176086 716.337708,726.501221 
	C716.178589,767.522217 684.397888,802.407654 643.450195,806.346130 
	C623.354065,808.279053 603.160095,807.046143 583.014099,807.085815 
	C519.027832,807.211731 455.040375,807.235596 391.054810,806.963501 
	C367.842377,806.864807 347.744141,798.493652 331.826874,781.289185 
	C317.444153,765.743469 309.778473,747.173523 309.703735,726.016052 
	C309.478943,662.363525 309.635101,598.709534 309.640717,535.056152 
	C309.641327,528.142090 309.635071,528.180176 302.830688,528.088318 
	C296.673035,528.005127 290.459778,528.308105 284.371765,527.588623 
	C272.041656,526.131287 262.346100,517.317688 259.725067,505.963196 
	C256.846313,493.492310 261.162476,481.595520 271.684937,474.454346 
	C286.295624,464.538574 301.089050,454.891418 315.830170,445.168610 
	C364.500793,413.066864 413.242493,381.072357 461.825256,348.838257 
	C476.762146,338.927856 492.802856,332.550873 510.782471,332.169189 
	C527.985352,331.803986 544.121948,336.114746 558.699646,345.458130 
	C574.266724,355.435638 589.720459,365.589935 605.232483,375.653381 
	C606.881165,376.722900 608.589355,377.700745 610.925598,379.119232 
	C612.756714,374.273376 611.467468,369.799744 611.839233,365.010223 
M355.455139,786.071838 
	C367.440613,793.031250 380.411163,795.737793 394.205841,795.721313 
	C474.534332,795.625488 554.862976,795.678345 635.191589,795.663635 
	C667.132446,795.657776 694.858765,773.708740 702.765137,742.728210 
	C705.837585,730.688904 704.736572,718.549988 704.901184,706.444275 
	C705.272522,679.121948 705.614014,651.791931 705.372620,624.470337 
	C705.076660,590.977539 704.729309,557.486694 704.982422,523.993408 
	C705.024719,518.396973 707.005249,516.733643 712.770081,516.683899 
	C720.602417,516.616272 728.435730,516.652527 736.268494,516.621704 
	C746.054688,516.583191 752.851135,512.114380 755.220825,504.191132 
	C757.749268,495.737030 754.739929,488.298157 746.483459,482.816254 
	C725.665771,468.994202 704.922302,455.056763 683.936951,441.493774 
	C678.693787,438.105042 676.627197,434.176941 676.708496,427.969086 
	C677.020569,404.140961 676.939087,380.306915 676.895935,356.475311 
	C676.880859,348.143433 672.929199,344.278229 664.597107,344.204742 
	C655.098450,344.121033 645.598145,344.117065 636.099304,344.185364 
	C627.794861,344.245087 623.448669,348.589783 623.363037,356.820190 
	C623.298889,362.985870 623.248169,369.154327 623.359558,375.318481 
	C623.462158,380.993774 622.228577,386.096405 616.891174,388.959503 
	C611.442383,391.882355 606.465759,390.257416 601.498047,386.948059 
	C585.000916,375.957977 568.670105,364.659973 551.659973,354.511749 
	C525.799927,339.083618 499.407013,339.359924 473.564362,354.891388 
	C461.436218,362.180420 449.740692,370.195587 437.922485,377.992920 
	C384.941559,412.948517 331.987518,447.944824 279.022308,482.924255 
	C271.523193,487.876862 268.399567,496.304504 270.974243,504.680847 
	C273.298828,512.243591 279.968964,516.679199 289.108032,516.705872 
	C296.940857,516.728760 304.774200,516.672913 312.606445,516.744873 
	C318.742279,516.801270 320.140778,518.142883 320.735199,524.314392 
	C320.894531,525.968994 320.910248,527.642212 320.908875,529.306824 
	C320.892975,548.633667 320.522003,567.971436 320.660278,587.282532 
	C320.835571,611.768372 320.241028,636.264832 321.014404,660.739319 
	C321.745819,683.886169 319.174988,707.025024 321.186340,730.165344 
	C323.278534,754.235474 334.685455,772.594238 355.455139,786.071838 
z"/>
<path fill="#000000" opacity="1.000000" stroke="none" 
	d="
M595.652954,241.952148 
	C592.400024,242.612244 590.622009,240.628128 588.696350,239.114548 
	C572.982544,226.763229 555.423950,218.193298 535.797058,214.436096 
	C500.407257,207.661377 468.500519,216.051697 439.830078,237.536392 
	C438.764404,238.334976 437.744812,239.194839 436.683655,239.999695 
	C433.545837,242.379608 430.133087,243.321671 427.458984,239.783783 
	C424.839264,236.317917 426.418884,233.206421 429.608307,230.788681 
	C438.114777,224.340378 446.807892,218.087158 456.580658,213.751511 
	C505.927582,191.858978 552.152344,197.612198 595.177917,229.972488 
	C601.505920,234.731857 601.619568,238.116699 595.652954,241.952148 
z"/>
<path fill="#000000" opacity="1.000000" stroke="none" 
	d="
M519.706604,230.871094 
	C540.885620,232.574524 559.170959,240.224564 575.275574,253.251282 
	C577.237244,254.838043 579.292908,256.422638 579.032471,259.324005 
	C578.630432,263.802917 573.672974,265.682587 569.488159,262.663574 
	C562.998108,257.981567 556.535156,253.326096 549.150269,250.091537 
	C518.664490,236.738800 489.840240,240.102921 462.504333,258.615509 
	C460.852051,259.734497 459.276672,260.971100 457.702545,262.200409 
	C454.834229,264.440491 451.711578,265.918274 448.947327,262.499390 
	C446.157593,259.049042 447.782318,255.959579 450.807495,253.440659 
	C456.197174,248.952881 462.025421,245.118134 468.176025,241.752197 
	C484.114838,233.029663 501.247711,229.937469 519.706604,230.871094 
z"/>
<path fill="#000000" opacity="1.000000" stroke="none" 
	d="
M477.265961,271.217468 
	C502.473572,254.660278 531.007629,256.057281 552.861572,274.628143 
	C555.820862,277.142822 557.717834,279.876953 555.160767,283.599854 
	C552.943359,286.828156 549.767151,286.659210 545.759033,283.260956 
	C532.936340,272.389435 518.181824,269.064453 501.915863,272.359863 
	C494.498474,273.862610 487.803436,277.244720 481.851837,281.989136 
	C480.941406,282.714874 480.108948,283.562317 479.126831,284.169769 
	C476.288574,285.925201 473.257202,286.252747 471.027435,283.506683 
	C468.848114,280.822784 469.337006,277.839996 471.901337,275.468475 
	C473.482849,274.005890 475.278503,272.774841 477.265961,271.217468 
z"/>
<path fill="#000000" opacity="1.000000" stroke="none" 
	d="
M522.141602,302.760864 
	C514.573914,298.929016 507.836334,299.338348 501.520355,304.779510 
	C497.723877,308.050140 494.052704,308.169647 491.985504,305.240540 
	C489.322845,301.467590 491.604462,298.640472 494.236206,296.155121 
	C504.283173,286.666992 520.997925,286.493713 531.564575,295.690948 
	C535.537598,299.149078 536.542969,302.834045 533.936584,305.474640 
	C530.481140,308.975433 527.374451,307.218628 524.465210,304.434143 
	C523.872131,303.866516 523.136292,303.447998 522.141602,302.760864 
z"/>
<path fill="#000000" opacity="1.000000" stroke="none" 
	d="
M654.269104,672.000000 
	C654.255066,692.153076 654.251770,711.806091 654.222595,731.459167 
	C654.208801,740.719482 651.566589,745.012268 642.908386,748.161865 
	C627.984863,753.590637 612.803650,753.397888 597.877136,748.368591 
	C590.038391,745.727417 586.397827,741.411926 586.461426,731.862793 
	C586.707703,694.892090 586.519470,657.917725 586.329590,620.945557 
	C586.299255,615.050354 588.783081,611.091492 593.755859,608.455139 
	C604.299988,602.865295 615.653503,601.933289 627.250244,603.108276 
	C633.370239,603.728333 639.446472,604.844604 645.005249,607.787048 
	C651.138428,611.033569 654.343079,615.844360 654.269653,623.034180 
	C654.104614,639.187744 654.250122,655.344543 654.269104,672.000000 
M597.335449,639.832642 
	C597.338257,663.483215 597.461365,687.134827 597.242065,710.783386 
	C597.198242,715.499573 598.894165,717.750488 603.293579,718.880859 
	C614.495117,721.758850 625.613220,721.753418 636.837769,718.975830 
	C641.318970,717.866943 642.918091,715.583496 642.875671,710.907471 
	C642.659729,687.092468 642.771851,663.274475 642.728027,639.457642 
	C642.725098,637.877319 643.247009,636.092163 641.338867,634.530579 
	C627.223633,638.466309 612.794800,638.529541 598.790039,634.432251 
	C596.919434,635.899536 597.490295,637.510254 597.335449,639.832642 
M631.631104,614.798523 
	C621.849182,613.003723 612.163452,613.207825 602.683167,616.432678 
	C600.731812,617.096497 597.995728,617.603210 598.091980,620.267700 
	C598.173889,622.536438 600.666809,623.114258 602.493225,623.747437 
	C614.356323,627.859436 626.257690,627.592590 638.105103,623.693665 
	C639.915771,623.097900 641.937927,622.381714 642.336365,620.029175 
	C639.419617,616.887634 638.266968,616.309753 631.631104,614.798523 
M632.251770,739.727844 
	C642.346252,737.733398 643.473633,736.569763 642.093262,728.977173 
	C627.539734,733.720398 612.860962,733.274170 598.344360,729.123169 
	C596.680542,735.228210 597.291870,736.788147 602.355530,738.353210 
	C611.882629,741.297668 621.608398,741.471313 632.251770,739.727844 
z"/>
<path fill="#000000" opacity="1.000000" stroke="none" 
	d="
M370.744751,626.070801 
	C380.291473,596.755188 409.242523,586.001221 432.555756,593.758789 
	C466.762573,605.141357 477.770752,646.353699 454.000885,673.710449 
	C447.613129,681.062134 443.416870,688.939148 443.319153,698.759644 
	C443.283020,702.388550 441.035828,703.960083 437.905212,703.979675 
	C424.260345,704.065125 410.613373,704.017883 396.969147,703.853760 
	C393.247131,703.808960 391.030762,701.517395 391.077515,697.776245 
	C391.197510,688.170959 386.827942,680.776794 380.807892,673.635315 
	C369.190765,659.854187 365.765381,643.972046 370.744751,626.070801 
M398.929504,649.851135 
	C402.772552,643.798096 407.896576,641.748474 413.683014,644.700684 
	C416.875336,646.329346 419.295258,646.269958 422.421356,644.690063 
	C426.589722,642.583435 430.977142,643.010559 434.492645,646.309692 
	C438.051758,649.649841 439.149689,653.859070 437.646698,658.645630 
	C435.942871,664.071777 431.916840,667.168213 426.884125,668.971924 
	C424.238312,669.920166 423.179932,671.307007 423.264557,674.066833 
	C423.412659,678.894348 423.337830,683.729370 423.319183,688.561096 
	C423.310913,690.703735 423.433868,692.816833 426.329559,692.617615 
	C428.737183,692.451965 432.089844,694.058105 432.892822,690.065491 
	C434.911804,680.026733 440.996796,672.462830 447.233185,664.739075 
	C458.283661,651.053162 458.177338,631.871399 447.661896,617.388977 
	C438.292938,604.485535 420.557434,598.946838 405.224030,604.416382 
	C380.736450,613.151550 370.509827,645.201843 389.575134,666.929443 
	C395.289673,673.441956 400.032959,680.346130 401.308899,689.093506 
	C401.922974,693.303284 404.925598,692.542419 407.708893,692.736145 
	C410.977814,692.963562 412.153076,691.356506 412.381470,688.362915 
	C412.699890,684.189087 412.242371,680.044495 412.205505,675.891541 
	C412.170258,671.926147 410.923065,669.705933 407.031769,668.021545 
	C399.250061,664.652832 396.466248,658.170593 398.929504,649.851135 
z"/>
<path fill="#000000" opacity="1.000000" stroke="none" 
	d="
M618.298340,464.577026 
	C652.909058,483.725128 660.391724,532.253113 632.127075,560.720459 
	C614.643799,578.329163 588.433228,583.639771 565.206543,574.093933 
	C542.812378,564.890259 528.556396,543.093262 528.656494,518.209961 
	C528.777588,488.113953 547.872070,464.456665 577.329102,458.302979 
	C591.542786,455.333649 605.114685,457.754486 618.298340,464.577026 
M554.001587,552.997559 
	C554.001587,552.997559 553.973267,552.966553 554.393921,553.486389 
	C558.590576,557.720032 563.157593,561.384399 569.011597,563.000732 
	C569.011597,563.000732 568.983643,562.975098 569.505493,563.450562 
	C597.472046,576.323364 632.051697,558.420166 637.484741,528.307800 
	C638.152222,524.608215 637.035339,522.945740 633.152771,523.257141 
	C631.342468,523.402344 629.470154,523.375244 627.683533,523.078979 
	C624.697632,522.583923 622.821716,520.652222 622.897766,517.611816 
	C622.975586,514.500854 624.972656,512.854980 628.094055,512.710266 
	C629.587891,512.640991 631.085815,512.656311 632.581848,512.635559 
	C637.933899,512.561279 638.612671,511.716949 637.195984,506.364563 
	C634.996399,498.054321 631.483032,490.419739 624.726868,483.775513 
	C624.063232,483.041473 623.399597,482.307465 622.270447,481.190552 
	C617.529968,477.519104 612.970642,473.546448 606.993103,471.998535 
	C606.993103,471.998535 607.020203,472.018951 606.398682,471.661316 
	C602.732666,470.207428 599.083618,468.674011 594.961731,469.001678 
	C593.915894,471.951721 594.432800,474.798767 594.413940,477.581238 
	C594.388855,481.283722 593.030945,484.058167 589.099792,483.907806 
	C585.389343,483.765869 583.801880,481.086365 583.661377,477.399475 
	C583.556580,474.650055 584.354736,471.791382 583.056824,469.157013 
	C565.025452,469.403656 546.554321,485.213623 541.430786,504.660828 
	C539.382812,512.434204 539.488098,512.566650 547.720886,512.685059 
	C548.717896,512.699341 549.723816,512.670593 550.709290,512.793213 
	C553.578796,513.150146 555.212402,514.724792 555.317017,517.701965 
	C555.421936,520.686401 553.811157,522.449707 551.063721,522.983398 
	C549.129150,523.359192 547.074524,523.429565 545.106750,523.257202 
	C540.960022,522.893799 539.610107,524.718506 540.553894,528.562073 
	C542.852295,537.921204 546.536133,546.526367 554.001587,552.997559 
z"/>
<path fill="#000000" opacity="1.000000" stroke="none" 
	d="
M441.617035,735.221497 
	C439.638336,739.749817 435.253967,741.625244 432.764252,744.802368 
	C427.085022,752.049622 419.758453,750.879944 412.435547,750.922852 
	C408.957581,750.943237 405.853882,750.072815 404.029968,746.640076 
	C403.585419,745.803528 402.808502,744.997498 401.984192,744.531372 
	C393.755920,739.877014 390.869720,732.654541 391.557800,723.552795 
	C391.783020,720.573853 391.735840,717.558899 391.591522,714.571106 
	C391.388275,710.362610 393.504181,708.213745 397.460846,708.174072 
	C410.604218,708.042358 423.750458,708.005859 436.893494,708.141052 
	C441.202759,708.185425 443.706207,710.499084 443.355225,715.155396 
	C442.859741,721.728882 444.661743,728.482971 441.617035,735.221497 
M423.400909,719.343079 
	C419.750092,719.341003 416.078644,719.097900 412.454651,719.408752 
	C409.226288,719.685608 405.450256,717.957886 402.240448,721.226929 
	C408.044922,723.710449 429.777100,723.100647 432.353333,720.550476 
	C429.926788,718.287598 426.969696,719.818665 423.400909,719.343079 
M421.373260,739.234558 
	C423.424835,737.119629 425.657196,735.248474 428.508270,734.075500 
	C421.123810,734.551208 413.859467,732.713318 405.397461,733.934326 
	C411.507782,735.343994 414.467133,741.647949 421.373260,739.234558 
z"/>
<path fill="#000000" opacity="1.000000" stroke="none" 
	d="
M451.999878,536.218262 
	C446.167725,536.208130 440.834808,536.142090 435.503479,536.205933 
	C427.680786,536.299805 424.313721,539.567993 423.984833,547.459534 
	C423.749237,553.113647 423.654510,558.774902 423.578979,564.433960 
	C423.531830,567.964783 422.568176,571.031006 418.531189,571.125549 
	C414.386871,571.222717 412.758820,568.301758 412.717102,564.503113 
	C412.643951,557.838806 412.460968,551.163330 412.744049,544.510376 
	C413.195099,533.909912 422.214966,525.108704 433.686890,524.920105 
	C455.842957,524.555969 478.008789,524.774414 500.170593,524.785645 
	C503.938843,524.787598 506.993713,526.358459 507.101929,530.397339 
	C507.221375,534.855957 503.911865,536.245422 499.989929,536.249756 
	C484.159912,536.267334 468.329865,536.234680 451.999878,536.218262 
z"/>
<path fill="#000000" opacity="1.000000" stroke="none" 
	d="
M518.719604,677.167847 
	C530.812988,677.137085 542.474121,677.091797 554.134949,677.133118 
	C556.455688,677.141296 558.809265,677.295898 561.086731,677.714539 
	C563.920044,678.235291 565.326843,680.181213 565.275635,683.073242 
	C565.223328,686.027283 563.547791,687.649109 560.767212,688.187134 
	C559.796631,688.374939 558.776367,688.348083 557.778809,688.348083 
	C536.289062,688.348633 514.799255,688.340027 493.309509,688.327881 
	C492.477386,688.327393 491.634796,688.348816 490.815002,688.233154 
	C487.707306,687.794678 485.987244,685.795776 485.939087,682.839600 
	C485.889404,679.788269 487.718323,677.852661 490.857452,677.623108 
	C494.338806,677.368591 497.858551,676.991455 501.319092,677.245789 
	C506.992737,677.662842 512.632690,677.593140 518.719604,677.167847 
z"/>
<path fill="#000000" opacity="1.000000" stroke="none" 
	d="
M625.032898,483.991333 
	C625.753845,488.520447 623.507263,491.489746 620.290527,493.860077 
	C617.899841,495.621704 615.577209,495.201660 613.643982,493.019623 
	C611.871948,491.019470 611.700500,488.917053 613.447998,486.725739 
	C615.660522,483.951172 617.819275,481.153320 622.353271,481.630402 
	C623.399597,482.307465 624.063232,483.041473 625.032898,483.991333 
z"/>
<path fill="#000000" opacity="1.000000" stroke="none" 
	d="
M611.428406,686.123474 
	C617.834412,682.388733 623.920959,682.565613 629.552551,686.627136 
	C634.345215,690.083496 636.431335,695.097412 635.630737,701.027527 
	C634.738708,707.634583 629.541199,712.907654 623.005005,714.138916 
	C616.513977,715.361572 609.801453,712.177917 606.533569,706.326599 
	C603.214294,700.383362 604.093933,693.612732 608.903015,688.359802 
	C609.573242,687.627747 610.372375,687.013550 611.428406,686.123474 
M618.386169,702.724243 
	C623.039124,703.137939 625.778320,700.562988 624.176208,697.178772 
	C623.035339,694.768738 620.908508,693.492065 618.490234,694.936890 
	C615.237305,696.880310 615.276001,699.632812 618.386169,702.724243 
z"/>
<path fill="#000000" opacity="1.000000" stroke="none" 
	d="
M564.214111,530.491089 
	C557.165649,512.897766 564.800354,495.878357 581.377625,491.476532 
	C595.297058,487.780457 609.718994,494.998108 614.763062,508.184601 
	C619.916077,521.655945 614.133301,536.759521 601.241150,543.501282 
	C588.823181,549.995056 574.188416,545.809509 565.936279,533.393372 
	C565.384949,532.563843 564.911682,531.682373 564.214111,530.491089 
M579.497131,532.140198 
	C589.068298,537.571289 598.612366,535.338135 603.486389,526.527222 
	C608.153015,518.091248 605.445374,508.697479 596.954712,503.866394 
	C589.875183,499.838196 580.306885,501.912262 575.565430,508.502899 
	C570.282898,515.845642 571.567932,524.767395 579.497131,532.140198 
z"/>
<path fill="#000000" opacity="1.000000" stroke="none" 
	d="
M606.977600,471.990906 
	C612.081665,475.819550 612.528198,479.676941 608.424011,484.337402 
	C606.960693,485.999023 605.205933,486.728149 603.116089,485.837769 
	C601.200623,485.021729 599.482544,483.622620 599.770996,481.387695 
	C600.303833,477.260071 601.057312,473.051910 606.651550,472.070099 
	C607.020203,472.018951 606.993103,471.998535 606.977600,471.990906 
z"/>
<path fill="#000000" opacity="1.000000" stroke="none" 
	d="
M569.028198,563.010376 
	C565.590881,559.299072 565.812988,554.345520 569.543701,551.075928 
	C571.067688,549.740295 572.760071,549.439392 574.599487,550.163513 
	C576.415039,550.878174 577.609680,552.235718 577.884949,554.184204 
	C578.501099,558.545166 574.330078,563.088684 569.393372,563.025024 
	C568.983643,562.975098 569.011597,563.000732 569.028198,563.010376 
z"/>
<path fill="#000000" opacity="1.000000" stroke="none" 
	d="
M554.017212,553.011597 
	C551.610474,547.909424 552.846497,544.315491 557.826416,541.632812 
	C559.477417,540.743469 560.992249,540.758911 562.527710,541.718140 
	C564.193298,542.758789 565.202393,544.250000 565.091980,546.257019 
	C564.845398,550.741516 559.184082,554.487000 554.332397,553.080627 
	C553.973267,552.966553 554.001587,552.997559 554.017212,553.011597 
z"/>
<path fill="#000000" opacity="1.000000" stroke="none" 
	d="
M551.070190,528.295166 
	C555.056580,528.556458 556.919617,530.631287 556.774475,534.142883 
	C556.661987,536.865234 551.598389,540.074463 548.205566,539.727783 
	C544.882568,539.388184 543.763184,536.919800 543.737305,534.083557 
	C543.695618,529.517883 547.683044,529.435608 551.070190,528.295166 
z"/>
<path fill="#000000" opacity="1.000000" stroke="none" 
	d="
M627.657471,496.692627 
	C631.453491,495.888519 633.580994,497.388550 634.122559,500.683777 
	C634.758667,504.554077 631.796509,505.759766 628.900513,506.744965 
	C626.017456,507.725739 623.304504,507.721527 621.641479,504.581573 
	C619.892151,501.278687 621.586487,498.962891 627.657471,496.692627 
z"/>
<path fill="#000000" opacity="1.000000" stroke="none" 
	d="
M583.315063,513.374512 
	C583.478760,511.460419 583.544617,509.962280 583.688599,508.471680 
	C583.985779,505.396606 585.744446,503.290802 588.751648,503.327820 
	C591.884521,503.366394 594.054016,505.376770 594.227539,508.705811 
	C594.400574,512.026184 594.355530,515.367920 594.211121,518.691895 
	C594.067749,521.992188 592.225098,524.032043 588.890381,524.127563 
	C585.730042,524.218201 584.025269,522.217224 583.573792,519.238220 
	C583.302429,517.448364 583.348938,515.610352 583.315063,513.374512 
z"/>
</svg>