<svg version="1.1" id="Layer_1" xmlns="http://www.w3.org/2000/svg" xmlns:xlink="http://www.w3.org/1999/xlink" x="0px" y="0px"
	 width="100%" viewBox="200 200 624 624" enable-background="new 0 0 1024 1024" xml:space="preserve">
<path fill="#000000" opacity="1.000000" stroke="none" 
	d="
M591.930481,782.023926 
	C575.445190,789.679565 558.307922,793.810486 540.784729,796.200317 
	C492.551117,802.778320 447.489929,793.232361 406.499146,767.151001 
	C355.153473,734.481079 323.365356,688.008850 313.745483,627.648254 
	C303.053284,560.559387 322.711456,502.317230 369.335327,453.605011 
	C400.216187,421.340912 438.482880,401.670013 482.954254,395.695496 
	C552.476196,386.355591 612.068848,406.974976 660.374939,457.917877 
	C690.855042,490.061829 708.219666,528.720032 713.512756,572.863953 
	C716.589294,598.522888 714.242981,623.651306 708.364075,648.629456 
	C707.484802,652.365479 705.777893,655.125305 701.801880,655.888550 
	C696.397705,656.925964 692.498901,652.034729 694.011230,645.704163 
	C695.904846,637.777283 697.811462,629.885010 698.911499,621.779541 
	C703.136047,590.651306 700.437378,560.130493 688.967407,530.940186 
	C662.287415,463.041229 612.529663,421.635071 540.765991,409.938385 
	C483.415436,400.590912 431.811157,416.709778 388.153290,455.658295 
	C353.206146,486.835632 332.248322,525.994080 326.689667,572.400085 
	C320.167633,626.848755 334.461914,675.807861 370.464844,717.641235 
	C399.623230,751.521545 436.340271,772.790161 480.435181,780.905884 
	C515.743469,787.404358 550.047302,783.656738 583.278870,770.188721 
	C587.104919,768.638123 590.555908,768.183594 593.104675,771.754333 
	C595.491516,775.098145 595.066223,778.666016 591.930481,782.023926 
z"/>
<path fill="#000000" opacity="1.000000" stroke="none" 
	d="
M401.178009,695.804504 
	C379.682220,671.492249 366.789368,643.698242 363.596222,611.626526 
	C358.902771,564.485718 373.185516,523.634949 406.078522,489.892059 
	C433.070190,462.202972 466.350616,447.715973 505.320526,445.487213 
	C576.477661,441.417603 641.266113,489.858032 658.569214,558.557129 
	C665.142395,584.654724 664.574158,610.610107 657.707886,636.529358 
	C657.154175,638.619446 656.696838,640.734802 656.167725,642.831665 
	C654.816956,648.184875 651.185303,650.969788 647.036926,649.852356 
	C642.638855,648.667664 640.381104,644.146606 641.887756,639.085449 
	C644.547974,630.149231 646.861023,621.183167 647.918457,611.858215 
	C651.605713,579.341614 645.034363,549.097778 627.196716,521.737488 
	C604.659424,487.168640 572.475891,466.599854 531.761475,460.589661 
	C460.753326,450.107483 393.254913,498.568756 379.337799,569.240173 
	C364.362061,645.287231 416.440277,719.207947 493.143799,730.888489 
	C519.416382,734.889343 544.520874,731.116272 568.637451,720.153259 
	C574.643066,717.423218 579.354004,718.561768 580.977539,723.079163 
	C582.421021,727.095642 580.568237,730.982849 576.339172,732.832764 
	C513.801636,760.187866 446.058441,745.282227 401.178009,695.804504 
z"/>
<path fill="#000000" opacity="1.000000" stroke="none" 
	d="
M648.083496,266.837402 
	C660.516968,274.708374 672.064941,283.161835 682.715698,292.802643 
	C686.438660,296.172638 688.383240,300.206116 686.713013,305.308380 
	C684.177185,313.055115 675.469971,315.990387 668.369507,311.282806 
	C664.913879,308.991760 661.843628,306.121613 658.583496,303.533051 
	C624.147705,276.190460 585.321350,258.518616 541.583923,253.588104 
	C473.726959,245.938599 413.391022,264.458221 361.163757,308.716431 
	C358.849701,310.677429 356.487061,312.511261 353.471680,313.167908 
	C347.871368,314.387451 342.828735,312.152069 340.273682,307.423431 
	C337.615234,302.503448 338.307648,297.610321 342.753876,293.368927 
	C350.362762,286.110596 358.742645,279.763428 367.367737,273.783051 
	C399.483398,251.514969 434.800781,236.930573 473.458099,231.079559 
	C532.125732,222.199890 587.405884,232.543350 639.170837,261.568542 
	C642.075317,263.197113 644.910156,264.949677 648.083496,266.837402 
z"/>
<path fill="#000000" opacity="1.000000" stroke="none" 
	d="
M433.038239,323.072693 
	C420.784363,329.307861 409.660614,336.585419 399.412231,345.191589 
	C398.519684,345.941071 397.606659,346.667938 396.679169,347.373810 
	C390.599060,352.001373 383.515717,351.672363 379.276367,346.575104 
	C374.836853,341.237213 375.621674,333.962128 381.541260,328.884369 
	C390.534424,321.170135 400.226074,314.385498 410.412415,308.337433 
	C447.080475,286.565948 486.937592,277.742859 529.184265,280.961517 
	C572.453674,284.258118 610.718933,300.664246 644.052673,328.458923 
	C650.118103,333.516479 651.251221,340.862640 647.029480,346.033508 
	C642.570557,351.494904 635.020874,351.996765 628.832458,346.799133 
	C603.248413,325.311096 574.145264,311.412262 541.085510,306.273499 
	C503.471222,300.426788 467.472290,305.677917 433.038239,323.072693 
z"/>
<path fill="#000000" opacity="1.000000" stroke="none" 
	d="
M598.592041,711.828247 
	C609.345337,674.843445 646.361755,654.724976 683.305725,665.432190 
	C719.070557,675.797668 739.662476,713.124512 729.149231,749.335205 
	C719.311951,783.217773 682.655212,806.093140 644.558105,795.187317 
	C609.288818,785.090942 588.724854,748.394165 598.592041,711.828247 
M610.313965,733.287048 
	C612.305054,765.980286 642.553772,787.970459 672.601135,782.865845 
	C701.981628,777.874390 722.041748,749.665833 716.552551,719.642151 
	C711.403076,691.476562 681.911316,672.137939 653.556946,677.730774 
	C629.164978,682.542114 609.371460,704.725708 610.313965,733.287048 
z"/>
<path fill="#000000" opacity="1.000000" stroke="none" 
	d="
M448.290710,374.323212 
	C442.972748,377.528839 438.364471,381.086731 433.841553,384.777924 
	C427.595886,389.875153 419.922455,389.538055 415.631805,384.090851 
	C410.928955,378.120300 411.971619,371.757660 418.661530,366.292175 
	C449.688995,340.943604 485.444519,329.977692 525.129639,332.991699 
	C555.980530,335.334717 583.556335,346.887878 607.595215,366.544769 
	C613.811768,371.628113 614.964111,378.481903 610.609924,384.081085 
	C606.478271,389.394073 598.896667,390.066376 592.798706,385.152100 
	C576.148926,371.734253 557.561829,362.373657 536.523315,358.393066 
	C505.279846,352.481598 475.950195,357.942352 448.290710,374.323212 
z"/>
<path fill="#000000" opacity="1.000000" stroke="none" 
	d="
M656.727539,721.988708 
	C656.726379,714.171204 656.660889,706.850342 656.747864,699.531250 
	C656.809143,694.377625 659.744629,690.962646 663.849487,690.971558 
	C667.977112,690.980591 671.075378,694.357605 671.173889,699.438354 
	C671.325439,707.254700 671.371826,715.079163 671.177795,722.893188 
	C671.096863,726.151978 672.272461,728.172485 675.036804,729.731384 
	C678.363892,731.607605 681.533203,733.764771 684.757935,735.820618 
	C689.060120,738.563232 690.239258,742.176392 688.063110,745.871338 
	C686.039673,749.307007 681.322632,750.825684 677.565125,748.670105 
	C671.080444,744.949951 664.812073,740.851929 658.467896,736.888550 
	C656.826782,735.863342 656.750305,734.164429 656.747070,732.467957 
	C656.740845,729.140686 656.734558,725.813354 656.727539,721.988708 
z"/>
</svg>