<svg version="1.1" id="Layer_1" xmlns="http://www.w3.org/2000/svg" xmlns:xlink="http://www.w3.org/1999/xlink" x="0px" y="0px"
	 width="100%" viewBox="0 0 1152 896" enable-background="new 0 0 1152 896" xml:space="preserve">
<path fill="none" opacity="1.000000" stroke="#000000" stroke-linecap="round" stroke-linejoin="round" stroke-width="8.000000"
	d="
M452.000000,443.000000 
	C449.778931,447.753967 448.432800,452.642303 448.451080,458.000153 
	C448.552948,487.833160 448.121613,517.673096 448.628784,547.497803 
	C448.985962,568.502380 448.785828,589.500366 448.962738,610.500305 
	C448.975250,611.986206 449.586914,613.583557 448.504913,615.003723 
	C443.358551,621.758789 448.356506,633.558411 454.481842,638.522400 
	C460.502106,643.401306 467.043365,644.462769 474.513367,642.552185 
	C499.811676,636.082031 525.181824,629.893127 550.495178,623.481079 
	C570.519104,618.408875 590.487915,613.119385 610.503357,608.013123 
	C630.988220,602.787109 651.497070,597.655029 672.000916,592.503723 
	C687.996277,588.485168 704.011536,584.545593 719.996948,580.488037 
	C738.176880,575.873413 756.329224,571.150574 774.501038,566.503967 
	C799.330322,560.154907 824.169128,553.842896 848.999207,547.496948 
	C868.503113,542.512207 887.976379,537.405396 907.507751,532.531067 
	C922.135925,528.880493 929.582520,518.391663 933.368958,504.963043 
	C936.206909,494.897980 935.889099,484.432770 935.104797,473.992126 
	C934.682434,468.369720 935.471436,462.666809 935.477661,456.999969 
	C935.520264,418.500031 935.558899,379.999847 935.459656,341.500092 
	C935.433960,331.549622 931.550659,323.369446 922.457092,318.581482 
	C918.144714,316.310974 913.326050,316.256409 908.493958,317.476166 
	C881.127441,324.384430 853.583557,330.517578 826.020020,336.590881 
	C805.418518,341.130188 785.121460,347.085907 764.472168,351.365753 
	C731.676575,358.163177 699.216431,366.384399 666.512268,373.555847 
	C644.281555,378.430603 622.160522,383.807129 600.001892,389.007965 
	C580.992859,393.469513 562.022644,398.098541 542.994263,402.474945 
	C519.351562,407.912659 495.594116,412.871246 472.038177,418.655426 
	C463.447998,420.764771 457.178070,427.078430 452.637512,434.583191 
	C451.353394,436.705627 451.243652,439.833344 452.500000,442.500000 
"/>
<path fill="none" opacity="1.000000" stroke="#000000" stroke-linecap="round" stroke-linejoin="round" stroke-width="8.000000"
	d="
M977.000000,239.750000 
	C974.173462,234.631439 968.642700,234.147552 963.968689,232.594269 
	C946.213135,226.693649 928.312073,221.232498 910.504944,215.484741 
	C883.319397,206.709793 856.168274,197.828491 828.999146,189.002594 
	C819.266418,185.840927 809.443665,185.848389 799.495239,187.977768 
	C779.677979,192.219498 759.828247,196.309311 740.001404,200.506516 
	C718.477600,205.062912 697.009155,209.934052 675.450867,214.254929 
	C658.469910,217.658401 641.491638,221.167450 624.541504,224.699295 
	C608.165894,228.111465 591.765808,231.530533 575.433716,235.205521 
	C563.231934,237.951141 550.876953,240.379608 538.527771,242.651138 
	C520.918518,245.890244 503.512482,250.224808 485.996002,253.981323 
	C472.349335,256.907928 458.658478,259.627960 445.002350,262.511108 
	C431.824890,265.293243 418.675049,268.206451 405.497955,270.990356 
	C387.172699,274.861938 368.751526,278.318695 350.524506,282.604248 
	C334.382874,286.399475 318.051178,289.256897 301.957336,293.331512 
	C286.990509,297.120789 271.643433,299.388153 256.506653,302.532104 
	C241.975800,305.550140 227.526642,308.962646 212.991364,311.958099 
	C201.842514,314.255646 190.456879,315.896759 180.047958,320.605988 
	C164.794449,327.506958 151.749664,337.371002 140.881973,350.401550 
	C129.089798,364.540619 119.955994,380.019196 114.631393,397.539917 
	C111.491974,407.870270 109.357895,418.504913 109.442741,429.500427 
	C109.627922,453.499023 109.075317,477.509583 109.616257,501.497375 
	C110.187584,526.832458 110.097908,552.171631 110.640602,577.497009 
	C111.166016,602.015625 119.203201,623.880188 137.001312,641.498657 
	C147.937881,652.324890 161.632706,658.055481 176.002945,662.490417 
	C194.490891,668.196167 213.073807,673.605286 231.480133,679.561401 
	C251.594269,686.070251 271.724030,692.511169 291.983124,698.556580 
	C296.265778,699.834534 300.249298,702.108521 304.526123,703.414429 
	C308.065094,704.494934 311.833344,705.388794 315.500000,703.500000 
"/>
<path fill="none" opacity="1.000000" stroke="#000000" stroke-linecap="round" stroke-linejoin="round" stroke-width="8.000000"
	d="
M450.000000,615.000000 
	C450.833344,615.666626 452.006165,616.160461 452.447357,617.026794 
	C456.731934,625.440796 464.080353,624.325073 470.969910,622.392700 
	C492.698303,616.298279 514.603210,610.926392 536.490356,605.461426 
	C551.707092,601.661926 566.729797,597.038635 582.024170,593.607605 
	C605.307556,588.384155 628.307007,582.060669 651.480774,576.421021 
	C679.561768,569.587158 707.547424,562.346008 735.487793,554.953918 
	C769.293030,546.010254 803.355896,538.080261 837.031616,528.612549 
	C855.855774,523.320312 874.987305,519.114197 894.005005,514.520813 
	C904.480530,511.990662 910.768616,505.011749 911.040283,492.000854 
	C912.059937,443.168671 911.223877,394.333008 911.477722,345.499878 
	C911.522949,336.802338 905.833435,333.122559 896.498596,335.494385 
	C870.947266,341.986389 845.253357,347.855530 819.522217,353.599640 
	C796.250305,358.794708 773.205505,364.998413 749.989441,370.455170 
	C725.036072,376.320251 699.995178,381.812317 675.001526,387.506592 
	C654.660767,392.140808 634.316711,396.762573 614.004761,401.520355 
	C594.482788,406.093048 574.988770,410.787109 555.503052,415.512543 
	C534.681458,420.561981 513.774658,425.254120 492.944122,430.267792 
	C483.695526,432.493835 474.433868,434.923553 465.024170,436.633026 
	C460.668121,437.424408 457.420074,441.340118 453.000000,442.500000 
"/>
<path fill="none" opacity="1.000000" stroke="#000000" stroke-linecap="round" stroke-linejoin="round" stroke-width="8.000000"
	d="
M421.000000,706.000000 
	C424.690216,701.681152 430.231781,701.881653 435.028351,700.606567 
	C452.957489,695.840149 471.003815,691.515198 488.998901,686.995667 
	C506.837219,682.515442 524.759033,678.332336 542.474670,673.408875 
	C561.098328,668.233093 579.924622,663.862183 598.562195,658.725769 
	C614.286133,654.392334 630.189880,650.594055 646.009277,646.536255 
	C664.803101,641.715515 683.739868,637.440491 702.481323,632.430176 
	C725.603455,626.248779 748.792847,620.347046 771.989807,614.459778 
	C803.530823,606.454712 834.996826,598.154480 866.503174,590.012390 
	C871.583923,588.699402 877.275330,588.746399 881.830139,587.045166 
	C887.329468,584.991272 892.961792,582.971924 898.545959,581.702148 
	C918.975891,577.056458 939.073425,571.090393 959.516663,566.575378 
	C985.402344,560.858398 1005.731201,547.121277 1021.552612,526.039490 
	C1033.088867,510.667694 1041.199341,493.873169 1045.028931,475.005890 
	C1046.539429,467.564941 1047.293823,460.015686 1047.395386,452.498596 
	C1047.690552,430.669220 1047.435059,408.833099 1047.518188,387.000061 
	C1047.602661,364.833099 1047.877808,342.666870 1047.986084,320.499939 
	C1048.075073,302.273163 1043.581665,285.351990 1033.519287,269.987396 
	C1023.134460,254.130676 1008.112122,245.485794 989.999634,241.501709 
	C987.669067,240.989075 985.353577,240.323914 982.994019,240.052063 
	C980.855713,239.805695 978.330444,239.281403 976.552917,240.113083 
	C961.598877,247.109970 945.165222,248.340530 929.469482,252.381378 
	C915.615356,255.948074 901.472412,258.377777 887.506348,261.528259 
	C865.815552,266.421295 844.172913,271.527130 822.497925,276.490875 
	C807.008667,280.037994 791.513367,283.560516 775.996826,286.985535 
	C753.842651,291.875732 731.627075,296.493378 709.511230,301.549225 
	C687.834839,306.504639 666.126831,311.336151 644.450073,316.281189 
	C623.167419,321.136383 601.797852,325.671021 580.499451,330.497650 
	C565.002197,334.009644 549.516235,337.573914 533.996338,340.983246 
	C508.676605,346.545288 483.269348,351.725800 458.027618,357.618347 
	C445.832214,360.465302 433.651703,363.531952 421.445404,366.255249 
	C405.978790,369.705902 390.516998,373.265594 374.980316,376.402435 
	C361.201691,379.184326 349.244507,385.435913 337.991821,393.488556 
	C320.271698,406.169403 307.737091,423.159576 298.680908,442.584351 
	C293.422943,453.862274 289.816864,465.894470 288.435211,478.492889 
	C286.480286,496.319183 287.767212,514.168030 287.583557,532.000854 
	C287.382782,551.497070 287.468719,571.012024 288.111237,590.496338 
	C288.661102,607.171509 288.035095,623.840454 288.567871,640.497803 
	C288.910522,651.210571 291.531372,661.602783 295.602051,671.457825 
	C299.539764,680.991028 306.832520,688.627136 312.017792,697.288696 
	C318.179626,707.581360 328.107635,709.296814 337.082214,713.316467 
	C346.116211,717.362671 356.131073,718.519775 365.984039,717.364014 
	C375.650452,716.230225 385.093903,713.572266 394.497314,710.990234 
	C401.555847,709.052002 408.533203,706.724426 416.000092,706.997681 
	C418.053467,707.072876 419.711823,707.300354 421.622711,708.848511 
	C425.819763,712.249023 431.347168,711.988647 436.500000,712.499878 
	C448.575836,713.697937 460.124725,710.513977 471.451843,707.328796 
	C487.573761,702.795349 503.864288,698.952759 520.016479,694.560608 
	C547.790222,687.008240 575.646912,679.757263 603.505920,672.522766 
	C628.311096,666.081116 653.171936,659.853699 677.998474,653.493958 
	C700.005920,647.856384 722.007080,642.194092 743.998352,636.493591 
	C777.338013,627.851440 810.666382,619.165466 844.000244,610.500916 
	C852.998779,608.161926 862.056152,606.027100 870.982666,603.440063 
	C878.416992,601.285461 881.680969,596.293457 881.500000,588.500000 
"/>
<path fill="none" opacity="1.000000" stroke="#000000" stroke-linecap="round" stroke-linejoin="round" stroke-width="3.000000"
	d="
M895.000000,359.000000 
	C895.781982,359.102692 895.680664,361.035980 896.995056,359.993744 
	C898.612488,358.711395 899.361877,356.883789 900.105408,355.165466 
	C890.866882,340.665649 868.860352,344.427765 859.212708,365.116089 
	C863.853394,370.113007 868.676697,375.306519 873.500000,380.500000 
"/>
<path fill="none" opacity="1.000000" stroke="#000000" stroke-linecap="round" stroke-linejoin="round" stroke-width="12.000000"
	d="
M531.500000,470.000000 
	C532.833313,471.166656 534.201050,472.296936 535.488831,473.511810 
	C536.469482,474.436951 537.171570,475.395966 537.045898,477.003601 
	C535.887573,491.820557 536.730225,506.667389 536.500000,521.500000 
"/>
<path fill="none" opacity="1.000000" stroke="#000000" stroke-linecap="round" stroke-linejoin="round" stroke-width="12.000000"
	d="
M561.000061,521.500000 
	C560.833374,533.666687 560.975952,545.848694 560.372070,557.993652 
	C560.061218,564.245667 561.422729,569.230896 566.500000,573.000000 
"/>
<path fill="none" opacity="1.000000" stroke="#000000" stroke-linecap="round" stroke-linejoin="round" stroke-width="5.000000"
	d="
M890.000061,451.000031 
	C882.666687,465.833344 875.335571,480.667786 867.998230,495.499115 
	C866.510925,498.505402 865.000000,501.500000 863.500000,504.500000 
"/>
<path fill="none" opacity="1.000000" stroke="#000000" stroke-linecap="round" stroke-linejoin="round" stroke-width="12.000000"
	d="
M598.500000,511.000000 
	C604.118835,514.552429 604.904724,519.802673 604.612854,526.005310 
	C604.056885,537.820312 604.166687,549.666687 604.000000,561.500000 
"/>
<path fill="none" opacity="1.000000" stroke="#000000" stroke-linecap="round" stroke-linejoin="round" stroke-width="12.000000"
	d="
M803.000000,462.500000 
	C802.666687,476.166656 802.602478,489.848022 801.857727,503.492249 
	C801.587830,508.437195 805.160095,510.126587 807.500000,513.000000 
"/>
<path fill="none" opacity="1.000000" stroke="#000000" stroke-linecap="round" stroke-linejoin="round" stroke-width="12.000000"
	d="
M738.000061,422.500000 
	C737.666687,436.833344 737.340027,451.166809 736.991211,465.499786 
	C736.949280,467.221405 737.599915,468.504639 738.991272,469.512054 
	C740.529541,470.625885 742.000000,471.833344 743.500000,473.000000 
"/>
<path fill="none" opacity="1.000000" stroke="#000000" stroke-linecap="round" stroke-linejoin="round" stroke-width="12.000000"
	d="
M803.000000,410.000000 
	C802.109009,422.657135 802.853333,435.341736 802.337708,447.993378 
	C802.219482,450.893677 802.395386,452.646149 804.973145,454.049377 
	C806.293030,454.767883 807.333313,456.000000 808.500000,457.000000 
"/>
<path fill="none" opacity="1.000000" stroke="#000000" stroke-linecap="round" stroke-linejoin="round" stroke-width="12.000000"
	d="
M561.000000,467.000000 
	C560.666687,483.166656 560.333374,499.333344 560.000000,515.500000 
"/>
<path fill="none" opacity="1.000000" stroke="#000000" stroke-linecap="round" stroke-linejoin="round" stroke-width="12.000000"
	d="
M839.000000,453.000000 
	C842.963806,455.869232 844.158752,459.369171 843.697693,464.517700 
	C842.762817,474.956726 844.037537,485.510895 843.042297,496.004028 
	C842.902771,497.474976 843.333313,499.000000 843.500000,500.500000 
"/>
<path fill="none" opacity="1.000000" stroke="#000000" stroke-linecap="round" stroke-linejoin="round" stroke-width="12.000000"
	d="
M493.000000,538.500000 
	C493.806274,553.000000 493.577362,567.501770 492.971405,581.998779 
	C492.813385,585.779053 496.448883,586.584106 498.000000,589.000000 
"/>
<path fill="none" opacity="1.000000" stroke="#000000" stroke-linecap="round" stroke-linejoin="round" stroke-width="12.000000"
	d="
M774.500000,469.000031 
	C775.833313,470.333344 776.956177,472.095581 778.558044,472.881714 
	C780.223999,473.699219 780.099243,474.798126 779.974548,475.997345 
	C778.918579,486.153351 779.907776,496.341034 779.430481,506.496735 
	C779.272949,509.850769 778.764771,513.166687 779.500000,516.500000 
"/>
<path fill="none" opacity="1.000000" stroke="#000000" stroke-linecap="round" stroke-linejoin="round" stroke-width="7.000000"
	d="
M662.000000,521.500000 
	C662.000000,515.166687 661.837341,508.827545 662.063171,502.502258 
	C662.191162,498.917358 661.440125,496.113281 657.937866,494.417572 
	C652.985901,495.605164 647.992981,496.802582 643.000000,498.000000 
"/>
<path fill="none" opacity="1.000000" stroke="#000000" stroke-linecap="round" stroke-linejoin="round" stroke-width="7.000000"
	d="
M639.499939,531.500000 
	C639.333313,537.833313 639.081299,544.165955 639.025696,550.500244 
	C638.977478,556.008179 642.388245,558.689148 647.476074,556.930786 
	C650.941345,555.733215 654.438171,554.783630 658.000000,554.000000 
"/>
<path fill="none" opacity="1.000000" stroke="#000000" stroke-linecap="round" stroke-linejoin="round" stroke-width="13.000000"
	d="
M530.500000,463.500000 
	C530.227356,465.156067 531.191589,466.935822 529.483948,468.704315 
	C520.846130,470.719635 511.663635,472.820770 502.507324,475.030365 
	C500.489655,475.517303 499.078949,478.151672 496.500000,476.750000 
"/>
<path fill="none" opacity="1.000000" stroke="#000000" stroke-linecap="round" stroke-linejoin="round" stroke-width="4.000000"
	d="
M890.000000,490.000000 
	C889.388611,487.278046 888.269714,484.886383 885.002319,485.047272 
	C881.702209,485.209839 880.170959,487.947174 879.646790,490.529785 
	C879.050598,493.467834 878.674438,497.357971 882.068909,498.842438 
	C885.073059,500.156158 887.114685,497.487762 888.457947,494.977478 
	C889.193237,493.603394 889.500000,492.000000 890.000000,490.500000 
"/>
<path fill="none" opacity="1.000000" stroke="#000000" stroke-linecap="round" stroke-linejoin="round" stroke-width="13.000000"
	d="
M597.750000,448.500000 
	C598.242249,450.860992 598.458313,452.512726 595.022888,453.127808 
	C588.112671,454.365021 581.388916,456.648560 574.476685,457.867920 
	C570.986023,458.483673 568.193787,461.143982 564.500000,460.750000 
"/>
<path fill="none" opacity="1.000000" stroke="#000000" stroke-linecap="round" stroke-linejoin="round" stroke-width="12.000000"
	d="
M532.000000,582.499939 
	C522.000000,584.999939 512.010803,587.544678 501.992371,589.968384 
	C499.495941,590.572327 500.053467,592.360046 500.000000,594.000000 
"/>
<path fill="none" opacity="1.000000" stroke="#000000" stroke-linecap="round" stroke-linejoin="round" stroke-width="13.000000"
	d="
M533.500000,524.750000 
	C522.666687,527.500000 511.791016,530.101318 501.045898,533.161133 
	C499.443481,533.617432 498.079041,533.974182 496.500000,533.750000 
"/>
<path fill="none" opacity="1.000000" stroke="#000000" stroke-linecap="round" stroke-linejoin="round" stroke-width="13.000000"
	d="
M838.000000,395.250000 
	C829.333313,397.500000 820.678223,399.796692 811.985779,401.942352 
	C810.869080,402.217926 809.819214,402.143188 809.500000,403.500000 
"/>
<path fill="none" opacity="1.000000" stroke="#000000" stroke-linecap="round" stroke-linejoin="round" stroke-width="5.000000"
	d="
M646.500000,458.500000 
	C646.333313,462.000000 646.025024,465.500702 646.042114,468.999786 
	C646.057495,472.148834 647.293884,474.007202 651.011169,473.043030 
	C654.961548,472.018372 659.000000,471.333344 663.000000,470.500000 
"/>
<path fill="none" opacity="1.000000" stroke="#000000" stroke-linecap="round" stroke-linejoin="round" stroke-width="12.000000"
	d="
M597.000000,566.000000 
	C588.333313,568.333374 579.668457,570.673279 570.998413,572.994141 
	C569.333008,573.440002 567.172607,573.256958 567.500000,576.000000 
"/>
<path fill="none" opacity="1.000000" stroke="#000000" stroke-linecap="round" stroke-linejoin="round" stroke-width="12.000000"
	d="
M597.000000,510.000000 
	C587.318420,511.594147 577.864807,514.116272 568.500000,517.000000 
"/>
<path fill="none" opacity="1.000000" stroke="#000000" stroke-linecap="round" stroke-linejoin="round" stroke-width="7.000000"
	d="
M893.500000,357.000000 
	C885.187927,350.193451 874.898926,351.914856 865.570007,363.910004 
	C866.349792,367.044586 871.190125,367.428802 870.500000,371.500000 
"/>
<path fill="none" opacity="1.000000" stroke="#000000" stroke-linecap="round" stroke-linejoin="round" stroke-width="7.000000"
	d="
M642.000000,499.500000 
	C639.481628,501.392639 638.906372,504.043213 638.990906,507.000275 
	C639.186218,513.832764 639.333313,520.666687 639.500000,527.500000 
"/>
<path fill="none" opacity="1.000000" stroke="#000000" stroke-linecap="round" stroke-linejoin="round" stroke-width="13.000000"
	d="
M774.000000,521.500000 
	C765.351929,525.267029 755.981750,526.434204 746.981384,528.933044 
	C745.130310,529.447021 743.802246,529.991455 743.500000,532.000000 
"/>
<path fill="none" opacity="1.000000" stroke="#000000" stroke-linecap="round" stroke-linejoin="round" stroke-width="13.000000"
	d="
M776.500000,409.750000 
	C765.645691,413.964630 753.784607,414.529236 742.987061,418.968506 
	C742.588623,419.132294 742.000000,418.833344 741.500000,418.750031 
"/>
<path fill="none" opacity="1.000000" stroke="#000000" stroke-linecap="round" stroke-linejoin="round" stroke-width="13.000000"
	d="
M837.000000,451.500031 
	C828.833313,453.333344 820.651428,455.106323 812.540344,457.159454 
	C812.083984,457.274963 809.199036,456.307281 810.250000,459.000000 
"/>
<path fill="none" opacity="1.000000" stroke="#000000" stroke-linecap="round" stroke-linejoin="round" stroke-width="12.000000"
	d="
M773.500000,466.000000 
	C766.958740,469.605560 759.445923,469.811310 752.500854,472.002655 
	C749.912292,472.819397 747.333313,473.666687 744.750000,474.500000 
"/>
<path fill="none" opacity="1.000000" stroke="#000000" stroke-linecap="round" stroke-linejoin="round" stroke-width="7.000000"
	d="
M662.500000,526.500000 
	C661.494751,532.476685 662.130432,538.500000 662.034546,544.500549 
	C661.985046,547.594360 661.725281,550.480347 659.000000,552.500000 
"/>
<path fill="none" opacity="1.000000" stroke="#000000" stroke-linecap="round" stroke-linejoin="round" stroke-width="12.000000"
	d="
M839.500000,505.750000 
	C829.599365,508.717957 819.597778,511.290741 809.510925,513.548767 
	C808.491943,513.776855 808.347900,514.972534 808.500000,516.000000 
"/>
<path fill="none" opacity="1.000000" stroke="#000000" stroke-linecap="round" stroke-linejoin="round" stroke-width="6.000000"
	d="
M888.500000,363.500000 
	C881.105042,359.950439 875.244019,362.706940 870.000000,368.000000 
"/>
<path fill="none" opacity="1.000000" stroke="#000000" stroke-linecap="round" stroke-linejoin="round" stroke-width="5.000000"
	d="
M665.500000,433.000000 
	C659.831299,433.507843 654.479675,435.410614 649.000000,436.750000 
"/>
<path fill="none" opacity="1.000000" stroke="#000000" stroke-linecap="round" stroke-linejoin="round" stroke-width="5.000000"
	d="
M648.000000,438.000000 
	C645.086182,442.933075 645.841064,448.221191 646.500000,453.500000 
"/>
<path fill="none" opacity="1.000000" stroke="#000000" stroke-linecap="round" stroke-linejoin="round" stroke-width="3.000000"
	d="
M896.499939,360.999969 
	C893.999939,364.999969 891.510376,369.006561 888.994629,372.996643 
	C888.027161,374.531128 887.000000,374.639191 886.000000,373.000000 
"/>
<path fill="none" opacity="1.000000" stroke="#000000" stroke-linecap="round" stroke-linejoin="round" stroke-width="6.000000"
	d="
M884.750000,372.000000 
	C883.467346,369.069702 881.065125,369.863464 879.024353,370.570282 
	C877.078064,371.244324 875.333313,372.499969 873.500000,373.499969 
"/>
<path fill="none" opacity="1.000000" stroke="#000000" stroke-linecap="round" stroke-linejoin="round" stroke-width="4.000000"
	d="
M868.500000,455.000000 
	C865.188599,456.647766 864.484070,459.787567 864.018433,463.002655 
	C863.604553,465.860840 865.613464,467.723450 867.573853,468.874146 
	C869.662415,470.100037 871.146057,467.933563 872.494629,466.494934 
	C874.635681,464.210876 875.429688,461.656830 874.549744,458.486206 
	C873.709839,455.460083 871.756836,454.715424 869.000000,455.000000 
"/>
</svg>