<svg version="1.1" id="Layer_1" xmlns="http://www.w3.org/2000/svg" xmlns:xlink="http://www.w3.org/1999/xlink" x="0px" y="0px"
	 width="100%" viewBox="0 0 1280 800" enable-background="new 0 0 1280 800" xml:space="preserve">
<path fill="none" opacity="1.000000" stroke="#000000" stroke-linecap="round" stroke-linejoin="round" stroke-width="10.000000"
	d="
M745.000000,12.500000 
	C747.211060,14.810000 749.996216,15.992887 752.981262,17.052834 
	C762.873657,20.565498 771.083191,25.872261 778.817993,33.685165 
	C799.221069,54.294292 809.176208,79.811928 817.508728,106.497269 
	C823.633850,126.113312 827.548401,146.185928 830.549683,166.492645 
	C835.135742,197.521072 836.179382,228.727249 835.392456,259.997284 
	C835.018738,274.846405 834.095093,289.736023 832.376160,304.485565 
	C828.798889,335.180420 823.692871,365.602112 815.681580,395.548584 
	C811.367188,411.675964 806.526184,427.597717 801.645996,443.544678 
	C797.150330,458.235077 791.940979,472.758301 785.064514,486.278534 
	C779.988220,496.259430 776.510803,506.937744 770.684509,516.611145 
	C764.765564,526.438477 759.953735,537.035522 753.325623,546.376282 
	C746.556885,555.915039 740.446899,565.903625 733.135498,575.107666 
	C725.165039,585.141296 716.568359,594.502563 707.515442,603.515503 
	C698.579102,612.412354 688.848511,620.315369 678.511353,627.516296 
	C669.404480,633.860168 659.548645,638.627563 648.997864,641.993286 
	C643.881958,643.625244 638.984070,641.391785 634.007324,640.922119 
	C615.787109,639.202332 601.179016,629.395142 587.594482,618.383484 
	C561.488342,597.221619 540.739929,571.422913 524.477173,542.012634 
	C523.317993,539.916321 522.193665,537.572205 520.428162,536.085327 
	C516.204590,532.528381 517.451904,528.989990 519.471313,524.985535 
	C534.117920,495.941498 546.769775,466.056976 556.453369,434.985474 
	C562.905090,414.283661 568.302429,393.310150 572.653259,372.031342 
	C575.577209,357.731049 577.877197,343.335571 580.352844,328.974640 
	C582.111633,318.772095 582.346985,308.315704 583.535767,298.004120 
	C585.336853,282.381561 585.639160,266.667236 586.353943,250.993347 
	C586.914978,238.693192 586.519958,226.314270 585.856140,214.007751 
	C585.505920,207.514923 585.109253,200.975388 584.711548,194.487030 
	C583.829102,180.090225 582.291687,165.798599 580.573669,151.491150 
	C578.403687,133.419968 574.985107,115.607155 570.458984,98.010544 
	C565.316711,78.017899 558.136169,58.784737 547.468567,41.018887 
	C540.716492,29.773983 532.936279,19.304947 520.969055,13.059326 
	C511.958405,8.356739 502.463776,5.581000 491.996063,5.843342 
	C483.524323,6.055661 475.025085,6.062494 466.473114,5.302551 
	C457.830048,4.534514 448.866913,5.821572 441.030579,10.550662 
	C439.764252,11.314879 438.339905,12.267534 438.000000,14.000000 
"/>
<path fill="none" opacity="1.000000" stroke="#000000" stroke-linecap="round" stroke-linejoin="round" stroke-width="10.000000"
	d="
M1042.000000,12.000000 
	C1028.703735,12.559535 1017.265686,17.714798 1007.529968,26.533112 
	C990.067444,42.350273 979.314026,62.577663 970.512512,84.005142 
	C963.871704,100.172546 959.040405,116.867714 955.385254,133.975479 
	C953.009277,145.095856 951.080505,156.245102 949.406433,167.486069 
	C946.268005,188.559647 944.856140,209.706833 944.352478,230.996506 
	C944.012085,245.381805 944.685608,259.668365 945.356201,274.006714 
	C945.794312,283.375183 946.593079,292.703918 947.629272,301.985565 
	C948.862244,313.029388 950.418030,324.048920 952.300110,335.034241 
	C954.162537,345.905121 956.275391,356.703674 958.430420,367.513885 
	C961.836731,384.601013 966.408325,401.400848 971.641785,417.955170 
	C981.712036,449.809082 993.819031,480.927582 1009.579163,510.457764 
	C1017.206604,524.749512 1023.940491,539.604004 1033.995483,552.503479 
	C1034.364014,552.976135 1034.666626,553.500000 1035.000000,554.000000 
"/>
<path fill="none" opacity="1.000000" stroke="#000000" stroke-linecap="round" stroke-linejoin="round" stroke-width="10.000000"
	d="
M865.500000,459.000000 
	C869.258911,456.725739 870.762024,453.291382 871.037964,449.002441 
	C871.480774,442.118652 875.894653,436.592712 877.705322,430.056885 
	C882.114258,414.142090 886.512451,398.260773 889.541321,382.007690 
	C891.660828,370.634521 894.410461,359.376282 896.417480,347.985474 
	C897.843140,339.893799 898.351624,331.645081 899.534851,323.505066 
	C901.296082,311.388763 902.314514,299.213074 903.002319,287.000122 
	C903.490417,278.332794 904.267151,269.672150 904.445984,260.998871 
	C904.854919,241.159470 904.835571,221.289062 903.338806,201.512207 
	C902.314148,187.973145 900.755127,174.451767 898.737183,160.964508 
	C896.235596,144.244598 892.849060,127.775070 888.437500,111.516968 
	C880.612244,82.678589 869.319092,55.336132 849.376160,32.608654 
	C836.795898,18.271893 820.794189,9.139376 801.503113,6.477534 
	C785.321350,4.244729 769.159851,4.234398 753.008057,6.556035 
	C750.810913,6.871843 748.482422,7.620895 747.030212,9.523069 
	C744.971497,12.219703 742.061096,12.889030 739.004517,13.521857 
	C730.725281,15.236005 723.679382,19.022036 717.427551,24.923250 
	C701.640930,39.824436 691.655945,58.352211 683.567200,78.027634 
	C674.823120,99.297043 668.455322,121.275978 664.378845,143.978241 
	C661.397949,160.578751 658.893555,177.179733 657.365234,193.987747 
	C656.016602,208.820023 655.575317,223.633224 655.450989,238.499588 
	C655.305664,255.873978 656.039062,273.174988 657.325317,290.512970 
	C658.619690,307.960419 660.922668,325.256744 663.644226,342.477203 
	C666.794312,362.408905 671.626343,382.028229 676.972961,401.507416 
	C684.052002,427.298218 692.696960,452.520386 703.486511,477.005951 
	C714.118225,501.133453 726.274719,524.407227 741.483276,546.011780 
	C743.207031,548.460449 744.923157,550.865784 747.500000,552.500000 
"/>
<path fill="none" opacity="1.000000" stroke="#000000" stroke-linecap="round" stroke-linejoin="round" stroke-width="10.000000"
	d="
M821.000000,559.000000 
	C824.970459,562.403809 828.098877,566.576172 831.598145,570.410400 
	C848.923523,589.393921 868.150757,606.129272 892.066528,616.344177 
	C899.843567,619.665894 908.165894,622.335083 917.000061,621.500549 
	C922.551636,620.976013 928.119812,623.002563 933.477600,622.323120 
	C947.485535,620.546692 960.372314,615.036255 972.468445,607.946167 
	C994.985535,594.747864 1015.016785,578.437744 1032.524902,559.022400 
	C1044.051270,546.240417 1055.454346,533.374390 1064.974365,518.983093 
	C1067.153931,515.688354 1070.040894,512.724487 1070.514893,508.501678 
	C1070.572388,507.989380 1070.677856,507.252869 1071.022705,507.036102 
	C1079.111938,501.950928 1081.921265,492.903900 1086.250977,485.357147 
	C1097.160034,466.342865 1106.759521,446.563324 1114.443115,425.978760 
	C1121.982422,405.780670 1128.029419,385.111633 1132.504395,364.000946 
	C1135.416260,350.264191 1137.436279,336.385071 1139.672119,322.527771 
	C1144.761841,290.981934 1144.859985,259.255249 1144.367798,227.502045 
	C1144.173950,214.989548 1142.999634,202.435425 1141.393921,190.013702 
	C1138.245605,165.656479 1134.102417,141.427704 1126.426880,118.023987 
	C1119.233398,96.089615 1111.177124,74.506599 1097.578369,55.444122 
	C1093.145508,49.230190 1088.306396,43.388840 1083.469238,37.525398 
	C1081.920410,35.647964 1080.210205,33.816013 1077.504517,33.465340 
	C1076.642456,33.353603 1075.420776,33.075348 1075.061890,32.463654 
	C1069.755249,23.417120 1060.415527,20.794947 1051.495605,17.511898 
	C1048.224731,16.308004 1045.325684,14.480527 1042.337158,12.319689 
	C1045.070923,6.893698 1050.417847,5.987422 1055.507935,5.606422 
	C1067.316284,4.722577 1079.242065,4.111036 1090.977905,5.666976 
	C1101.775513,7.098522 1112.120850,10.793359 1121.993652,15.513371 
	C1152.138672,29.925180 1166.142334,57.281921 1178.528198,85.987823 
	C1186.181641,103.725662 1190.908936,122.382210 1195.249634,141.058182 
	C1197.602539,151.180878 1199.294312,161.569321 1200.651855,171.980194 
	C1203.663818,195.078568 1205.461182,218.197617 1205.591797,241.499481 
	C1205.690186,259.048889 1205.080200,276.519531 1203.655762,294.012695 
	C1202.990601,302.179657 1202.355469,310.369659 1201.376587,318.485107 
	C1199.841919,331.207916 1198.055542,343.953827 1195.341919,356.465698 
	C1192.689209,368.696442 1189.901367,380.918182 1186.694092,393.051300 
	C1182.340576,409.520935 1177.081665,425.627258 1170.995361,441.498230 
	C1155.980347,480.652374 1135.552002,516.789062 1109.951660,549.962646 
	C1098.824463,564.381470 1085.573364,576.848816 1072.678833,589.679749 
	C1063.772095,598.542725 1053.294556,604.997437 1043.484131,612.479187 
	C1034.096558,619.638428 1023.546265,624.843262 1012.988586,629.976562 
	C997.880981,637.322083 981.816956,641.793579 965.504944,645.521667 
	C950.845642,648.872009 935.940186,650.072937 921.001465,649.884216 
	C902.171448,649.646301 883.063049,648.485718 865.614685,641.224426 
	C841.111938,631.027466 815.151855,623.214233 794.996887,604.503357 
	C793.353760,602.977966 791.666687,601.500000 790.000000,600.000000 
"/>
<path fill="none" opacity="1.000000" stroke="#000000" stroke-linecap="round" stroke-linejoin="round" stroke-width="10.000000"
	d="
M8.750000,496.500000 
	C17.666666,493.833344 26.615412,491.265503 35.465263,488.392975 
	C36.786507,487.964142 38.170425,488.145447 39.601727,487.145630 
	C43.124268,484.685059 47.110699,484.579559 51.019005,486.968903 
	C53.787758,488.661591 56.730591,488.596222 60.023548,488.191681 
	C63.605495,487.751587 66.702370,488.824066 69.739227,492.290405 
	C75.763123,499.166260 83.157249,504.843811 90.002747,510.996948 
	C96.323135,516.678040 102.808441,522.183594 108.976059,528.025269 
	C139.451614,556.890381 167.851578,587.817627 197.597031,617.402466 
	C214.703232,634.416260 233.549286,649.416687 255.507492,659.984436 
	C264.816162,664.464294 274.634888,666.529541 284.973358,667.729614 
	C302.848389,669.804565 317.187225,661.571716 331.426056,653.371582 
	C357.410553,638.407166 379.102600,618.154175 398.427917,595.438660 
	C414.477478,576.573608 428.916565,556.386536 440.276093,534.384399 
	C447.962494,519.496704 456.717865,505.126495 463.053436,489.521698 
	C469.169189,474.458374 475.701874,459.565155 480.526428,444.008209 
	C480.649994,443.609802 481.492126,443.287720 481.452728,443.006622 
	C480.222809,434.229858 485.827118,427.576569 488.384247,419.961121 
	C491.068146,411.968140 493.025909,403.711975 494.959991,395.490570 
	C499.010498,378.272827 502.789917,361.012024 505.657043,343.525757 
	C508.029388,329.057129 509.692657,314.519470 511.388428,299.986969 
	C512.625305,289.386871 513.065552,278.674957 513.447876,267.998138 
	C514.092346,250.004929 514.657043,231.978943 513.404236,214.006668 
	C512.403809,199.653427 511.369324,185.299591 509.730194,170.973663 
	C508.331055,158.745224 506.555878,146.564896 504.299713,134.537567 
	C499.669434,109.854218 493.141022,85.608490 482.973572,62.511635 
	C481.513519,59.194851 479.933289,55.894630 477.022003,53.473537 
	C476.292328,52.866707 475.771667,52.131119 475.410461,51.029354 
	C470.794800,36.951168 460.867371,27.373758 448.478027,20.037128 
	C445.210815,18.102385 441.645477,16.743454 438.324463,14.799974 
	C434.977783,12.841479 430.511475,15.056114 427.025177,17.044149 
	C417.779938,22.316143 412.365204,30.891565 407.461273,39.979107 
	C398.115570,57.297749 392.920959,76.029434 388.573364,95.016792 
	C385.846313,106.926643 383.507996,118.948654 381.603333,131.016312 
	C380.090424,140.602020 379.592377,150.343964 378.480499,159.997757 
	C376.260712,179.271133 375.436340,198.640274 375.122986,218.001984 
	C374.858795,234.325653 375.445007,250.675308 376.081146,266.996826 
	C376.478058,277.180511 377.565704,287.342926 378.530182,297.497131 
	C379.386261,306.510803 380.323425,315.524200 381.553162,324.492706 
	C382.632050,332.360931 384.131073,340.172913 385.508514,347.998505 
	C387.475098,359.171051 388.929871,370.472900 391.621735,381.470215 
	C396.814331,402.683807 402.526978,423.780762 409.515900,444.494629 
	C415.646637,462.664978 422.515900,480.556885 430.531677,497.985443 
	C433.333160,504.076721 436.678436,509.919983 439.420624,516.035583 
	C440.689362,518.864990 442.106812,521.230103 445.000000,522.500000 
"/>
<path fill="none" opacity="1.000000" stroke="#000000" stroke-linecap="round" stroke-linejoin="round" stroke-width="10.000000"
	d="
M1075.000000,33.000000 
	C1069.184326,37.522892 1062.696899,41.025452 1057.406494,46.408092 
	C1043.914795,60.134800 1035.350708,76.813301 1027.506714,94.003082 
	C1019.752625,110.996048 1014.911011,128.984772 1010.732422,147.053741 
	C1008.314941,157.507141 1006.834900,168.268646 1005.347839,178.978867 
	C1002.141235,202.071732 1000.633911,225.235519 1001.101501,248.497955 
	C1001.383118,262.509064 1002.297485,276.534790 1003.612976,290.489349 
	C1004.733215,302.374207 1006.305298,314.270935 1008.617371,325.976807 
	C1012.596252,346.122131 1016.903870,366.178680 1022.224670,386.073639 
	C1029.336304,412.665344 1038.631226,438.430634 1048.708618,463.917511 
	C1053.567505,476.206055 1059.185303,488.298157 1065.392944,500.056519 
	C1066.795776,502.713989 1068.411865,504.967743 1070.500000,507.000000 
"/>
<path fill="none" opacity="1.000000" stroke="#000000" stroke-linecap="round" stroke-linejoin="round" stroke-width="10.000000"
	d="
M779.000000,35.000000 
	C763.616821,47.319992 754.296692,64.064674 746.676575,81.576828 
	C736.793274,104.289894 729.698120,127.977440 725.415405,152.485214 
	C722.862488,167.094193 720.670532,181.698166 719.344238,196.486023 
	C718.357300,207.489624 717.877991,218.476059 717.348206,229.492706 
	C716.865662,239.527161 717.363037,249.505402 717.562256,259.498749 
	C717.876038,275.236938 719.539368,290.868713 721.306091,306.521881 
	C722.877747,320.446442 725.165771,334.246124 727.695618,347.963928 
	C730.933105,365.518372 735.431763,382.833618 740.386597,400.032684 
	C746.354492,420.748260 753.856812,440.900299 761.625549,460.951355 
	C765.223022,470.236450 770.028992,479.070831 774.597107,487.950043 
	C775.735474,490.162872 777.056335,492.776978 780.000000,493.500000 
"/>
<path fill="none" opacity="1.000000" stroke="#000000" stroke-linecap="round" stroke-linejoin="round" stroke-width="10.000000"
	d="
M475.500000,52.500000 
	C468.938049,56.043259 467.781830,62.995647 465.604980,69.037827 
	C459.885162,84.914116 456.228119,101.323593 453.399231,117.982887 
	C449.375366,141.679230 447.295715,165.499924 446.384979,189.495636 
	C445.935699,201.332199 445.097107,213.172043 445.588837,224.996307 
	C446.303192,242.173828 446.808960,259.358551 448.339417,276.514313 
	C449.472443,289.215179 450.744049,301.913574 452.676605,314.472809 
	C455.408722,332.228699 458.415283,349.953003 462.301636,367.543823 
	C465.969208,384.144257 469.809998,400.676117 474.609558,416.967712 
	C475.941589,421.489197 475.961334,426.838989 480.500946,429.998657 
	C480.994049,430.341888 481.500000,430.666656 482.000000,431.000000 
"/>
<path fill="none" opacity="1.000000" stroke="#000000" stroke-linecap="round" stroke-linejoin="round" stroke-width="10.000000"
	d="
M14.000000,511.000000 
	C16.156113,516.495422 16.088875,522.809204 23.365805,525.823914 
	C27.831879,527.674133 31.153255,532.538330 34.906628,536.098450 
	C59.962097,559.863953 84.538811,584.117981 108.550041,608.951599 
	C126.996826,628.030151 145.945343,646.619446 168.503998,660.993713 
	C185.714676,671.960327 204.041214,680.483643 224.040009,684.815247 
	C228.078857,685.690002 230.453461,688.950317 234.479279,689.623840 
	C240.643311,690.655029 246.902328,691.521240 252.936447,692.799927 
	C265.933258,695.553894 278.952759,695.882935 291.994507,695.362427 
	C305.972534,694.804504 320.225647,693.626099 333.375702,689.135986 
	C346.200012,684.757141 359.636871,682.677795 372.141083,676.800171 
	C386.815155,669.902527 401.212708,662.667725 414.435760,653.408264 
	C438.575439,636.504395 458.562103,615.340881 476.707031,592.162048 
	C483.455170,583.541809 489.091248,574.273926 495.358429,565.400024 
	C501.508331,556.692322 506.531677,547.185425 511.976349,537.986023 
	C513.239990,535.850891 514.441040,533.774353 517.000000,533.000000 
"/>
<path fill="none" opacity="1.000000" stroke="#000000" stroke-linecap="round" stroke-linejoin="round" stroke-width="10.000000"
	d="
M483.000000,587.000000 
	C490.613220,593.346619 495.672424,601.951477 502.485931,609.013550 
	C518.107605,625.205017 534.910645,639.803711 555.485779,649.530090 
	C562.625977,652.905396 570.050171,655.511536 577.542175,657.865723 
	C579.947754,658.621582 582.152344,659.355530 583.990479,661.010620 
	C587.415771,664.094788 591.999878,664.482788 596.039124,665.308655 
	C610.342163,668.232910 624.832581,670.123840 639.500000,669.998840 
	C660.242615,669.822144 680.362000,665.908875 699.939880,659.321350 
	C702.486267,658.464478 706.832642,658.124207 706.750000,653.500000 
"/>
<path fill="none" opacity="1.000000" stroke="#000000" stroke-linecap="round" stroke-linejoin="round" stroke-width="10.000000"
	d="
M1101.500000,562.500000 
	C1106.457153,566.278137 1108.779663,572.017456 1111.913818,577.053650 
	C1130.399780,606.757874 1150.745117,635.115112 1172.412109,662.569397 
	C1176.901855,668.258423 1182.243652,673.366577 1185.500000,680.000000 
"/>
<path fill="none" opacity="1.000000" stroke="#000000" stroke-linecap="round" stroke-linejoin="round" stroke-width="2.000000"
	d="
M537.000000,255.000000 
	C540.218994,258.185181 544.646545,257.454803 548.518250,258.427216 
	C554.630859,259.962433 560.862610,261.023346 567.213074,262.319580 
	C568.585083,261.158875 568.508301,259.328583 568.505432,257.500000 
	C568.492859,249.500015 568.288940,241.491348 568.616028,233.504745 
	C568.728394,230.759613 567.214661,229.972122 565.484192,229.567749 
	C557.687134,227.745834 549.819824,226.226562 542.007141,224.468155 
	C539.196350,223.835526 537.043823,225.695465 534.504822,226.036087 
	C533.515320,226.168808 533.482727,227.157776 533.499939,228.000000 
	C533.666687,236.166672 533.863525,244.332916 533.976440,252.500320 
	C534.001343,254.300644 534.815979,255.017349 536.500000,255.000000 
"/>
<path fill="none" opacity="1.000000" stroke="#000000" stroke-linecap="round" stroke-linejoin="round" stroke-width="2.000000"
	d="
M493.000000,476.500000 
	C496.635376,478.958557 500.825073,479.006073 504.983154,479.615051 
	C510.526825,480.426941 515.950928,482.055206 521.658691,483.387024 
	C526.196838,473.278748 530.093750,463.237488 533.914612,452.589691 
	C524.518982,450.047882 515.402710,447.635803 505.995941,446.534546 
	C502.698761,446.148560 500.553131,447.431000 499.414856,450.972626 
	C497.029022,458.396240 494.335907,465.735779 491.387085,472.953857 
	C490.599609,474.881378 491.945007,475.073883 492.500000,476.000000 
"/>
<path fill="none" opacity="1.000000" stroke="#000000" stroke-linecap="round" stroke-linejoin="round" stroke-width="10.000000"
	d="
M861.000000,459.750000 
	C865.507935,458.069946 866.323303,458.752502 866.027832,463.501740 
	C865.705383,468.684601 863.149780,473.173309 860.778442,477.374969 
	C858.282104,481.798218 856.196655,486.368927 854.618286,491.039948 
	C848.733826,508.454468 839.446533,524.114014 830.629639,540.071594 
	C827.176636,546.321228 821.961426,551.681458 820.500000,559.000000 
	C811.889221,566.850098 806.733643,577.434570 799.084778,586.075073 
	C795.552979,590.064758 792.595215,594.751648 789.177979,598.722900 
	C786.243042,602.133850 782.274902,605.064026 778.975281,608.476074 
	C760.684875,627.390076 739.598450,642.353210 715.494873,652.988403 
	C712.965759,654.104309 710.298035,654.700562 707.500000,654.500000 
"/>
<path fill="none" opacity="1.000000" stroke="#000000" stroke-linecap="round" stroke-linejoin="round" stroke-width="10.000000"
	d="
M1066.000000,598.000000 
	C1078.166748,615.000000 1090.253296,632.058167 1102.535156,648.974487 
	C1108.330322,656.956543 1114.320557,664.815552 1120.618774,672.401428 
	C1122.317261,674.447083 1122.524658,676.269531 1122.500000,678.500000 
"/>
<path fill="none" opacity="1.000000" stroke="#000000" stroke-linecap="round" stroke-linejoin="round" stroke-width="5.000000"
	d="
M932.000000,623.500000 
	C930.015381,627.394287 926.721680,628.849365 922.556091,630.176147 
	C907.305359,635.033569 891.701538,635.281860 876.001221,634.942932 
	C873.174316,634.881958 870.369690,634.117615 867.516663,633.833008 
	C864.485901,633.530518 862.249268,634.393066 860.000000,636.000000 
"/>
<path fill="none" opacity="1.000000" stroke="#000000" stroke-linecap="round" stroke-linejoin="round" stroke-width="2.000000"
	d="
M869.500000,403.500000 
	C870.666687,397.500000 871.694031,391.468079 873.059143,385.513550 
	C873.736572,382.558594 873.791992,381.412109 870.075928,380.255981 
	C863.102783,378.086548 855.935059,376.753143 848.964966,374.614227 
	C843.729736,373.007690 841.506348,374.820862 840.499084,379.999817 
	C839.232361,386.513458 838.605408,393.146423 836.545105,399.514587 
	C835.594727,402.452057 838.171692,406.685883 841.513184,407.441650 
	C848.970947,409.128418 856.557922,410.265045 863.976624,412.094666 
	C867.955444,413.075928 867.478027,410.811371 867.500000,408.500000 
"/>
<path fill="none" opacity="1.000000" stroke="#000000" stroke-linecap="round" stroke-linejoin="round" stroke-width="2.000000"
	d="
M561.500000,225.000000 
	C561.500000,211.457596 561.507019,211.406158 547.992432,209.555084 
	C545.950562,209.275421 543.606323,208.925171 541.999756,211.001892 
	C542.365051,214.663361 542.731506,218.326935 543.101440,222.025085 
	C548.914124,223.608231 554.860535,225.050629 561.000000,225.500000 
"/>
<path fill="none" opacity="1.000000" stroke="#000000" stroke-linecap="round" stroke-linejoin="round" stroke-width="2.000000"
	d="
M1158.500000,326.000000 
	C1166.430054,326.732056 1173.725342,330.111237 1181.495972,331.522125 
	C1183.374146,331.863129 1183.813965,333.353973 1183.482788,334.996521 
	C1181.666748,344.000000 1181.015869,353.240906 1177.963379,362.467957 
	C1168.621582,359.315125 1158.338135,359.611816 1149.905151,353.905457 
	C1151.909180,344.348511 1152.527100,334.937805 1155.556030,326.019043 
	C1155.607788,325.866821 1156.500000,326.000000 1157.807617,326.000000 
	C1156.695557,335.644409 1155.314453,345.137695 1153.000000,354.500000 
"/>
<path fill="none" opacity="1.000000" stroke="#000000" stroke-linecap="round" stroke-linejoin="round" stroke-width="2.000000"
	d="
M1163.000000,320.000000 
	C1163.078125,321.805298 1162.695801,323.229309 1165.431274,324.194763 
	C1169.893066,325.769562 1174.502808,326.322662 1178.723877,327.718353 
	C1179.916748,326.816681 1179.371338,325.839142 1179.494873,324.999237 
	C1181.142334,313.803619 1183.538452,314.076935 1169.498413,311.508484 
	C1168.016113,311.237305 1166.512207,311.084015 1164.461548,310.798492 
	C1164.812134,313.888428 1161.860962,316.289185 1163.500000,319.500000 
"/>
<path fill="none" opacity="1.000000" stroke="#000000" stroke-linecap="round" stroke-linejoin="round" stroke-width="2.000000"
	d="
M853.500000,372.000000 
	C857.755920,375.360596 863.274414,374.652740 868.030090,376.721924 
	C869.284363,372.083527 870.938721,367.735565 870.427002,362.704742 
	C866.543274,361.824005 862.534119,360.851074 858.495667,360.021057 
	C855.710754,359.448669 853.645874,359.261475 853.253906,363.477112 
	C853.008911,366.112457 852.580200,368.801697 852.500000,371.500000 
"/>
<path fill="none" opacity="1.000000" stroke="#000000" stroke-linecap="round" stroke-linejoin="round" stroke-width="2.000000"
	d="
M808.500000,28.999990 
	C807.026001,29.726084 805.552063,30.452175 803.586365,31.420481 
	C806.851135,35.727810 809.981445,40.281490 813.570679,44.439007 
	C815.830750,47.056995 819.691589,45.891312 822.532471,46.177349 
	C830.341064,46.963547 838.135315,48.201447 846.134521,48.597645 
	C846.572327,46.963833 847.499695,45.308247 844.499329,45.488861 
	C837.069824,45.936104 829.891785,43.646374 822.502380,43.421173 
	C818.876709,43.310673 815.291870,42.341335 813.500000,38.500000 
"/>
<path fill="none" opacity="1.000000" stroke="#000000" stroke-linecap="round" stroke-linejoin="round" stroke-width="2.000000"
	d="
M871.500000,171.500000 
	C873.707947,171.564850 876.005371,171.048477 878.064148,172.974243 
	C879.129639,169.265106 877.897095,166.162003 877.574097,162.992447 
	C877.443787,161.713409 876.680664,160.710068 875.984436,160.590912 
	C870.503479,159.653046 865.264465,157.087891 858.747498,157.607224 
	C860.042603,162.060562 858.862732,166.479996 862.000000,170.000000 
"/>
<path fill="none" opacity="1.000000" stroke="#000000" stroke-linecap="round" stroke-linejoin="round" stroke-width="2.000000"
	d="
M865.000000,171.500000 
	C870.577759,174.061264 876.821655,174.188965 882.562744,176.331894 
	C884.777344,177.158508 885.391846,177.843170 885.553101,179.996017 
	C886.078247,187.006622 886.860474,193.997574 887.485291,201.001312 
	C887.703979,203.452759 886.931519,205.123993 884.000854,204.495987 
	C875.498413,202.673996 867.001160,200.827896 858.499512,199.002335 
	C854.389282,198.119751 853.392517,195.182770 853.500000,191.500000 
"/>
<path fill="none" opacity="1.000000" stroke="#000000" stroke-linecap="round" stroke-linejoin="round" stroke-width="5.000000"
	d="
M645.500000,643.500000 
	C644.171448,648.349426 639.945801,650.560974 635.959229,651.271179 
	C629.298706,652.457825 622.776672,654.282288 616.026855,655.197998 
	C607.147522,656.402649 598.331116,655.604553 589.498962,655.975464 
	C587.260376,656.069458 584.961182,655.716919 583.500000,658.000000 
"/>
<path fill="none" opacity="1.000000" stroke="#000000" stroke-linecap="round" stroke-linejoin="round" stroke-width="2.000000"
	d="
M1125.500000,18.500000 
	C1125.033325,21.157131 1123.896606,23.843130 1127.438965,25.621492 
	C1128.436646,26.122360 1130.470215,27.301617 1129.036011,29.523273 
	C1127.700562,31.592016 1126.679565,29.634954 1125.497803,29.523220 
	C1119.669312,28.972170 1113.745728,27.623388 1108.019653,28.196171 
	C1098.334473,29.164980 1092.182739,23.864571 1085.815918,18.338291 
	C1087.189941,15.042519 1088.909668,16.853497 1090.500000,17.500000 
"/>
<path fill="none" opacity="1.000000" stroke="#000000" stroke-linecap="round" stroke-linejoin="round" stroke-width="2.000000"
	d="
M528.000000,448.000000 
	C531.228821,444.455719 531.045227,439.682953 532.811768,435.227539 
	C527.854370,432.205322 522.086731,431.250244 517.015808,431.434631 
	C513.054138,431.578674 514.432007,437.703796 513.047302,441.019745 
	C512.147705,443.174011 512.643311,444.615295 515.486084,445.084259 
	C519.540710,445.753021 523.500000,447.000000 527.500000,448.000000 
"/>
<path fill="none" opacity="1.000000" stroke="#000000" stroke-linecap="round" stroke-linejoin="round" stroke-width="5.000000"
	d="
M298.500000,669.000000 
	C297.999573,672.499573 295.881012,674.090576 292.521698,675.074158 
	C280.705505,678.533691 268.896088,681.858643 256.504333,682.574768 
	C254.959518,682.664124 253.231323,683.228821 252.000000,684.500000 
"/>
<path fill="none" opacity="1.000000" stroke="#000000" stroke-linecap="round" stroke-linejoin="round" stroke-width="2.000000"
	d="
M508.500000,71.500000 
	C509.021576,76.598816 513.794800,76.068687 516.516907,76.260910 
	C526.072449,76.935699 535.427979,79.184036 545.399658,79.696884 
	C546.012756,75.830780 543.884033,72.779205 542.954346,69.512993 
	C542.365295,67.443474 541.213806,65.539963 540.528442,63.490498 
	C539.534973,60.519955 537.507202,58.943699 534.499390,58.504009 
	C529.834961,57.822132 525.184631,56.968178 520.495972,56.544708 
	C512.705811,55.841114 511.697540,55.295586 508.500000,48.499989 
	C511.549377,45.327148 515.255066,47.481434 518.491882,47.652821 
	C527.875427,48.149639 529.395874,49.609318 531.500000,57.500000 
"/>
<path fill="none" opacity="1.000000" stroke="#000000" stroke-linecap="round" stroke-linejoin="round" stroke-width="4.000000"
	d="
M7.000000,498.500000 
	C2.271846,504.679810 0.613382,511.259583 4.507874,518.495789 
	C7.548305,524.145081 12.306223,525.878723 18.000000,523.500000 
"/>
<path fill="none" opacity="1.000000" stroke="#000000" stroke-linecap="round" stroke-linejoin="round" stroke-width="2.000000"
	d="
M850.500000,74.500000 
	C846.800903,73.689285 842.931458,73.473602 839.952087,70.548798 
	C838.848206,69.465164 837.116028,69.304855 835.500122,69.501053 
	C833.537598,69.739334 830.347107,68.512466 830.656189,71.986099 
	C830.884033,74.546394 832.916687,77.009415 835.969238,76.356148 
	C837.786743,75.967178 840.033142,76.843826 841.500000,75.000000 
"/>
<path fill="none" opacity="1.000000" stroke="#000000" stroke-linecap="round" stroke-linejoin="round" stroke-width="2.000000"
	d="
M819.500000,25.500002 
	C815.835510,25.317717 812.171082,25.135431 808.608948,24.958237 
	C808.220825,26.889599 808.964172,28.121683 810.020020,28.431986 
	C816.365051,30.296793 822.839539,31.418087 829.500000,31.000000 
"/>
<path fill="none" opacity="1.000000" stroke="#000000" stroke-linecap="round" stroke-linejoin="round" stroke-width="2.000000"
	d="
M478.500000,524.000000 
	C476.107574,522.859985 473.853668,521.250366 470.980652,522.967651 
	C468.623383,524.376648 466.995270,526.397522 467.617523,528.971619 
	C468.348175,531.994141 471.600616,531.819519 474.027985,532.378540 
	C474.325653,532.447205 475.519928,532.341248 475.968414,531.962585 
	C480.193634,528.394836 486.093414,530.375061 490.500000,527.500000 
"/>
<path fill="none" opacity="1.000000" stroke="#000000" stroke-linecap="round" stroke-linejoin="round" stroke-width="2.000000"
	d="
M750.000061,583.000061 
	C746.084167,587.597046 742.168335,592.194031 738.419434,596.594971 
	C739.279053,600.917786 742.842834,600.902344 745.520569,601.386169 
	C751.341614,602.438049 757.260559,602.860962 763.016235,604.440857 
	C766.259094,605.330933 768.008911,602.931213 769.500000,600.500000 
"/>
<path fill="none" opacity="1.000000" stroke="#000000" stroke-linecap="round" stroke-linejoin="round" stroke-width="2.000000"
	d="
M694.000000,647.000000 
	C688.749451,643.252869 686.514221,643.155701 682.249756,646.708496 
	C685.043762,649.922546 688.944214,650.750549 692.454712,649.827759 
	C697.663391,648.458496 701.664307,649.843628 705.500000,653.000000 
"/>
<path fill="none" opacity="1.000000" stroke="#000000" stroke-linecap="round" stroke-linejoin="round" stroke-width="2.000000"
	d="
M1137.000000,439.000000 
	C1135.758789,435.649139 1132.405884,435.441772 1130.026611,435.723999 
	C1127.142700,436.066010 1125.473389,438.914612 1125.554077,441.998596 
	C1125.634888,445.085632 1128.591309,444.900208 1130.522339,445.416412 
	C1133.439209,446.196106 1137.817261,443.532288 1138.500000,441.000000 
"/>
<path fill="none" opacity="1.000000" stroke="#000000" stroke-linecap="round" stroke-linejoin="round" stroke-width="2.000000"
	d="
M503.500000,447.500000 
	C500.836761,457.308289 497.744110,466.958374 493.000000,476.000000 
"/>
<path fill="none" opacity="1.000000" stroke="#000000" stroke-linecap="round" stroke-linejoin="round" stroke-width="2.000000"
	d="
M1174.000000,136.500000 
	C1174.352905,127.314819 1172.000732,124.230644 1163.492676,123.597748 
	C1160.998901,123.412224 1158.581543,121.943878 1156.000000,122.999367 
	C1155.138794,131.189194 1157.358154,133.892288 1164.988159,135.076324 
	C1169.884644,135.836166 1174.670776,137.316498 1179.497192,138.511566 
	C1180.742798,138.820038 1181.286499,139.632126 1181.548340,140.990677 
	C1182.772827,147.345001 1184.289429,153.644287 1185.449585,160.009186 
	C1186.054199,163.325775 1185.321655,163.938110 1182.002930,163.478729 
	C1177.824097,162.900284 1173.666626,162.166672 1169.500000,161.500015 
"/>
<path fill="none" opacity="1.000000" stroke="#000000" stroke-linecap="round" stroke-linejoin="round" stroke-width="3.000000"
	d="
M432.500000,620.500000 
	C434.046661,617.793213 433.904785,617.428162 430.999146,617.005859 
	C426.497528,616.351562 421.990295,615.735840 416.579224,614.976624 
	C415.103577,616.936890 413.242554,619.409241 411.123871,622.223755 
	C412.621704,626.919189 417.308594,626.638184 421.504303,626.940063 
	C424.440155,627.151245 427.145142,627.668884 429.500000,629.500000 
"/>
<path fill="none" opacity="1.000000" stroke="#000000" stroke-linecap="round" stroke-linejoin="round" stroke-width="2.000000"
	d="
M845.000000,375.500000 
	C843.000000,384.833344 841.000000,394.166656 839.000000,403.500000 
"/>
<path fill="none" opacity="1.000000" stroke="#000000" stroke-linecap="round" stroke-linejoin="round" stroke-width="2.000000"
	d="
M870.000000,232.500000 
	C868.467773,230.464981 866.569092,229.213364 864.041199,228.375687 
	C861.239380,227.447266 858.669983,226.732147 857.615540,230.036865 
	C856.679626,232.970306 857.696533,235.855621 861.017334,236.947235 
	C863.090698,237.628784 865.333313,238.440170 867.500000,237.000000 
"/>
<path fill="none" opacity="1.000000" stroke="#000000" stroke-linecap="round" stroke-linejoin="round" stroke-width="2.000000"
	d="
M536.500000,226.500000 
	C538.030823,235.808975 537.807983,245.149261 537.000000,254.500000 
"/>
<path fill="none" opacity="1.000000" stroke="#000000" stroke-linecap="round" stroke-linejoin="round" stroke-width="2.000000"
	d="
M1156.000000,392.000000 
	C1154.423584,387.864594 1150.749512,386.875793 1146.902710,385.977173 
	C1142.942383,387.980804 1142.874146,391.291382 1143.856567,394.539246 
	C1147.616943,397.288544 1151.202148,396.985626 1154.465210,394.455139 
	C1156.599365,392.800201 1159.694092,394.009094 1161.500000,391.750000 
"/>
<path fill="none" opacity="1.000000" stroke="#000000" stroke-linecap="round" stroke-linejoin="round" stroke-width="2.000000"
	d="
M866.000000,275.500000 
	C863.725342,273.873383 860.956848,273.493073 858.549194,274.173920 
	C856.879944,274.645996 855.713257,276.924866 856.061096,278.989716 
	C856.441711,281.249023 857.341187,283.552124 860.007690,283.948029 
	C862.533997,284.323090 865.309570,285.655334 867.500000,283.000000 
"/>
<path fill="none" opacity="1.000000" stroke="#000000" stroke-linecap="round" stroke-linejoin="round" stroke-width="2.000000"
	d="
M1110.500000,528.500000 
	C1112.028442,525.955322 1112.788818,523.742493 1108.500366,523.493469 
	C1103.203369,523.185852 1097.977905,521.733276 1093.094604,520.198914 
	C1086.981445,518.278076 1082.767944,520.057373 1080.187744,524.606506 
	C1077.005005,530.217957 1071.974121,534.493408 1069.574829,540.458740 
	C1073.531860,545.970703 1080.107666,544.682434 1085.521973,546.432007 
	C1088.735229,547.470276 1092.166626,547.833313 1095.500000,548.500000 
"/>
<path fill="none" opacity="1.000000" stroke="#000000" stroke-linecap="round" stroke-linejoin="round" stroke-width="2.000000"
	d="
M864.500000,170.500000 
	C862.833313,170.500000 861.164612,170.554077 859.500366,170.489944 
	C854.313843,170.290115 851.716553,172.732513 852.053467,177.996582 
	C852.267944,181.348175 853.000000,184.666672 853.500000,188.000000 
"/>
<path fill="none" opacity="1.000000" stroke="#000000" stroke-linecap="round" stroke-linejoin="round" stroke-width="2.000000"
	d="
M780.500000,581.000000 
	C783.842529,578.737000 786.499146,575.371948 788.092346,571.261719 
	C783.776123,569.268250 778.999451,569.168823 774.495911,568.016113 
	C774.026611,567.895935 773.306091,567.784668 773.030029,568.033325 
	C770.279053,570.510742 766.800659,572.533752 767.000000,577.000000 
"/>
<path fill="none" opacity="1.000000" stroke="#000000" stroke-linecap="round" stroke-linejoin="round" stroke-width="2.000000"
	d="
M537.500000,138.000000 
	C536.500000,137.666656 535.476135,136.997772 534.504761,137.066864 
	C532.176331,137.232544 528.837341,135.605103 528.488098,139.999054 
	C528.227356,143.278412 530.514099,146.200195 534.004272,146.436600 
	C535.806641,146.558670 537.744019,147.017319 539.500000,146.000000 
"/>
<path fill="none" opacity="1.000000" stroke="#000000" stroke-linecap="round" stroke-linejoin="round" stroke-width="2.000000"
	d="
M855.000000,173.500000 
	C855.767395,181.491608 857.612671,189.393387 857.000000,197.500000 
"/>
<path fill="none" opacity="1.000000" stroke="#000000" stroke-linecap="round" stroke-linejoin="round" stroke-width="2.000000"
	d="
M836.500000,459.000000 
	C839.055969,458.586761 839.678772,456.365997 840.460571,454.483612 
	C842.062866,450.625549 841.124268,449.141907 837.000488,448.496887 
	C835.837158,448.314941 834.679626,448.095520 833.521362,447.893616 
	C830.695129,450.253479 832.100525,453.745270 830.862488,456.343201 
	C832.273376,458.149841 834.026062,458.601532 836.000000,458.500000 
"/>
<path fill="none" opacity="1.000000" stroke="#000000" stroke-linecap="round" stroke-linejoin="round" stroke-width="2.000000"
	d="
M1144.500000,448.000000 
	C1147.423950,449.384277 1148.896606,447.546265 1150.550537,445.541687 
	C1151.968384,443.823273 1151.941528,442.098358 1150.938721,440.539398 
	C1149.694092,438.604492 1148.010864,440.303772 1146.497681,440.324005 
	C1143.669800,440.361816 1142.367065,443.661041 1139.500000,443.000000 
"/>
<path fill="none" opacity="1.000000" stroke="#000000" stroke-linecap="round" stroke-linejoin="round" stroke-width="2.000000"
	d="
M1113.500000,516.500000 
	C1114.428223,514.543945 1115.356445,512.587891 1116.361938,510.469025 
	C1112.640503,508.367859 1108.739258,507.690979 1104.981445,507.122620 
	C1100.556152,506.453339 1099.313965,510.601318 1097.554321,513.532593 
	C1096.875732,514.662781 1096.809448,516.160461 1096.454956,517.526184 
	C1100.568115,519.651978 1105.240845,519.557739 1109.500000,521.000000 
"/>
<path fill="none" opacity="1.000000" stroke="#000000" stroke-linecap="round" stroke-linejoin="round" stroke-width="2.000000"
	d="
M413.500000,642.500000 
	C409.454773,647.309265 404.677856,646.760071 398.949158,645.804871 
	C393.964294,644.973694 388.734558,643.780823 383.500000,644.500000 
"/>
<path fill="none" opacity="1.000000" stroke="#000000" stroke-linecap="round" stroke-linejoin="round" stroke-width="2.000000"
	d="
M530.500000,99.000000 
	C529.185669,97.943001 527.741760,97.233109 526.001099,97.507126 
	C523.821045,97.850319 520.235901,96.174728 520.594727,100.492126 
	C520.836731,103.403770 522.618835,105.615364 525.998474,105.465309 
	C527.495850,105.398834 529.105408,106.115570 530.500000,105.000000 
"/>
<path fill="none" opacity="1.000000" stroke="#000000" stroke-linecap="round" stroke-linejoin="round" stroke-width="2.000000"
	d="
M1086.500000,520.000000 
	C1086.666748,520.500000 1087.135864,521.227783 1086.955933,521.466797 
	C1081.861328,528.232056 1078.097046,535.969421 1072.000000,542.000000 
"/>
<path fill="none" opacity="1.000000" stroke="#000000" stroke-linecap="round" stroke-linejoin="round" stroke-width="2.000000"
	d="
M468.500000,569.000000 
	C471.490448,569.533203 473.758636,568.174927 475.433594,565.950012 
	C476.073517,565.099915 477.351837,564.033386 476.048065,562.460144 
	C474.975983,561.166504 473.552307,561.194336 472.536346,561.592651 
	C470.525360,562.381104 468.104095,562.340454 466.523712,564.022278 
	C464.916504,565.732666 463.500000,564.760437 462.000000,564.000000 
"/>
<path fill="none" opacity="1.000000" stroke="#000000" stroke-linecap="round" stroke-linejoin="round" stroke-width="5.000000"
	d="
M507.500000,21.500000 
	C500.347595,19.171501 492.767456,19.195646 485.500000,17.500000 
"/>
<path fill="none" opacity="1.000000" stroke="#000000" stroke-linecap="round" stroke-linejoin="round" stroke-width="2.000000"
	d="
M1149.500000,136.500000 
	C1149.986816,141.765991 1152.610352,146.585968 1152.548218,152.000549 
	C1152.494873,156.663818 1156.446655,159.235016 1163.500000,159.500000 
"/>
<path fill="none" opacity="1.000000" stroke="#000000" stroke-linecap="round" stroke-linejoin="round" stroke-width="5.000000"
	d="
M252.000000,692.000000 
	C252.000000,690.500000 251.975708,688.999512 252.005783,687.500122 
	C252.048569,685.367065 251.330414,683.770325 248.998398,683.514648 
	C244.003647,682.966797 239.007370,682.339905 233.994965,682.109314 
	C232.695068,682.049500 231.333344,683.333374 230.000015,684.000000 
"/>
<path fill="none" opacity="1.000000" stroke="#000000" stroke-linecap="round" stroke-linejoin="round" stroke-width="2.000000"
	d="
M852.500000,441.500000 
	C852.639099,444.767578 849.970337,447.591797 851.425049,451.103455 
	C848.890259,450.486450 846.586304,449.420288 845.515869,452.505493 
	C844.717651,454.806061 844.190491,457.345581 846.541565,458.938690 
	C849.226196,460.757904 851.032654,458.920349 852.500000,456.750000 
"/>
<path fill="none" opacity="1.000000" stroke="#000000" stroke-linecap="round" stroke-linejoin="round" stroke-width="2.000000"
	d="
M1177.750000,246.000000 
	C1173.656494,243.181335 1171.665649,237.803452 1165.518433,237.282791 
	C1162.246460,237.005646 1161.531006,238.698532 1161.126465,240.527969 
	C1160.597534,242.920074 1161.212036,245.589874 1164.018188,246.439804 
	C1167.302246,247.434448 1170.647705,247.490692 1173.500000,245.000000 
"/>
<path fill="none" opacity="1.000000" stroke="#000000" stroke-linecap="round" stroke-linejoin="round" stroke-width="5.000000"
	d="
M340.500000,685.500000 
	C338.176453,679.406250 331.928101,681.628479 327.633179,679.769958 
	C326.830597,679.422607 324.128418,678.556702 322.500000,680.000000 
"/>
<path fill="none" opacity="1.000000" stroke="#000000" stroke-linecap="round" stroke-linejoin="round" stroke-width="2.000000"
	d="
M813.000000,422.000000 
	C816.639038,423.564758 816.980713,426.104187 815.546326,429.519470 
	C814.098877,432.965851 813.025269,436.569305 811.780029,440.126526 
	C809.043579,439.179840 806.504944,439.592712 804.000000,439.500000 
"/>
<path fill="none" opacity="1.000000" stroke="#000000" stroke-linecap="round" stroke-linejoin="round" stroke-width="3.000000"
	d="
M801.500000,448.500000 
	C802.833313,449.000000 804.144592,449.572174 805.503723,449.987793 
	C812.258240,452.053467 813.192078,451.419342 814.558899,443.666046 
	C811.232056,442.784302 807.866028,441.892151 804.500000,441.000000 
"/>
<path fill="none" opacity="1.000000" stroke="#000000" stroke-linecap="round" stroke-linejoin="round" stroke-width="2.000000"
	d="
M1167.500000,201.000000 
	C1166.646240,199.956192 1165.473389,200.789276 1164.502686,200.491333 
	C1162.016968,199.728363 1159.675903,200.052429 1159.630615,203.002014 
	C1159.590332,205.621170 1159.327026,209.137573 1163.502075,209.474121 
	C1165.504761,209.635544 1167.647705,210.938721 1169.500000,209.000000 
"/>
<path fill="none" opacity="1.000000" stroke="#000000" stroke-linecap="round" stroke-linejoin="round" stroke-width="2.000000"
	d="
M1153.000122,137.499985 
	C1154.166748,142.166656 1155.372559,146.824036 1156.481812,151.504333 
	C1156.960327,153.523102 1158.154297,155.665634 1156.000000,157.500000 
"/>
<path fill="none" opacity="1.000000" stroke="#000000" stroke-linecap="round" stroke-linejoin="round" stroke-width="2.000000"
	d="
M552.500000,148.000000 
	C554.239624,149.197571 556.240784,150.836823 557.909241,148.436890 
	C559.219116,146.552734 559.001709,144.339691 557.041931,142.456375 
	C555.426941,140.904495 554.416931,138.449417 551.500000,140.000000 
"/>
<path fill="none" opacity="1.000000" stroke="#000000" stroke-linecap="round" stroke-linejoin="round" stroke-width="2.000000"
	d="
M879.000000,240.500000 
	C881.022827,242.417450 882.804504,241.839355 884.504517,240.004196 
	C886.066956,238.317627 885.606873,236.906693 884.617737,234.940765 
	C883.309814,232.341049 882.120056,230.641022 879.000000,232.000000 
"/>
<path fill="none" opacity="1.000000" stroke="#000000" stroke-linecap="round" stroke-linejoin="round" stroke-width="2.000000"
	d="
M956.500000,634.500000 
	C959.147156,632.636658 961.047180,635.556580 963.489502,635.691040 
	C966.294922,635.845520 968.992615,637.610229 971.999634,637.491089 
	C974.991394,637.372620 974.492004,639.797668 975.000000,641.500000 
"/>
<path fill="none" opacity="1.000000" stroke="#000000" stroke-linecap="round" stroke-linejoin="round" stroke-width="2.000000"
	d="
M1161.500000,399.000000 
	C1164.507690,400.585114 1165.892700,398.688477 1167.575439,396.559631 
	C1169.114990,394.611908 1168.287598,392.873352 1167.391602,391.574799 
	C1166.290771,389.979462 1164.335327,389.480225 1162.500000,391.000000 
"/>
<path fill="none" opacity="1.000000" stroke="#000000" stroke-linecap="round" stroke-linejoin="round" stroke-width="3.000000"
	d="
M827.500000,446.500000 
	C824.583923,445.411194 821.678711,444.224731 818.500000,445.607574 
	C818.500000,446.000000 818.634521,446.547363 818.477905,446.992218 
	C817.539124,449.659088 816.172302,452.847961 820.040222,453.843872 
	C823.160706,454.647339 826.101440,453.405762 827.103516,449.526764 
	C827.326538,448.663513 827.331787,447.833008 827.500000,447.000000 
"/>
<path fill="none" opacity="1.000000" stroke="#000000" stroke-linecap="round" stroke-linejoin="round" stroke-width="6.000000"
	d="
M55.500000,489.500000 
	C54.661045,492.976746 53.715904,496.312775 50.013138,498.028351 
	C46.148170,499.819061 41.860447,498.216980 40.018574,493.991913 
	C39.240528,492.207123 38.666672,490.333344 38.000004,488.500000 
"/>
<path fill="none" opacity="1.000000" stroke="#000000" stroke-linecap="round" stroke-linejoin="round" stroke-width="2.000000"
	d="
M1107.500000,16.000000 
	C1102.379028,17.482067 1097.460205,15.929878 1092.500000,15.000000 
"/>
<path fill="none" opacity="1.000000" stroke="#000000" stroke-linecap="round" stroke-linejoin="round" stroke-width="2.000000"
	d="
M458.000000,559.000000 
	C452.686768,557.044006 449.484344,557.610046 447.526306,561.015137 
	C446.661499,562.519043 446.832886,563.858948 448.476379,565.033081 
	C452.960052,568.236084 457.188782,567.641479 461.500000,563.000000 
"/>
<path fill="none" opacity="1.000000" stroke="#000000" stroke-linecap="round" stroke-linejoin="round" stroke-width="2.000000"
	d="
M707.000000,628.000000 
	C705.009766,632.656921 709.323181,631.334534 711.032288,631.903015 
	C715.102966,633.257019 717.869385,632.071655 719.250000,629.000000 
"/>
<path fill="none" opacity="1.000000" stroke="#000000" stroke-linecap="round" stroke-linejoin="round" stroke-width="3.000000"
	d="
M413.000000,625.500000 
	C410.333344,626.908813 407.600281,625.687012 405.014069,625.381042 
	C399.912933,624.777527 395.450531,625.265198 391.994965,629.495911 
	C389.928497,632.025940 387.378296,633.972839 384.500000,635.500000 
"/>
<path fill="none" opacity="1.000000" stroke="#000000" stroke-linecap="round" stroke-linejoin="round" stroke-width="2.000000"
	d="
M779.500000,581.500000 
	C772.699158,579.138306 765.345703,580.092590 758.428406,577.939087 
	C756.835876,578.597412 756.272705,580.138489 755.500000,581.500000 
"/>
<path fill="none" opacity="1.000000" stroke="#000000" stroke-linecap="round" stroke-linejoin="round" stroke-width="2.000000"
	d="
M367.500000,658.500000 
	C363.802917,658.132019 360.098236,657.724121 356.774872,660.701660 
	C358.969940,664.590149 362.383453,664.125122 366.005737,663.535278 
	C371.473022,662.645142 377.114197,663.108765 382.500000,661.500000 
"/>
<path fill="none" opacity="1.000000" stroke="#000000" stroke-linecap="round" stroke-linejoin="round" stroke-width="3.000000"
	d="
M1151.000000,42.000000 
	C1145.442017,45.898911 1139.097046,47.558292 1132.500000,48.500000 
"/>
<path fill="none" opacity="1.000000" stroke="#000000" stroke-linecap="round" stroke-linejoin="round" stroke-width="3.000000"
	d="
M1110.500000,43.000000 
	C1106.251831,40.617874 1101.813965,43.169285 1097.500000,42.500000 
"/>
<path fill="none" opacity="1.000000" stroke="#000000" stroke-linecap="round" stroke-linejoin="round" stroke-width="2.000000"
	d="
M550.500000,103.500000 
	C552.110168,107.837555 552.021484,107.943642 547.997986,107.519005 
	C546.111633,107.319916 543.911133,108.055534 543.000000,105.500000 
"/>
<path fill="none" opacity="1.000000" stroke="#000000" stroke-linecap="round" stroke-linejoin="round" stroke-width="2.000000"
	d="
M29.500000,491.000000 
	C30.022633,495.476685 29.652508,500.325348 34.500000,503.000000 
"/>
<path fill="none" opacity="1.000000" stroke="#000000" stroke-linecap="round" stroke-linejoin="round" stroke-width="2.000000"
	d="
M750.500000,587.500000 
	C746.875549,591.219727 744.471558,596.053711 740.000000,599.000000 
"/>
<path fill="none" opacity="1.000000" stroke="#000000" stroke-linecap="round" stroke-linejoin="round" stroke-width="3.000000"
	d="
M1086.500000,570.000000 
	C1081.397705,568.299011 1078.587280,569.563660 1076.500000,574.500000 
"/>
<path fill="none" opacity="1.000000" stroke="#000000" stroke-linecap="round" stroke-linejoin="round" stroke-width="2.000000"
	d="
M1181.500000,250.000000 
	C1183.481445,251.240585 1185.225342,250.834381 1186.470093,248.979965 
	C1187.717651,247.121521 1187.183228,245.082886 1185.933472,243.554413 
	C1184.869263,242.252869 1183.853516,240.296997 1181.500000,241.000000 
"/>
<path fill="none" opacity="1.000000" stroke="#000000" stroke-linecap="round" stroke-linejoin="round" stroke-width="3.000000"
	d="
M1122.500000,40.999981 
	C1117.833374,42.833313 1113.166626,44.666649 1108.500000,46.499981 
"/>
<path fill="none" opacity="1.000000" stroke="#000000" stroke-linecap="round" stroke-linejoin="round" stroke-width="2.000000"
	d="
M1186.500000,211.500000 
	C1185.622192,205.548340 1184.079956,204.116318 1179.500000,205.000000 
"/>
<path fill="none" opacity="1.000000" stroke="#000000" stroke-linecap="round" stroke-linejoin="round" stroke-width="2.000000"
	d="
M849.500000,99.000000 
	C848.646179,97.956200 847.490173,98.549759 846.499451,98.533195 
	C841.760498,98.454025 841.662354,98.578339 841.485229,100.998924 
	C841.242981,104.310379 843.752319,106.121193 846.011475,106.210999 
	C847.673523,106.277061 849.785645,107.475227 851.500000,106.000000 
"/>
<path fill="none" opacity="1.000000" stroke="#000000" stroke-linecap="round" stroke-linejoin="round" stroke-width="2.000000"
	d="
M826.500000,27.500000 
	C828.862854,32.639843 834.777466,31.690985 838.500000,34.500000 
"/>
<path fill="none" opacity="1.000000" stroke="#000000" stroke-linecap="round" stroke-linejoin="round" stroke-width="2.000000"
	d="
M1062.500000,562.500000 
	C1060.609863,565.441650 1057.442017,565.462708 1054.500000,566.000000 
"/>
<path fill="none" opacity="1.000000" stroke="#000000" stroke-linecap="round" stroke-linejoin="round" stroke-width="3.000000"
	d="
M25.500000,505.000000 
	C22.639805,508.868073 17.784563,508.694031 13.892434,510.226868 
	C11.535582,511.155060 9.301520,507.549500 7.000000,506.000000 
"/>
<path fill="none" opacity="1.000000" stroke="#000000" stroke-linecap="round" stroke-linejoin="round" stroke-width="2.000000"
	d="
M507.500000,61.500000 
	C507.383636,59.303162 506.432434,57.607212 504.539703,56.206432 
	C500.807678,58.833332 505.456543,61.166668 504.500000,63.500000 
"/>
<path fill="none" opacity="1.000000" stroke="#000000" stroke-linecap="round" stroke-linejoin="round" stroke-width="2.000000"
	d="
M399.000000,626.500000 
	C397.416351,630.025757 394.368713,632.179016 391.500000,634.500000 
"/>
<path fill="none" opacity="1.000000" stroke="#000000" stroke-linecap="round" stroke-linejoin="round" stroke-width="3.000000"
	d="
M40.999996,501.000000 
	C37.499996,502.333313 34.090343,504.083374 30.471378,504.867981 
	C27.581402,505.494568 24.299486,505.353577 22.963467,501.512695 
	C22.529474,500.265106 21.666662,499.166656 20.999996,498.000000 
"/>
<path fill="none" opacity="1.000000" stroke="#000000" stroke-linecap="round" stroke-linejoin="round" stroke-width="2.000000"
	d="
M982.500000,631.500000 
	C984.480225,634.115784 988.004822,630.940186 990.000000,633.500000 
"/>
<path fill="none" opacity="1.000000" stroke="#000000" stroke-linecap="round" stroke-linejoin="round" stroke-width="2.000000"
	d="
M615.500000,660.500000 
	C615.500000,663.000000 615.500000,665.500000 615.500000,668.000000 
"/>
<path fill="none" opacity="1.000000" stroke="#000000" stroke-linecap="round" stroke-linejoin="round" stroke-width="2.000000"
	d="
M938.000000,625.500000 
	C938.980530,630.254150 939.965820,635.006470 943.000000,639.000000 
"/>
<path fill="none" opacity="1.000000" stroke="#000000" stroke-linecap="round" stroke-linejoin="round" stroke-width="3.000000"
	d="
M1051.500000,564.500000 
	C1052.489380,567.064392 1055.092163,568.284302 1056.500000,570.500000 
"/>
<path fill="none" opacity="1.000000" stroke="#000000" stroke-linecap="round" stroke-linejoin="round" stroke-width="2.000000"
	d="
M718.000000,627.500000 
	C715.950195,625.145081 713.184509,625.474854 710.500000,625.500000 
"/>
<path fill="none" opacity="1.000000" stroke="#000000" stroke-linecap="round" stroke-linejoin="round" stroke-width="2.000000"
	d="
M489.500000,20.000000 
	C487.462158,21.878956 484.935730,21.477810 482.500000,21.500000 
"/>
<path fill="none" opacity="1.000000" stroke="#000000" stroke-linecap="round" stroke-linejoin="round" stroke-width="7.000000"
	d="
M720.000000,631.000000 
	C724.861450,631.649353 729.764404,633.501831 734.500000,630.500000 
"/>
<path fill="none" opacity="1.000000" stroke="#000000" stroke-linecap="round" stroke-linejoin="round" stroke-width="2.000000"
	d="
M857.500000,446.500000 
	C857.492737,450.847809 854.175415,449.127136 852.000000,449.500000 
"/>
<path fill="none" opacity="1.000000" stroke="#000000" stroke-linecap="round" stroke-linejoin="round" stroke-width="2.000000"
	d="
M851.500000,451.000000 
	C852.926819,451.962433 857.210876,451.139038 854.000000,455.000000 
"/>
<path fill="none" opacity="1.000000" stroke="#000000" stroke-linecap="round" stroke-linejoin="round" stroke-width="3.000000"
	d="
M946.500000,632.500000 
	C948.166687,634.166687 949.833313,635.833313 951.500000,637.500000 
"/>
<path fill="none" opacity="1.000000" stroke="#000000" stroke-linecap="round" stroke-linejoin="round" stroke-width="2.000000"
	d="
M491.500000,527.000000 
	C493.142944,525.880066 494.661438,525.447266 496.013733,527.490906 
	C497.560486,529.828491 494.902435,530.804077 494.500000,532.500000 
"/>
<path fill="none" opacity="1.000000" stroke="#000000" stroke-linecap="round" stroke-linejoin="round" stroke-width="2.000000"
	d="
M859.500000,75.499992 
	C860.029602,76.314278 860.559265,77.128555 861.150085,78.036949 
	C858.833313,79.866142 856.666687,78.658096 854.500000,78.000000 
"/>
<path fill="none" opacity="1.000000" stroke="#000000" stroke-linecap="round" stroke-linejoin="round" stroke-width="3.000000"
	d="
M622.000000,662.500000 
	C623.243835,664.617554 621.339294,666.472717 621.500000,668.500000 
"/>
<path fill="none" opacity="1.000000" stroke="#000000" stroke-linecap="round" stroke-linejoin="round" stroke-width="2.000000"
	d="
M1155.500000,133.000000 
	C1153.172363,133.507080 1152.168335,135.668777 1150.500000,137.000000 
"/>
<path fill="none" opacity="1.000000" stroke="#000000" stroke-linecap="round" stroke-linejoin="round" stroke-width="3.000000"
	d="
M487.000000,533.500000 
	C488.569885,535.282227 490.440582,535.410217 492.500000,534.500000 
"/>
<path fill="none" opacity="1.000000" stroke="#000000" stroke-linecap="round" stroke-linejoin="round" stroke-width="2.000000"
	d="
M1097.500000,13.500000 
	C1095.843628,13.770116 1094.077515,12.941300 1092.500000,14.000000 
"/>
<path fill="none" opacity="1.000000" stroke="#000000" stroke-linecap="round" stroke-linejoin="round" stroke-width="2.000000"
	d="
M756.500000,578.000000 
	C753.982727,577.132141 752.977051,579.287476 751.500000,580.500000 
"/>
<path fill="none" opacity="1.000000" stroke="#000000" stroke-linecap="round" stroke-linejoin="round" stroke-width="2.000000"
	d="
M877.500000,287.000000 
	C879.002563,288.807922 880.776001,287.906830 882.500000,287.500000 
"/>
<path fill="none" opacity="1.000000" stroke="#000000" stroke-linecap="round" stroke-linejoin="round" stroke-width="2.000000"
	d="
M548.500000,101.500000 
	C546.597839,101.784958 545.846008,98.235611 543.500000,100.000000 
"/>
<path fill="none" opacity="1.000000" stroke="#000000" stroke-linecap="round" stroke-linejoin="round" stroke-width="2.000000"
	d="
M949.500000,638.500000 
	C951.688965,637.155945 954.127869,637.561890 956.500000,637.500000 
"/>
<path fill="none" opacity="1.000000" stroke="#000000" stroke-linecap="round" stroke-linejoin="round" stroke-width="2.000000"
	d="
M867.500000,102.500000 
	C866.083252,101.584038 864.626404,101.029015 863.000000,102.000000 
"/>
<path fill="none" opacity="1.000000" stroke="#000000" stroke-linecap="round" stroke-linejoin="round" stroke-width="2.000000"
	d="
M882.500000,279.500000 
	C881.312622,278.610779 880.574402,276.523804 878.500000,278.000000 
"/>
<path fill="none" opacity="1.000000" stroke="#000000" stroke-linecap="round" stroke-linejoin="round" stroke-width="2.000000"
	d="
M856.500000,72.500000 
	C855.179382,72.768204 853.721924,71.941986 852.500000,73.000000 
"/>
<path fill="none" opacity="1.000000" stroke="#000000" stroke-linecap="round" stroke-linejoin="round" stroke-width="2.000000"
	d="
M509.500000,55.000000 
	C508.696075,56.301460 506.035065,54.353031 506.000000,57.000000 
"/>
<path fill="none" opacity="1.000000" stroke="#000000" stroke-linecap="round" stroke-linejoin="round" stroke-width="2.000000"
	d="
M1146.000000,46.000000 
	C1145.703979,47.962650 1148.514771,46.818523 1148.500000,48.500000 
"/>
<path fill="none" opacity="1.000000" stroke="#000000" stroke-linecap="round" stroke-linejoin="round" stroke-width="3.000000"
	d="
M561.500000,301.500000 
	C566.436462,301.425110 567.438782,302.594452 567.500000,308.500000 
"/>
<path fill="none" opacity="1.000000" stroke="#000000" stroke-linecap="round" stroke-linejoin="round" stroke-width="2.000000"
	d="
M784.000000,583.500000 
	C783.426331,581.616394 781.361938,583.211060 780.500000,582.000000 
"/>
<path fill="none" opacity="1.000000" stroke="#000000" stroke-linecap="round" stroke-linejoin="round" stroke-width="2.000000"
	d="
M795.500000,481.500000 
	C794.360413,481.856384 793.372192,483.272064 792.000000,482.000000 
"/>
<path fill="none" opacity="1.000000" stroke="#000000" stroke-linecap="round" stroke-linejoin="round" stroke-width="2.000000"
	d="
M947.000000,625.000000 
	C948.200989,626.333313 948.200989,627.666687 947.000000,629.000000 
"/>
</svg>