<?xml version="1.0" encoding="UTF-8"?>
<svg version="1.1" xmlns="http://www.w3.org/2000/svg" viewBox="0 0 1952 2188" width="100%" height="100%">
<path d="M0 0 C1.68034154 -0.00599731 3.36068034 -0.01280558 5.04101562 -0.02035522 C9.57471042 -0.0379075 14.10832954 -0.04270623 18.64205503 -0.0439868 C21.4866141 -0.04541594 24.3311544 -0.04970004 27.17570877 -0.05498123 C37.13440402 -0.07345118 47.093046 -0.08165631 57.05175781 -0.08007812 C66.27659329 -0.07887997 75.50119359 -0.09992596 84.72596967 -0.13156545 C92.69083179 -0.15789188 100.65561792 -0.16843851 108.6205231 -0.16716731 C113.35736355 -0.16666213 118.09399507 -0.17209424 122.83079147 -0.19352341 C163.87873982 -0.36616704 202.77722466 5.18772334 235.01416016 33.29052734 C235.88814453 34.03947266 236.76212891 34.78841797 237.66259766 35.56005859 C240.16253503 37.75615743 242.59716586 40.00364856 245.01416016 42.29052734 C245.83529297 43.05880859 246.65642578 43.82708984 247.50244141 44.61865234 C273.98999452 70.15875021 290.38265296 107.37390841 291.46755158 144.13372332 C291.54858255 149.51411234 291.53672882 154.89212007 291.5119381 160.27290249 C291.51551176 162.73106374 291.52083853 165.18922294 291.52773982 167.6473771 C291.53870048 172.97040406 291.53744656 178.29321232 291.52505045 183.61622047 C291.50657167 191.58480839 291.51151488 199.55327017 291.52074888 207.52186815 C291.53582332 221.10814675 291.5320799 234.6943608 291.51789856 248.28063774 C291.50361169 262.0378215 291.49810088 275.79496766 291.50317764 289.55215836 C291.50349337 290.42288784 291.5038091 291.29361732 291.5041344 292.19073254 C291.50578254 296.63107072 291.50756826 301.07140884 291.50939915 305.51174695 C291.52232404 337.60886951 291.51565765 369.70596424 291.49821091 401.80308342 C291.48096426 433.58933724 291.47114772 465.37557791 291.47154617 497.16183662 C291.47156202 499.15921077 291.47157746 501.15658492 291.47159251 503.15395906 C291.47166726 511.18076922 291.47180011 519.20757938 291.47200413 527.23438953 C291.47255933 549.67109671 291.47178207 572.10780373 291.47002602 594.54451084 C291.46994667 595.56614745 291.46986733 596.58778406 291.46978558 597.64037936 C291.46717038 630.1854638 291.45883037 662.7305441 291.44631004 695.27562618 C291.44590417 696.33093916 291.44549829 697.38625214 291.44508011 698.4735443 C291.43846285 715.61055696 291.43147215 732.74756948 291.42446268 749.88458199 C291.39667878 817.8673123 291.38339681 885.85002768 291.38476562 953.83276367 C291.3848064 955.98212364 291.38484683 958.13148362 291.3848869 960.28084359 C291.38496727 964.57447854 291.38504881 968.86811348 291.38513112 973.16174843 C291.38531396 982.78904067 291.38548267 992.41633292 291.3856243 1002.04362517 C291.38565583 1004.17593949 291.38568872 1006.30825381 291.38572295 1008.44056813 C291.3866135 1065.40233139 291.37767825 1122.36409262 291.36501849 1179.32585436 C291.36479814 1180.32026853 291.3645778 1181.31468269 291.36435078 1182.33923062 C291.36033591 1200.45439474 291.36033591 1200.45439474 291.35830159 1209.33255777 C291.35331097 1231.20085177 291.34942824 1253.06914508 291.3486743 1274.93743968 C291.34863924 1275.92275754 291.34860418 1276.90807541 291.34856806 1277.92325139 C291.34842965 1281.89420362 291.34829914 1285.86515585 291.34817309 1289.83610808 C291.34700112 1326.67538739 291.33946828 1363.51465449 291.3192157 1400.35392868 C291.31730055 1403.88552036 291.31541388 1407.41711206 291.31354904 1410.94870377 C291.31308798 1411.81541273 291.31262691 1412.68212169 291.31215187 1413.57509455 C291.30502395 1427.29808729 291.3045476 1441.02107179 291.3068207 1454.74406584 C291.3089091 1468.23782502 291.30382893 1481.73156581 291.29112045 1495.22531934 C291.28387886 1503.13541521 291.28204977 1511.04546709 291.28827646 1518.95556407 C291.29228668 1524.82990375 291.28586665 1530.70420214 291.27540541 1536.57853488 C291.27280605 1538.93874644 291.27354314 1541.29896466 291.27803863 1543.65917337 C291.33648888 1577.03543764 285.14024296 1606.41345626 263.01416016 1632.29052734 C262.53720703 1632.90025391 262.06025391 1633.50998047 261.56884766 1634.13818359 C256.62912499 1640.33400717 250.09114876 1646.39958041 242.88864136 1649.74017334 C239.66519453 1652.60014352 239.56564814 1653.03376305 239.25466919 1657.09942627 C239.21949756 1659.13580963 239.21754374 1661.1729231 239.24121094 1663.20947266 C239.23058121 1664.32196381 239.21995148 1665.43445496 239.20899963 1666.58065796 C239.18087881 1670.26044552 239.19502756 1673.93880585 239.20947266 1677.61865234 C239.19822667 1680.16885637 239.18434787 1682.71905004 239.16793823 1685.26922607 C239.13551558 1691.29705828 239.1296608 1697.32435091 239.13666332 1703.35221934 C239.14315505 1710.21565827 239.11572938 1717.07883072 239.0854609 1723.94219065 C239.02396609 1738.05832953 239.00504429 1752.1742701 239.01416016 1766.29052734 C239.69871245 1766.42470849 240.38326475 1766.55888964 241.08856106 1766.69713688 C242.43720541 1766.96368155 242.43720541 1766.96368155 243.81309509 1767.23561096 C244.70389739 1767.41104211 245.59469969 1767.58647326 246.51249599 1767.7672205 C282.01080934 1775.19288166 325.26351087 1794.56101822 346.45166016 1825.47802734 C349.11127518 1829.66277372 351.36510828 1833.61821369 353.01416016 1838.29052734 C353.36115967 1839.22018311 353.70815918 1840.14983887 354.06567383 1841.10766602 C355.72841028 1847.04337598 355.31919104 1853.29309304 355.31494141 1859.40380859 C355.31883608 1860.7823245 355.32317232 1862.16083921 355.32792664 1863.53935242 C355.33536243 1866.42153826 355.33511747 1869.30360157 355.32983398 1872.18579102 C355.32405161 1875.8538438 355.34095287 1879.5213896 355.36417866 1883.18935871 C355.37901397 1886.03522099 355.37977435 1888.88096403 355.37666893 1891.72685814 C355.37742247 1893.7285167 355.39121815 1895.73015693 355.40534973 1897.73176575 C355.31711515 1915.26819304 348.58486858 1927.52005698 336.49462891 1939.78759766 C335.44935294 1940.84873203 334.4166061 1941.92227877 333.39306641 1943.00439453 C329.24525978 1947.31481403 324.88797764 1950.76679197 319.88916016 1954.04052734 C319.1127417 1954.55075439 318.33632324 1955.06098145 317.53637695 1955.58666992 C301.31266401 1966.04281178 284.14219854 1973.77397142 266.01416016 1980.29052734 C265.05670898 1980.63712402 264.09925781 1980.9837207 263.11279297 1981.34082031 C238.01998239 1990.32544758 212.29937589 1996.08762199 186.01416016 2000.29052734 C185.03416046 2000.44908203 185.03416046 2000.44908203 184.03436279 2000.61083984 C162.42513772 2004.10628723 140.83991475 2006.61195794 119.01416016 2008.29052734 C117.92844727 2008.38696533 116.84273437 2008.48340332 115.72412109 2008.58276367 C102.38890068 2009.66013436 89.00840513 2009.48741557 75.63916016 2009.47802734 C73.6682843 2009.47811798 73.6682843 2009.47811798 71.65759277 2009.47821045 C52.77880704 2009.47123128 34.02705007 2009.1400426 15.21142578 2007.55517578 C12.2665261 2007.31141652 9.32255062 2007.10936113 6.37353516 2006.92333984 C-21.11927506 2005.05228407 -49.21988632 2000.82019542 -75.98583984 1994.29052734 C-77.11892578 1994.01515137 -78.25201172 1993.73977539 -79.41943359 1993.45605469 C-123.47714737 1982.57680866 -180.77913832 1966.47217744 -206.03662109 1924.81005859 C-208.68854821 1920.20168835 -210.47348087 1915.3767346 -211.98583984 1910.29052734 C-212.48083984 1908.80552734 -212.48083984 1908.80552734 -212.98583984 1907.29052734 C-213.09437898 1905.3761085 -213.1447064 1903.45817894 -213.1628418 1901.54077148 C-213.17567703 1900.35846451 -213.18851227 1899.17615753 -213.20173645 1897.95802307 C-213.20912338 1896.67685104 -213.21651031 1895.39567902 -213.22412109 1894.07568359 C-213.22819662 1893.42042631 -213.23227215 1892.76516903 -213.23647118 1892.09005547 C-213.25732977 1888.61383253 -213.27162572 1885.1376489 -213.28100586 1881.66137695 C-213.29199924 1878.10093263 -213.32631556 1874.54112563 -213.36617756 1870.98090458 C-213.39256846 1868.21903982 -213.4007179 1865.4573208 -213.40428734 1862.69534111 C-213.41142266 1860.75465293 -213.43777492 1858.81406526 -213.4646759 1856.87355042 C-213.42340564 1839.79483568 -206.29519487 1826.11194435 -194.63818359 1813.87646484 C-190.32216481 1809.66850544 -185.8169109 1805.89336 -180.98583984 1802.29052734 C-179.94556641 1801.51193359 -178.90529297 1800.73333984 -177.83349609 1799.93115234 C-154.00186611 1782.79260245 -124.80141933 1773.47158013 -96.98583984 1765.29052734 C-96.98583984 1728.00052734 -96.98583984 1690.71052734 -96.98583984 1652.29052734 C-98.30583984 1651.63052734 -99.62583984 1650.97052734 -100.98583984 1650.29052734 C-104.08522782 1648.08250471 -107.02544945 1645.68047706 -109.98583984 1643.29052734 C-110.96423828 1642.53642578 -110.96423828 1642.53642578 -111.96240234 1641.76708984 C-131.50499023 1625.92392189 -145.56831879 1597.44818725 -148.27435593 1572.64614855 C-149.21701627 1560.88496554 -149.1269992 1549.13350852 -149.11726761 1537.34218025 C-149.11891904 1534.89876463 -149.12100613 1532.45534926 -149.12348771 1530.01193434 C-149.12788093 1524.69643321 -149.12919169 1519.38094472 -149.12775937 1514.06544293 C-149.12563093 1506.1079048 -149.12926184 1498.15037623 -149.13397414 1490.19283957 C-149.14183357 1476.62844128 -149.14493548 1463.06404562 -149.14542007 1449.49964523 C-149.14592287 1435.75684735 -149.14857388 1422.01405241 -149.15382767 1408.27125549 C-149.15432287 1406.96840103 -149.15432287 1406.96840103 -149.15482807 1405.63922628 C-149.1561781 1402.10157297 -149.15754077 1398.56391966 -149.15892018 1395.02626636 C-149.17521124 1353.17147075 -149.18160699 1311.31667571 -149.18636805 1269.46187747 C-149.18875204 1248.62146604 -149.19245562 1227.78105494 -149.19640514 1206.94064375 C-149.20906755 1140.08712116 -149.21985246 1073.23359858 -149.2232456 1006.3800748 C-149.22340784 1003.18583288 -149.2235734 999.99159096 -149.22373999 996.79734904 C-149.22407378 990.3913076 -149.22440426 983.98526615 -149.22473454 977.57922471 C-149.22512144 970.07939606 -149.22551105 962.57956742 -149.22590561 955.07973877 C-149.22601803 952.93323269 -149.22612945 950.78672661 -149.22623986 948.64022052 C-149.22979037 879.68098144 -149.24487441 810.72175278 -149.26817761 741.76251768 C-149.28491856 692.20232977 -149.30039381 642.64214382 -149.30491257 593.08195305 C-149.3050528 591.55326532 -149.3050528 591.55326532 -149.30519586 589.993695 C-149.30721485 567.6219655 -149.30837094 545.25023603 -149.30872444 522.87850644 C-149.30886062 514.87366318 -149.30906961 506.86881991 -149.3093177 498.86397665 C-149.30937926 496.87258005 -149.30943758 494.88118344 -149.30949265 492.88978684 C-149.31041247 461.15745293 -149.32038067 429.42512989 -149.33495013 397.69279955 C-149.3495641 365.73575413 -149.35460911 333.77872204 -149.34653059 301.82167387 C-149.34541522 297.40531637 -149.34440456 292.98895885 -149.34345627 288.57260132 C-149.3432663 287.7068831 -149.34307633 286.84116489 -149.34288061 285.94921279 C-149.34014758 272.24462289 -149.34748693 258.54005767 -149.35902964 244.83547313 C-149.37017148 231.35784369 -149.37060062 217.88024913 -149.35965945 204.40261915 C-149.35356683 196.5029149 -149.35564759 188.60331594 -149.36991142 180.70362164 C-149.37958778 174.83510993 -149.37356843 168.96668175 -149.3615011 163.0981722 C-149.35906822 160.74162031 -149.3616471 158.38505646 -149.36989757 156.02851776 C-149.41120203 143.39932413 -148.966267 131.60120328 -145.98583984 119.29052734 C-145.83173704 118.63735841 -145.67763424 117.98418948 -145.51886166 117.31122755 C-138.90702916 89.33526087 -124.77927367 64.98366271 -104.98583984 44.29052734 C-104.36708984 43.62021484 -103.74833984 42.94990234 -103.11083984 42.25927734 C-86.43116252 24.74561615 -63.06947403 11.99328231 -39.98583984 5.29052734 C-39.07576172 5.01595703 -38.16568359 4.74138672 -37.22802734 4.45849609 C-24.82872329 0.87294236 -12.82613673 -0.00921955 0 0 Z " fill="#020202" transform="translate(904.98583984375,86.70947265625)"/>
<path d="M0 0 C1.62830962 -0.00407855 3.25661647 -0.00942753 4.88491821 -0.01593018 C9.25701143 -0.02945949 13.62888925 -0.02436488 18.00098562 -0.01479292 C22.61029166 -0.00711823 27.21958107 -0.01426359 31.82888794 -0.01895142 C39.56694802 -0.02438758 47.30492181 -0.01727502 55.04296875 -0.00292969 C63.94302228 0.01338109 72.84286939 0.00811105 81.7429179 -0.0084089 C89.43094944 -0.022099 97.11891946 -0.02390661 104.80695927 -0.0160929 C109.37812429 -0.01145594 113.94919288 -0.01067996 118.52035141 -0.02070236 C122.82322286 -0.02947983 127.12583288 -0.02315743 131.42867661 -0.00601959 C132.99175588 -0.00211096 134.55485783 -0.00308979 136.11792755 -0.00980759 C150.52424655 -0.06593144 165.23455245 1.19148239 178.73486328 6.57568359 C179.51539063 6.87611572 180.29591797 7.17654785 181.10009766 7.48608398 C197.48148534 13.97288654 211.23257902 23.30627098 224.04736328 35.38818359 C224.77439453 36.03916016 225.50142578 36.69013672 226.25048828 37.36083984 C248.16994592 57.82162854 261.20240843 89.15849125 262.32489955 118.88243102 C262.46886889 125.19394008 262.44743022 131.50483268 262.42768002 137.81754875 C262.43111821 140.26441767 262.43586815 142.71128504 262.44180098 145.15814918 C262.45167679 150.46883636 262.45234819 155.77940351 262.44472795 161.09008561 C262.43337502 169.04037973 262.43946291 176.99059763 262.44879194 184.94089101 C262.46418816 198.49462104 262.46541147 212.04831892 262.45881271 225.6020546 C262.45217721 239.33028172 262.45206972 253.05848588 262.45985985 266.78671265 C262.46034785 267.65499513 262.46083584 268.52327762 262.46133863 269.4178717 C262.46334689 272.95446963 262.46540001 276.49106753 262.46751037 280.0276654 C262.48889329 315.89958312 262.49096804 351.77148386 262.48545333 387.64340635 C262.4846976 392.5974472 262.48396998 397.55148806 262.48327136 402.50552893 C262.48313227 403.48955714 262.48299318 404.47358536 262.48284987 405.48743262 C262.47989607 427.30665489 262.48291186 449.12587512 262.48716765 470.94509703 C262.48774981 473.93236432 262.48831865 476.91963161 262.48888328 479.90689891 C262.49039827 487.9149773 262.49192518 495.92305569 262.49347629 503.93113408 C262.50423097 559.82483706 262.50893691 615.71853815 262.50100613 671.61224174 C262.50085782 672.66554969 262.50070951 673.71885764 262.50055671 674.804084 C262.49889775 686.54929333 262.49714817 698.29450263 262.4953637 710.03971194 C262.49512217 711.63030832 262.49512217 711.63030832 262.49487575 713.25303795 C262.49356812 721.85805168 262.49356812 721.85805168 262.49291456 726.1180144 C262.48252239 793.95043087 262.49029169 861.78282138 262.51391602 929.61523438 C262.51985951 946.70890231 262.52575111 963.80257026 262.53132534 980.89623833 C262.53166911 981.94878831 262.53201288 983.00133828 262.53236707 984.08578372 C262.54289561 1016.52879333 262.54848848 1048.97180077 262.54888248 1081.41481209 C262.54889527 1082.43345463 262.54890805 1083.45209716 262.54892122 1084.50160765 C262.54914952 1106.86364759 262.54814335 1129.22568734 262.54601217 1151.58772717 C262.54525741 1159.58924419 262.5445792 1167.59076123 262.54393201 1175.59227826 C262.54376932 1177.58281174 262.54360166 1179.57334522 262.543429 1181.5638787 C262.54070876 1213.26987125 262.54925798 1244.97584804 262.5632831 1276.6818372 C262.5776954 1309.50374042 262.57723473 1342.32561368 262.55990838 1375.14751588 C262.55810424 1378.67396136 262.55636404 1382.20040687 262.55467415 1385.72685242 C262.55425365 1386.59228885 262.55383315 1387.45772528 262.5533999 1388.34938706 C262.54710861 1402.03822012 262.55419622 1415.72701193 262.56688335 1429.41583918 C262.57908285 1442.88460312 262.57693761 1456.35330215 262.55966304 1469.8220612 C262.5499667 1477.7120743 262.55108225 1485.60190271 262.56849301 1493.4919036 C262.58020926 1499.36030435 262.57090599 1505.22855314 262.55364716 1511.09694415 C262.54992665 1513.44818211 262.55282766 1515.79944286 262.56336025 1518.15066018 C262.67549992 1545.04799732 258.35489909 1567.25728681 241.04736328 1588.38818359 C240.50724609 1589.15517578 239.96712891 1589.92216797 239.41064453 1590.71240234 C238.96076172 1591.26541016 238.51087891 1591.81841797 238.04736328 1592.38818359 C237.38736328 1592.38818359 236.72736328 1592.38818359 236.04736328 1592.38818359 C236.04711908 1591.41001037 236.04687488 1590.43183716 236.04662327 1589.42402232 C236.03823112 1555.93046778 236.02895148 1522.4369135 236.01904297 1488.94335938 C236.01874366 1487.93120322 236.01874366 1487.93120322 236.0184383 1486.89859946 C235.99702942 1414.58513604 235.969779 1342.27167762 235.9307251 1269.95822144 C235.92985892 1268.3516372 235.92899275 1266.74505296 235.92812658 1265.13846872 C235.90992705 1231.41458977 235.89090645 1197.69071133 235.87093758 1163.96683338 C235.86090718 1147.02578691 235.85103453 1130.08474035 235.84131104 1113.1436937 C235.83984338 1110.58822771 235.83837123 1108.03276172 235.83689888 1105.47729573 C235.81427109 1066.13460462 235.79502292 1026.79191544 235.7855835 987.44921875 C235.78538053 986.60355011 235.78517757 985.75788146 235.78496845 984.88658649 C235.7817167 971.25222083 235.77874902 957.6178551 235.77581906 943.98348936 C235.76737377 904.70419828 235.75682205 865.42491284 235.73237991 826.14562798 C235.73187812 825.33758658 235.73137633 824.52954519 235.73085933 823.69701769 C235.71980505 805.95696224 235.70767086 788.2169077 235.69451469 770.47685369 C235.68923982 763.33844978 235.68412034 756.20004576 235.67905426 749.06164169 C235.67849606 748.2803829 235.67793785 747.49912411 235.67736274 746.69419082 C235.6594657 721.53744138 235.65421003 696.38070885 235.65560954 671.22395367 C235.65696173 645.8747306 235.64586558 620.5255458 235.61756093 595.17633754 C235.61364906 591.67014282 235.60987936 588.16394796 235.60619545 584.65775299 C235.60546818 583.97046303 235.60474092 583.28317308 235.60399161 582.57505615 C235.59354121 572.37272316 235.59422374 562.17043233 235.60156059 551.96809769 C235.60966259 540.61037813 235.60468835 529.25276575 235.58187099 517.89506428 C235.5707996 512.17832506 235.56598513 506.46177277 235.57885084 500.74503304 C235.59044812 495.53663299 235.58344321 490.32859075 235.56206258 485.12022469 C235.55758373 483.25503634 235.55967849 481.38981655 235.56944252 479.52464838 C235.65289294 462.29439127 233.27416655 446.70911432 225.04736328 431.38818359 C224.53431641 430.38400391 224.02126953 429.37982422 223.49267578 428.34521484 C219.09703489 420.21643396 213.52681256 413.87686286 207.04736328 407.38818359 C205.96841797 406.29183594 205.96841797 406.29183594 204.86767578 405.17333984 C186.21463173 387.40015636 162.0584854 382.07984503 137.09570312 382.09765625 C135.40739651 382.09166079 133.71909261 382.08485293 132.03079224 382.07730103 C127.47258144 382.05973498 122.91444589 382.05494957 118.35620451 382.05366945 C115.49946163 382.05224168 112.6427375 382.04796023 109.7859993 382.04267502 C99.79416961 382.02420411 89.80239307 382.0160005 79.81054688 382.01757812 C70.53848643 382.01877794 61.26665934 381.99769939 51.99465787 381.9660908 C44.00017033 381.93982141 36.0057585 381.92921531 28.0112282 381.93048894 C23.25161743 381.93099555 18.49221421 381.92548088 13.73264694 381.90413284 C9.24924179 381.88457029 4.76623831 381.88474716 0.28281784 381.89916611 C-1.34841509 381.90123336 -2.97967438 381.89668024 -4.61086273 381.88444519 C-18.85345692 381.78466577 -32.95216078 383.60671229 -45.82763672 390.13818359 C-46.87866577 390.65360718 -46.87866577 390.65360718 -47.95092773 391.17944336 C-54.10948729 394.28953364 -59.63676516 397.98336549 -64.95263672 402.38818359 C-66.24427734 403.45359375 -66.24427734 403.45359375 -67.56201172 404.54052734 C-80.0416286 415.29946978 -88.76148703 428.57502763 -94.32763672 444.01318359 C-94.56627441 444.66875244 -94.80491211 445.32432129 -95.05078125 445.99975586 C-99.22049045 458.28728285 -99.2418496 470.67188383 -99.21434975 483.48115158 C-99.21754066 485.41886189 -99.22160491 487.35657093 -99.22645903 489.29427779 C-99.23727033 494.6184723 -99.23569973 499.94260194 -99.23210831 505.26680356 C-99.23040071 511.05916892 -99.24026502 516.85151648 -99.24866235 522.64387441 C-99.26264689 533.46188169 -99.26766416 544.27987127 -99.26859519 555.09788692 C-99.26957897 565.32069878 -99.27530479 575.54349695 -99.28525352 585.76630402 C-99.28625451 586.79884038 -99.28625451 586.79884038 -99.28727572 587.85223606 C-99.29069859 591.36231237 -99.29419221 594.87238862 -99.29771082 598.38246484 C-99.32301974 623.77428876 -99.33871216 649.16611131 -99.34929276 674.55794525 C-99.35979806 699.70130614 -99.37442639 724.84465914 -99.39457321 749.98801422 C-99.39519719 750.76908745 -99.39582118 751.55016068 -99.39646407 752.3549028 C-99.40216545 759.48888265 -99.40791758 766.62286247 -99.4137306 773.75684223 C-99.42818001 791.49051915 -99.44199295 809.22419654 -99.45537376 826.9578743 C-99.45628849 828.16915626 -99.45628849 828.16915626 -99.4572217 829.40490857 C-99.48682491 868.67895306 -99.5090947 907.95300125 -99.53076172 947.22705078 C-99.53828403 960.85473637 -99.54583877 974.48242193 -99.55352783 988.11010742 C-99.55400468 988.95530651 -99.55448153 989.8005056 -99.55497283 990.67131679 C-99.57718795 1029.96811117 -99.6046152 1069.26490142 -99.63338555 1108.56169149 C-99.63525342 1111.11310816 -99.63711905 1113.66452484 -99.63898422 1116.21594151 C-99.65134847 1133.12442125 -99.66380252 1150.03290092 -99.6763167 1166.94138054 C-99.70121568 1200.58458616 -99.72558702 1234.22779216 -99.74959584 1267.87099843 C-99.75073918 1269.47314806 -99.7518829 1271.07529769 -99.75302698 1272.67744732 C-99.80452304 1344.79554128 -99.84988135 1416.91363862 -99.89257812 1489.03173828 C-99.89297793 1489.70697371 -99.89337774 1490.38220914 -99.89378966 1491.07790624 C-99.91378011 1524.84799848 -99.93342021 1558.61809091 -99.95263672 1592.38818359 C-114.90872836 1580.11376044 -121.93806789 1562.07684598 -124.95263672 1543.38818359 C-125.12227649 1542.3937284 -125.29191626 1541.3992732 -125.46669663 1540.374683 C-126.12306945 1535.7231065 -126.09183184 1531.10111857 -126.08143789 1526.4110778 C-126.0832129 1525.4157513 -126.0849879 1524.42042481 -126.0868167 1523.39493691 C-126.09156486 1520.04447074 -126.0891817 1516.69404748 -126.0868578 1513.34357929 C-126.08881054 1510.91294345 -126.09119931 1508.48230793 -126.09398577 1506.05167291 C-126.09905517 1500.74241372 -126.1010031 1495.43316681 -126.10023502 1490.12390623 C-126.09909945 1482.17554337 -126.10368117 1474.22719081 -126.10936586 1466.27883026 C-126.11887776 1452.7326617 -126.12358494 1439.18649521 -126.1256752 1425.64032364 C-126.12780332 1411.90909483 -126.13206233 1398.17786921 -126.13891792 1384.44664192 C-126.13934854 1383.57989493 -126.13977915 1382.71314794 -126.14022281 1381.82013588 C-126.14198116 1378.29008027 -126.1437508 1374.76002466 -126.14553583 1371.22996905 C-126.16713772 1328.42699589 -126.17801502 1285.62402209 -126.18701207 1242.82104472 C-126.18994593 1228.9408547 -126.1933158 1215.06066484 -126.19697928 1201.180475 C-126.19723758 1200.20129997 -126.19749587 1199.22212494 -126.19776198 1198.21327794 C-126.19880821 1194.25187927 -126.19985663 1190.29048061 -126.20090781 1186.32908196 C-126.21887309 1118.56597896 -126.23425197 1050.80287571 -126.24166684 983.03977067 C-126.24225081 977.71677331 -126.24284808 972.39377595 -126.24344445 967.07077859 C-126.24356257 966.01486483 -126.24368069 964.95895106 -126.24380239 963.87103991 C-126.24499978 953.17314924 -126.24620854 942.47525857 -126.24743493 931.7773679 C-126.24768016 929.63240941 -126.24792402 927.48745092 -126.24816649 925.34249243 C-126.2559555 856.46059037 -126.27833698 787.57870536 -126.31084292 718.69681076 C-126.33419042 669.2054835 -126.35574122 619.71415963 -126.36284924 570.22282696 C-126.36299626 569.20487797 -126.36314328 568.18692899 -126.36329475 567.13813307 C-126.36647968 544.79076984 -126.3685305 522.44340665 -126.3695223 500.09604322 C-126.36993704 491.10414098 -126.37049193 482.11223876 -126.37108421 473.12033653 C-126.37114488 472.13623377 -126.37120555 471.15213101 -126.37126806 470.13820695 C-126.37328356 438.44586073 -126.38751846 406.75353463 -126.40802922 375.06119542 C-126.42861834 343.13450923 -126.43650002 311.2078463 -126.42695145 279.28115414 C-126.42563304 274.86674915 -126.42445498 270.45234413 -126.42336082 266.03793907 C-126.42314098 265.17261454 -126.42292113 264.30729001 -126.42269462 263.41574352 C-126.41958348 249.72850588 -126.42989441 236.04131278 -126.44583637 222.35408546 C-126.4612429 208.88654085 -126.46231967 195.41905769 -126.44828814 181.95151092 C-126.44049482 174.06197923 -126.44354333 166.17263564 -126.4629253 158.28312287 C-126.47610846 152.414965 -126.46825328 146.54695414 -126.45243795 140.67879884 C-126.449301 138.32763234 -126.45279447 135.97644466 -126.46392969 133.62530245 C-126.54114516 116.17818286 -125.21189469 99.04438119 -118.76513672 82.63818359 C-118.32403564 81.48370728 -118.32403564 81.48370728 -117.87402344 80.3059082 C-105.25067704 48.44620648 -80.16004574 22.8655451 -48.94482422 9.07177734 C-32.96652855 2.24496183 -17.20460872 -0.07373109 0 0 Z " fill="#FBFBFB" transform="translate(907.95263671875,112.61181640625)"/>
<path d="M0 0 C1.29910812 -0.00571014 2.59821625 -0.01142029 3.93669128 -0.01730347 C5.35932913 -0.01854857 6.78196708 -0.01967372 8.2046051 -0.02069092 C9.71660481 -0.02532508 11.22860337 -0.03035054 12.74060059 -0.03573608 C16.83617066 -0.04880918 20.93172438 -0.0552957 25.02731204 -0.05974674 C27.59322306 -0.06268724 30.15912972 -0.06679397 32.72503853 -0.07125092 C40.77359826 -0.08491582 48.82214789 -0.09458597 56.87071842 -0.09845281 C66.12272558 -0.1029236 75.37458427 -0.12043014 84.62654632 -0.1494534 C91.80225272 -0.17117188 98.97791767 -0.18116257 106.15365654 -0.18249393 C110.42757362 -0.18353521 114.70135097 -0.18929647 118.97523308 -0.20731354 C123.0046375 -0.22396987 127.03379981 -0.22586606 131.0632267 -0.21717453 C132.52878347 -0.21641329 133.99435422 -0.22062356 135.45987701 -0.23063278 C148.59787197 -0.31498009 161.57271933 1.23850945 173.96852112 5.82794189 C175.01580383 6.20922241 175.01580383 6.20922241 176.08424377 6.59820557 C187.85890684 11.06551755 197.98597773 17.7128407 207.34352112 26.14044189 C208.11180237 26.82622314 208.88008362 27.51200439 209.67164612 28.21856689 C225.58334695 43.24010265 235.02140374 62.91575834 239.34352112 84.14044189 C239.5187433 84.69813766 239.69396547 85.25583344 239.87449741 85.83042908 C240.58094944 89.30981237 240.49878678 92.78746541 240.50415039 96.32330322 C240.51178212 97.57142194 240.51178212 97.57142194 240.51956803 98.84475517 C240.53528352 101.63732619 240.54381529 104.42987134 240.55226135 107.22247314 C240.5618007 109.22327335 240.5716919 111.22407191 240.58190918 113.22486877 C240.61329039 119.80087325 240.63356328 126.37689034 240.65211487 132.95294189 C240.65541219 134.07245995 240.65870951 135.191978 240.66210675 136.34542084 C240.69289176 146.90802368 240.71959392 157.47062941 240.73652554 168.03326416 C240.75841935 181.53236762 240.80036356 195.03107269 240.86996311 208.5300169 C240.91726328 218.02744415 240.9414673 227.52476416 240.94872242 237.02230549 C240.95367025 242.69132221 240.96866873 248.35988987 241.00846672 254.02877808 C241.04545155 259.36739418 241.05370373 264.70530695 241.04046059 270.04402733 C241.04051434 271.99666348 241.05073108 273.94933175 241.07221222 275.90184975 C241.19678283 287.8707032 240.80487563 297.95706136 232.34819698 307.35873413 C224.50808142 315.04582432 215.92364562 316.73476884 205.26757812 316.64837646 C204.07721909 316.65461643 202.88686006 316.66085639 201.66042954 316.66728544 C198.3781462 316.68042358 195.09646072 316.67577186 191.81419289 316.66334057 C188.26607629 316.65425738 184.71803798 316.66827586 181.16993713 316.67926025 C174.22812544 316.69701481 167.28648707 316.69321939 160.34466868 316.68160969 C154.7018214 316.67256427 149.05902258 316.67135615 143.41617012 316.67570496 C142.61206919 316.67631789 141.80796826 316.67693082 140.97950064 316.67756233 C139.34583328 316.67884127 137.71216594 316.68013812 136.07849861 316.68145269 C120.77229825 316.69284932 105.46619384 316.67975882 90.16000921 316.65825123 C77.03371321 316.64037765 63.90755871 316.64348824 50.78126526 316.66192627 C35.52708182 316.68334332 20.27298238 316.69175436 5.01878601 316.67947721 C3.39154281 316.67820305 1.76429958 316.67694557 0.13705635 316.67570496 C-1.0638069 316.6747793 -1.0638069 316.6747793 -2.28893002 316.67383495 C-7.92387798 316.67038481 -13.55877254 316.67620307 -19.19371223 316.68562317 C-26.06237468 316.69685367 -32.93085432 316.69378096 -39.79949588 316.67250019 C-43.30233772 316.66200431 -46.80487503 316.65784267 -50.30771446 316.6710968 C-54.10795356 316.68202173 -57.90733512 316.66832349 -61.70751953 316.64837646 C-63.36175575 316.6617608 -63.36175575 316.6617608 -65.04941088 316.67541552 C-74.60195568 316.57811279 -80.84042454 313.51942488 -87.89866638 307.07012939 C-90.61607394 304.08701976 -92.18173955 300.86379367 -93.65647888 297.14044189 C-94.16761703 296.09341362 -94.16761703 296.09341362 -94.68908119 295.02523327 C-95.93023027 291.32411202 -95.93964349 287.84926226 -95.92390442 283.99159241 C-95.92843553 283.17514289 -95.93296664 282.35869337 -95.93763506 281.51750296 C-95.95028811 278.78344123 -95.94865804 276.04957848 -95.94700623 273.31549072 C-95.95299139 271.35383346 -95.95979691 269.39217855 -95.96736145 267.43052673 C-95.98504178 262.09919316 -95.98971803 256.76792379 -95.99099302 251.43656373 C-95.99241541 248.09976362 -95.99668693 244.76297977 -96.00198746 241.4261837 C-96.02050292 229.7668797 -96.02865723 218.10762143 -96.02708435 206.44830322 C-96.02588642 195.61316321 -96.04691619 184.77822353 -96.07857168 173.94313413 C-96.10482863 164.62052667 -96.11544753 155.29798417 -96.11417353 145.97534007 C-96.11366614 140.41693284 -96.11922363 134.85870315 -96.14052963 129.30033302 C-96.16006799 124.05944669 -96.15993107 118.81890417 -96.14549637 113.57800484 C-96.14342552 111.66822551 -96.1480045 109.7584238 -96.16021729 107.8486824 C-96.32829008 79.71319319 -88.25304084 53.22810198 -68.26976013 32.78106689 C-67.40737732 31.90966064 -66.54499451 31.03825439 -65.65647888 30.14044189 C-64.99003357 29.41341064 -64.32358826 28.68637939 -63.63694763 27.93731689 C-47.79963798 10.99973099 -23.20053853 0.06144586 0 0 Z " fill="#FCFCFC" transform="translate(903.6564788818359,144.85955810546875)"/>
<path d="M0 0 C0.0002442 1.01572632 0.0004884 2.03145264 0.00074001 3.07795854 C0.00913178 37.8557649 0.01841141 72.633571 0.02832031 107.41137695 C0.02861962 108.4623011 0.02861962 108.4623011 0.02892498 109.53445604 C0.05032957 184.60257972 0.07757445 259.6706986 0.11663818 334.73881531 C0.11750436 336.40618275 0.11837053 338.0735502 0.1192367 339.74091765 C0.13743536 374.73900332 0.15645583 409.73708851 0.1764257 444.73517322 C0.18645627 462.31573589 0.19632892 479.89629865 0.20605225 497.4768615 C0.2075199 500.12883156 0.20899205 502.78080161 0.2104644 505.43277167 C0.23309808 546.27185067 0.25234377 587.11092782 0.26177979 627.95001221 C0.26208423 629.26723789 0.26208423 629.26723789 0.26239483 630.6110742 C0.26564667 644.76955902 0.26861431 658.92804391 0.27154423 673.0865288 C0.2799871 713.86479665 0.29052974 754.64305906 0.31498337 795.42132092 C0.31548516 796.25980627 0.31598695 797.09829162 0.31650395 797.96218562 C0.32755701 816.36850538 0.33969099 834.77482426 0.35284859 853.18114263 C0.35812363 860.58710777 0.36324306 867.99307302 0.36830902 875.39903831 C0.36886722 876.20959139 0.36942543 877.02014448 0.37000055 877.85525977 C0.38791163 903.97593461 0.39315236 930.09659315 0.39175374 956.21727353 C0.39040293 982.52744692 0.40146531 1008.83758343 0.42980235 1035.14774253 C0.43371447 1038.78293614 0.43748413 1042.41812989 0.44116783 1046.05332375 C0.4418951 1046.76592984 0.44262237 1047.47853593 0.44337167 1048.21273615 C0.45452174 1059.49979571 0.45223816 1070.78681111 0.44435814 1082.07387176 C0.4368867 1093.17073022 0.44395296 1104.26751867 0.4654923 1115.36436313 C0.47659991 1121.3013788 0.48132054 1127.23821383 0.46851245 1133.17523018 C0.45698583 1138.57530827 0.46379912 1143.9750392 0.4853007 1149.37508395 C0.48981056 1151.31751067 0.48761463 1153.25996737 0.47792076 1155.20237514 C0.037916 1171.19614558 0.037916 1171.19614558 6.88180543 1185.14928873 C12.04447002 1190.09092338 18.08533102 1193.33137459 25 1195 C25.00586624 1196.01318298 25.01173248 1197.02636597 25.01777649 1198.07025146 C25.07521858 1207.66159146 25.14809071 1217.2527094 25.23571491 1226.84382248 C25.28026724 1231.77363165 25.31955597 1236.70336106 25.34643555 1241.63330078 C25.37262049 1246.39915689 25.41312809 1251.16470351 25.46318626 1255.93036652 C25.47975294 1257.74019748 25.49133024 1259.55008185 25.49761391 1261.35997772 C25.54814711 1274.58831845 26.5462027 1286.38246309 32.8125 1298.3125 C33.16723389 1298.99763672 33.52196777 1299.68277344 33.88745117 1300.38867188 C40.7453133 1313.30851871 52.7278726 1322.46099643 66.72996521 1326.85710144 C76.07064489 1329.21512429 84.9135306 1329.42343205 94.47265625 1329.36328125 C96.12926737 1329.36276091 97.78587911 1329.36328533 99.44248962 1329.36479187 C102.89250058 1329.36470282 106.34227462 1329.35441032 109.79223633 1329.33618164 C114.18174918 1329.31347919 118.57091761 1329.31296104 122.96047306 1329.31969929 C126.37429283 1329.32306376 129.78803617 1329.31636317 133.20184135 1329.30657005 C134.81912268 1329.3027617 136.43641257 1329.30155138 138.05369759 1329.3031559 C158.44150434 1329.30653982 174.70991901 1326.12017949 190.21875 1311.9765625 C198.40449086 1303.50746907 203.23910395 1292.34091148 206 1281 C206.25685829 1280.19239227 206.25685829 1280.19239227 206.51890564 1279.36846924 C207.21675192 1275.93291151 207.1786114 1272.51031724 207.20532227 1269.01855469 C207.21522186 1268.2181778 207.22512146 1267.4178009 207.23532104 1266.59317017 C207.26685942 1263.95276834 207.29166313 1261.31234853 207.31640625 1258.671875 C207.3369824 1256.83912697 207.35797904 1255.00638361 207.37937927 1253.17364502 C207.43453171 1248.35355418 207.48397108 1243.533421 207.53222656 1238.71325684 C207.58249146 1233.79317463 207.63815148 1228.87315379 207.69335938 1223.953125 C207.80085743 1214.30213578 207.90232093 1204.65109324 208 1195 C209.12257202 1194.49883667 209.12257202 1194.49883667 210.26782227 1193.98754883 C211.25322998 1193.54435303 212.2386377 1193.10115723 213.25390625 1192.64453125 C214.2291626 1192.20729736 215.20441895 1191.77006348 216.20922852 1191.31958008 C223.41647379 1187.91172768 227.08496918 1184.49131577 230 1177 C231.22678392 1173.31964823 231.13985817 1169.93166801 231.13061053 1166.09968215 C231.13258304 1165.28059022 231.13455555 1164.46149828 231.13658784 1163.61758538 C231.14203114 1160.84372967 231.14030037 1158.06992337 231.1386652 1155.29606342 C231.14111071 1153.29039393 231.14399401 1151.28472493 231.14727798 1149.27905664 C231.15508721 1143.72422588 231.15662161 1138.16940782 231.1572054 1132.61457224 C231.15892758 1126.58782524 231.16640904 1120.56108505 231.17318195 1114.53434199 C231.18426474 1103.957445 231.19165327 1093.38055107 231.19658089 1082.8036499 C231.20188922 1071.45089145 231.20936481 1060.09813751 231.21950912 1048.74538231 C231.22014776 1048.02922569 231.22078639 1047.31306906 231.22144438 1046.57521073 C231.22471063 1042.92374172 231.22801236 1039.27227275 231.23132664 1035.62080379 C231.25526388 1009.16813709 231.27436829 982.71546865 231.29092598 956.2627964 C231.30734154 930.05975961 231.32581546 903.85672559 231.34705925 877.65369225 C231.34771764 876.84044019 231.34837604 876.02718814 231.34905439 875.18929208 C231.35506876 867.76167366 231.36110856 860.33405526 231.36717889 852.90643689 C231.38226988 834.4407996 231.3970418 815.97516206 231.41159725 797.50952435 C231.41226039 796.66856625 231.41292353 795.82760816 231.41360676 794.96116649 C231.44585014 754.03636864 231.47441755 713.11156833 231.50268555 672.18676758 C231.51249931 657.98191323 231.52232932 643.77705888 231.53222656 629.57220459 C231.53284036 628.6912386 231.53345416 627.81027261 231.53408656 626.90261068 C231.56263361 585.96178936 231.59378912 545.02097015 231.62561907 504.08015127 C231.62768502 501.4228001 231.62974984 498.76544892 231.63181442 496.10809774 C231.64549817 478.49794506 231.6592269 460.88779241 231.67298577 443.27763979 C231.70036296 408.23670502 231.72747575 373.19577005 231.75440695 338.15483494 C231.75568953 336.48602988 231.7569723 334.81722483 231.75825526 333.14841977 C231.81602204 258.00625625 231.87071279 182.8640906 231.92407227 107.72192383 C231.92457201 107.01820388 231.92507175 106.31448393 231.92558663 105.58943914 C231.95057874 70.39295956 231.9753954 35.19647985 232 0 C242.97983727 5.17743763 249.96709994 18.4791091 254.3515625 29.3515625 C257.08242395 37.26909605 258.14950489 44.53021066 258.12880117 52.86249477 C258.13146368 54.19267206 258.13146368 54.19267206 258.13417998 55.54972163 C258.13892995 58.53624435 258.13654455 61.52271897 258.13422108 64.50924397 C258.13617373 66.67528088 258.13856247 68.84131745 258.14134905 71.00735345 C258.14776304 76.9935818 258.14790956 82.97979675 258.14707164 88.96602787 C258.14722342 94.79602613 258.15205045 100.62601932 258.15672914 106.45601543 C258.16624179 118.52929006 258.17094835 130.60256237 258.17303848 142.67584038 C258.1751665 154.91425881 258.17942527 167.15267367 258.1862812 179.39109039 C258.18671182 180.1635693 258.18714243 180.93604822 258.1875861 181.73193558 C258.18934443 184.87805147 258.19111408 188.02416736 258.19289912 191.17028324 C258.21450171 229.31903245 258.22537837 267.46778238 258.23437535 305.61653632 C258.23730914 317.98724 258.24067901 330.35794351 258.24434257 342.72864699 C258.24473 344.03765037 258.24473 344.03765037 258.24512527 345.37309826 C258.24617149 348.90359729 258.24721991 352.43409632 258.24827109 355.96459536 C258.26623633 416.35646655 258.28161533 476.74833801 258.28903012 537.1402115 C258.28961409 541.88423075 258.29021136 546.62825 258.29080774 551.37226925 C258.29092586 552.31333318 258.29104398 553.25439711 258.29116567 554.22397813 C258.29236306 563.75829631 258.29357182 573.2926145 258.29479821 582.82693268 C258.29504344 584.73859312 258.2952873 586.65025355 258.29552978 588.56191399 C258.30331899 649.95343769 258.32570094 711.34494227 258.3582062 772.73645762 C258.38155304 816.84564723 258.40310418 860.95483305 258.41021252 905.06402874 C258.41035954 905.97123573 258.41050656 906.87844272 258.41065803 907.81314084 C258.41384293 927.72913418 258.41589377 947.6451275 258.41688558 967.56112107 C258.41730032 975.5746645 258.41785522 983.58820791 258.41844749 991.60175133 C258.41850816 992.47878106 258.41856883 993.3558108 258.41863134 994.25941719 C258.42064701 1022.50587895 258.43488311 1050.75231813 258.4553925 1078.99877202 C258.47597956 1107.45313657 258.48386438 1135.90747504 258.47431473 1164.36184629 C258.47299631 1168.29573014 258.47181826 1172.22961401 258.47072411 1176.16349792 C258.47050426 1176.93463263 258.47028441 1177.70576734 258.4700579 1178.50026976 C258.46694619 1190.6999805 258.47725991 1202.89964127 258.49319966 1215.09934044 C258.50860234 1227.10185368 258.50968652 1239.10429797 258.49565142 1251.10681364 C258.48873794 1257.52473327 258.48814305 1263.94248127 258.50521151 1270.36038575 C258.5206254 1276.20375346 258.51748323 1282.0468117 258.49980123 1287.89017029 C258.49666213 1289.98633625 258.50016577 1292.08252594 258.51129298 1294.17866472 C258.63790314 1319.7004427 253.14522851 1341.2799716 235.0625 1360.3125 C219.32015603 1375.28012232 199.57896582 1381.64742975 178.22070312 1381.51757812 C176.69456825 1381.52301454 175.16843864 1381.53014562 173.64231873 1381.53881836 C169.54096505 1381.5568745 165.44001904 1381.5500585 161.33865929 1381.53730202 C157.01974876 1381.52708147 152.7008701 1381.53659256 148.38195801 1381.54284668 C141.13299376 1381.55009699 133.88419322 1381.54060452 126.63525391 1381.52148438 C118.28836777 1381.49972065 109.94187265 1381.50677389 101.59499598 1381.52879 C94.391973 1381.54701902 87.18906682 1381.54946588 79.98602819 1381.53903532 C75.69997607 1381.53284138 71.41410693 1381.53185038 67.12806702 1381.54518127 C63.09600341 1381.55684923 59.06443742 1381.54851763 55.03242683 1381.52560425 C53.56442651 1381.52037492 52.09638332 1381.52173003 50.6284008 1381.53065491 C28.65887838 1381.65177253 11.63870013 1373.25514614 -4.125 1358.25 C-14.23554001 1347.88865589 -20.42735823 1334.92605759 -24 1321 C-24.18372005 1320.28907299 -24.3674401 1319.57814598 -24.55672742 1318.84567573 C-26.69925884 1308.99416852 -26.27741516 1298.97021837 -26.25447559 1288.94522381 C-26.2568667 1286.78097798 -26.26013269 1284.61673298 -26.26419219 1282.45248964 C-26.27281893 1276.49455015 -26.26898291 1270.53667359 -26.26313647 1264.57873312 C-26.25896997 1258.1009137 -26.26636597 1251.62310586 -26.27228898 1245.14528924 C-26.28141273 1233.78839984 -26.28242836 1222.43152657 -26.27878571 1211.07463455 C-26.27490876 1198.88991837 -26.27536557 1186.70521386 -26.2810955 1174.52049828 C-26.28145433 1173.75062417 -26.28181316 1172.98075006 -26.28218286 1172.18754643 C-26.28365778 1169.05191393 -26.28516218 1165.91628145 -26.28670432 1162.78064898 C-26.30233868 1130.95370386 -26.30501835 1099.12676675 -26.30254826 1067.29981847 C-26.30220981 1062.90232425 -26.30188772 1058.50483003 -26.30158257 1054.10733581 C-26.30152153 1053.23388553 -26.30146049 1052.36043525 -26.30139759 1051.46051679 C-26.30012569 1032.10349486 -26.30272709 1012.74647404 -26.30610864 993.38945244 C-26.30687938 988.96954284 -26.30762411 984.54963322 -26.30837366 980.12972361 C-26.30867535 978.35583515 -26.30897723 976.5819467 -26.3092793 974.80805824 C-26.30942898 973.92877361 -26.30957866 973.04948898 -26.30973287 972.14355935 C-26.3100364 970.3650121 -26.31034109 968.58646484 -26.31064692 966.80791758 C-26.31932031 916.34078491 -26.32396358 865.87365321 -26.31969929 815.40651989 C-26.31962123 814.47198218 -26.31954317 813.53744448 -26.31946275 812.57458745 C-26.31858995 802.15347566 -26.31766069 791.73236387 -26.31671212 781.31125208 C-26.31662661 780.3703773 -26.3165411 779.42950253 -26.316453 778.4601164 C-26.3157422 770.64217527 -26.3157422 770.64217527 -26.31541077 767.04519639 C-26.30987469 706.86044716 -26.31741786 646.67571326 -26.33618164 586.4909668 C-26.34090384 571.32574816 -26.34558434 556.16052951 -26.3500185 540.99531078 C-26.35029182 540.06153443 -26.35056515 539.12775807 -26.35084675 538.16568546 C-26.35921757 509.38778958 -26.36389766 480.60989497 -26.36472607 451.83199787 C-26.36475243 450.92854554 -26.3647788 450.02509321 -26.36480596 449.09426353 C-26.36534674 429.26175242 -26.36497431 409.42924141 -26.36376625 389.59673032 C-26.36334062 382.50041687 -26.3629755 375.40410341 -26.36263681 368.30778994 C-26.36255151 366.54240487 -26.36246257 364.7770198 -26.36236999 363.01163473 C-26.36092111 334.87957749 -26.36804814 306.74753066 -26.37937395 278.61547592 C-26.39102156 249.49556377 -26.39159033 220.37567024 -26.37953053 191.25575801 C-26.37827869 188.12840699 -26.37707521 185.00105596 -26.37590981 181.87370491 C-26.37561951 181.1062002 -26.37532922 180.3386955 -26.37503013 179.54793307 C-26.37070555 167.39755082 -26.37643413 155.24719502 -26.38635 143.09681692 C-26.39588966 131.14791849 -26.39445716 119.19906404 -26.38214377 107.25016784 C-26.37586452 100.85901036 -26.37434533 94.46794875 -26.38600711 88.07679667 C-26.39652106 82.26130418 -26.39320114 76.44598907 -26.37890258 70.63050615 C-26.37617664 68.54106381 -26.37846094 66.45160728 -26.38640973 64.36217828 C-26.43682211 50.13859698 -26.14637689 36.45248486 -19.1875 23.625 C-18.65866211 22.61469727 -18.65866211 22.61469727 -18.11914062 21.58398438 C-6.58395596 0 -6.58395596 0 0 0 Z " fill="#FCFCFC" transform="translate(860,535)"/>
<path d="M0 0 C1.29910812 -0.00571014 2.59821625 -0.01142029 3.93669128 -0.01730347 C5.35932913 -0.01854857 6.78196708 -0.01967372 8.2046051 -0.02069092 C9.71660481 -0.02532508 11.22860337 -0.03035054 12.74060059 -0.03573608 C16.83617066 -0.04880918 20.93172438 -0.0552957 25.02731204 -0.05974674 C27.59322306 -0.06268724 30.15912972 -0.06679397 32.72503853 -0.07125092 C40.77359826 -0.08491582 48.82214789 -0.09458597 56.87071842 -0.09845281 C66.12272558 -0.1029236 75.37458427 -0.12043014 84.62654632 -0.1494534 C91.80225272 -0.17117188 98.97791767 -0.18116257 106.15365654 -0.18249393 C110.42757362 -0.18353521 114.70135097 -0.18929647 118.97523308 -0.20731354 C123.0046375 -0.22396987 127.03379981 -0.22586606 131.0632267 -0.21717453 C132.52878347 -0.21641329 133.99435422 -0.22062356 135.45987701 -0.23063278 C148.59787197 -0.31498009 161.57271933 1.23850945 173.96852112 5.82794189 C175.01580383 6.20922241 175.01580383 6.20922241 176.08424377 6.59820557 C187.85890684 11.06551755 197.98597773 17.7128407 207.34352112 26.14044189 C208.11180237 26.82622314 208.88008362 27.51200439 209.67164612 28.21856689 C225.58334695 43.24010265 235.02140374 62.91575834 239.34352112 84.14044189 C239.5187433 84.69813766 239.69396547 85.25583344 239.87449741 85.83042908 C240.58094944 89.30981237 240.49878678 92.78746541 240.50415039 96.32330322 C240.51178212 97.57142194 240.51178212 97.57142194 240.51956803 98.84475517 C240.53528352 101.63732619 240.54381529 104.42987134 240.55226135 107.22247314 C240.5618007 109.22327335 240.5716919 111.22407191 240.58190918 113.22486877 C240.61329039 119.80087325 240.63356328 126.37689034 240.65211487 132.95294189 C240.65541219 134.07245995 240.65870951 135.191978 240.66210675 136.34542084 C240.69289176 146.90802368 240.71959392 157.47062941 240.73652554 168.03326416 C240.75841935 181.53236762 240.80036356 195.03107269 240.86996311 208.5300169 C240.91726328 218.02744415 240.9414673 227.52476416 240.94872242 237.02230549 C240.95367025 242.69132221 240.96866873 248.35988987 241.00846672 254.02877808 C241.04545155 259.36739418 241.05370373 264.70530695 241.04046059 270.04402733 C241.04051434 271.99666348 241.05073108 273.94933175 241.07221222 275.90184975 C241.19678283 287.8707032 240.80487563 297.95706136 232.34819698 307.35873413 C224.50808142 315.04582432 215.92364562 316.73476884 205.26757812 316.64837646 C204.07721909 316.65461643 202.88686006 316.66085639 201.66042954 316.66728544 C198.3781462 316.68042358 195.09646072 316.67577186 191.81419289 316.66334057 C188.26607629 316.65425738 184.71803798 316.66827586 181.16993713 316.67926025 C174.22812544 316.69701481 167.28648707 316.69321939 160.34466868 316.68160969 C154.7018214 316.67256427 149.05902258 316.67135615 143.41617012 316.67570496 C142.61206919 316.67631789 141.80796826 316.67693082 140.97950064 316.67756233 C139.34583328 316.67884127 137.71216594 316.68013812 136.07849861 316.68145269 C120.77229825 316.69284932 105.46619384 316.67975882 90.16000921 316.65825123 C77.03371321 316.64037765 63.90755871 316.64348824 50.78126526 316.66192627 C35.52708182 316.68334332 20.27298238 316.69175436 5.01878601 316.67947721 C3.39154281 316.67820305 1.76429958 316.67694557 0.13705635 316.67570496 C-1.0638069 316.6747793 -1.0638069 316.6747793 -2.28893002 316.67383495 C-7.92387798 316.67038481 -13.55877254 316.67620307 -19.19371223 316.68562317 C-26.06237468 316.69685367 -32.93085432 316.69378096 -39.79949588 316.67250019 C-43.30233772 316.66200431 -46.80487503 316.65784267 -50.30771446 316.6710968 C-54.10795356 316.68202173 -57.90733512 316.66832349 -61.70751953 316.64837646 C-63.36175575 316.6617608 -63.36175575 316.6617608 -65.04941088 316.67541552 C-74.60195568 316.57811279 -80.84042454 313.51942488 -87.89866638 307.07012939 C-90.61607394 304.08701976 -92.18173955 300.86379367 -93.65647888 297.14044189 C-94.16761703 296.09341362 -94.16761703 296.09341362 -94.68908119 295.02523327 C-95.93023027 291.32411202 -95.93964349 287.84926226 -95.92390442 283.99159241 C-95.92843553 283.17514289 -95.93296664 282.35869337 -95.93763506 281.51750296 C-95.95028811 278.78344123 -95.94865804 276.04957848 -95.94700623 273.31549072 C-95.95299139 271.35383346 -95.95979691 269.39217855 -95.96736145 267.43052673 C-95.98504178 262.09919316 -95.98971803 256.76792379 -95.99099302 251.43656373 C-95.99241541 248.09976362 -95.99668693 244.76297977 -96.00198746 241.4261837 C-96.02050292 229.7668797 -96.02865723 218.10762143 -96.02708435 206.44830322 C-96.02588642 195.61316321 -96.04691619 184.77822353 -96.07857168 173.94313413 C-96.10482863 164.62052667 -96.11544753 155.29798417 -96.11417353 145.97534007 C-96.11366614 140.41693284 -96.11922363 134.85870315 -96.14052963 129.30033302 C-96.16006799 124.05944669 -96.15993107 118.81890417 -96.14549637 113.57800484 C-96.14342552 111.66822551 -96.1480045 109.7584238 -96.16021729 107.8486824 C-96.32829008 79.71319319 -88.25304084 53.22810198 -68.26976013 32.78106689 C-67.40737732 31.90966064 -66.54499451 31.03825439 -65.65647888 30.14044189 C-64.99003357 29.41341064 -64.32358826 28.68637939 -63.63694763 27.93731689 C-47.79963798 10.99973099 -23.20053853 0.06144586 0 0 Z M-41.65647888 43.14044189 C-42.69868591 43.91968018 -42.69868591 43.91968018 -43.76194763 44.71466064 C-58.73784221 56.58178669 -66.7655659 75.72586674 -69.65647888 94.14044189 C-70.29755991 100.65655354 -70.1959887 107.19957687 -70.15818787 113.73956299 C-70.1619815 115.63866067 -70.16749007 117.53775556 -70.17456055 119.43684387 C-70.18838294 124.53723613 -70.17744551 129.63728615 -70.16084933 134.73765898 C-70.14689675 140.09202494 -70.15346937 145.4463731 -70.15698242 150.80075073 C-70.15967325 159.77276065 -70.14629515 168.74463589 -70.12303162 177.71661377 C-70.09631523 188.09217573 -70.09471488 198.46751433 -70.10641998 208.843099 C-70.11718364 218.84430768 -70.11102915 228.84543549 -70.0968647 238.84663773 C-70.09110404 243.09779393 -70.09118792 247.34889098 -70.0959301 251.60004807 C-70.10068982 256.59233899 -70.09064024 261.58438369 -70.06897545 266.57662773 C-70.06339786 268.41046379 -70.06295115 270.24432346 -70.06792831 272.07816124 C-70.07385654 274.57473254 -70.06142503 277.0705444 -70.04415894 279.56704712 C-70.05016898 280.29766558 -70.05617903 281.02828404 -70.06237119 281.78104246 C-70.0535673 285.5418877 -70.0535673 285.5418877 -68.42660862 288.82533479 C-66.13246218 290.52975691 -64.79843044 290.51631948 -61.9540863 290.51796532 C-60.98157928 290.52578856 -60.00907227 290.5336118 -59.00709534 290.54167211 C-57.93619659 290.53497995 -56.86529785 290.52828778 -55.76194763 290.52139282 C-54.6262735 290.52607279 -53.49059937 290.53075277 -52.32051086 290.53557456 C-48.49488326 290.54759115 -44.66960948 290.5380411 -40.84397888 290.52862549 C-38.10951493 290.53103712 -35.37506626 290.53791942 -32.64060974 290.54455566 C-25.97239595 290.5579156 -19.30428329 290.55500524 -12.63606548 290.54631774 C-7.2180568 290.53955047 -1.80007651 290.53862032 3.61793518 290.54188919 C4.77335186 290.54257874 4.77335186 290.54257874 5.95211029 290.54328222 C7.5167745 290.54424137 9.08143871 290.54521401 10.64610291 290.54619999 C25.32785686 290.5547605 40.00955469 290.5449094 54.69129944 290.52879889 C67.29675562 290.5153951 79.90212893 290.51772301 92.50758362 290.53155518 C107.13577134 290.54759934 121.76390982 290.55393647 136.3921051 290.54471838 C137.95110575 290.54376271 139.5101064 290.5428196 141.06910706 290.54188919 C141.83622261 290.54142636 142.60333817 290.54096354 143.39369965 290.54048669 C148.80699848 290.5378933 154.22026617 290.54227529 159.63356018 290.54932785 C166.22799946 290.55773014 172.82233158 290.55548961 179.41675854 290.53948562 C182.7832458 290.53158555 186.14940564 290.53014745 189.51591492 290.53843307 C193.16045411 290.5465786 196.80448353 290.53641138 200.44898987 290.52139282 C201.51988861 290.52808499 202.59078735 290.53477715 203.69413757 290.54167211 C204.66664459 290.53384887 205.63915161 290.52602563 206.64112854 290.51796532 C207.48286118 290.51747826 208.32459381 290.5169912 209.1918335 290.51648939 C211.86902765 290.04859984 212.75377661 289.31984128 214.34352112 287.14044189 C214.64036698 284.52239655 214.75261122 282.14138404 214.73120117 279.52235413 C214.73658671 278.73887075 214.74197225 277.95538737 214.74752098 277.14816207 C214.7618673 274.51367592 214.7546802 271.87968756 214.74757385 269.24517822 C214.7532745 267.35938613 214.76023757 265.4735975 214.76837158 263.58781433 C214.78636672 258.45480053 214.7851209 253.32195713 214.7794292 248.18892121 C214.77634183 243.89810442 214.78242584 239.60732058 214.78846794 235.31650847 C214.80253678 225.18007379 214.80093658 215.0437233 214.78956604 204.9072876 C214.77812448 194.47771427 214.79208818 184.04839928 214.81896251 173.61886007 C214.84119802 164.65130174 214.84773803 155.68382401 214.8418861 146.71624011 C214.83852895 141.36690932 214.84084664 136.01774348 214.85813713 130.66843605 C214.87372587 125.62454829 214.86951975 120.58103817 214.85083199 115.53716469 C214.84717666 113.69750536 214.85016395 111.85781735 214.86071777 110.01818466 C214.93847678 95.32785503 213.40184284 81.33950351 206.34352112 68.14044189 C205.87430237 67.22134033 205.40508362 66.30223877 204.92164612 65.35528564 C196.02535968 48.93951899 182.02507076 36.4838227 164.34352112 30.14044189 C156.34217383 27.77188387 148.42751304 26.02315377 140.05958557 26 C138.81786087 25.99428986 137.57613617 25.98857971 136.29678345 25.98269653 C134.93345652 25.98145138 133.57012948 25.98032624 132.20680237 25.97930908 C130.76066971 25.97467593 129.31453825 25.9696506 127.8684082 25.96426392 C123.94852745 25.95118142 120.0286638 25.94470249 116.10876465 25.94025326 C113.65393345 25.9373144 111.19910683 25.93320797 108.74427795 25.92874908 C101.0470488 25.91508194 93.34983024 25.90541278 85.6525898 25.90154719 C76.79900328 25.89707531 67.94557183 25.87956465 59.09203243 25.8505466 C52.22890127 25.82884184 45.36581343 25.81883816 38.50264835 25.81750607 C34.41321906 25.81646385 30.32393567 25.81068209 26.23454285 25.79268646 C22.37997978 25.77605404 18.52566989 25.77412271 14.67108345 25.78282547 C13.26757688 25.78358795 11.86405584 25.77935932 10.46058464 25.76936722 C-9.380842 25.63655586 -26.15031271 30.60196303 -41.65647888 43.14044189 Z " fill="#010201" transform="translate(903.6564788818359,144.85955810546875)"/>
<path d="M0 0 C8.25 0 16.5 0 25 0 C25 343.86 25 687.72 25 1042 C11 1044 11 1044 0 1044 C0 699.48 0 354.96 0 0 Z " fill="#F9F9F9" transform="translate(989,520)"/>
<path d="M0 0 C8.25 0 16.5 0 25 0 C25 344.52 25 689.04 25 1044 C15 1044 15 1044 0 1042 C0 698.14 0 354.28 0 0 Z " fill="#FDFDFD" transform="translate(938,520)"/>
<path d="M0 0 C0 341.55 0 683.1 0 1035 C-7.8768 1033.87474286 -7.8768 1033.87474286 -11.11328125 1032.625 C-12.1487207 1032.23054688 -12.1487207 1032.23054688 -13.20507812 1031.828125 C-13.90052734 1031.55484375 -14.59597656 1031.2815625 -15.3125 1031 C-16.02728516 1030.72671875 -16.74207031 1030.4534375 -17.47851562 1030.171875 C-22.57882653 1028.21058673 -22.57882653 1028.21058673 -25 1027 C-25 688.42 -25 349.84 -25 1 C-16.90901413 -1.02274647 -8.33999734 0 0 0 Z " fill="#FAFAFA" transform="translate(912,520)"/>
<path d="M0 0 C21 0 21 0 24 1 C24 339.91 24 678.82 24 1028 C4 1035 4 1035 0 1035 C0 693.45 0 351.9 0 0 Z " fill="#FEFEFE" transform="translate(1041,520)"/>
<path d="M0 0 C1.74833708 0.47326894 3.49641515 0.9474948 5.24438477 1.42211914 C6.21787369 1.68610001 7.19136261 1.95008087 8.1943512 2.22206116 C10.50560362 2.86291579 12.79998071 3.533506 15.08984375 4.24609375 C22.67826926 6.60695886 30.27064242 8.61161021 38.0625 10.1875 C38.81587646 10.34210693 39.56925293 10.49671387 40.34545898 10.65600586 C42.89113146 11.15031902 45.44006539 11.58547767 48 12 C49.67690918 12.27251587 49.67690918 12.27251587 51.38769531 12.55053711 C62.15909196 14.10455413 72.79271257 14.27519831 83.6640625 14.20581055 C86.62769175 14.18748335 89.59100721 14.18530227 92.5546875 14.18554688 C107.47267435 14.15974314 121.90781802 13.4813489 136.625 10.8125 C137.83051514 10.5969043 139.03603027 10.38130859 140.27807617 10.15917969 C150.03459722 8.33853219 159.43303315 5.81173307 168.8137207 2.58496094 C171.81546857 1.78181321 174.92389438 1.43944366 178 1 C178 43.24 178 85.48 178 129 C162.53826324 134.3779954 147.96963705 139.2245427 132 142 C131.07155273 142.16371094 130.14310547 142.32742188 129.18652344 142.49609375 C91.17446123 148.8687429 33.49297501 150.32865001 0 128 C-0.36914349 125.75488091 -0.36914349 125.75488091 -0.36076355 122.90011597 C-0.36488754 121.82035492 -0.36901154 120.74059387 -0.3732605 119.62811279 C-0.36247467 118.43840881 -0.35168884 117.24870483 -0.34057617 116.02294922 C-0.34101425 114.77420013 -0.34145233 113.52545105 -0.34190369 112.23886108 C-0.34016847 108.80912575 -0.32509618 105.37992836 -0.30418181 101.9502883 C-0.28546141 98.36817087 -0.28366825 94.78604673 -0.28010559 91.20388794 C-0.27077144 84.41818579 -0.24613925 77.63262818 -0.21605712 70.84698975 C-0.18255561 63.12280602 -0.16603782 55.39861547 -0.15097082 47.6743772 C-0.11959079 31.78283435 -0.06680383 15.89143579 0 0 Z " fill="#FEFEFD" transform="translate(887,1575)"/>
<path d="M0 0 C1.30791492 2.15421281 2.05404924 3.44795461 1.8046875 5.99487305 C0.73535604 8.65944201 -0.37605694 9.09773306 -2.9375 10.33203125 C-3.74598389 10.73429932 -4.55446777 11.13656738 -5.38745117 11.55102539 C-6.24959229 11.96731201 -7.1117334 12.38359863 -8 12.8125 C-14.88978321 16.29596929 -21.3599612 19.63421256 -27 25 C-27.70253906 25.66257812 -28.40507813 26.32515625 -29.12890625 27.0078125 C-35.55989603 33.61645393 -40.05429857 41.64350027 -40.625 51 C-40.01975882 60.68385887 -35.26665862 68.85702583 -28.625 75.6953125 C5.85711431 105.96978786 63.13868104 111.30340712 107 115 C107.81195831 115.08177994 108.62391663 115.16355988 109.46047974 115.24781799 C118.37179187 116.09296196 127.25336605 116.19733498 136.1953125 116.23828125 C137.00846672 116.24314608 137.82162094 116.2480109 138.6594162 116.25302315 C144.8146056 116.2894535 150.96971162 116.30572183 157.125 116.3125 C158.02755775 116.31365059 158.93011551 116.31480118 159.8600235 116.31598663 C187.08379266 116.34014085 214.02231973 116.04233961 241 112 C242.11985291 111.83664154 242.11985291 111.83664154 243.2623291 111.66998291 C262.86421327 108.80226701 282.01367868 104.7198539 301 99 C301.8549707 98.74750488 302.70994141 98.49500977 303.59082031 98.23486328 C322.862592 92.48100564 346.22184672 83.47444625 356.59765625 65.18359375 C360.38121463 57.10005816 361.94324892 49.39201834 358.85546875 40.82421875 C351.07631728 24.34226986 337.7792192 17.57611518 322 10 C320.66498636 9.33670458 319.33059274 8.67211992 318 8 C319.875 1.125 319.875 1.125 321 0 C350.27974145 1.9822674 389.09743424 21.76726279 409.50390625 43.140625 C414.57979035 49.44903448 418.54239558 56.06334746 418.39453125 64.34375 C416.64042525 76.1535726 407.8513257 84.43095475 398.8984375 91.421875 C357.94826493 121.21193513 300.97173403 131.32789331 251.85205078 137.51464844 C249.21199565 137.8472907 246.57671405 138.19296203 243.94091797 138.55566406 C217.0013398 142.19107419 190.01278602 142.40394536 162.87757874 142.43345642 C160.04804417 142.43743249 157.21855836 142.44628844 154.38903809 142.45593262 C79.37854047 142.65964388 -30.15768299 139.05557213 -87 83 C-93.40460352 76.49872322 -97.05778885 71.05757222 -97.5625 61.6875 C-97.32994141 52.87049596 -93.33761604 47.30311559 -87.5 41 C-68.03358552 22.67650001 -42.42392993 12.34951412 -17.5 3.9375 C-16.33621826 3.54304688 -15.17243652 3.14859375 -13.97338867 2.7421875 C-12.87873291 2.38253906 -11.78407715 2.02289062 -10.65625 1.65234375 C-9.68494141 1.33257568 -8.71363281 1.01280762 -7.71289062 0.68334961 C-5.02300738 0.00579533 -2.76028266 -0.1328025 0 0 Z " fill="#FCFCFB" transform="translate(816,1878)"/>
<path d="M0 0 C5.00195966 0.59974222 9.95702445 1.29340872 14.921875 2.15625 C16.19546875 2.37410156 17.4690625 2.59195312 18.78125 2.81640625 C21.41211672 3.26850539 24.042084 3.72521385 26.671875 4.18359375 C59.6726429 9.80570038 92.30669946 6.57067617 124.9765625 0.31958008 C127 0 127 0 130 0 C130.09309203 9.19758785 130.16396228 18.39501102 130.20724869 27.59296894 C130.22803457 31.86496555 130.25618527 36.13663746 130.30175781 40.40844727 C130.34553989 44.53874546 130.3692046 48.66873331 130.37950897 52.79924583 C130.38684278 54.36716782 130.40116247 55.93507476 130.42292023 57.50286293 C130.57987438 69.29206023 129.46339989 79.70973796 121.7734375 89.21484375 C115.82253156 95.20507285 108.77185874 99.1873587 100.26293945 99.29327393 C99.52672363 99.29236755 98.79050781 99.29146118 98.03198242 99.29052734 C97.24430984 99.29724457 96.45663727 99.30396179 95.64509583 99.31088257 C93.04848877 99.32983567 90.45214062 99.33378553 87.85546875 99.3359375 C86.04331864 99.34236779 84.23116956 99.34909632 82.41902161 99.35610962 C78.62201532 99.36807601 74.82509998 99.37179115 71.02807617 99.37060547 C66.1759447 99.37040243 61.32439992 99.39769181 56.47240734 99.43214989 C52.72932792 99.45445021 48.98638893 99.45844203 45.24324989 99.45738602 C43.45517266 99.45973774 41.6670913 99.46853706 39.87907982 99.48405075 C37.37104279 99.50377268 34.86426088 99.49784889 32.35620117 99.48583984 C31.62605804 99.49707886 30.89591492 99.50831787 30.14364624 99.51989746 C21.63420963 99.41699684 15.22929564 95.05422072 9.1171875 89.41796875 C2.35756194 81.69802738 -0.13161225 73.04479993 -0.11352539 63.0065918 C-0.11374443 61.98137169 -0.11374443 61.98137169 -0.1139679 60.93544006 C-0.11327462 58.68999999 -0.10550974 56.44464423 -0.09765625 54.19921875 C-0.09578999 52.63694809 -0.09436707 51.07467685 -0.09336853 49.5124054 C-0.08955972 45.41069916 -0.07974346 41.30902861 -0.06866455 37.20733643 C-0.0584152 33.01778649 -0.05386337 28.82823075 -0.04882812 24.63867188 C-0.03811967 16.42576491 -0.02106297 8.2128869 0 0 Z " fill="#FDFDFD" transform="translate(911,1739)"/>
<path d="M0 0 C0.4640625 0.31710937 0.928125 0.63421875 1.40625 0.9609375 C3.92413337 2.66144829 6.46026925 4.33226558 9 6 C9.8367627 6.55469971 9.8367627 6.55469971 10.69042969 7.12060547 C37.59206326 24.85818663 68.02915834 34.81549815 99 43 C100.20027832 43.32025146 100.20027832 43.32025146 101.42480469 43.64697266 C137.11638269 53.0321721 174.2744968 56.60669956 211 59 C212.11165527 59.07347656 213.22331055 59.14695312 214.36865234 59.22265625 C221.57743608 59.67045118 228.77904094 59.87252241 236 60 C236.74759583 60.01567017 237.49519165 60.03134033 238.26544189 60.04748535 C282.13052177 60.96473892 326.67144856 59.32441537 370 52 C370.65258789 51.89065125 371.30517578 51.78130249 371.97753906 51.66864014 C394.46064667 47.89304775 417.07684707 44.01221272 438.73535156 36.74951172 C441.35507376 35.88248421 443.98564214 35.05309213 446.6171875 34.22265625 C459.8544444 29.99620675 472.520608 25.11539927 485 19 C485.7645752 18.6272998 486.52915039 18.25459961 487.31689453 17.87060547 C496.09512853 13.54256589 504.09987798 8.83283395 511.77734375 2.75 C514 1 514 1 516 0 C515.61141386 10.4918258 509.42154836 18.89870607 502 26 C478.95875988 45.68914546 449.40273766 55.04779303 421 64 C419.64261719 64.4333667 419.64261719 64.4333667 418.2578125 64.87548828 C403.18795623 69.6298222 387.52830627 72.21358616 372 75 C370.40019287 75.29221436 370.40019287 75.29221436 368.76806641 75.59033203 C361.20460071 76.94882457 353.62025581 78.01475881 346 79 C344.66269292 79.18473336 343.32545556 79.36997205 341.98828125 79.55566406 C283.43864794 87.50053035 220.42694688 86.10251669 162 78 C161.25121582 77.89860718 160.50243164 77.79721436 159.73095703 77.69274902 C150.74582628 76.46997211 141.86911622 74.88881592 133 73 C131.60908837 72.70944918 130.21813574 72.41909457 128.82714844 72.12890625 C87.19187573 63.38058507 30.55616812 50.8405197 4 14 C1.31763069 9.26406605 -0.24061692 5.4956904 0 0 Z " fill="#FBFBFB" transform="translate(718,1986)"/>
<path d="M0 0 C1.71544733 1.55823653 3.27980723 3.2290156 4.875 4.91015625 C22.68960805 22.43003733 48.48828567 33.07124617 73.38400269 33.14044189 C75.24214851 33.14900711 75.24214851 33.14900711 77.13783264 33.15774536 C78.49276723 33.15899045 79.84770194 33.1601156 81.20263672 33.16113281 C82.64404933 33.1657675 84.08546073 33.17079303 85.52687073 33.17617798 C89.4303653 33.1892475 93.3338427 33.19573709 97.23735571 33.20018864 C99.68400772 33.20313019 102.13065515 33.20723715 104.57730484 33.21169281 C112.25478113 33.22535783 119.93224682 33.23502748 127.60973442 33.2388947 C136.4293209 33.24336316 145.24875146 33.26085866 154.06829059 33.2898953 C160.91195605 33.31163265 167.75557806 33.32160548 174.59927762 33.32293582 C178.67369738 33.32397593 182.7479704 33.32971114 186.82235336 33.34775543 C208.76280486 33.43943311 228.53128898 32.86922321 249 24 C250.07121094 23.5359375 251.14242188 23.071875 252.24609375 22.59375 C263.42849742 17.3588146 272.51670559 10.11147308 280.55078125 0.7734375 C283 -1 283 -1 286.3046875 -0.9921875 C290.42694783 0.11463504 294.01889571 1.568928 297.8125 3.5 C298.50593506 3.85239746 299.19937012 4.20479492 299.91381836 4.56787109 C305.8426557 7.70411517 312.19673662 11.33887651 316 17 C315.84205747 20.81933747 315.40003108 22.49996116 313 25.5 C304.46466255 32.61278121 295.22414552 36.8758278 285 41 C283.8759375 41.45503906 282.751875 41.91007812 281.59375 42.37890625 C262.26183232 49.72043213 241.38541852 53.07752129 221 56 C220.31190247 56.10030518 219.62380493 56.20061035 218.91485596 56.30395508 C192.9120035 60.04433357 166.90443515 60.37205764 140.6875 60.375 C139.48176456 60.37646719 139.48176456 60.37646719 138.25167084 60.37796402 C111.57057879 60.40904036 84.80725766 60.14215605 58.4375 55.625 C57.08456607 55.40088389 55.73153628 55.17734587 54.37841797 54.9543457 C50.58205518 54.32301149 46.79104235 53.66254813 43 53 C42.03239746 52.83773926 41.06479492 52.67547852 40.06787109 52.50830078 C17.04059368 48.62247455 -12.51456616 42.61511813 -30 26 C-30.72960937 25.33097656 -31.45921875 24.66195313 -32.2109375 23.97265625 C-34 22 -34 22 -34.25 19.1875 C-30.2948418 9.1018466 -16.53302056 3.85308548 -7.19140625 -0.2265625 C-4.17891188 -1.28979581 -2.98759129 -1.20926314 0 0 Z " fill="#FCFCFC" transform="translate(835,1909)"/>
<path d="M0 0 C5.53385233 3.20963435 9.96473516 7.68791937 12.125 13.8125 C13.02673716 19.39826073 12.89430185 24.23253017 10 29.1875 C6.10889498 34.53639929 1.74896921 38.38380076 -4.875 39.8125 C-11.33039428 40.5938792 -16.61423535 39.80228159 -21.875 35.8125 C-27.74355879 29.47190496 -29.24548478 24.40354281 -29.15234375 15.82421875 C-28.63191984 10.17285492 -26.10623149 6.71575151 -21.875 3 C-15.25245276 -1.8289407 -7.86857721 -3.04366943 0 0 Z " fill="#040505" transform="translate(1070.875,198.1875)"/>
<path d="M0 0 C5.00988597 2.82165991 9.33699082 6.84882901 11.6640625 12.1484375 C12.77650072 18.99421118 12.48392213 25.53784945 8.859375 31.5703125 C5.40644171 36.12908717 1.00256928 38.33877419 -4.3359375 40.1484375 C-10.65886133 40.85098459 -15.1071717 39.84314391 -20.3359375 36.1484375 C-25.59653348 31.23699612 -28.57897546 26.22185568 -28.8359375 18.8984375 C-28.70043617 12.61456334 -26.58079816 8.69389988 -22.3359375 4.1484375 C-16.16593179 -1.70621236 -7.99612999 -2.91497715 0 0 Z " fill="#040404" transform="translate(1013.3359375,197.8515625)"/>
<path d="M0 0 C4.53571343 1.42550994 7.13977427 3.17692601 10 7 C10.77611537 10.98857137 10.74334407 14.88516289 10.6875 18.9375 C10.71521484 20.00935547 10.74292969 21.08121094 10.77148438 22.18554688 C10.74433295 30.95545559 10.74433295 30.95545559 6.95703125 34.75390625 C5.49330078 35.86572266 5.49330078 35.86572266 4 37 C7.21643199 33.34826143 9.32076817 31.32228205 14.16748047 30.39208984 C17.94023007 30.1558104 21.65797321 30.13266945 25.4375 30.1875 C26.72205078 30.15591797 28.00660156 30.12433594 29.33007812 30.09179688 C36.77670683 30.11865231 41.3460281 30.82499273 46.76196289 36.10668945 C48 38 48 38 48 42 C45.54754413 44.9153858 43.84278068 45.01537006 40.02929688 45.38818359 C38.42589928 45.40793681 36.82222528 45.41031407 35.21875 45.3984375 C34.36825073 45.40130768 33.51775146 45.40417786 32.64147949 45.40713501 C30.84610324 45.40917343 29.05070467 45.40365906 27.25537109 45.39111328 C24.50958528 45.37505605 21.76527137 45.39096903 19.01953125 45.41015625 C17.27343426 45.40817378 15.52733818 45.40433002 13.78125 45.3984375 C12.96136597 45.40451019 12.14148193 45.41058289 11.29675293 45.4168396 C7.9170186 45.37520262 5.44447284 45.24411947 2.45117188 43.60009766 C1 42 1 42 1 40 C0.38125 39.896875 -0.2375 39.79375 -0.875 39.6875 C-3 39 -3 39 -5 36 C-5.43287617 31.61053214 -5.4140628 27.21183967 -5.42553711 22.80371094 C-5.43742412 20.6388192 -5.48659944 18.47678929 -5.53710938 16.3125 C-5.54657566 14.92970136 -5.55380972 13.54688527 -5.55859375 12.1640625 C-5.57204834 10.91061035 -5.58550293 9.6571582 -5.59936523 8.36572266 C-4.8499834 4.15758497 -3.22950859 2.68864507 0 0 Z " fill="#080808" transform="translate(979,311)"/>
<path d="M0 0 C4.54465567 4.25145208 7.13183634 10.54092849 10 16 C13.00928741 13.40766205 14.44495881 10.37543035 16.25 6.875 C19.40350996 1.33125 19.40350996 1.33125 21.94140625 -0.078125 C23.8125 -0.375 23.8125 -0.375 27 0 C29.66896431 2.66896431 29.23824462 4.67123407 29.25224304 8.29957581 C29.24505753 9.16106735 29.23787201 10.0225589 29.23046875 10.91015625 C29.23001053 11.79279648 29.22955231 12.67543671 29.2290802 13.58482361 C29.22605687 15.45182641 29.21816817 17.31882667 29.20581055 19.18579102 C29.18755226 22.05428939 29.18530084 24.92246521 29.18554688 27.79101562 C29.18063188 29.60156531 29.17480364 31.41211279 29.16796875 33.22265625 C29.16685593 34.08617203 29.1657431 34.94968781 29.16459656 35.83937073 C29.11604615 41.88395385 29.11604615 41.88395385 28 43 C25.69 43 23.38 43 21 43 C20.505 30.13 20.505 30.13 20 17 C18.9275 18.959375 17.855 20.91875 16.75 22.9375 C13.55 28.78365385 13.55 28.78365385 10.765625 29.87890625 C10.18296875 29.91886719 9.6003125 29.95882813 9 30 C8.20602761 28.75146327 7.41492783 27.50109957 6.625 26.25 C6.18414063 25.55390625 5.74328125 24.8578125 5.2890625 24.140625 C4.08067557 22.13397034 3.03454124 20.09984951 2 18 C1.97494385 18.72179443 1.9498877 19.44358887 1.92407227 20.18725586 C1.80848698 23.437535 1.68559226 26.68749688 1.5625 29.9375 C1.52318359 31.07380859 1.48386719 32.21011719 1.44335938 33.38085938 C1.40146484 34.46044922 1.35957031 35.54003906 1.31640625 36.65234375 C1.26141968 38.15269165 1.26141968 38.15269165 1.20532227 39.68334961 C1 42 1 42 0 43 C-3 43.125 -3 43.125 -6 43 C-7 42 -7 42 -7.11352539 38.12280273 C-7.11336621 36.39305833 -7.10766849 34.66330919 -7.09765625 32.93359375 C-7.0962413 32.02497086 -7.09482635 31.11634796 -7.09336853 30.18019104 C-7.08775193 27.26592779 -7.07519665 24.35174019 -7.0625 21.4375 C-7.05748714 19.46679798 -7.05292386 17.49609476 -7.04882812 15.52539062 C-7.03777711 10.68356441 -7.02050138 5.84179505 -7 1 C-4.37869511 -0.31065245 -2.90828303 -0.415469 0 0 Z " fill="#070707" transform="translate(981,375)"/>
<path d="M0 0 C1.17369141 -0.03673828 1.17369141 -0.03673828 2.37109375 -0.07421875 C7.99554357 -0.10220109 12.83946984 0.85924452 17.375 4.375 C20.23933305 9.09450726 20.01170316 14.00961115 19.375 19.375 C17.34703572 23.50335586 15.66603689 25.76586116 11.375 27.375 C8.140625 27.5703125 8.140625 27.5703125 4.625 27.5 C2.86929687 27.47292969 2.86929687 27.47292969 1.078125 27.4453125 C0.18609375 27.42210937 -0.7059375 27.39890625 -1.625 27.375 C-1.61339844 28.44621094 -1.60179687 29.51742188 -1.58984375 30.62109375 C-1.58046701 32.01822743 -1.57136669 33.41536299 -1.5625 34.8125 C-1.55412109 35.51955078 -1.54574219 36.22660156 -1.53710938 36.95507812 C-1.52846412 38.76193559 -1.57279989 40.56887603 -1.625 42.375 C-2.625 43.375 -2.625 43.375 -6.125 43.5 C-9.625 43.375 -9.625 43.375 -10.625 42.375 C-10.73853016 39.44134254 -10.78918708 36.53211538 -10.79296875 33.59765625 C-10.79629715 32.71597275 -10.79962555 31.83428925 -10.80305481 30.92588806 C-10.80812783 29.05712406 -10.81046302 27.18835096 -10.81030273 25.31958008 C-10.81248808 22.45313656 -10.83063655 19.5870784 -10.84960938 16.72070312 C-10.85254339 14.90885549 -10.85452813 13.09700602 -10.85546875 11.28515625 C-10.86265427 10.4236647 -10.86983978 9.56217316 -10.87724304 8.67457581 C-10.8435338 -0.06273882 -7.87334635 0.01259735 0 0 Z " fill="#0E0E0E" transform="translate(1027.625,374.625)"/>
<path d="M0 0 C1.0305249 0.00410889 2.0610498 0.00821777 3.12280273 0.01245117 C4.23977539 0.01438477 5.35674805 0.01631836 6.50756836 0.01831055 C8.26423828 0.03667969 8.26423828 0.03667969 10.05639648 0.05541992 C11.23137695 0.05606445 12.40635742 0.05670898 13.61694336 0.05737305 C22.35377508 0.10279852 22.35377508 0.10279852 23.49389648 1.24291992 C23.61889648 3.74291992 23.61889648 3.74291992 23.49389648 6.24291992 C22.49389648 7.24291992 22.49389648 7.24291992 20.72802734 7.35644531 C19.9791626 7.3512085 19.23029785 7.34597168 18.45874023 7.34057617 C17.64985352 7.33735352 16.8409668 7.33413086 16.00756836 7.33081055 C15.15743164 7.32243164 14.30729492 7.31405273 13.43139648 7.30541992 C12.57739258 7.3009082 11.72338867 7.29639648 10.84350586 7.29174805 C8.72693985 7.27992366 6.61040963 7.26198761 4.49389648 7.24291992 C4.49389648 10.87291992 4.49389648 14.50291992 4.49389648 18.24291992 C6.12327148 18.22229492 7.75264648 18.20166992 9.43139648 18.18041992 C11.11888989 18.15905925 12.80780683 18.17086481 14.49389648 18.24291992 C15.49389648 19.24291992 15.49389648 19.24291992 15.61889648 21.74291992 C15.49389648 24.24291992 15.49389648 24.24291992 14.49389648 25.24291992 C11.15771417 25.38549182 7.83414042 25.28520149 4.49389648 25.24291992 C4.49389648 28.87291992 4.49389648 32.50291992 4.49389648 36.24291992 C5.78166992 36.23131836 7.06944336 36.2197168 8.39624023 36.20776367 C10.07462421 36.19838723 11.75300974 36.18928687 13.43139648 36.18041992 C14.70660156 36.16785156 14.70660156 36.16785156 16.00756836 36.1550293 C16.81645508 36.15180664 17.6253418 36.14858398 18.45874023 36.14526367 C19.20760498 36.14002686 19.95646973 36.13479004 20.72802734 36.12939453 C22.49389648 36.24291992 22.49389648 36.24291992 23.49389648 37.24291992 C23.53470431 39.24250356 23.53644005 41.24337246 23.49389648 43.24291992 C19.0147432 43.27178331 14.53561357 43.2896718 10.05639648 43.30541992 C8.77700195 43.31379883 7.49760742 43.32217773 6.17944336 43.33081055 C4.96450195 43.3340332 3.74956055 43.33725586 2.49780273 43.34057617 C1.37188721 43.34581299 0.24597168 43.3510498 -0.9140625 43.35644531 C-3.50610352 43.24291992 -3.50610352 43.24291992 -4.50610352 42.24291992 C-4.61963367 39.30926246 -4.67029059 36.4000353 -4.67407227 33.46557617 C-4.67740067 32.58389267 -4.68072906 31.70220917 -4.68415833 30.79380798 C-4.68923135 28.92504398 -4.69156654 27.05627088 -4.69140625 25.1875 C-4.69359159 22.32105648 -4.71174006 19.45499833 -4.73071289 16.58862305 C-4.7336469 14.77677541 -4.73563165 12.96492594 -4.73657227 11.15307617 C-4.74375778 10.29158463 -4.7509433 9.43009308 -4.75834656 8.54249573 C-4.72715675 0.45820954 -4.72715675 0.45820954 0 0 Z " fill="#0F0F0F" transform="translate(944.506103515625,374.757080078125)"/>
<path d="M0 0 C3.93900328 1.83419237 7.11015195 3.99892094 10 7.25 C11.45082883 11.23977928 11.67273314 14.80835505 11 19 C8.99858387 22.85987396 6.9055175 25.99446399 3 28 C-1.57324789 29.22783698 -5.51419909 29.66075909 -9.8125 27.4375 C-13.18138919 25.14195457 -15.21665556 22.70935643 -17 19 C-17.67370143 13.69460124 -17.25776456 10.06079721 -14.33203125 5.54296875 C-10.60188723 1.22212744 -5.69710582 -1.04640719 0 0 Z " fill="#090909" transform="translate(1060,262)"/>
<path d="M0 0 C0.87173859 -0.00287018 1.74347717 -0.00574036 2.64163208 -0.00869751 C4.48586679 -0.01073889 6.33012312 -0.00520383 8.17431641 0.00732422 C10.99040522 0.02333851 13.8050504 0.00749834 16.62109375 -0.01171875 C18.41406566 -0.00973557 20.20703667 -0.00589036 22 0 C22.83973358 -0.00607269 23.67946716 -0.01214539 24.54464722 -0.0184021 C29.25294398 0.03790246 32.25183378 0.43097693 36.1328125 3.3984375 C35.24313906 4.48683524 34.34569676 5.56888358 33.4453125 6.6484375 C32.94644531 7.25171875 32.44757812 7.855 31.93359375 8.4765625 C28.77849248 11.84382894 26.50192029 14.16411216 21.83056641 14.96362305 C14.99309541 15.09506111 14.99309541 15.09506111 11.89550781 15.0847168 C9.7688324 15.08593121 7.64905762 15.14569842 5.5234375 15.20898438 C-5.82713032 15.35620987 -5.82713032 15.35620987 -10.40625 11.10546875 C-11.98291016 9.29614258 -11.98291016 9.29614258 -12.8671875 7.3984375 C-12.67445905 4.91579856 -12.13401554 3.72472856 -10.5604248 1.80046082 C-7.58200263 -0.6657129 -3.70187994 -0.0266424 0 0 Z " fill="#020202" transform="translate(919.8671875,262.6015625)"/>
<path d="M0 0 C1.31116539 -0.00430527 1.31116539 -0.00430527 2.64881897 -0.00869751 C4.49724983 -0.01073869 6.34570227 -0.00520506 8.1940918 0.00732422 C11.02116348 0.02335814 13.84680135 0.0074876 16.67382812 -0.01171875 C18.47005524 -0.00973595 20.26628146 -0.00589151 22.0625 0 C22.90739487 -0.00607269 23.75228973 -0.01214539 24.62278748 -0.0184021 C30.51508317 0.05205469 30.51508317 0.05205469 33.66235352 1.92333984 C34.13600342 2.41012207 34.60965332 2.8969043 35.09765625 3.3984375 C32.87882084 8.09402201 30.64801248 11.69286855 26.09765625 14.3984375 C21.47149405 15.30145391 16.97231293 15.40720412 12.28222656 15.31103516 C10.10005672 15.27347881 7.92795481 15.31073027 5.74609375 15.35546875 C-5.82464722 15.39559887 -5.82464722 15.39559887 -10.46484375 11.09375 C-12.03125 9.28955078 -12.03125 9.28955078 -12.90234375 7.3984375 C-12.70790918 4.91761842 -12.16849321 3.72417814 -10.59666443 1.80041504 C-7.61061654 -0.67041125 -3.7107304 -0.02660718 0 0 Z " fill="#020202" transform="translate(991.90234375,262.6015625)"/>
<path d="M0 0 C4.22403212 0.40124657 6.57262235 1.90289894 9.8125 4.5625 C10.60269531 5.20316406 11.39289062 5.84382812 12.20703125 6.50390625 C12.79871094 6.99761719 13.39039063 7.49132812 14 8 C13.27799257 12.82690362 11.74165141 14.80590734 8 18 C7.34 18 6.68 18 6 18 C6.7425 18.7425 7.485 19.485 8.25 20.25 C10.5 22.5 12.75 24.75 15 27 C13.50739978 30.53594598 11.50176201 32.72527089 8.6875 35.3125 C7.92824219 36.03050781 7.16898438 36.74851563 6.38671875 37.48828125 C4 39 4 39 -1 38 C-1.33 34.37 -1.66 30.74 -2 27 C-2.7425 27.66 -3.485 28.32 -4.25 29 C-7 31 -7 31 -11 31 C-10.91433603 28.087425 -10.42089045 26.43201976 -8.375 24.33203125 C-6.61608625 22.83908228 -4.83686981 21.39563738 -3 20 C-3.763125 19.236875 -4.52625 18.47375 -5.3125 17.6875 C-6.199375 16.800625 -7.08625 15.91375 -8 15 C-8.598125 14.484375 -9.19625 13.96875 -9.8125 13.4375 C-11 12 -11 12 -11 8 C-8.75 7.75 -8.75 7.75 -6 8 C-3.6875 10 -3.6875 10 -2 12 C-1.93941406 11.21753906 -1.87882813 10.43507812 -1.81640625 9.62890625 C-1.73261719 8.61699219 -1.64882813 7.60507813 -1.5625 6.5625 C-1.48128906 5.55316406 -1.40007813 4.54382813 -1.31640625 3.50390625 C-1 1 -1 1 0 0 Z " fill="#121212" transform="translate(946,198)"/>
<path d="M0 0 C1.73431274 0.00616333 1.73431274 0.00616333 3.50366211 0.01245117 C4.75598633 0.01438477 6.00831055 0.01631836 7.29858398 0.01831055 C9.26988281 0.03667969 9.26988281 0.03667969 11.28100586 0.05541992 C12.59907227 0.05606445 13.91713867 0.05670898 15.27514648 0.05737305 C25.07841463 0.1028287 25.07841463 0.1028287 26.21850586 1.24291992 C26.34350586 3.74291992 26.34350586 3.74291992 26.21850586 6.24291992 C25.21850586 7.24291992 25.21850586 7.24291992 22.93334961 7.34057617 C21.55856445 7.32317383 21.55856445 7.32317383 20.15600586 7.30541992 C19.2369043 7.29639648 18.31780273 7.28737305 17.37084961 7.27807617 C16.66057617 7.26647461 15.95030273 7.25487305 15.21850586 7.24291992 C15.22636108 8.82544556 15.22636108 8.82544556 15.234375 10.43994141 C15.25242486 14.34048622 15.26393781 18.24102732 15.2734375 22.14160156 C15.27847775 23.83236308 15.28530991 25.52312021 15.29394531 27.21386719 C15.30602443 29.63892699 15.31173709 32.06392936 15.31616211 34.48901367 C15.32132339 35.24943466 15.32648468 36.00985565 15.33180237 36.7933197 C15.33199823 38.61024563 15.28047863 40.4270512 15.21850586 42.24291992 C14.21850586 43.24291992 14.21850586 43.24291992 10.71850586 43.36791992 C7.21850586 43.24291992 7.21850586 43.24291992 6.21850586 42.24291992 C6.12999057 39.6493267 6.10324641 37.08252301 6.12084961 34.48901367 C6.12226456 33.71356705 6.1236795 32.93812042 6.12513733 32.13917542 C6.13075241 29.65288498 6.1433074 27.16668332 6.15600586 24.68041992 C6.16101892 22.99878059 6.16558216 21.31713986 6.16967773 19.63549805 C6.18072673 15.50460426 6.19800141 11.37377716 6.21850586 7.24291992 C2.91850586 7.24291992 -0.38149414 7.24291992 -3.78149414 7.24291992 C-4.40649414 4.86791992 -4.40649414 4.86791992 -4.78149414 2.24291992 C-2.78149414 0.24291992 -2.78149414 0.24291992 0 0 Z " fill="#0F100F" transform="translate(908.781494140625,374.757080078125)"/>
<path d="M0 0 C2.12612014 0.00631329 4.2466398 -0.04058585 6.37207031 -0.09130859 C17.7214469 -0.19257965 17.7214469 -0.19257965 22.23925781 3.67041016 C23.48835938 5.13607422 23.48835938 5.13607422 24.76269531 6.63134766 C18.4820411 14.43972857 18.4820411 14.43972857 13.87109375 14.95361328 C10.75760836 15.02834388 7.64514834 15.0935814 4.53076172 15.11181641 C2.53336664 15.1311476 0.53653961 15.19352758 -1.45996094 15.25634766 C-12.28531435 15.34409115 -12.28531435 15.34409115 -16.65917969 11.60009766 C-17.50996094 10.62041016 -18.36074219 9.64072266 -19.23730469 8.63134766 C-18.91931685 5.66346118 -18.21645602 4.6096265 -16.11376953 2.41894531 C-11.15791248 -0.66090406 -5.66230378 -0.03521009 0 0 Z " fill="#070707" transform="translate(1001.2373046875,302.36865234375)"/>
<path d="M0 0 C5.77756309 3.97114896 5.77756309 3.97114896 6.76049805 8.51757812 C6.79306554 9.85507237 6.791764 11.19369672 6.76171875 12.53125 C6.76508743 13.24478638 6.76845612 13.95832275 6.77192688 14.69348145 C6.77162898 16.1962813 6.75646844 17.69914347 6.72729492 19.20166016 C6.68759679 21.49440979 6.706596 23.78137325 6.73242188 26.07421875 C6.72486204 27.5390848 6.7139078 29.00393809 6.69921875 30.46875 C6.70620285 31.14909302 6.71318695 31.82943604 6.72038269 32.53039551 C6.60420864 36.47150237 6.06195452 37.92764539 3.45629883 40.97070312 C2.64572021 41.64037109 1.8351416 42.31003906 1 43 C-2.62549789 41.7915007 -4.76482725 39.45096597 -6.91088867 36.35180664 C-9.22218202 31.360843 -8.83865994 25.90057363 -8.8125 20.5 C-8.85697266 19.30246094 -8.90144531 18.10492188 -8.94726562 16.87109375 C-8.97108099 8.26898234 -8.97108099 8.26898234 -6.16162109 4.59765625 C-4.18511553 2.8632519 -2.23874222 1.37417052 0 0 Z " fill="#030303" transform="translate(955,311)"/>
<path d="M0 0 C2.4807708 1.27749095 2.82389791 2.34384866 3.828125 4.94140625 C4.24521765 9.07544247 4.24200732 13.20497548 4.25366211 17.35864258 C4.2655716 19.36988762 4.314791 21.37807267 4.36523438 23.38867188 C4.37232422 24.66291016 4.37941406 25.93714844 4.38671875 27.25 C4.40017334 28.41329834 4.41362793 29.57659668 4.42749023 30.77514648 C3.65938431 34.83281072 1.92840438 36.32319468 -1.171875 38.94140625 C-5.34448466 37.33655638 -8.6913344 34.63281814 -11.171875 30.94140625 C-12.12088243 27.32019368 -12.17057039 23.85839065 -12.109375 20.12890625 C-12.10260742 19.14656006 -12.09583984 18.16421387 -12.08886719 17.15209961 C-11.83833259 11.25023445 -11.16683278 7.42427551 -6.921875 3.00390625 C-3.16319223 -0.08533792 -3.16319223 -0.08533792 0 0 Z " fill="#090909" transform="translate(1029.171875,269.05859375)"/>
<path d="M0 0 C3.875 1.75 3.875 1.75 5 4 C5.28208415 8.51227524 5.31366669 13.02819397 5.35009766 17.5480957 C5.36664188 19.05248501 5.39391251 20.5567962 5.43212891 22.06079102 C5.48706208 24.23495041 5.5087937 26.40727022 5.5234375 28.58203125 C5.54325684 29.88374268 5.56307617 31.1854541 5.58349609 32.52661133 C4.86164011 36.82361762 3.30359912 38.27337025 0 41 C-3.95929324 39.3869546 -6.41340534 37.41665259 -9 34 C-9.86014749 29.91362954 -9.90151884 25.91556692 -9.875 21.75 C-9.87564453 20.62150635 -9.87628906 19.4930127 -9.87695312 18.33032227 C-9.67287392 11.74154797 -9.29344347 7.61753392 -4.5 2.9375 C-1.96875 1.08984375 -1.96875 1.08984375 0 0 Z " fill="#020202" transform="translate(956,268)"/>
<path d="M0 0 C2.24628455 1.53670242 4.04056441 3.09352213 6 5 C5.67 6.65 5.34 8.3 5 10 C0.80941905 9.66916466 -2.04009548 8.48436484 -5.625 6.4375 C-11.42629262 3.44974719 -16.57601526 2.90817651 -23 4 C-25.75104094 5.07516343 -28.20849726 6.30149329 -30.74609375 7.80859375 C-33.17144006 9.09062256 -35.30078481 9.58583471 -38 10 C-38.66 8.68 -39.32 7.36 -40 6 C-29.87634665 -6.21820231 -13.49091187 -6.89976375 0 0 Z " fill="#0B0B0B" transform="translate(908,204)"/>
<path d="M0 0 C2.62839628 1.53550801 3.20012934 2.05030179 4.4375 4.9375 C4.3125 7.3125 4.3125 7.3125 2.3125 9.3125 C-0.01017217 8.99213142 -1.81763261 8.25104849 -3.9375 7.25 C-7.58402618 6.00686607 -10.87011279 5.76826964 -14.6875 6.3125 C-16.36779994 7.28941857 -18.03678604 8.28638051 -19.6875 9.3125 C-22.5 9 -22.5 9 -24.6875 8.3125 C-25.1875 6.125 -25.1875 6.125 -24.6875 3.3125 C-18.31295334 -3.46503524 -8.11501036 -3.55486989 0 0 Z " fill="#0D0D0D" transform="translate(901.6875,213.6875)"/>
<path d="M0 0 C8.23602484 -0.48447205 8.23602484 -0.48447205 11.5625 1.625 C13.42583125 4.70354728 13.5170119 6.45477556 13 10 C11.796875 12.171875 11.796875 12.171875 10 14 C6.59576078 14.53610066 3.46656123 14.1800811 0 14 C0 9.38 0 4.76 0 0 Z " fill="#F7F7F7" transform="translate(1026,382)"/>
<path d="M0 0 C0.87454834 0.00523682 1.74909668 0.01047363 2.65014648 0.01586914 C3.59438477 0.0190918 4.53862305 0.02231445 5.51147461 0.02563477 C6.50469727 0.03401367 7.49791992 0.04239258 8.52124023 0.05102539 C9.51833008 0.05553711 10.51541992 0.06004883 11.54272461 0.06469727 C14.01478872 0.07652532 16.48673541 0.0930069 18.95874023 0.11352539 C19.52124023 2.05102539 19.52124023 2.05102539 19.95874023 4.11352539 C18.95874023 5.11352539 18.95874023 5.11352539 16.91748047 5.22705078 C16.04293213 5.22181396 15.16838379 5.21657715 14.26733398 5.21118164 C13.3230957 5.20795898 12.37885742 5.20473633 11.40600586 5.20141602 C10.4127832 5.19303711 9.41956055 5.1846582 8.39624023 5.17602539 C7.39915039 5.17151367 6.40206055 5.16700195 5.37475586 5.16235352 C2.90269175 5.15052546 0.43074506 5.13404388 -2.04125977 5.11352539 C-2.60375977 3.17602539 -2.60375977 3.17602539 -3.04125977 1.11352539 C-2.04125977 0.11352539 -2.04125977 0.11352539 0 0 Z " fill="#E5E6E6" transform="translate(997.041259765625,214.886474609375)"/>
<path d="M0 0 C1.32 0 2.64 0 4 0 C4 3.96 4 7.92 4 12 C6.97 12 9.94 12 13 12 C13 13.32 13 14.64 13 16 C11.02090602 16.02686553 9.04171029 16.04633375 7.0625 16.0625 C5.96035156 16.07410156 4.85820313 16.08570313 3.72265625 16.09765625 C1 16 1 16 0 15 C-0.07313567 12.46950598 -0.09247527 9.96695163 -0.0625 7.4375 C-0.05798828 6.72658203 -0.05347656 6.01566406 -0.04882812 5.28320312 C-0.03700864 3.52209987 -0.01907263 1.76103964 0 0 Z " fill="#EAEBEB" transform="translate(1060,204)"/>
<path d="M0 0 C1.8125 1.1875 1.8125 1.1875 3 3 C3.42674516 5.84496772 3.36066991 7.36352369 1.9375 9.875 C-1.14201133 11.66310335 -3.64333273 10.74592606 -7 10 C-8 9 -8 9 -8.25 6.125 C-8 3 -8 3 -6.8125 1.125 C-4.34492892 -0.40659584 -2.85480169 -0.42822025 0 0 Z " fill="#EFF0EF" transform="translate(1060,271)"/>
<path d="M0 0 C3.0625 0.3125 3.0625 0.3125 5 1.4375 C6.0625 3.3125 6.0625 3.3125 5.9375 6.375 C5.0625 9.3125 5.0625 9.3125 2.0625 11.3125 C-1.25990324 10.9883631 -2.54526303 10.70473697 -4.9375 8.3125 C-5.1875 5.3125 -5.1875 5.3125 -4.9375 2.3125 C-2.9375 0.3125 -2.9375 0.3125 0 0 Z " fill="#101110" transform="translate(890.9375,223.6875)"/>
</svg>
